MFile 1 25 480
MTrk
TimestampType=Delta
0 SeqSpec 00 00 41
0 Meta Text "gmstri00.mid"
0 SMPTE 96 0 0 0 0
0 TimeSig 4/4 24 8
0 Tempo 458015
19540 TimeSig 6/4 24 8
2880 TimeSig 4/4 24 8
3840 TimeSig 6/4 24 8
2880 TimeSig 4/4 24 8
23040 TimeSig 6/4 24 8
2880 TimeSig 4/4 24 8
3840 TimeSig 6/4 24 8
2880 TimeSig 4/4 24 8
59520 TimeSig 6/4 24 8
2880 TimeSig 4/4 24 8
3840 TimeSig 6/4 24 8
2880 TimeSig 4/4 24 8
3840 TimeSig 6/4 24 8
2880 TimeSig 4/4 24 8
15360 TimeSig 6/4 24 8
2880 TimeSig 4/4 24 8
3840 TimeSig 6/4 24 8
2880 TimeSig 4/4 24 8
0 Meta TrkEnd
TrkEnd
MTrk
TimestampType=Delta
0 Meta Text "PIANO"
0 Par ch=1 c=64 v=0
0 Par ch=1 c=7 v=127
0 Par ch=1 c=10 v=64
0 Par ch=1 c=91 v=80
0 Par ch=1 c=93 v=0
0 PrCh ch=1 p=1
0 Pb ch=1 v=8192
100 On ch=1 n=41 v=127
81 Off ch=1 n=41 v=64
39 On ch=1 n=41 v=127
120 On ch=1 n=29 v=127
3803 Par ch=1 c=64 v=127
13 Off ch=1 n=41 v=64
9 Off ch=1 n=29 v=64
15 On ch=1 n=65 v=127
0 On ch=1 n=57 v=124
0 On ch=1 n=53 v=127
0 On ch=1 n=60 v=127
0 On ch=1 n=41 v=127
75 Off ch=1 n=60 v=64
16 Off ch=1 n=53 v=64
8 Off ch=1 n=57 v=64
23 Off ch=1 n=65 v=64
14 Off ch=1 n=41 v=64
104 On ch=1 n=53 v=116
62 Off ch=1 n=53 v=64
58 On ch=1 n=53 v=110
67 Off ch=1 n=53 v=64
53 On ch=1 n=53 v=109
59 Off ch=1 n=53 v=64
61 On ch=1 n=53 v=110
64 Off ch=1 n=53 v=64
56 On ch=1 n=53 v=121
59 Off ch=1 n=53 v=64
61 On ch=1 n=53 v=127
72 Off ch=1 n=53 v=64
168 On ch=1 n=53 v=116
65 Off ch=1 n=53 v=64
55 On ch=1 n=53 v=127
70 Off ch=1 n=53 v=64
50 On ch=1 n=53 v=116
70 Off ch=1 n=53 v=64
50 On ch=1 n=55 v=127
0 On ch=1 n=60 v=127
0 On ch=1 n=64 v=127
79 Off ch=1 n=55 v=64
35 Off ch=1 n=60 v=64
32 Off ch=1 n=64 v=64
94 On ch=1 n=53 v=127
85 Off ch=1 n=53 v=64
155 On ch=1 n=58 v=127
0 On ch=1 n=41 v=127
0 On ch=1 n=53 v=112
0 On ch=1 n=62 v=116
7 Par ch=1 c=64 v=0
115 Par ch=1 c=64 v=127
24 Off ch=1 n=53 v=64
69 Off ch=1 n=62 v=64
1 Off ch=1 n=58 v=64
15 Off ch=1 n=41 v=64
9 On ch=1 n=53 v=116
79 Off ch=1 n=53 v=64
41 On ch=1 n=53 v=127
67 Off ch=1 n=53 v=64
53 On ch=1 n=53 v=112
76 Off ch=1 n=53 v=64
44 On ch=1 n=53 v=124
74 Off ch=1 n=53 v=64
46 On ch=1 n=53 v=112
75 Off ch=1 n=53 v=64
45 On ch=1 n=53 v=116
74 Off ch=1 n=53 v=64
166 On ch=1 n=53 v=121
60 Off ch=1 n=53 v=64
60 On ch=1 n=53 v=127
80 Off ch=1 n=53 v=64
40 On ch=1 n=53 v=116
62 Off ch=1 n=53 v=64
58 On ch=1 n=55 v=127
0 On ch=1 n=64 v=127
0 On ch=1 n=60 v=127
84 Off ch=1 n=55 v=64
31 Off ch=1 n=60 v=64
49 Off ch=1 n=64 v=64
76 On ch=1 n=53 v=127
84 Off ch=1 n=53 v=64
156 On ch=1 n=65 v=127
0 On ch=1 n=60 v=127
0 On ch=1 n=53 v=115
0 On ch=1 n=57 v=109
0 On ch=1 n=41 v=127
24 Par ch=1 c=64 v=0
119 Par ch=1 c=64 v=127
33 Off ch=1 n=53 v=64
52 Off ch=1 n=41 v=64
0 Off ch=1 n=60 v=64
12 On ch=1 n=53 v=121
6 Off ch=1 n=57 v=64
4 Off ch=1 n=65 v=64
59 Off ch=1 n=53 v=64
51 On ch=1 n=53 v=127
72 Off ch=1 n=53 v=64
48 On ch=1 n=53 v=124
72 Off ch=1 n=53 v=64
48 On ch=1 n=53 v=112
64 Off ch=1 n=53 v=64
56 On ch=1 n=53 v=121
62 Off ch=1 n=53 v=64
58 On ch=1 n=53 v=127
84 Off ch=1 n=53 v=64
156 On ch=1 n=53 v=127
70 Off ch=1 n=53 v=64
50 On ch=1 n=53 v=127
72 Off ch=1 n=53 v=64
48 On ch=1 n=53 v=116
69 Off ch=1 n=53 v=64
51 On ch=1 n=55 v=121
0 On ch=1 n=64 v=127
0 On ch=1 n=60 v=127
144 Off ch=1 n=55 v=64
12 Off ch=1 n=60 v=64
28 Off ch=1 n=64 v=64
56 On ch=1 n=53 v=127
79 Off ch=1 n=53 v=64
161 On ch=1 n=58 v=127
0 On ch=1 n=62 v=127
0 On ch=1 n=53 v=116
0 On ch=1 n=41 v=127
19 Par ch=1 c=64 v=0
109 Par ch=1 c=64 v=127
26 Off ch=1 n=53 v=64
74 Off ch=1 n=58 v=64
3 Off ch=1 n=41 v=64
4 Off ch=1 n=62 v=64
5 On ch=1 n=53 v=104
70 Off ch=1 n=53 v=64
50 On ch=1 n=53 v=116
76 Off ch=1 n=53 v=64
44 On ch=1 n=53 v=101
74 Off ch=1 n=53 v=64
46 On ch=1 n=53 v=121
74 Off ch=1 n=53 v=64
46 On ch=1 n=53 v=112
75 Off ch=1 n=53 v=64
45 On ch=1 n=53 v=121
85 Off ch=1 n=53 v=64
155 On ch=1 n=53 v=116
62 Off ch=1 n=53 v=64
58 On ch=1 n=53 v=127
86 Off ch=1 n=53 v=64
154 On ch=1 n=53 v=127
70 Off ch=1 n=53 v=64
410 On ch=1 n=65 v=127
0 On ch=1 n=57 v=127
0 On ch=1 n=60 v=127
0 On ch=1 n=53 v=104
0 On ch=1 n=41 v=121
36 Par ch=1 c=64 v=0
100 Off ch=1 n=53 v=64
19 Par ch=1 c=64 v=127
68 Off ch=1 n=60 v=64
6 Off ch=1 n=41 v=64
9 Off ch=1 n=65 v=64
2 On ch=1 n=53 v=127
11 Off ch=1 n=57 v=64
61 Off ch=1 n=53 v=64
48 On ch=1 n=53 v=127
67 Off ch=1 n=53 v=64
53 On ch=1 n=53 v=112
74 Off ch=1 n=53 v=64
46 On ch=1 n=53 v=112
64 Off ch=1 n=53 v=64
56 On ch=1 n=53 v=112
47 Off ch=1 n=53 v=64
73 On ch=1 n=53 v=112
77 Off ch=1 n=53 v=64
163 On ch=1 n=53 v=116
57 Off ch=1 n=53 v=64
63 On ch=1 n=53 v=127
72 Off ch=1 n=53 v=64
48 On ch=1 n=53 v=98
67 Off ch=1 n=53 v=64
53 On ch=1 n=55 v=121
0 On ch=1 n=64 v=121
0 On ch=1 n=60 v=127
92 Off ch=1 n=60 v=64
5 Off ch=1 n=55 v=64
55 Off ch=1 n=64 v=64
88 On ch=1 n=53 v=127
69 Off ch=1 n=53 v=64
171 On ch=1 n=41 v=127
0 On ch=1 n=58 v=127
0 On ch=1 n=62 v=127
0 On ch=1 n=53 v=110
35 Par ch=1 c=64 v=0
97 Off ch=1 n=53 v=64
22 Par ch=1 c=64 v=127
50 Off ch=1 n=62 v=64
4 Off ch=1 n=58 v=64
23 Off ch=1 n=41 v=64
9 On ch=1 n=53 v=116
74 Off ch=1 n=53 v=64
46 On ch=1 n=53 v=112
67 Off ch=1 n=53 v=64
53 On ch=1 n=53 v=110
77 Off ch=1 n=53 v=64
43 On ch=1 n=53 v=110
70 Off ch=1 n=53 v=64
50 On ch=1 n=53 v=124
59 Off ch=1 n=53 v=64
61 On ch=1 n=53 v=127
84 Off ch=1 n=53 v=64
156 On ch=1 n=53 v=121
62 Off ch=1 n=53 v=64
58 On ch=1 n=53 v=127
69 Off ch=1 n=53 v=64
51 On ch=1 n=53 v=106
70 Off ch=1 n=53 v=64
50 On ch=1 n=55 v=127
0 On ch=1 n=64 v=127
0 On ch=1 n=60 v=127
188 Off ch=1 n=55 v=64
3 Off ch=1 n=60 v=64
12 Off ch=1 n=64 v=64
37 On ch=1 n=53 v=127
94 Off ch=1 n=53 v=64
146 On ch=1 n=65 v=127
0 On ch=1 n=53 v=115
0 On ch=1 n=60 v=127
0 On ch=1 n=57 v=127
0 On ch=1 n=41 v=127
15 Par ch=1 c=64 v=0
102 Par ch=1 c=64 v=127
24 Off ch=1 n=53 v=64
79 Off ch=1 n=60 v=64
3 Off ch=1 n=41 v=64
5 Off ch=1 n=57 v=64
8 Off ch=1 n=65 v=64
4 On ch=1 n=53 v=127
81 Off ch=1 n=53 v=64
39 On ch=1 n=53 v=121
74 Off ch=1 n=53 v=64
46 On ch=1 n=53 v=127
67 Off ch=1 n=53 v=64
53 On ch=1 n=53 v=116
74 Off ch=1 n=53 v=64
46 On ch=1 n=53 v=116
55 Off ch=1 n=53 v=64
65 On ch=1 n=53 v=116
87 Off ch=1 n=53 v=64
153 On ch=1 n=53 v=124
70 Off ch=1 n=53 v=64
50 On ch=1 n=53 v=127
69 Off ch=1 n=53 v=64
51 On ch=1 n=53 v=127
71 Off ch=1 n=53 v=64
49 On ch=1 n=64 v=127
0 On ch=1 n=55 v=127
0 On ch=1 n=60 v=127
106 Off ch=1 n=55 v=64
25 Off ch=1 n=60 v=64
40 Off ch=1 n=64 v=64
69 On ch=1 n=53 v=127
87 Off ch=1 n=53 v=64
153 Par ch=1 c=64 v=0
0 On ch=1 n=58 v=127
0 On ch=1 n=53 v=116
0 On ch=1 n=41 v=127
0 On ch=1 n=62 v=127
0 On ch=1 n=55 v=70
22 Off ch=1 n=55 v=64
84 Par ch=1 c=64 v=127
47 Off ch=1 n=53 v=64
58 Off ch=1 n=62 v=64
2 Off ch=1 n=58 v=64
25 Off ch=1 n=41 v=64
2 On ch=1 n=53 v=110
67 Off ch=1 n=53 v=64
53 On ch=1 n=53 v=116
67 Off ch=1 n=53 v=64
53 On ch=1 n=53 v=116
62 Off ch=1 n=53 v=64
58 On ch=1 n=53 v=121
62 Off ch=1 n=53 v=64
58 On ch=1 n=53 v=127
55 Off ch=1 n=53 v=64
65 On ch=1 n=53 v=127
72 Off ch=1 n=53 v=64
781 On ch=1 n=60 v=127
60 Off ch=1 n=60 v=64
57 On ch=1 n=60 v=127
129 On ch=1 n=69 v=127
2 On ch=1 n=41 v=110
58 Par ch=1 c=64 v=0
186 Par ch=1 c=64 v=127
24 On ch=1 n=48 v=97
38 Off ch=1 n=69 v=64
59 On ch=1 n=70 v=127
149 Off ch=1 n=48 v=64
0 On ch=1 n=53 v=83
32 Off ch=1 n=41 v=64
47 Off ch=1 n=70 v=64
60 Off ch=1 n=53 v=64
25 On ch=1 n=72 v=127
133 Off ch=1 n=60 v=64
25 Off ch=1 n=72 v=64
112 On ch=1 n=57 v=89
5 On ch=1 n=45 v=92
10 On ch=1 n=72 v=124
2 On ch=1 n=65 v=127
0 On ch=1 n=60 v=115
25 Par ch=1 c=64 v=0
164 Par ch=1 c=64 v=127
106 Off ch=1 n=72 v=64
67 On ch=1 n=70 v=127
20 Par ch=1 c=64 v=0
174 Par ch=1 c=64 v=127
67 Off ch=1 n=70 v=64
52 On ch=1 n=69 v=127
2 Off ch=1 n=45 v=64
30 Off ch=1 n=57 v=64
141 Off ch=1 n=60 v=64
10 Off ch=1 n=65 v=64
25 Off ch=1 n=69 v=64
72 On ch=1 n=62 v=121
0 On ch=1 n=46 v=104
0 On ch=1 n=58 v=110
2 On ch=1 n=65 v=121
25 Par ch=1 c=64 v=0
328 On ch=1 n=67 v=124
186 Par ch=1 c=64 v=127
126 On ch=1 n=69 v=127
55 Off ch=1 n=67 v=64
10 Off ch=1 n=65 v=64
22 Off ch=1 n=46 v=64
0 Off ch=1 n=58 v=64
107 Off ch=1 n=62 v=64
7 Off ch=1 n=69 v=64
84 On ch=1 n=69 v=121
3 On ch=1 n=50 v=112
0 On ch=1 n=62 v=106
5 On ch=1 n=57 v=91
2 On ch=1 n=65 v=124
10 Par ch=1 c=64 v=0
387 Par ch=1 c=64 v=127
69 Off ch=1 n=50 v=64
97 Off ch=1 n=65 v=64
5 Off ch=1 n=69 v=64
8 Off ch=1 n=62 v=64
7 Off ch=1 n=57 v=64
97 On ch=1 n=48 v=126
0 On ch=1 n=60 v=109
2 On ch=1 n=67 v=127
0 On ch=1 n=64 v=116
3 On ch=1 n=55 v=102
153 Par ch=1 c=64 v=0
30 Off ch=1 n=55 v=64
3 Off ch=1 n=48 v=64
20 Off ch=1 n=64 v=64
22 Off ch=1 n=60 v=64
10 On ch=1 n=55 v=121
2 On ch=1 n=48 v=102
15 On ch=1 n=60 v=107
3 On ch=1 n=64 v=127
404 Par ch=1 c=64 v=127
0 Par ch=1 c=64 v=0
2 Par ch=1 c=64 v=127
10 Off ch=1 n=64 v=64
20 Off ch=1 n=60 v=64
60 Off ch=1 n=55 v=64
34 Off ch=1 n=48 v=64
182 On ch=1 n=58 v=104
0 On ch=1 n=53 v=88
1 On ch=1 n=62 v=92
103 Off ch=1 n=53 v=64
18 On ch=1 n=48 v=115
2 Off ch=1 n=58 v=64
11 Off ch=1 n=62 v=64
75 Par ch=1 c=64 v=0
28 On ch=1 n=58 v=97
0 On ch=1 n=62 v=106
1 On ch=1 n=53 v=83
64 Off ch=1 n=53 v=64
34 Off ch=1 n=58 v=64
23 On ch=1 n=55 v=115
0 On ch=1 n=64 v=109
0 On ch=1 n=60 v=109
64 Off ch=1 n=62 v=64
58 On ch=1 n=48 v=121
3 Par ch=1 c=64 v=127
19 Off ch=1 n=60 v=64
4 Off ch=1 n=55 v=64
25 Par ch=1 c=64 v=0
3 Off ch=1 n=64 v=64
63 On ch=1 n=64 v=116
1 On ch=1 n=60 v=106
0 On ch=1 n=55 v=109
104 Par ch=1 c=64 v=127
18 Off ch=1 n=48 v=64
149 Off ch=1 n=55 v=64
4 Off ch=1 n=60 v=64
81 Off ch=1 n=64 v=64
5 On ch=1 n=62 v=101
0 On ch=1 n=58 v=82
1 On ch=1 n=53 v=82
6 Off ch=1 n=48 v=64
101 Off ch=1 n=53 v=64
10 On ch=1 n=48 v=112
1 Off ch=1 n=58 v=64
5 Off ch=1 n=62 v=64
28 Par ch=1 c=64 v=0
85 On ch=1 n=58 v=106
1 On ch=1 n=62 v=109
1 On ch=1 n=53 v=80
60 Off ch=1 n=53 v=64
4 Par ch=1 c=64 v=127
28 Off ch=1 n=58 v=64
27 On ch=1 n=55 v=106
0 On ch=1 n=64 v=112
1 On ch=1 n=60 v=106
60 Off ch=1 n=62 v=64
29 Off ch=1 n=48 v=64
20 Off ch=1 n=55 v=64
5 Off ch=1 n=60 v=64
5 On ch=1 n=48 v=80
24 Off ch=1 n=64 v=64
39 Par ch=1 c=64 v=0
56 On ch=1 n=64 v=112
1 On ch=1 n=60 v=119
0 On ch=1 n=55 v=127
61 Off ch=1 n=48 v=64
6 On ch=1 n=48 v=116
28 Par ch=1 c=64 v=127
130 Off ch=1 n=60 v=64
18 Off ch=1 n=55 v=64
5 Off ch=1 n=48 v=64
49 Off ch=1 n=64 v=64
18 Off ch=1 n=67 v=64
48 On ch=1 n=60 v=127
70 Off ch=1 n=60 v=64
50 On ch=1 n=60 v=127
93 On ch=1 n=41 v=112
5 On ch=1 n=69 v=127
57 Par ch=1 c=64 v=0
176 Par ch=1 c=64 v=127
2 On ch=1 n=48 v=88
77 Off ch=1 n=69 v=64
47 On ch=1 n=70 v=127
40 Par ch=1 c=64 v=0
82 On ch=1 n=53 v=91
49 Par ch=1 c=64 v=127
13 Off ch=1 n=48 v=64
22 Off ch=1 n=41 v=64
82 On ch=1 n=72 v=127
25 Off ch=1 n=53 v=64
29 Off ch=1 n=70 v=64
64 Off ch=1 n=60 v=64
122 Off ch=1 n=72 v=64
77 On ch=1 n=45 v=110
0 On ch=1 n=57 v=92
13 On ch=1 n=65 v=124
5 Par ch=1 c=64 v=0
0 On ch=1 n=72 v=127
156 Par ch=1 c=64 v=127
114 Off ch=1 n=72 v=64
72 Off ch=1 n=57 v=64
10 On ch=1 n=76 v=127
126 On ch=1 n=57 v=91
70 Off ch=1 n=76 v=64
17 Off ch=1 n=45 v=64
45 Off ch=1 n=57 v=64
30 On ch=1 n=77 v=127
101 Off ch=1 n=65 v=64
112 Off ch=1 n=77 v=64
102 On ch=1 n=46 v=100
4 On ch=1 n=70 v=127
3 On ch=1 n=69 v=109
0 On ch=1 n=77 v=127
2 On ch=1 n=58 v=106
13 Par ch=1 c=64 v=0
131 Par ch=1 c=64 v=127
75 Off ch=1 n=77 v=64
84 Off ch=1 n=58 v=64
2 Off ch=1 n=70 v=64
55 On ch=1 n=79 v=127
136 On ch=1 n=58 v=44
15 Off ch=1 n=79 v=64
23 Off ch=1 n=46 v=64
49 Off ch=1 n=58 v=64
75 On ch=1 n=81 v=127
215 Off ch=1 n=81 v=64
18 Off ch=1 n=69 v=64
68 On ch=1 n=50 v=88
1 On ch=1 n=57 v=89
0 On ch=1 n=65 v=76
1 On ch=1 n=81 v=127
0 On ch=1 n=69 v=124
0 On ch=1 n=74 v=121
1 On ch=1 n=64 v=48
20 Off ch=1 n=64 v=64
55 Par ch=1 c=64 v=0
352 Off ch=1 n=57 v=64
15 Off ch=1 n=65 v=64
8 Par ch=1 c=64 v=127
13 Off ch=1 n=50 v=64
86 Off ch=1 n=81 v=64
13 Off ch=1 n=69 v=64
3 Off ch=1 n=74 v=64
128 On ch=1 n=55 v=59
12 On ch=1 n=48 v=88
0 On ch=1 n=64 v=92
2 On ch=1 n=79 v=124
3 On ch=1 n=74 v=116
2 On ch=1 n=67 v=127
105 Par ch=1 c=64 v=0
59 Off ch=1 n=48 v=64
5 Off ch=1 n=64 v=64
12 Off ch=1 n=55 v=64
30 Off ch=1 n=74 v=64
5 Off ch=1 n=79 v=64
3 Off ch=1 n=67 v=64
29 On ch=1 n=64 v=71
3 On ch=1 n=55 v=101
5 On ch=1 n=48 v=91
7 On ch=1 n=79 v=112
3 On ch=1 n=74 v=121
5 On ch=1 n=67 v=115
431 Par ch=1 c=64 v=127
132 Off ch=1 n=64 v=64
32 Off ch=1 n=48 v=64
2 Off ch=1 n=55 v=64
25 Off ch=1 n=74 v=64
15 Off ch=1 n=67 v=64
8 Off ch=1 n=79 v=64
305 On ch=1 n=55 v=121
77 On ch=1 n=60 v=112
19 Off ch=1 n=55 v=64
69 On ch=1 n=62 v=106
25 Off ch=1 n=60 v=64
45 On ch=1 n=67 v=98
10 Off ch=1 n=62 v=64
51 Off ch=1 n=67 v=64
47 On ch=1 n=67 v=110
92 Off ch=1 n=67 v=64
10 On ch=1 n=72 v=98
74 On ch=1 n=74 v=98
12 Off ch=1 n=72 v=64
63 On ch=1 n=79 v=92
11 Off ch=1 n=74 v=64
57 Off ch=1 n=79 v=64
47 On ch=1 n=79 v=112
82 Off ch=1 n=79 v=64
2 On ch=1 n=84 v=110
77 Off ch=1 n=84 v=64
4 On ch=1 n=86 v=104
58 Off ch=1 n=86 v=64
0 On ch=1 n=91 v=127
47 Off ch=1 n=91 v=64
439 On ch=1 n=67 v=127
179 Off ch=1 n=67 v=64
59 On ch=1 n=69 v=127
109 Off ch=1 n=69 v=64
122 On ch=1 n=62 v=119
2 On ch=1 n=43 v=109
18 On ch=1 n=70 v=127
17 Par ch=1 c=64 v=0
169 Par ch=1 c=64 v=127
126 Off ch=1 n=70 v=64
52 On ch=1 n=74 v=124
60 On ch=1 n=55 v=71
255 Off ch=1 n=43 v=64
10 On ch=1 n=72 v=127
32 Off ch=1 n=74 v=64
23 Off ch=1 n=55 v=64
89 Off ch=1 n=62 v=64
42 Off ch=1 n=72 v=64
97 On ch=1 n=45 v=92
2 On ch=1 n=57 v=88
8 On ch=1 n=60 v=109
2 On ch=1 n=65 v=121
23 Par ch=1 c=64 v=0
181 Par ch=1 c=64 v=127
52 Par ch=1 c=64 v=0
94 On ch=1 n=67 v=124
181 Par ch=1 c=64 v=127
122 Off ch=1 n=45 v=64
0 On ch=1 n=69 v=127
27 Off ch=1 n=57 v=64
30 Off ch=1 n=65 v=64
2 Off ch=1 n=67 v=64
104 Off ch=1 n=60 v=64
23 Off ch=1 n=69 v=64
94 On ch=1 n=46 v=98
7 On ch=1 n=69 v=115
5 Par ch=1 c=64 v=0
5 On ch=1 n=62 v=110
0 On ch=1 n=58 v=56
3 On ch=1 n=65 v=110
342 Par ch=1 c=64 v=127
89 On ch=1 n=72 v=116
10 Off ch=1 n=46 v=64
15 Off ch=1 n=69 v=64
17 Off ch=1 n=65 v=64
0 Off ch=1 n=58 v=64
219 On ch=1 n=48 v=91
2 On ch=1 n=67 v=106
7 On ch=1 n=64 v=100
3 On ch=1 n=60 v=89
5 Off ch=1 n=72 v=64
17 Par ch=1 c=64 v=0
206 Par ch=1 c=64 v=127
92 Off ch=1 n=64 v=64
17 Off ch=1 n=62 v=64
10 Off ch=1 n=67 v=64
278 Off ch=1 n=60 v=64
32 Off ch=1 n=48 v=64
50 On ch=1 n=74 v=127
109 Off ch=1 n=74 v=64
129 On ch=1 n=76 v=127
94 Off ch=1 n=76 v=64
134 On ch=1 n=76 v=110
5 On ch=1 n=43 v=92
7 On ch=1 n=69 v=110
28 Par ch=1 c=64 v=0
24 On ch=1 n=77 v=116
38 Off ch=1 n=76 v=64
94 Par ch=1 c=64 v=127
7 On ch=1 n=50 v=92
65 Off ch=1 n=77 v=64
7 Off ch=1 n=69 v=64
94 On ch=1 n=76 v=115
3 On ch=1 n=67 v=109
79 On ch=1 n=58 v=66
62 Off ch=1 n=76 v=64
5 Off ch=1 n=67 v=64
99 Off ch=1 n=43 v=64
10 Off ch=1 n=58 v=64
10 Off ch=1 n=50 v=64
28 On ch=1 n=74 v=127
2 On ch=1 n=65 v=104
104 Off ch=1 n=74 v=64
5 Off ch=1 n=65 v=64
176 On ch=1 n=45 v=97
8 On ch=1 n=57 v=88
5 On ch=1 n=72 v=127
2 On ch=1 n=65 v=127
3 Par ch=1 c=64 v=0
139 Par ch=1 c=64 v=127
220 On ch=1 n=70 v=112
13 On ch=1 n=60 v=110
19 Off ch=1 n=72 v=64
5 Off ch=1 n=57 v=64
142 On ch=1 n=57 v=38
62 Off ch=1 n=70 v=64
0 Off ch=1 n=45 v=64
7 Off ch=1 n=65 v=64
5 Off ch=1 n=57 v=64
18 Off ch=1 n=60 v=64
42 On ch=1 n=69 v=121
168 Off ch=1 n=69 v=64
134 On ch=1 n=46 v=97
3 On ch=1 n=62 v=104
0 On ch=1 n=69 v=127
2 On ch=1 n=65 v=127
0 On ch=1 n=58 v=59
8 Par ch=1 c=64 v=0
119 Par ch=1 c=64 v=127
297 Off ch=1 n=46 v=64
25 Off ch=1 n=65 v=64
3 On ch=1 n=72 v=110
10 Off ch=1 n=69 v=64
4 Off ch=1 n=58 v=64
43 Off ch=1 n=62 v=64
151 Off ch=1 n=72 v=64
45 On ch=1 n=48 v=88
9 On ch=1 n=60 v=88
3 On ch=1 n=67 v=106
0 On ch=1 n=62 v=92
2 On ch=1 n=64 v=110
45 Par ch=1 c=64 v=0
174 Par ch=1 c=64 v=127
106 Off ch=1 n=64 v=64
13 Off ch=1 n=62 v=64
5 Off ch=1 n=67 v=64
139 Off ch=1 n=60 v=64
84 Off ch=1 n=48 v=64
156 On ch=1 n=72 v=127
109 Off ch=1 n=72 v=64
119 On ch=1 n=74 v=127
90 Off ch=1 n=74 v=64
141 On ch=1 n=44 v=92
7 On ch=1 n=67 v=106
10 On ch=1 n=75 v=127
25 Par ch=1 c=64 v=0
132 Par ch=1 c=64 v=127
27 On ch=1 n=51 v=70
67 Off ch=1 n=75 v=64
2 Off ch=1 n=67 v=64
97 On ch=1 n=65 v=115
0 On ch=1 n=74 v=121
121 On ch=1 n=56 v=74
15 Off ch=1 n=74 v=64
40 Off ch=1 n=65 v=64
171 On ch=1 n=72 v=127
0 On ch=1 n=63 v=121
67 Off ch=1 n=56 v=64
62 Off ch=1 n=63 v=64
15 Off ch=1 n=72 v=64
131 On ch=1 n=56 v=89
15 On ch=1 n=63 v=127
3 On ch=1 n=72 v=127
25 Par ch=1 c=64 v=0
114 Par ch=1 c=64 v=127
144 Off ch=1 n=72 v=64
32 Off ch=1 n=56 v=64
20 On ch=1 n=70 v=109
5 On ch=1 n=60 v=127
124 On ch=1 n=56 v=70
27 Off ch=1 n=63 v=64
5 Off ch=1 n=60 v=64
25 Off ch=1 n=70 v=64
29 Off ch=1 n=44 v=64
10 Off ch=1 n=51 v=64
52 Off ch=1 n=56 v=64
40 On ch=1 n=68 v=121
7 On ch=1 n=60 v=98
105 Off ch=1 n=60 v=64
2 Off ch=1 n=68 v=64
161 On ch=1 n=58 v=92
5 On ch=1 n=48 v=106
0 On ch=1 n=65 v=127
3 Par ch=1 c=64 v=0
0 On ch=1 n=72 v=116
0 On ch=1 n=60 v=110
471 Par ch=1 c=64 v=127
241 Off ch=1 n=58 v=64
32 Off ch=1 n=65 v=64
10 Off ch=1 n=60 v=64
173 Par ch=1 c=64 v=0
8 On ch=1 n=55 v=109
0 On ch=1 n=67 v=115
2 On ch=1 n=64 v=104
0 On ch=1 n=60 v=109
122 Par ch=1 c=64 v=127
136 Off ch=1 n=72 v=64
0 Off ch=1 n=67 v=64
13 Off ch=1 n=64 v=64
57 Off ch=1 n=60 v=64
2 Off ch=1 n=55 v=64
77 Off ch=1 n=48 v=64
302 On ch=1 n=57 v=35
10 On ch=1 n=44 v=65
40 On ch=1 n=60 v=97
12 Off ch=1 n=57 v=64
3 Off ch=1 n=44 v=64
12 On ch=1 n=43 v=97
10 On ch=1 n=45 v=80
28 On ch=1 n=49 v=92
37 On ch=1 n=62 v=110
5 Off ch=1 n=43 v=64
0 On ch=1 n=48 v=127
32 Off ch=1 n=49 v=64
0 Off ch=1 n=45 v=64
10 Off ch=1 n=60 v=64
49 Par ch=1 c=64 v=0
0 On ch=1 n=53 v=100
3 On ch=1 n=41 v=127
12 On ch=1 n=60 v=127
3 On ch=1 n=57 v=116
7 On ch=1 n=65 v=127
5 On ch=1 n=64 v=58
10 Off ch=1 n=48 v=64
13 Off ch=1 n=62 v=64
7 Off ch=1 n=64 v=64
124 Off ch=1 n=57 v=64
25 Par ch=1 c=64 v=127
25 Off ch=1 n=60 v=64
5 Off ch=1 n=53 v=64
59 On ch=1 n=53 v=106
57 Off ch=1 n=53 v=64
42 Off ch=1 n=41 v=64
10 On ch=1 n=53 v=76
57 Off ch=1 n=53 v=64
30 On ch=1 n=53 v=112
79 Off ch=1 n=53 v=64
55 On ch=1 n=53 v=116
64 Off ch=1 n=53 v=64
40 On ch=1 n=53 v=112
65 Off ch=1 n=53 v=64
64 On ch=1 n=53 v=112
79 Off ch=1 n=53 v=64
149 On ch=1 n=53 v=112
77 Off ch=1 n=53 v=64
32 On ch=1 n=53 v=110
90 Off ch=1 n=53 v=64
27 On ch=1 n=53 v=112
22 Off ch=1 n=65 v=64
50 Off ch=1 n=53 v=64
42 On ch=1 n=65 v=116
10 On ch=1 n=55 v=127
2 On ch=1 n=60 v=127
3 On ch=1 n=64 v=127
223 On ch=1 n=53 v=97
3 Off ch=1 n=60 v=64
9 Off ch=1 n=64 v=64
5 Off ch=1 n=55 v=64
72 Off ch=1 n=53 v=64
166 On ch=1 n=58 v=116
3 On ch=1 n=62 v=116
0 On ch=1 n=53 v=115
12 On ch=1 n=41 v=109
3 Par ch=1 c=64 v=0
94 Par ch=1 c=64 v=127
62 Off ch=1 n=53 v=64
37 Off ch=1 n=58 v=64
23 Off ch=1 n=62 v=64
37 On ch=1 n=53 v=112
72 Off ch=1 n=53 v=64
20 Off ch=1 n=41 v=64
5 On ch=1 n=53 v=110
69 Off ch=1 n=53 v=64
52 On ch=1 n=53 v=106
65 Off ch=1 n=53 v=64
64 On ch=1 n=53 v=109
64 Off ch=1 n=53 v=64
33 On ch=1 n=53 v=112
69 Off ch=1 n=53 v=64
52 On ch=1 n=53 v=116
72 Off ch=1 n=53 v=64
169 On ch=1 n=53 v=104
67 Off ch=1 n=53 v=64
47 On ch=1 n=53 v=110
79 Off ch=1 n=53 v=64
42 On ch=1 n=53 v=110
97 Off ch=1 n=53 v=64
22 On ch=1 n=55 v=127
3 On ch=1 n=64 v=124
7 On ch=1 n=60 v=124
211 Off ch=1 n=55 v=64
15 Off ch=1 n=60 v=64
0 Off ch=1 n=64 v=64
20 On ch=1 n=53 v=106
82 Off ch=1 n=65 v=64
7 Off ch=1 n=53 v=64
156 On ch=1 n=65 v=124
0 On ch=1 n=60 v=124
0 On ch=1 n=53 v=110
3 On ch=1 n=57 v=115
5 Par ch=1 c=64 v=0
0 On ch=1 n=41 v=121
104 Off ch=1 n=57 v=64
0 Par ch=1 c=64 v=127
55 Off ch=1 n=53 v=64
7 Off ch=1 n=60 v=64
79 On ch=1 n=53 v=115
62 Off ch=1 n=41 v=64
5 Off ch=1 n=53 v=64
50 On ch=1 n=53 v=106
54 Off ch=1 n=53 v=64
58 On ch=1 n=53 v=110
71 Off ch=1 n=53 v=64
53 On ch=1 n=53 v=106
62 Off ch=1 n=53 v=64
47 On ch=1 n=53 v=101
57 Off ch=1 n=53 v=64
72 On ch=1 n=53 v=106
64 Off ch=1 n=53 v=64
169 On ch=1 n=53 v=101
54 Off ch=1 n=53 v=64
60 On ch=1 n=53 v=124
74 Off ch=1 n=53 v=64
37 On ch=1 n=53 v=106
137 On ch=1 n=55 v=124
2 On ch=1 n=64 v=127
5 On ch=1 n=60 v=127
10 On ch=1 n=41 v=109
67 Par ch=1 c=64 v=0
10 Off ch=1 n=41 v=64
99 Par ch=1 c=64 v=127
32 On ch=1 n=41 v=112
50 Off ch=1 n=60 v=64
3 Off ch=1 n=64 v=64
12 Off ch=1 n=55 v=64
20 Off ch=1 n=41 v=64
17 Off ch=1 n=53 v=64
159 On ch=1 n=53 v=124
0 On ch=1 n=62 v=119
0 On ch=1 n=58 v=124
12 On ch=1 n=41 v=116
3 Par ch=1 c=64 v=0
94 Par ch=1 c=64 v=127
45 Off ch=1 n=53 v=64
27 Off ch=1 n=58 v=64
12 Off ch=1 n=62 v=64
57 On ch=1 n=53 v=110
13 Off ch=1 n=41 v=64
54 Off ch=1 n=53 v=64
30 On ch=1 n=53 v=121
87 Off ch=1 n=53 v=64
57 On ch=1 n=53 v=88
37 Off ch=1 n=53 v=64
97 On ch=1 n=53 v=112
64 Off ch=1 n=53 v=64
25 On ch=1 n=53 v=121
57 Off ch=1 n=53 v=64
57 On ch=1 n=53 v=127
62 Off ch=1 n=53 v=64
243 Off ch=1 n=65 v=64
536 On ch=1 n=60 v=127
57 Off ch=1 n=60 v=64
72 On ch=1 n=60 v=127
72 Off ch=1 n=60 v=64
37 On ch=1 n=48 v=76
2 On ch=1 n=57 v=112
10 On ch=1 n=41 v=97
5 On ch=1 n=60 v=115
0 On ch=1 n=69 v=127
20 Par ch=1 c=64 v=0
171 Par ch=1 c=64 v=127
100 Off ch=1 n=69 v=64
84 On ch=1 n=70 v=127
156 Off ch=1 n=41 v=64
17 Off ch=1 n=48 v=64
13 Off ch=1 n=70 v=64
87 On ch=1 n=72 v=127
22 Off ch=1 n=57 v=64
136 Off ch=1 n=60 v=64
13 Off ch=1 n=72 v=64
119 On ch=1 n=57 v=91
2 On ch=1 n=45 v=112
15 On ch=1 n=72 v=127
0 On ch=1 n=65 v=124
3 On ch=1 n=60 v=116
37 Par ch=1 c=64 v=0
255 Par ch=1 c=64 v=127
15 Off ch=1 n=72 v=64
15 Par ch=1 c=64 v=0
42 On ch=1 n=70 v=127
87 Par ch=1 c=64 v=127
149 Off ch=1 n=70 v=64
72 On ch=1 n=69 v=121
5 Off ch=1 n=45 v=64
39 Off ch=1 n=57 v=64
134 Off ch=1 n=65 v=64
10 Off ch=1 n=60 v=64
18 Off ch=1 n=69 v=64
81 On ch=1 n=62 v=127
3 On ch=1 n=46 v=100
2 On ch=1 n=58 v=98
0 On ch=1 n=65 v=127
18 Par ch=1 c=64 v=0
171 Par ch=1 c=64 v=127
171 On ch=1 n=67 v=127
283 Off ch=1 n=46 v=64
22 Off ch=1 n=67 v=64
7 On ch=1 n=69 v=127
45 Off ch=1 n=65 v=64
25 Off ch=1 n=58 v=64
87 Off ch=1 n=62 v=64
34 Off ch=1 n=69 v=64
102 On ch=1 n=50 v=116
0 On ch=1 n=57 v=106
8 On ch=1 n=69 v=124
2 On ch=1 n=62 v=121
5 On ch=1 n=65 v=127
5 Par ch=1 c=64 v=0
426 Par ch=1 c=64 v=127
62 Off ch=1 n=50 v=64
33 Off ch=1 n=57 v=64
72 Off ch=1 n=65 v=64
12 Off ch=1 n=62 v=64
40 Off ch=1 n=69 v=64
37 On ch=1 n=60 v=110
0 On ch=1 n=62 v=109
2 On ch=1 n=67 v=109
0 On ch=1 n=48 v=97
0 On ch=1 n=64 v=124
80 Par ch=1 c=64 v=0
92 Off ch=1 n=48 v=64
4 Off ch=1 n=60 v=64
18 Off ch=1 n=64 v=64
12 Off ch=1 n=67 v=64
0 Off ch=1 n=62 v=64
55 On ch=1 n=60 v=106
0 On ch=1 n=48 v=110
5 On ch=1 n=67 v=115
0 On ch=1 n=62 v=112
2 On ch=1 n=64 v=124
15 Par ch=1 c=64 v=127
290 Off ch=1 n=60 v=64
15 Off ch=1 n=62 v=64
5 Off ch=1 n=64 v=64
117 Off ch=1 n=48 v=64
243 On ch=1 n=58 v=89
2 On ch=1 n=53 v=91
3 On ch=1 n=62 v=91
91 Off ch=1 n=53 v=64
10 Off ch=1 n=58 v=64
0 On ch=1 n=48 v=116
5 Off ch=1 n=62 v=64
70 Par ch=1 c=64 v=0
30 On ch=1 n=58 v=104
4 On ch=1 n=62 v=109
0 On ch=1 n=53 v=101
75 Off ch=1 n=53 v=64
0 Par ch=1 c=64 v=127
10 Off ch=1 n=58 v=64
54 On ch=1 n=64 v=116
0 On ch=1 n=60 v=106
5 On ch=1 n=55 v=106
23 Off ch=1 n=48 v=64
24 Off ch=1 n=62 v=64
50 Off ch=1 n=55 v=64
15 Off ch=1 n=60 v=64
5 On ch=1 n=48 v=110
10 Off ch=1 n=64 v=64
74 Par ch=1 c=64 v=0
18 Off ch=1 n=48 v=64
0 On ch=1 n=64 v=106
7 On ch=1 n=55 v=127
0 On ch=1 n=60 v=119
119 On ch=1 n=48 v=116
7 Par ch=1 c=64 v=127
132 Off ch=1 n=60 v=64
5 Off ch=1 n=55 v=64
67 Off ch=1 n=64 v=64
52 On ch=1 n=62 v=110
5 Off ch=1 n=48 v=64
2 On ch=1 n=58 v=92
5 On ch=1 n=53 v=92
97 On ch=1 n=48 v=115
5 Off ch=1 n=53 v=64
7 Off ch=1 n=58 v=64
5 Off ch=1 n=62 v=64
13 Par ch=1 c=64 v=0
89 On ch=1 n=58 v=92
0 On ch=1 n=62 v=98
8 On ch=1 n=53 v=83
9 Par ch=1 c=64 v=127
18 Off ch=1 n=48 v=64
42 Off ch=1 n=53 v=64
17 Off ch=1 n=58 v=64
45 On ch=1 n=64 v=112
0 On ch=1 n=60 v=109
2 On ch=1 n=55 v=112
53 Off ch=1 n=62 v=64
32 Off ch=1 n=55 v=64
12 Off ch=1 n=60 v=64
15 On ch=1 n=48 v=116
10 Off ch=1 n=64 v=64
69 Par ch=1 c=64 v=0
18 On ch=1 n=64 v=109
15 Off ch=1 n=48 v=64
2 On ch=1 n=60 v=127
0 On ch=1 n=55 v=124
94 Par ch=1 c=64 v=127
25 On ch=1 n=48 v=121
52 Off ch=1 n=55 v=64
47 Off ch=1 n=64 v=64
3 Off ch=1 n=60 v=64
35 Off ch=1 n=67 v=64
71 Off ch=1 n=48 v=64
40 On ch=1 n=60 v=127
62 Off ch=1 n=60 v=64
57 On ch=1 n=60 v=124
127 On ch=1 n=69 v=127
7 On ch=1 n=41 v=112
52 Par ch=1 c=64 v=0
119 Par ch=1 c=64 v=127
42 On ch=1 n=48 v=82
43 Off ch=1 n=69 v=64
79 On ch=1 n=70 v=127
121 On ch=1 n=57 v=92
25 Off ch=1 n=70 v=64
42 Off ch=1 n=41 v=64
3 Off ch=1 n=60 v=64
54 Off ch=1 n=48 v=64
50 On ch=1 n=72 v=127
67 Off ch=1 n=57 v=64
89 Off ch=1 n=72 v=64
147 On ch=1 n=45 v=104
2 On ch=1 n=57 v=92
15 On ch=1 n=65 v=127
2 On ch=1 n=72 v=127
5 Par ch=1 c=64 v=0
119 Par ch=1 c=64 v=127
112 Off ch=1 n=65 v=64
22 Off ch=1 n=72 v=64
45 Off ch=1 n=57 v=64
42 On ch=1 n=67 v=115
3 On ch=1 n=76 v=127
119 On ch=1 n=57 v=92
34 Off ch=1 n=67 v=64
13 Off ch=1 n=76 v=64
54 Off ch=1 n=45 v=64
50 Off ch=1 n=57 v=64
12 On ch=1 n=69 v=112
8 On ch=1 n=77 v=127
131 Off ch=1 n=69 v=64
13 Off ch=1 n=77 v=64
158 On ch=1 n=46 v=101
3 On ch=1 n=58 v=106
0 On ch=1 n=69 v=121
2 Par ch=1 c=64 v=0
5 On ch=1 n=77 v=127
107 Par ch=1 c=64 v=127
109 On ch=1 n=53 v=91
15 Off ch=1 n=77 v=64
74 Off ch=1 n=58 v=64
25 Off ch=1 n=69 v=64
22 On ch=1 n=70 v=116
8 On ch=1 n=79 v=112
136 On ch=1 n=58 v=83
5 Off ch=1 n=70 v=64
10 Off ch=1 n=79 v=64
55 Off ch=1 n=53 v=64
42 Off ch=1 n=46 v=64
57 On ch=1 n=72 v=110
7 On ch=1 n=81 v=121
3 Off ch=1 n=58 v=64
77 Off ch=1 n=72 v=64
87 Off ch=1 n=81 v=64
126 On ch=1 n=50 v=110
10 On ch=1 n=74 v=116
2 On ch=1 n=81 v=127
50 Par ch=1 c=64 v=0
164 On ch=1 n=57 v=92
198 Par ch=1 c=64 v=127
45 On ch=1 n=62 v=71
37 Off ch=1 n=50 v=64
0 Off ch=1 n=57 v=64
37 Off ch=1 n=81 v=64
10 Off ch=1 n=62 v=64
10 Off ch=1 n=74 v=64
126 On ch=1 n=79 v=127
3 On ch=1 n=74 v=127
10 On ch=1 n=48 v=88
5 On ch=1 n=64 v=82
0 On ch=1 n=55 v=98
77 Par ch=1 c=64 v=0
77 Off ch=1 n=64 v=64
5 Off ch=1 n=55 v=64
4 Off ch=1 n=48 v=64
20 Off ch=1 n=79 v=64
8 Off ch=1 n=74 v=64
25 Par ch=1 c=64 v=127
19 On ch=1 n=55 v=112
3 On ch=1 n=64 v=101
5 On ch=1 n=48 v=92
5 On ch=1 n=79 v=124
0 On ch=1 n=74 v=119
466 Off ch=1 n=64 v=64
10 Off ch=1 n=74 v=64
2 Off ch=1 n=79 v=64
20 Off ch=1 n=55 v=64
3 Off ch=1 n=48 v=64
461 On ch=1 n=48 v=116
76 On ch=1 n=55 v=106
32 Off ch=1 n=48 v=64
41 On ch=1 n=60 v=106
27 Off ch=1 n=55 v=64
39 On ch=1 n=62 v=106
28 Off ch=1 n=60 v=64
37 On ch=1 n=67 v=91
6 Off ch=1 n=62 v=64
64 Off ch=1 n=67 v=64
36 On ch=1 n=67 v=91
98 On ch=1 n=72 v=66
13 Off ch=1 n=67 v=64
47 On ch=1 n=74 v=82
20 Off ch=1 n=72 v=64
45 Off ch=1 n=74 v=64
14 On ch=1 n=79 v=59
47 Off ch=1 n=79 v=64
54 On ch=1 n=79 v=54
79 Off ch=1 n=79 v=64
0 On ch=1 n=84 v=80
76 On ch=1 n=86 v=89
8 Off ch=1 n=84 v=64
55 On ch=1 n=91 v=121
6 Off ch=1 n=86 v=64
41 Off ch=1 n=91 v=64
444 On ch=1 n=79 v=127
124 Off ch=1 n=79 v=64
107 On ch=1 n=81 v=127
107 Off ch=1 n=81 v=64
124 On ch=1 n=74 v=110
2 On ch=1 n=81 v=104
10 On ch=1 n=43 v=106
30 Par ch=1 c=64 v=0
42 On ch=1 n=82 v=88
12 Off ch=1 n=81 v=64
117 On ch=1 n=50 v=106
27 Par ch=1 c=64 v=127
85 Off ch=1 n=82 v=64
49 On ch=1 n=86 v=127
164 On ch=1 n=58 v=79
151 Off ch=1 n=86 v=64
18 On ch=1 n=84 v=127
34 Off ch=1 n=43 v=64
42 Off ch=1 n=50 v=64
33 Off ch=1 n=74 v=64
57 Off ch=1 n=58 v=64
34 Off ch=1 n=84 v=64
90 On ch=1 n=45 v=104
2 On ch=1 n=77 v=127
3 On ch=1 n=72 v=119
12 Par ch=1 c=64 v=0
141 Par ch=1 c=64 v=127
189 On ch=1 n=79 v=127
57 On ch=1 n=60 v=79
22 Off ch=1 n=77 v=64
176 Off ch=1 n=79 v=64
5 Off ch=1 n=45 v=64
40 Off ch=1 n=60 v=64
2 On ch=1 n=81 v=127
129 Off ch=1 n=72 v=64
50 Off ch=1 n=81 v=64
82 On ch=1 n=46 v=56
22 On ch=1 n=53 v=91
5 On ch=1 n=62 v=48
0 On ch=1 n=74 v=119
3 On ch=1 n=81 v=119
5 Par ch=1 c=64 v=0
362 Par ch=1 c=64 v=127
42 Off ch=1 n=53 v=64
27 Off ch=1 n=46 v=64
13 Off ch=1 n=81 v=64
2 On ch=1 n=84 v=119
7 Off ch=1 n=62 v=64
55 Off ch=1 n=74 v=64
201 On ch=1 n=79 v=100
0 On ch=1 n=55 v=89
0 On ch=1 n=72 v=100
2 On ch=1 n=64 v=59
5 On ch=1 n=48 v=71
30 Off ch=1 n=84 v=64
20 Par ch=1 c=64 v=0
169 Par ch=1 c=64 v=127
69 Off ch=1 n=72 v=64
12 Off ch=1 n=79 v=64
159 Off ch=1 n=64 v=64
45 Off ch=1 n=55 v=64
32 Off ch=1 n=48 v=64
166 On ch=1 n=86 v=127
107 Off ch=1 n=86 v=64
126 On ch=1 n=88 v=127
95 Off ch=1 n=88 v=64
131 On ch=1 n=88 v=116
10 On ch=1 n=81 v=110
7 On ch=1 n=43 v=92
28 Par ch=1 c=64 v=0
42 On ch=1 n=89 v=116
30 Off ch=1 n=88 v=64
74 Par ch=1 c=64 v=127
27 On ch=1 n=50 v=109
32 Off ch=1 n=89 v=64
8 Off ch=1 n=81 v=64
97 On ch=1 n=79 v=109
2 On ch=1 n=88 v=127
129 On ch=1 n=58 v=70
3 Off ch=1 n=88 v=64
2 Off ch=1 n=79 v=64
139 Off ch=1 n=43 v=64
7 Off ch=1 n=50 v=64
18 On ch=1 n=77 v=127
2 On ch=1 n=86 v=127
10 Off ch=1 n=58 v=64
129 Off ch=1 n=86 v=64
35 Off ch=1 n=77 v=64
129 On ch=1 n=45 v=74
15 On ch=1 n=60 v=59
5 Par ch=1 c=64 v=0
12 On ch=1 n=84 v=127
0 On ch=1 n=77 v=127
102 Par ch=1 c=64 v=127
176 Off ch=1 n=84 v=64
69 On ch=1 n=82 v=127
87 Off ch=1 n=77 v=64
57 Off ch=1 n=45 v=64
25 Off ch=1 n=82 v=64
5 Off ch=1 n=60 v=64
126 On ch=1 n=81 v=116
122 Off ch=1 n=81 v=64
166 Par ch=1 c=64 v=0
17 On ch=1 n=62 v=70
0 On ch=1 n=46 v=70
8 On ch=1 n=81 v=110
0 On ch=1 n=77 v=127
2 On ch=1 n=74 v=88
3 On ch=1 n=53 v=100
72 Par ch=1 c=64 v=127
253 Off ch=1 n=53 v=64
42 Off ch=1 n=46 v=64
27 Off ch=1 n=62 v=64
15 Off ch=1 n=81 v=64
27 Off ch=1 n=77 v=64
5 On ch=1 n=84 v=110
17 Off ch=1 n=74 v=64
244 On ch=1 n=48 v=59
0 On ch=1 n=64 v=65
2 On ch=1 n=55 v=98
10 On ch=1 n=79 v=104
2 On ch=1 n=72 v=106
13 Off ch=1 n=84 v=64
30 Par ch=1 c=64 v=0
178 Par ch=1 c=64 v=127
94 Off ch=1 n=72 v=64
23 Off ch=1 n=79 v=64
158 Off ch=1 n=64 v=64
67 Off ch=1 n=55 v=64
25 Off ch=1 n=48 v=64
129 On ch=1 n=84 v=127
149 Off ch=1 n=84 v=64
92 On ch=1 n=86 v=127
99 Off ch=1 n=86 v=64
149 On ch=1 n=79 v=127
2 On ch=1 n=44 v=119
5 On ch=1 n=87 v=127
22 Par ch=1 c=64 v=0
164 Par ch=1 c=64 v=127
45 On ch=1 n=51 v=89
20 Off ch=1 n=87 v=64
2 Off ch=1 n=79 v=64
102 On ch=1 n=86 v=127
0 On ch=1 n=77 v=115
121 On ch=1 n=56 v=101
20 Off ch=1 n=86 v=64
35 Off ch=1 n=77 v=64
168 On ch=1 n=75 v=127
3 On ch=1 n=84 v=127
102 Off ch=1 n=44 v=64
57 Off ch=1 n=84 v=64
12 Off ch=1 n=75 v=64
50 Off ch=1 n=56 v=64
47 On ch=1 n=44 v=110
22 On ch=1 n=75 v=127
3 On ch=1 n=84 v=127
12 Par ch=1 c=64 v=0
69 Par ch=1 c=64 v=127
97 Off ch=1 n=84 v=64
30 Off ch=1 n=75 v=64
116 On ch=1 n=82 v=127
0 On ch=1 n=74 v=124
110 Off ch=1 n=82 v=64
0 Off ch=1 n=74 v=64
2 On ch=1 n=56 v=56
89 Off ch=1 n=44 v=64
23 Off ch=1 n=51 v=64
44 Off ch=1 n=56 v=64
42 On ch=1 n=80 v=127
10 On ch=1 n=72 v=116
97 Off ch=1 n=72 v=64
5 Off ch=1 n=80 v=64
164 Par ch=1 c=64 v=0
10 On ch=1 n=60 v=88
0 On ch=1 n=48 v=110
12 On ch=1 n=72 v=116
0 On ch=1 n=77 v=127
3 On ch=1 n=84 v=127
79 Par ch=1 c=64 v=127
233 Off ch=1 n=72 v=64
169 Off ch=1 n=48 v=64
64 Off ch=1 n=77 v=64
161 Off ch=1 n=60 v=64
3 On ch=1 n=48 v=119
238 On ch=1 n=60 v=112
526 Off ch=1 n=60 v=64
171 Off ch=1 n=48 v=64
22 On ch=1 n=60 v=121
119 On ch=1 n=55 v=109
27 Off ch=1 n=60 v=64
82 On ch=1 n=76 v=100
5 On ch=1 n=72 v=112
0 On ch=1 n=48 v=115
3 On ch=1 n=60 v=115
7 Off ch=1 n=55 v=64
40 Par ch=1 c=64 v=0
114 Par ch=1 c=64 v=127
384 Off ch=1 n=60 v=64
174 On ch=1 n=60 v=98
32 Off ch=1 n=72 v=64
25 Off ch=1 n=48 v=64
12 Off ch=1 n=76 v=64
92 Off ch=1 n=84 v=64
79 On ch=1 n=48 v=109
244 Off ch=1 n=60 v=64
99 Off ch=1 n=48 v=64
352 On ch=1 n=44 v=88
57 On ch=1 n=43 v=104
5 On ch=1 n=46 v=19
2 On ch=1 n=45 v=83
3 Off ch=1 n=46 v=64
5 Off ch=1 n=44 v=64
47 On ch=1 n=48 v=92
12 On ch=1 n=47 v=79
3 Off ch=1 n=43 v=64
20 Off ch=1 n=47 v=64
19 Off ch=1 n=45 v=64
62 Par ch=1 c=64 v=0
13 On ch=1 n=41 v=127
7 On ch=1 n=53 v=127
0 On ch=1 n=60 v=121
10 On ch=1 n=57 v=119
0 On ch=1 n=65 v=115
5 Off ch=1 n=48 v=64
18 On ch=1 n=65 v=102
8 On ch=1 n=65 v=90
3 On ch=1 n=41 v=85
25 Par ch=1 c=64 v=0
24 Par ch=1 c=64 v=0
56 On ch=1 n=60 v=78
13 On ch=1 n=60 v=90
80 On ch=1 n=41 v=83
20 On ch=1 n=53 v=83
19 Par ch=1 c=64 v=127
18 Off ch=1 n=60 v=64
0 Off ch=1 n=60 v=64
46 Off ch=1 n=65 v=64
21 Off ch=1 n=65 v=64
15 On ch=1 n=60 v=90
25 Off ch=1 n=53 v=64
96 On ch=1 n=65 v=102
23 Off ch=1 n=60 v=64
96 On ch=1 n=60 v=86
58 Off ch=1 n=65 v=64
61 Off ch=1 n=60 v=64
1 On ch=1 n=53 v=100
118 Off ch=1 n=53 v=64
2 On ch=1 n=60 v=91
12 Off ch=1 n=57 v=64
110 On ch=1 n=65 v=91
25 Off ch=1 n=60 v=64
4 Off ch=1 n=53 v=64
90 On ch=1 n=60 v=83
17 Off ch=1 n=60 v=64
26 Off ch=1 n=65 v=64
31 Off ch=1 n=65 v=64
30 Off ch=1 n=41 v=64
18 On ch=1 n=53 v=78
10 Off ch=1 n=60 v=64
101 Off ch=1 n=53 v=64
8 On ch=1 n=60 v=86
120 On ch=1 n=65 v=95
14 Off ch=1 n=60 v=64
106 On ch=1 n=60 v=70
47 Off ch=1 n=65 v=64
66 Off ch=1 n=60 v=64
7 On ch=1 n=53 v=77
120 On ch=1 n=60 v=74
1 Off ch=1 n=53 v=64
118 On ch=1 n=65 v=95
23 Off ch=1 n=60 v=64
97 On ch=1 n=60 v=76
43 Off ch=1 n=65 v=64
78 On ch=1 n=53 v=77
8 Off ch=1 n=60 v=64
112 On ch=1 n=60 v=78
1 Off ch=1 n=53 v=64
119 On ch=1 n=65 v=94
17 Off ch=1 n=60 v=64
102 On ch=1 n=60 v=89
38 Off ch=1 n=65 v=64
83 On ch=1 n=53 v=76
5 Off ch=1 n=60 v=64
101 Off ch=1 n=53 v=64
12 On ch=1 n=60 v=78
106 On ch=1 n=65 v=115
14 On ch=1 n=65 v=83
22 Off ch=1 n=60 v=64
98 On ch=1 n=60 v=77
48 Off ch=1 n=65 v=64
68 Off ch=1 n=60 v=64
5 On ch=1 n=53 v=83
60 Off ch=1 n=41 v=64
28 On ch=1 n=72 v=122
15 Off ch=1 n=53 v=64
11 Off ch=1 n=65 v=64
4 On ch=1 n=60 v=74
121 On ch=1 n=65 v=94
16 Off ch=1 n=60 v=64
93 Off ch=1 n=41 v=64
10 On ch=1 n=60 v=68
52 Off ch=1 n=72 v=64
0 On ch=1 n=77 v=96
10 Off ch=1 n=65 v=64
31 Off ch=1 n=60 v=64
27 On ch=1 n=53 v=86
103 Off ch=1 n=53 v=64
14 On ch=1 n=60 v=70
76 Off ch=1 n=77 v=64
23 On ch=1 n=80 v=104
2 Off ch=1 n=60 v=64
23 On ch=1 n=68 v=100
1 On ch=1 n=41 v=97
100 Par ch=1 c=64 v=0
20 On ch=1 n=61 v=76
98 Off ch=1 n=68 v=64
20 On ch=1 n=56 v=94
11 Off ch=1 n=61 v=64
81 Par ch=1 c=64 v=127
27 On ch=1 n=61 v=91
20 Off ch=1 n=56 v=64
101 On ch=1 n=68 v=90
29 Off ch=1 n=61 v=64
91 On ch=1 n=61 v=83
50 Off ch=1 n=68 v=64
45 Off ch=1 n=80 v=64
0 On ch=1 n=73 v=104
24 On ch=1 n=56 v=70
3 Off ch=1 n=61 v=64
117 On ch=1 n=61 v=70
7 Off ch=1 n=56 v=64
78 Off ch=1 n=73 v=64
35 On ch=1 n=68 v=77
14 Off ch=1 n=61 v=64
6 On ch=1 n=73 v=96
101 On ch=1 n=61 v=76
59 Off ch=1 n=68 v=64
61 On ch=1 n=56 v=50
9 Off ch=1 n=61 v=64
111 On ch=1 n=61 v=62
12 Off ch=1 n=56 v=64
108 On ch=1 n=68 v=86
1 Off ch=1 n=61 v=64
119 On ch=1 n=61 v=76
45 Off ch=1 n=68 v=64
76 On ch=1 n=56 v=62
7 Off ch=1 n=61 v=64
112 On ch=1 n=61 v=62
8 Off ch=1 n=56 v=64
110 On ch=1 n=49 v=48
1 On ch=1 n=53 v=49
3 On ch=1 n=68 v=78
30 Off ch=1 n=61 v=64
90 On ch=1 n=61 v=66
50 Off ch=1 n=68 v=64
66 Off ch=1 n=61 v=64
4 On ch=1 n=56 v=50
111 Off ch=1 n=56 v=64
7 On ch=1 n=61 v=71
122 On ch=1 n=68 v=78
18 Off ch=1 n=61 v=64
103 On ch=1 n=61 v=76
47 Off ch=1 n=68 v=64
73 On ch=1 n=56 v=56
4 Off ch=1 n=61 v=64
106 Off ch=1 n=56 v=64
8 On ch=1 n=61 v=74
120 On ch=1 n=68 v=86
25 Off ch=1 n=61 v=64
97 On ch=1 n=61 v=74
48 Off ch=1 n=68 v=64
63 Off ch=1 n=61 v=64
8 On ch=1 n=56 v=47
103 Off ch=1 n=56 v=64
15 On ch=1 n=61 v=74
90 Off ch=1 n=41 v=64
31 On ch=1 n=68 v=86
17 Off ch=1 n=53 v=64
11 Off ch=1 n=61 v=64
34 Off ch=1 n=49 v=64
58 On ch=1 n=61 v=74
47 Off ch=1 n=68 v=64
57 Off ch=1 n=61 v=64
16 On ch=1 n=56 v=60
105 Off ch=1 n=56 v=64
12 On ch=1 n=61 v=78
86 Off ch=1 n=73 v=64
37 Off ch=1 n=61 v=64
0 On ch=1 n=70 v=91
0 On ch=1 n=55 v=61
0 On ch=1 n=41 v=71
1 On ch=1 n=51 v=78
86 Par ch=1 c=64 v=0
34 On ch=1 n=63 v=76
44 Off ch=1 n=70 v=64
72 Off ch=1 n=63 v=64
2 On ch=1 n=58 v=78
119 On ch=1 n=63 v=82
7 Par ch=1 c=64 v=127
1 Off ch=1 n=58 v=64
111 On ch=1 n=70 v=86
13 Off ch=1 n=63 v=64
109 On ch=1 n=63 v=70
51 Off ch=1 n=70 v=64
60 Off ch=1 n=63 v=64
7 On ch=1 n=58 v=53
120 On ch=1 n=63 v=70
3 Off ch=1 n=58 v=64
117 On ch=1 n=70 v=78
14 Off ch=1 n=63 v=64
107 On ch=1 n=63 v=71
60 Off ch=1 n=70 v=64
60 On ch=1 n=58 v=53
4 Off ch=1 n=63 v=64
114 On ch=1 n=63 v=76
6 Off ch=1 n=58 v=64
116 On ch=1 n=70 v=78
43 Off ch=1 n=63 v=64
78 On ch=1 n=63 v=76
62 Off ch=1 n=70 v=64
59 On ch=1 n=58 v=53
13 Off ch=1 n=63 v=64
105 On ch=1 n=63 v=76
6 Off ch=1 n=58 v=64
100 On ch=1 n=79 v=122
14 On ch=1 n=70 v=86
17 Off ch=1 n=63 v=64
104 On ch=1 n=63 v=66
52 Off ch=1 n=70 v=64
67 On ch=1 n=58 v=60
5 Off ch=1 n=63 v=64
97 On ch=1 n=77 v=115
17 On ch=1 n=63 v=74
4 Off ch=1 n=58 v=64
36 Off ch=1 n=79 v=64
80 On ch=1 n=70 v=83
27 Off ch=1 n=63 v=64
95 On ch=1 n=63 v=76
43 Off ch=1 n=70 v=64
5 On ch=1 n=75 v=115
15 Off ch=1 n=77 v=64
56 On ch=1 n=58 v=42
2 Off ch=1 n=63 v=64
117 On ch=1 n=63 v=70
5 Off ch=1 n=58 v=64
42 Off ch=1 n=75 v=64
74 On ch=1 n=70 v=83
24 On ch=1 n=75 v=115
4 Off ch=1 n=63 v=64
93 On ch=1 n=63 v=78
47 Off ch=1 n=70 v=64
72 Off ch=1 n=63 v=64
1 On ch=1 n=58 v=53
118 Off ch=1 n=58 v=64
1 On ch=1 n=63 v=61
2 Off ch=1 n=75 v=64
18 On ch=1 n=70 v=115
101 On ch=1 n=70 v=89
25 Off ch=1 n=63 v=64
55 Off ch=1 n=55 v=64
4 Off ch=1 n=51 v=64
22 Off ch=1 n=41 v=64
14 On ch=1 n=63 v=77
45 Off ch=1 n=70 v=64
23 Off ch=1 n=70 v=64
43 Off ch=1 n=63 v=64
7 On ch=1 n=58 v=86
32 On ch=1 n=72 v=104
53 Off ch=1 n=58 v=64
157 On ch=1 n=48 v=74
2 On ch=1 n=65 v=89
0 On ch=1 n=41 v=78
113 Par ch=1 c=64 v=0
5 On ch=1 n=60 v=74
68 Off ch=1 n=65 v=64
52 On ch=1 n=53 v=77
14 Off ch=1 n=60 v=64
90 Par ch=1 c=64 v=127
16 On ch=1 n=60 v=70
42 Off ch=1 n=53 v=64
77 On ch=1 n=65 v=74
7 Off ch=1 n=60 v=64
112 On ch=1 n=60 v=62
53 Off ch=1 n=65 v=64
69 On ch=1 n=53 v=56
27 Off ch=1 n=60 v=64
93 On ch=1 n=60 v=77
16 Off ch=1 n=53 v=64
104 On ch=1 n=65 v=77
22 Off ch=1 n=60 v=64
97 On ch=1 n=60 v=66
22 Off ch=1 n=65 v=64
100 On ch=1 n=53 v=62
22 Off ch=1 n=60 v=64
98 On ch=1 n=60 v=86
12 Off ch=1 n=53 v=64
108 On ch=1 n=65 v=70
12 Off ch=1 n=60 v=64
107 On ch=1 n=60 v=86
28 Off ch=1 n=65 v=64
93 On ch=1 n=53 v=74
1 Off ch=1 n=60 v=64
118 On ch=1 n=60 v=70
2 Off ch=1 n=53 v=64
118 On ch=1 n=65 v=70
16 Off ch=1 n=60 v=64
104 On ch=1 n=60 v=77
37 Off ch=1 n=65 v=64
83 On ch=1 n=53 v=62
4 Off ch=1 n=60 v=64
112 Off ch=1 n=53 v=64
2 On ch=1 n=60 v=76
120 On ch=1 n=65 v=78
16 Off ch=1 n=60 v=64
104 On ch=1 n=60 v=66
39 Off ch=1 n=65 v=64
81 On ch=1 n=53 v=50
19 Off ch=1 n=60 v=64
101 On ch=1 n=60 v=91
14 Off ch=1 n=53 v=64
108 On ch=1 n=65 v=76
15 Off ch=1 n=60 v=64
104 On ch=1 n=60 v=78
33 Off ch=1 n=65 v=64
87 On ch=1 n=53 v=71
11 Off ch=1 n=60 v=64
109 On ch=1 n=60 v=86
14 Off ch=1 n=53 v=64
107 On ch=1 n=65 v=78
28 Off ch=1 n=60 v=64
92 On ch=1 n=60 v=76
45 Off ch=1 n=65 v=64
56 Off ch=1 n=41 v=64
18 Off ch=1 n=60 v=64
1 On ch=1 n=53 v=62
63 Off ch=1 n=48 v=64
55 On ch=1 n=60 v=86
14 Off ch=1 n=53 v=64
62 Off ch=1 n=72 v=64
45 On ch=1 n=48 v=47
0 On ch=1 n=65 v=84
1 On ch=1 n=41 v=83
27 Off ch=1 n=60 v=64
91 On ch=1 n=60 v=83
38 Off ch=1 n=65 v=64
82 On ch=1 n=53 v=61
1 Off ch=1 n=60 v=64
118 On ch=1 n=60 v=76
7 Off ch=1 n=53 v=64
115 On ch=1 n=65 v=77
23 Off ch=1 n=60 v=64
96 On ch=1 n=60 v=62
33 Off ch=1 n=65 v=64
87 On ch=1 n=53 v=62
4 Off ch=1 n=60 v=64
115 Off ch=1 n=53 v=64
1 On ch=1 n=60 v=74
120 On ch=1 n=65 v=70
19 Off ch=1 n=60 v=64
102 On ch=1 n=60 v=74
41 Off ch=1 n=65 v=64
75 Off ch=1 n=60 v=64
4 On ch=1 n=53 v=61
119 On ch=1 n=60 v=76
10 Off ch=1 n=53 v=64
112 On ch=1 n=65 v=78
36 Off ch=1 n=60 v=64
83 On ch=1 n=60 v=70
39 Off ch=1 n=65 v=64
80 On ch=1 n=53 v=66
15 Off ch=1 n=60 v=64
107 On ch=1 n=60 v=90
22 Off ch=1 n=53 v=64
99 On ch=1 n=65 v=78
28 Off ch=1 n=60 v=64
92 On ch=1 n=60 v=74
48 Off ch=1 n=65 v=64
73 On ch=1 n=53 v=76
16 Off ch=1 n=60 v=64
104 On ch=1 n=60 v=76
6 Off ch=1 n=53 v=64
113 On ch=1 n=65 v=76
25 Off ch=1 n=60 v=64
95 On ch=1 n=60 v=86
22 Off ch=1 n=65 v=64
98 On ch=1 n=53 v=66
12 Off ch=1 n=60 v=64
104 Off ch=1 n=53 v=64
2 On ch=1 n=60 v=76
122 On ch=1 n=65 v=86
19 On ch=1 n=65 v=122
1 Off ch=1 n=60 v=64
99 On ch=1 n=60 v=70
35 Off ch=1 n=65 v=64
78 Off ch=1 n=60 v=64
7 On ch=1 n=53 v=82
113 Off ch=1 n=65 v=64
0 Off ch=1 n=53 v=64
5 On ch=1 n=60 v=83
5 On ch=1 n=72 v=108
83 Off ch=1 n=41 v=64
34 On ch=1 n=65 v=95
17 Off ch=1 n=60 v=64
45 Off ch=1 n=48 v=64
57 On ch=1 n=60 v=74
44 Off ch=1 n=65 v=64
22 Off ch=1 n=72 v=64
5 On ch=1 n=77 v=90
35 Off ch=1 n=60 v=64
14 On ch=1 n=53 v=77
67 On ch=1 n=60 v=76
39 Off ch=1 n=53 v=64
62 Off ch=1 n=77 v=64
7 Off ch=1 n=60 v=64
66 On ch=1 n=41 v=100
1 On ch=1 n=68 v=100
5 On ch=1 n=80 v=122
101 Par ch=1 c=64 v=0
18 On ch=1 n=61 v=34
106 Off ch=1 n=61 v=64
5 On ch=1 n=49 v=76
6 On ch=1 n=56 v=90
7 Off ch=1 n=68 v=64
113 On ch=1 n=61 v=83
27 Off ch=1 n=56 v=64
2 Par ch=1 c=64 v=127
30 On ch=1 n=53 v=74
60 On ch=1 n=68 v=86
18 Off ch=1 n=61 v=64
103 On ch=1 n=61 v=83
57 Off ch=1 n=68 v=64
41 Off ch=1 n=80 v=64
22 On ch=1 n=56 v=62
9 On ch=1 n=82 v=108
2 Off ch=1 n=61 v=64
108 On ch=1 n=61 v=76
15 Off ch=1 n=56 v=64
104 On ch=1 n=68 v=83
8 Off ch=1 n=61 v=64
36 Off ch=1 n=82 v=64
8 On ch=1 n=73 v=115
70 On ch=1 n=61 v=83
50 Off ch=1 n=68 v=64
71 On ch=1 n=56 v=56
8 Off ch=1 n=61 v=64
103 Off ch=1 n=56 v=64
7 On ch=1 n=61 v=78
119 On ch=1 n=68 v=89
12 Off ch=1 n=61 v=64
109 On ch=1 n=61 v=83
49 Off ch=1 n=68 v=64
73 On ch=1 n=56 v=61
17 Off ch=1 n=61 v=64
99 Off ch=1 n=56 v=64
2 On ch=1 n=61 v=76
119 On ch=1 n=68 v=77
22 Off ch=1 n=61 v=64
100 On ch=1 n=61 v=74
46 Off ch=1 n=68 v=64
74 On ch=1 n=56 v=41
1 Off ch=1 n=61 v=64
112 Off ch=1 n=56 v=64
4 On ch=1 n=61 v=83
121 On ch=1 n=68 v=89
10 Off ch=1 n=61 v=64
110 On ch=1 n=61 v=78
47 Off ch=1 n=68 v=64
64 Off ch=1 n=61 v=64
9 On ch=1 n=56 v=78
103 Off ch=1 n=56 v=64
16 On ch=1 n=61 v=74
120 On ch=1 n=68 v=86
19 Off ch=1 n=61 v=64
103 On ch=1 n=61 v=74
48 Off ch=1 n=68 v=64
55 Off ch=1 n=61 v=64
16 On ch=1 n=56 v=42
103 Off ch=1 n=56 v=64
16 On ch=1 n=61 v=74
119 On ch=1 n=68 v=86
13 Off ch=1 n=61 v=64
109 On ch=1 n=61 v=53
13 Off ch=1 n=41 v=64
30 Off ch=1 n=53 v=64
5 Off ch=1 n=68 v=64
39 Off ch=1 n=61 v=64
10 Off ch=1 n=49 v=64
21 On ch=1 n=56 v=66
67 On ch=1 n=61 v=76
44 Off ch=1 n=56 v=64
92 Off ch=1 n=73 v=64
3 Off ch=1 n=61 v=64
34 On ch=1 n=70 v=91
1 On ch=1 n=41 v=90
89 Par ch=1 c=64 v=0
31 On ch=1 n=63 v=91
62 Off ch=1 n=70 v=64
57 On ch=1 n=58 v=50
2 On ch=1 n=51 v=52
3 Off ch=1 n=63 v=64
113 On ch=1 n=63 v=83
3 Off ch=1 n=58 v=64
43 Par ch=1 c=64 v=127
75 On ch=1 n=70 v=86
4 On ch=1 n=55 v=83
14 Off ch=1 n=63 v=64
102 On ch=1 n=63 v=78
48 Off ch=1 n=70 v=64
17 On ch=1 n=58 v=66
54 Off ch=1 n=63 v=64
93 Off ch=1 n=58 v=64
27 On ch=1 n=63 v=76
122 On ch=1 n=70 v=78
28 Off ch=1 n=63 v=64
95 On ch=1 n=63 v=74
71 Off ch=1 n=70 v=64
47 On ch=1 n=58 v=50
3 Off ch=1 n=63 v=64
117 On ch=1 n=63 v=76
27 Off ch=1 n=58 v=64
93 On ch=1 n=70 v=86
19 Off ch=1 n=63 v=64
103 On ch=1 n=63 v=76
58 Off ch=1 n=70 v=64
33 On ch=1 n=75 v=115
29 On ch=1 n=58 v=50
3 Off ch=1 n=63 v=64
116 On ch=1 n=63 v=74
17 Off ch=1 n=58 v=64
52 Off ch=1 n=75 v=64
33 On ch=1 n=82 v=91
0 On ch=1 n=73 v=108
16 On ch=1 n=70 v=86
9 Off ch=1 n=63 v=64
113 On ch=1 n=63 v=86
51 Off ch=1 n=70 v=64
69 On ch=1 n=58 v=56
1 Off ch=1 n=63 v=64
33 Off ch=1 n=73 v=64
46 Off ch=1 n=82 v=64
13 On ch=1 n=80 v=82
3 On ch=1 n=72 v=101
23 On ch=1 n=63 v=70
7 Off ch=1 n=58 v=64
113 On ch=1 n=70 v=83
27 Off ch=1 n=63 v=64
49 Off ch=1 n=72 v=64
31 Off ch=1 n=80 v=64
15 On ch=1 n=63 v=83
51 Off ch=1 n=70 v=64
11 On ch=1 n=79 v=90
3 On ch=1 n=70 v=89
51 Off ch=1 n=63 v=64
3 On ch=1 n=58 v=62
120 On ch=1 n=63 v=70
19 Off ch=1 n=58 v=64
10 Off ch=1 n=70 v=64
29 Off ch=1 n=79 v=64
62 On ch=1 n=70 v=77
5 On ch=1 n=79 v=84
5 On ch=1 n=70 v=94
6 Off ch=1 n=63 v=64
105 On ch=1 n=63 v=74
44 Off ch=1 n=70 v=64
67 Off ch=1 n=63 v=64
7 On ch=1 n=58 v=50
13 Off ch=1 n=79 v=64
96 Off ch=1 n=70 v=64
0 On ch=1 n=75 v=104
10 On ch=1 n=63 v=78
18 Off ch=1 n=58 v=64
103 On ch=1 n=70 v=86
21 Off ch=1 n=63 v=64
99 On ch=1 n=63 v=77
56 Off ch=1 n=70 v=64
5 Off ch=1 n=75 v=64
11 Off ch=1 n=55 v=64
9 On ch=1 n=70 v=108
9 Off ch=1 n=41 v=64
1 Off ch=1 n=51 v=64
12 Off ch=1 n=63 v=64
17 On ch=1 n=58 v=62
7 On ch=1 n=63 v=74
122 Off ch=1 n=58 v=64
12 Off ch=1 n=63 v=64
81 Off ch=1 n=70 v=64
20 On ch=1 n=41 v=100
0 On ch=1 n=65 v=108
13 On ch=1 n=72 v=101
95 Par ch=1 c=64 v=0
15 On ch=1 n=60 v=74
55 On ch=1 n=48 v=62
56 Off ch=1 n=60 v=64
7 On ch=1 n=53 v=77
74 Off ch=1 n=65 v=64
45 On ch=1 n=60 v=86
15 Off ch=1 n=53 v=64
79 Par ch=1 c=64 v=127
25 Off ch=1 n=60 v=64
0 On ch=1 n=65 v=78
120 On ch=1 n=60 v=78
58 Off ch=1 n=65 v=64
63 On ch=1 n=53 v=66
26 Off ch=1 n=60 v=64
94 On ch=1 n=60 v=86
14 Off ch=1 n=53 v=64
106 On ch=1 n=65 v=78
11 Off ch=1 n=60 v=64
109 On ch=1 n=60 v=74
60 Off ch=1 n=65 v=64
60 On ch=1 n=53 v=62
12 Off ch=1 n=60 v=64
107 On ch=1 n=60 v=74
7 Off ch=1 n=53 v=64
115 On ch=1 n=65 v=76
18 Off ch=1 n=60 v=64
101 On ch=1 n=60 v=70
39 Off ch=1 n=65 v=64
72 Off ch=1 n=60 v=64
9 On ch=1 n=53 v=52
82 Off ch=1 n=53 v=64
35 On ch=1 n=60 v=71
39 Off ch=1 n=72 v=64
82 On ch=1 n=66 v=90
5 Off ch=1 n=60 v=64
116 On ch=1 n=61 v=83
62 Par ch=1 c=64 v=0
58 On ch=1 n=54 v=56
9 Off ch=1 n=66 v=64
8 Off ch=1 n=61 v=64
102 On ch=1 n=61 v=90
27 Par ch=1 c=64 v=127
1 Off ch=1 n=54 v=64
91 On ch=1 n=66 v=83
36 Off ch=1 n=61 v=64
86 On ch=1 n=61 v=83
89 Off ch=1 n=66 v=64
31 On ch=1 n=54 v=53
6 Off ch=1 n=41 v=64
10 Off ch=1 n=61 v=64
103 On ch=1 n=61 v=77
23 Off ch=1 n=54 v=64
99 On ch=1 n=41 v=76
1 On ch=1 n=66 v=77
48 Off ch=1 n=61 v=64
73 On ch=1 n=61 v=83
57 Off ch=1 n=66 v=64
62 On ch=1 n=54 v=40
10 Off ch=1 n=61 v=64
37 Off ch=1 n=48 v=64
73 On ch=1 n=61 v=70
30 Off ch=1 n=54 v=64
89 On ch=1 n=48 v=61
3 On ch=1 n=66 v=86
25 Off ch=1 n=61 v=64
96 On ch=1 n=61 v=78
49 Off ch=1 n=66 v=64
43 Off ch=1 n=41 v=64
21 Off ch=1 n=61 v=64
6 On ch=1 n=54 v=61
76 Off ch=1 n=48 v=64
41 On ch=1 n=61 v=78
9 Off ch=1 n=54 v=64
113 On ch=1 n=67 v=94
1 On ch=1 n=41 v=90
42 Off ch=1 n=61 v=64
76 On ch=1 n=62 v=90
27 Par ch=1 c=64 v=0
50 Off ch=1 n=67 v=64
43 On ch=1 n=55 v=74
9 Off ch=1 n=62 v=64
111 On ch=1 n=62 v=86
37 Off ch=1 n=55 v=64
80 On ch=1 n=48 v=62
3 On ch=1 n=67 v=90
8 Par ch=1 c=64 v=127
16 Off ch=1 n=62 v=64
96 On ch=1 n=62 v=78
63 Off ch=1 n=67 v=64
57 On ch=1 n=55 v=44
19 Off ch=1 n=62 v=64
72 Off ch=1 n=41 v=64
28 On ch=1 n=62 v=77
25 Off ch=1 n=55 v=64
97 On ch=1 n=41 v=64
1 On ch=1 n=67 v=78
31 Off ch=1 n=62 v=64
88 On ch=1 n=62 v=83
51 Off ch=1 n=67 v=64
71 On ch=1 n=55 v=60
4 Off ch=1 n=62 v=64
74 Off ch=1 n=48 v=64
40 On ch=1 n=62 v=91
16 Off ch=1 n=55 v=64
102 On ch=1 n=48 v=50
3 On ch=1 n=67 v=91
18 Off ch=1 n=62 v=64
102 On ch=1 n=62 v=60
58 Off ch=1 n=67 v=64
3 Off ch=1 n=41 v=64
27 Off ch=1 n=62 v=64
30 On ch=1 n=55 v=70
92 Off ch=1 n=55 v=64
25 On ch=1 n=62 v=74
122 On ch=1 n=68 v=90
2 On ch=1 n=41 v=90
28 Off ch=1 n=62 v=64
5 Off ch=1 n=48 v=64
88 On ch=1 n=63 v=78
3 Par ch=1 c=64 v=0
78 Off ch=1 n=68 v=64
37 On ch=1 n=56 v=71
14 Off ch=1 n=63 v=64
105 On ch=1 n=63 v=78
28 Off ch=1 n=56 v=64
32 On ch=1 n=48 v=52
10 Par ch=1 c=64 v=127
50 On ch=1 n=68 v=86
25 Off ch=1 n=63 v=64
95 On ch=1 n=63 v=78
61 Off ch=1 n=68 v=64
59 On ch=1 n=56 v=53
19 Off ch=1 n=63 v=64
100 On ch=1 n=63 v=76
23 Off ch=1 n=56 v=64
98 On ch=1 n=68 v=91
26 Off ch=1 n=63 v=64
94 On ch=1 n=63 v=86
7 Off ch=1 n=48 v=64
49 Off ch=1 n=68 v=64
64 On ch=1 n=56 v=56
9 Off ch=1 n=63 v=64
109 On ch=1 n=63 v=77
14 Off ch=1 n=56 v=64
106 On ch=1 n=68 v=89
1 On ch=1 n=48 v=70
26 Off ch=1 n=63 v=64
95 On ch=1 n=63 v=78
51 Off ch=1 n=68 v=64
22 Off ch=1 n=41 v=64
38 Off ch=1 n=63 v=64
7 On ch=1 n=56 v=66
88 Off ch=1 n=48 v=64
30 On ch=1 n=63 v=76
19 Off ch=1 n=56 v=64
104 On ch=1 n=69 v=89
2 On ch=1 n=41 v=91
35 Off ch=1 n=63 v=64
83 On ch=1 n=64 v=91
5 Par ch=1 c=64 v=0
73 Off ch=1 n=69 v=64
44 On ch=1 n=57 v=50
38 Off ch=1 n=64 v=64
82 On ch=1 n=64 v=86
47 Off ch=1 n=57 v=64
28 Par ch=1 c=64 v=127
40 On ch=1 n=48 v=60
4 On ch=1 n=69 v=83
22 Off ch=1 n=64 v=64
98 On ch=1 n=64 v=78
60 Off ch=1 n=69 v=64
61 On ch=1 n=57 v=61
23 Off ch=1 n=64 v=64
96 On ch=1 n=64 v=91
20 Off ch=1 n=57 v=64
102 On ch=1 n=69 v=90
38 Off ch=1 n=64 v=64
82 On ch=1 n=64 v=86
10 Off ch=1 n=48 v=64
61 Off ch=1 n=69 v=64
49 On ch=1 n=57 v=62
11 Off ch=1 n=64 v=64
108 On ch=1 n=64 v=86
25 Off ch=1 n=57 v=64
92 On ch=1 n=48 v=78
3 On ch=1 n=69 v=100
20 Off ch=1 n=64 v=64
100 On ch=1 n=64 v=90
60 Off ch=1 n=69 v=64
51 Off ch=1 n=64 v=64
9 On ch=1 n=57 v=61
22 Off ch=1 n=41 v=64
96 On ch=1 n=64 v=78
3 Off ch=1 n=57 v=64
33 Off ch=1 n=48 v=64
86 On ch=1 n=70 v=95
1 On ch=1 n=41 v=84
24 Off ch=1 n=64 v=64
67 Par ch=1 c=64 v=0
30 On ch=1 n=65 v=91
107 Off ch=1 n=70 v=64
14 On ch=1 n=58 v=76
21 Off ch=1 n=65 v=64
97 On ch=1 n=65 v=90
19 Off ch=1 n=58 v=64
95 On ch=1 n=48 v=66
5 On ch=1 n=70 v=95
7 Par ch=1 c=64 v=127
29 Off ch=1 n=65 v=64
87 On ch=1 n=65 v=91
76 Off ch=1 n=70 v=64
42 On ch=1 n=58 v=61
1 Off ch=1 n=65 v=64
120 On ch=1 n=65 v=95
23 Off ch=1 n=58 v=64
96 On ch=1 n=70 v=86
21 Off ch=1 n=65 v=64
102 On ch=1 n=65 v=78
71 Off ch=1 n=70 v=64
37 Off ch=1 n=65 v=64
11 On ch=1 n=58 v=74
38 Off ch=1 n=48 v=64
83 On ch=1 n=65 v=77
31 Off ch=1 n=58 v=64
89 On ch=1 n=48 v=70
0 On ch=1 n=70 v=95
27 Off ch=1 n=65 v=64
151 Off ch=1 n=70 v=64
52 On ch=1 n=65 v=83
8 Off ch=1 n=41 v=64
1 On ch=1 n=58 v=70
73 Off ch=1 n=65 v=64
45 On ch=1 n=65 v=90
11 Off ch=1 n=58 v=64
39 Off ch=1 n=48 v=64
69 On ch=1 n=71 v=86
2 On ch=1 n=41 v=89
3 Off ch=1 n=65 v=64
78 Par ch=1 c=64 v=0
37 On ch=1 n=66 v=86
78 Off ch=1 n=71 v=64
42 On ch=1 n=59 v=76
16 Off ch=1 n=66 v=64
102 On ch=1 n=48 v=64
0 On ch=1 n=66 v=82
39 Off ch=1 n=59 v=64
54 Par ch=1 c=64 v=127
26 On ch=1 n=71 v=91
31 Off ch=1 n=66 v=64
90 On ch=1 n=66 v=78
75 Off ch=1 n=71 v=64
44 On ch=1 n=59 v=78
12 Off ch=1 n=66 v=64
109 On ch=1 n=66 v=89
42 Off ch=1 n=59 v=64
78 On ch=1 n=71 v=83
32 Off ch=1 n=66 v=64
88 On ch=1 n=66 v=86
58 Off ch=1 n=71 v=64
62 On ch=1 n=59 v=70
3 Off ch=1 n=66 v=64
117 On ch=1 n=66 v=77
12 Off ch=1 n=59 v=64
108 On ch=1 n=71 v=91
7 Off ch=1 n=66 v=64
52 Off ch=1 n=48 v=64
61 On ch=1 n=66 v=78
55 Off ch=1 n=71 v=64
57 Off ch=1 n=41 v=64
1 Off ch=1 n=66 v=64
6 On ch=1 n=59 v=70
119 On ch=1 n=66 v=86
20 Off ch=1 n=59 v=64
106 On ch=1 n=72 v=108
0 On ch=1 n=53 v=91
0 On ch=1 n=65 v=108
0 On ch=1 n=48 v=94
0 On ch=1 n=60 v=106
1 On ch=1 n=41 v=100
6 Par ch=1 c=64 v=0
32 Off ch=1 n=66 v=64
158 Par ch=1 c=64 v=127
1481 On ch=1 n=60 v=127
61 Off ch=1 n=60 v=64
60 On ch=1 n=60 v=116
99 Off ch=1 n=65 v=64
2 Off ch=1 n=60 v=64
2 Off ch=1 n=53 v=64
3 Off ch=1 n=48 v=64
4 Off ch=1 n=41 v=64
6 Off ch=1 n=72 v=64
6 On ch=1 n=69 v=127
0 On ch=1 n=41 v=116
47 Par ch=1 c=64 v=0
307 Par ch=1 c=64 v=127
2 On ch=1 n=70 v=127
23 Off ch=1 n=69 v=64
1 On ch=1 n=48 v=89
160 Off ch=1 n=70 v=64
46 Off ch=1 n=41 v=64
91 Off ch=1 n=48 v=64
9 On ch=1 n=72 v=127
105 Off ch=1 n=60 v=64
26 Off ch=1 n=72 v=64
151 On ch=1 n=72 v=127
3 On ch=1 n=57 v=104
2 On ch=1 n=60 v=114
0 On ch=1 n=65 v=127
3 On ch=1 n=45 v=98
5 Par ch=1 c=64 v=0
161 Par ch=1 c=64 v=127
85 Off ch=1 n=72 v=64
66 Off ch=1 n=65 v=64
31 On ch=1 n=70 v=127
107 Off ch=1 n=45 v=64
6 Off ch=1 n=70 v=64
25 Off ch=1 n=60 v=64
10 Off ch=1 n=57 v=64
174 On ch=1 n=69 v=127
110 Off ch=1 n=69 v=64
165 On ch=1 n=62 v=127
2 On ch=1 n=65 v=127
3 On ch=1 n=58 v=106
2 On ch=1 n=46 v=114
16 Par ch=1 c=64 v=0
151 Par ch=1 c=64 v=127
112 Off ch=1 n=65 v=64
69 Off ch=1 n=62 v=64
6 On ch=1 n=67 v=127
33 Off ch=1 n=46 v=64
25 Off ch=1 n=58 v=64
31 Off ch=1 n=67 v=64
220 On ch=1 n=69 v=127
93 Off ch=1 n=69 v=64
193 On ch=1 n=69 v=115
9 On ch=1 n=50 v=116
0 On ch=1 n=65 v=127
2 On ch=1 n=62 v=116
3 On ch=1 n=57 v=71
8 Par ch=1 c=64 v=0
417 Par ch=1 c=64 v=127
84 Off ch=1 n=57 v=64
9 Off ch=1 n=69 v=64
9 Off ch=1 n=65 v=64
10 Off ch=1 n=62 v=64
3 Off ch=1 n=50 v=64
164 On ch=1 n=64 v=103
2 On ch=1 n=48 v=90
0 On ch=1 n=55 v=115
0 On ch=1 n=67 v=127
3 On ch=1 n=62 v=127
0 On ch=1 n=60 v=114
18 Par ch=1 c=64 v=0
159 Off ch=1 n=55 v=64
7 Off ch=1 n=62 v=64
5 Off ch=1 n=67 v=64
0 Off ch=1 n=60 v=64
3 Off ch=1 n=48 v=64
3 Off ch=1 n=64 v=64
66 On ch=1 n=62 v=124
3 On ch=1 n=64 v=106
0 On ch=1 n=48 v=94
0 On ch=1 n=67 v=114
0 On ch=1 n=55 v=102
2 On ch=1 n=60 v=88
2309 Off ch=1 n=48 v=64
3 Off ch=1 n=55 v=64
2 Off ch=1 n=62 v=64
3 Off ch=1 n=64 v=64
3 Off ch=1 n=60 v=64
2 Off ch=1 n=67 v=64
534 On ch=1 n=60 v=101
2 On ch=1 n=62 v=98
3 On ch=1 n=53 v=112
1 On ch=1 n=79 v=124
2 On ch=1 n=53 v=94
0 On ch=1 n=62 v=116
0 On ch=1 n=60 v=116
2 On ch=1 n=89 v=127
0 On ch=1 n=84 v=100
250 Off ch=1 n=89 v=64
0 On ch=1 n=88 v=91
31 On ch=1 n=86 v=90
5 On ch=1 n=83 v=78
12 Off ch=1 n=88 v=64
19 On ch=1 n=81 v=82
3 Off ch=1 n=86 v=64
21 Off ch=1 n=84 v=64
10 Off ch=1 n=62 v=64
2 Off ch=1 n=83 v=64
0 On ch=1 n=77 v=91
15 Off ch=1 n=60 v=64
2 Off ch=1 n=81 v=64
0 On ch=1 n=76 v=121
17 Off ch=1 n=79 v=64
2 On ch=1 n=74 v=104
3 Off ch=1 n=53 v=64
2 Off ch=1 n=77 v=64
6 Off ch=1 n=62 v=64
4 On ch=1 n=72 v=113
1 Off ch=1 n=60 v=64
3 Off ch=1 n=53 v=64
5 Off ch=1 n=76 v=64
7 On ch=1 n=71 v=113
5 Off ch=1 n=74 v=64
10 On ch=1 n=69 v=116
2 Off ch=1 n=72 v=64
12 On ch=1 n=67 v=116
3 Off ch=1 n=71 v=64
16 On ch=1 n=65 v=102
5 Off ch=1 n=69 v=64
12 On ch=1 n=64 v=108
5 Off ch=1 n=67 v=64
10 On ch=1 n=62 v=108
2 Off ch=1 n=65 v=64
14 On ch=1 n=60 v=92
3 Off ch=1 n=64 v=64
12 On ch=1 n=59 v=102
9 Off ch=1 n=62 v=64
8 On ch=1 n=57 v=92
12 Off ch=1 n=60 v=64
4 On ch=1 n=55 v=98
12 Off ch=1 n=59 v=64
5 On ch=1 n=53 v=100
12 Off ch=1 n=57 v=64
10 On ch=1 n=52 v=71
7 Off ch=1 n=55 v=64
12 On ch=1 n=50 v=92
5 Off ch=1 n=53 v=64
12 Off ch=1 n=52 v=64
5 On ch=1 n=48 v=86
4 Off ch=1 n=50 v=64
15 On ch=1 n=47 v=91
5 Off ch=1 n=48 v=64
16 On ch=1 n=45 v=92
8 Off ch=1 n=47 v=64
12 On ch=1 n=43 v=91
9 Off ch=1 n=45 v=64
12 On ch=1 n=41 v=53
12 Off ch=1 n=43 v=64
10 Off ch=1 n=41 v=64
432 On ch=1 n=57 v=121
93 Off ch=1 n=57 v=64
152 On ch=1 n=60 v=127
134 On ch=1 n=57 v=127
5 Off ch=1 n=60 v=64
77 On ch=1 n=53 v=67
0 On ch=1 n=57 v=76
9 Off ch=1 n=57 v=64
1 On ch=1 n=60 v=56
57 Off ch=1 n=53 v=64
2 Off ch=1 n=60 v=64
8 Off ch=1 n=57 v=64
81 On ch=1 n=58 v=127
94 Off ch=1 n=58 v=64
31 On ch=1 n=62 v=74
3 On ch=1 n=53 v=76
0 On ch=1 n=58 v=76
114 On ch=1 n=62 v=127
99 Off ch=1 n=62 v=64
153 On ch=1 n=65 v=127
99 Off ch=1 n=65 v=64
151 On ch=1 n=67 v=127
101 Off ch=1 n=67 v=64
49 Off ch=1 n=62 v=64
12 Off ch=1 n=53 v=64
55 Off ch=1 n=58 v=64
25 On ch=1 n=65 v=127
67 On ch=1 n=57 v=74
0 On ch=1 n=62 v=64
6 On ch=1 n=53 v=67
33 On ch=1 n=67 v=116
24 Off ch=1 n=65 v=64
41 On ch=1 n=68 v=92
41 Off ch=1 n=67 v=64
7 On ch=1 n=69 v=127
12 Off ch=1 n=68 v=64
440 Off ch=1 n=53 v=64
10 Off ch=1 n=62 v=64
8 Off ch=1 n=57 v=64
51 Off ch=1 n=69 v=64
60 On ch=1 n=55 v=48
5 On ch=1 n=64 v=56
0 On ch=1 n=60 v=56
14 On ch=1 n=67 v=121
86 Off ch=1 n=60 v=64
11 Off ch=1 n=64 v=64
5 Off ch=1 n=55 v=64
35 Off ch=1 n=67 v=64
112 On ch=1 n=67 v=127
2 On ch=1 n=64 v=74
3 On ch=1 n=55 v=66
2 On ch=1 n=60 v=66
1660 On ch=1 n=60 v=127
120 On ch=1 n=62 v=124
26 Off ch=1 n=60 v=64
70 Off ch=1 n=62 v=64
24 On ch=1 n=60 v=84
63 Off ch=1 n=60 v=64
55 On ch=1 n=62 v=124
119 On ch=1 n=65 v=124
16 Off ch=1 n=62 v=64
87 Off ch=1 n=65 v=64
18 On ch=1 n=62 v=109
73 Off ch=1 n=67 v=64
11 Off ch=1 n=62 v=64
33 On ch=1 n=65 v=127
121 On ch=1 n=67 v=109
31 Off ch=1 n=65 v=64
74 Off ch=1 n=67 v=64
16 On ch=1 n=65 v=97
77 Off ch=1 n=65 v=64
40 On ch=1 n=67 v=124
4 Off ch=1 n=64 v=64
106 Off ch=1 n=60 v=64
10 On ch=1 n=69 v=124
16 Off ch=1 n=55 v=64
15 Off ch=1 n=67 v=64
79 Off ch=1 n=69 v=64
12 On ch=1 n=67 v=90
98 Off ch=1 n=67 v=64
18 On ch=1 n=69 v=124
123 On ch=1 n=72 v=124
40 Off ch=1 n=69 v=64
75 Off ch=1 n=72 v=64
6 On ch=1 n=69 v=83
105 Off ch=1 n=69 v=64
15 On ch=1 n=72 v=124
122 On ch=1 n=74 v=127
19 On ch=1 n=60 v=91
0 On ch=1 n=65 v=83
2 On ch=1 n=57 v=79
20 Off ch=1 n=72 v=64
80 On ch=1 n=72 v=113
1 Off ch=1 n=74 v=64
23 Off ch=1 n=60 v=64
5 Off ch=1 n=65 v=64
8 Off ch=1 n=57 v=64
59 Off ch=1 n=72 v=64
24 On ch=1 n=74 v=127
122 On ch=1 n=77 v=127
44 Off ch=1 n=74 v=64
66 Off ch=1 n=77 v=64
10 On ch=1 n=74 v=113
93 Off ch=1 n=74 v=64
26 On ch=1 n=77 v=127
121 On ch=1 n=79 v=116
33 Off ch=1 n=77 v=64
58 Off ch=1 n=79 v=64
28 On ch=1 n=77 v=102
82 Off ch=1 n=77 v=64
47 On ch=1 n=79 v=127
110 On ch=1 n=81 v=113
14 Off ch=1 n=79 v=64
107 On ch=1 n=53 v=72
0 On ch=1 n=62 v=70
3 On ch=1 n=58 v=73
6 Off ch=1 n=81 v=64
19 On ch=1 n=79 v=127
89 Off ch=1 n=79 v=64
36 On ch=1 n=81 v=116
93 Off ch=1 n=81 v=64
10 On ch=1 n=84 v=116
120 On ch=1 n=86 v=108
33 Off ch=1 n=84 v=64
101 On ch=1 n=89 v=124
12 Off ch=1 n=86 v=64
130 Off ch=1 n=89 v=64
74 On ch=1 n=91 v=116
120 Off ch=1 n=91 v=64
28 Off ch=1 n=53 v=64
8 Off ch=1 n=62 v=64
36 Off ch=1 n=58 v=64
59 On ch=1 n=53 v=66
0 On ch=1 n=62 v=61
1 On ch=1 n=91 v=116
4 On ch=1 n=57 v=72
37 On ch=1 n=92 v=102
50 Off ch=1 n=91 v=64
5 On ch=1 n=93 v=100
19 Off ch=1 n=92 v=64
461 Off ch=1 n=93 v=64
27 On ch=1 n=96 v=121
15 Off ch=1 n=62 v=64
10 Off ch=1 n=53 v=64
0 Off ch=1 n=57 v=64
90 On ch=1 n=91 v=108
11 On ch=1 n=64 v=60
2 On ch=1 n=60 v=70
3 On ch=1 n=55 v=62
34 Off ch=1 n=96 v=64
12 On ch=1 n=92 v=92
41 Off ch=1 n=91 v=64
0 On ch=1 n=93 v=127
10 Off ch=1 n=92 v=64
11 Off ch=1 n=60 v=64
16 Off ch=1 n=64 v=64
7 Off ch=1 n=55 v=64
126 Off ch=1 n=93 v=64
8 On ch=1 n=60 v=68
0 On ch=1 n=55 v=62
3 On ch=1 n=64 v=55
6 On ch=1 n=91 v=116
970 Off ch=1 n=91 v=64
79 On ch=1 n=88 v=127
103 Off ch=1 n=88 v=64
132 On ch=1 n=89 v=127
108 On ch=1 n=88 v=113
41 Off ch=1 n=89 v=64
77 On ch=1 n=84 v=42
36 Off ch=1 n=88 v=64
67 Off ch=1 n=84 v=64
34 On ch=1 n=79 v=49
64 Off ch=1 n=79 v=64
46 On ch=1 n=77 v=92
115 On ch=1 n=76 v=108
31 Off ch=1 n=77 v=64
92 On ch=1 n=72 v=108
45 Off ch=1 n=76 v=64
67 Off ch=1 n=72 v=64
15 On ch=1 n=67 v=59
98 Off ch=1 n=67 v=64
27 On ch=1 n=65 v=113
90 Off ch=1 n=64 v=64
18 Off ch=1 n=65 v=64
0 Off ch=1 n=55 v=64
4 On ch=1 n=64 v=121
9 Off ch=1 n=60 v=64
104 Off ch=1 n=64 v=64
15 On ch=1 n=60 v=108
117 Off ch=1 n=60 v=64
12 On ch=1 n=62 v=127
93 On ch=1 n=60 v=113
15 Off ch=1 n=62 v=64
74 Off ch=1 n=60 v=64
3 On ch=1 n=62 v=76
13 On ch=1 n=62 v=127
36 On ch=1 n=55 v=70
6 On ch=1 n=58 v=74
449 On ch=1 n=58 v=70
61 Off ch=1 n=62 v=64
54 Off ch=1 n=58 v=64
48 On ch=1 n=65 v=127
148 Off ch=1 n=62 v=64
3 On ch=1 n=67 v=121
48 Off ch=1 n=65 v=64
82 Off ch=1 n=67 v=64
19 Off ch=1 n=58 v=64
23 Off ch=1 n=55 v=64
3 On ch=1 n=57 v=70
2 On ch=1 n=60 v=68
11 On ch=1 n=65 v=76
9 On ch=1 n=67 v=121
63 On ch=1 n=68 v=100
38 Off ch=1 n=67 v=64
29 On ch=1 n=69 v=113
17 Off ch=1 n=68 v=64
276 Off ch=1 n=69 v=64
0 On ch=1 n=72 v=127
235 On ch=1 n=67 v=100
24 Off ch=1 n=72 v=64
33 On ch=1 n=68 v=100
44 Off ch=1 n=67 v=64
7 On ch=1 n=69 v=127
12 Off ch=1 n=68 v=64
30 Off ch=1 n=60 v=64
3 Off ch=1 n=65 v=64
56 Off ch=1 n=57 v=64
54 On ch=1 n=58 v=73
0 On ch=1 n=65 v=72
3 Off ch=1 n=69 v=64
26 On ch=1 n=62 v=76
3 On ch=1 n=65 v=127
355 On ch=1 n=60 v=37
41 Off ch=1 n=60 v=64
67 On ch=1 n=68 v=127
15 Off ch=1 n=65 v=64
26 On ch=1 n=69 v=127
7 Off ch=1 n=68 v=64
161 Off ch=1 n=69 v=64
12 On ch=1 n=62 v=127
148 Off ch=1 n=65 v=64
8 On ch=1 n=60 v=108
13 Off ch=1 n=62 v=64
23 Off ch=1 n=62 v=64
59 On ch=1 n=55 v=73
8 On ch=1 n=64 v=67
5 On ch=1 n=60 v=68
36 Off ch=1 n=58 v=64
478 Off ch=1 n=60 v=64
105 On ch=1 n=60 v=127
106 On ch=1 n=62 v=121
12 Off ch=1 n=60 v=64
101 Off ch=1 n=64 v=64
19 On ch=1 n=58 v=74
25 Off ch=1 n=55 v=64
6 Off ch=1 n=62 v=64
14 Off ch=1 n=58 v=64
37 Off ch=1 n=60 v=64
23 On ch=1 n=65 v=127
10 On ch=1 n=58 v=58
3 On ch=1 n=55 v=74
2 On ch=1 n=62 v=77
429 Off ch=1 n=65 v=64
10 On ch=1 n=60 v=127
125 Off ch=1 n=60 v=64
5 On ch=1 n=62 v=121
124 On ch=1 n=65 v=127
24 Off ch=1 n=62 v=64
94 On ch=1 n=58 v=92
12 Off ch=1 n=65 v=64
23 Off ch=1 n=62 v=64
6 Off ch=1 n=58 v=64
48 Off ch=1 n=55 v=64
21 Off ch=1 n=58 v=64
8 On ch=1 n=67 v=121
33 On ch=1 n=57 v=73
0 On ch=1 n=60 v=76
13 On ch=1 n=65 v=80
30 On ch=1 n=68 v=108
41 Off ch=1 n=67 v=64
24 On ch=1 n=69 v=127
10 Off ch=1 n=68 v=64
101 On ch=1 n=72 v=121
19 Off ch=1 n=69 v=64
79 Off ch=1 n=72 v=64
31 On ch=1 n=74 v=127
144 Off ch=1 n=74 v=64
51 On ch=1 n=58 v=43
36 Off ch=1 n=58 v=64
7 On ch=1 n=77 v=121
113 On ch=1 n=72 v=121
40 Off ch=1 n=77 v=64
73 Off ch=1 n=60 v=64
4 On ch=1 n=58 v=86
10 Off ch=1 n=72 v=64
19 Off ch=1 n=65 v=64
7 Off ch=1 n=58 v=64
53 Off ch=1 n=57 v=64
38 On ch=1 n=58 v=66
0 On ch=1 n=74 v=127
5 On ch=1 n=65 v=72
16 On ch=1 n=62 v=88
152 Off ch=1 n=74 v=64
51 On ch=1 n=77 v=127
124 Off ch=1 n=77 v=64
118 On ch=1 n=79 v=116
156 Off ch=1 n=79 v=64
5 On ch=1 n=77 v=116
89 Off ch=1 n=77 v=64
91 On ch=1 n=79 v=121
34 Off ch=1 n=62 v=64
2 Off ch=1 n=65 v=64
17 On ch=1 n=80 v=94
38 Off ch=1 n=79 v=64
10 On ch=1 n=81 v=121
9 Off ch=1 n=80 v=64
27 On ch=1 n=55 v=73
5 On ch=1 n=64 v=67
3 On ch=1 n=60 v=68
38 Off ch=1 n=58 v=64
47 Off ch=1 n=81 v=64
12 On ch=1 n=58 v=16
5 Off ch=1 n=58 v=64
26 On ch=1 n=84 v=121
101 On ch=1 n=79 v=108
39 On ch=1 n=80 v=91
7 Off ch=1 n=84 v=64
38 Off ch=1 n=79 v=64
12 On ch=1 n=81 v=121
10 Off ch=1 n=80 v=64
65 On ch=1 n=58 v=100
24 Off ch=1 n=81 v=64
9 Off ch=1 n=58 v=64
36 On ch=1 n=77 v=127
214 Off ch=1 n=77 v=64
33 On ch=1 n=79 v=127
149 Off ch=1 n=79 v=64
94 On ch=1 n=79 v=127
17 On ch=1 n=56 v=83
16 Off ch=1 n=64 v=64
23 Off ch=1 n=60 v=64
26 Off ch=1 n=55 v=64
19 On ch=1 n=80 v=108
16 Off ch=1 n=79 v=64
92 On ch=1 n=79 v=108
24 Off ch=1 n=80 v=64
43 On ch=1 n=77 v=113
29 Off ch=1 n=79 v=64
132 Off ch=1 n=77 v=64
50 On ch=1 n=79 v=127
134 On ch=1 n=80 v=108
5 Off ch=1 n=79 v=64
156 Off ch=1 n=80 v=64
7 On ch=1 n=63 v=46
51 On ch=1 n=82 v=127
122 Off ch=1 n=82 v=64
144 On ch=1 n=84 v=83
127 On ch=1 n=86 v=102
12 Off ch=1 n=84 v=64
92 Off ch=1 n=86 v=64
2 On ch=1 n=87 v=127
94 Off ch=1 n=87 v=64
26 On ch=1 n=60 v=83
0 On ch=1 n=56 v=74
2 On ch=1 n=63 v=67
5 On ch=1 n=89 v=116
118 On ch=1 n=91 v=102
14 Off ch=1 n=89 v=64
96 On ch=1 n=92 v=121
7 Off ch=1 n=91 v=64
83 Off ch=1 n=63 v=64
25 Off ch=1 n=56 v=64
8 On ch=1 n=94 v=113
13 Off ch=1 n=60 v=64
6 Off ch=1 n=92 v=64
45 Off ch=1 n=63 v=64
32 Off ch=1 n=56 v=64
2 On ch=1 n=62 v=83
3 On ch=1 n=58 v=73
2 On ch=1 n=53 v=61
36 On ch=1 n=96 v=116
38 Off ch=1 n=94 v=64
509 Off ch=1 n=96 v=64
26 On ch=1 n=94 v=116
94 Off ch=1 n=94 v=64
91 On ch=1 n=96 v=125
91 Off ch=1 n=96 v=64
104 On ch=1 n=96 v=110
4 On ch=1 n=91 v=98
60 Off ch=1 n=91 v=64
17 On ch=1 n=94 v=67
12 On ch=1 n=92 v=83
41 Off ch=1 n=94 v=64
17 On ch=1 n=91 v=82
50 Off ch=1 n=92 v=64
34 On ch=1 n=89 v=98
24 Off ch=1 n=96 v=64
0 Off ch=1 n=91 v=64
69 Off ch=1 n=89 v=64
140 On ch=1 n=86 v=125
232 On ch=1 n=84 v=118
15 Off ch=1 n=86 v=64
54 Off ch=1 n=62 v=64
6 Off ch=1 n=53 v=64
46 Off ch=1 n=58 v=64
101 Off ch=1 n=84 v=64
18 On ch=1 n=65 v=64
0 On ch=1 n=57 v=74
2 On ch=1 n=60 v=70
126 On ch=1 n=84 v=85
100 Off ch=1 n=84 v=64
17 On ch=1 n=92 v=101
0 On ch=1 n=96 v=98
63 Off ch=1 n=92 v=64
67 On ch=1 n=92 v=56
2 On ch=1 n=93 v=91
22 Off ch=1 n=92 v=64
103 On ch=1 n=89 v=104
31 Off ch=1 n=96 v=64
5 Off ch=1 n=93 v=64
6 Off ch=1 n=65 v=64
46 Off ch=1 n=57 v=64
8 Off ch=1 n=89 v=64
0 Off ch=1 n=60 v=64
14 On ch=1 n=84 v=98
70 Off ch=1 n=84 v=64
48 On ch=1 n=82 v=98
74 Off ch=1 n=82 v=64
48 On ch=1 n=77 v=98
58 Off ch=1 n=77 v=64
70 On ch=1 n=80 v=112
153 Off ch=1 n=80 v=64
77 On ch=1 n=81 v=80
125 Off ch=1 n=81 v=64
110 On ch=1 n=82 v=115
137 Off ch=1 n=82 v=64
14 On ch=1 n=83 v=80
104 Off ch=1 n=83 v=64
115 On ch=1 n=84 v=127
101 Off ch=1 n=84 v=64
122 On ch=1 n=80 v=127
98 Off ch=1 n=80 v=64
152 On ch=1 n=77 v=127
115 Off ch=1 n=77 v=64
134 On ch=1 n=74 v=127
89 Off ch=1 n=74 v=64
8 On ch=1 n=53 v=72
5 On ch=1 n=58 v=67
0 On ch=1 n=62 v=66
1 On ch=1 n=72 v=116
110 Off ch=1 n=53 v=64
3 Off ch=1 n=62 v=64
15 Off ch=1 n=58 v=64
26 On ch=1 n=74 v=120
22 Off ch=1 n=72 v=64
52 Off ch=1 n=74 v=64
24 On ch=1 n=62 v=67
3 On ch=1 n=53 v=76
2 On ch=1 n=57 v=74
19 On ch=1 n=77 v=127
559 Off ch=1 n=62 v=64
37 Off ch=1 n=77 v=64
7 Off ch=1 n=53 v=64
2 On ch=1 n=72 v=85
8 Off ch=1 n=57 v=64
62 On ch=1 n=55 v=76
2 On ch=1 n=60 v=76
0 On ch=1 n=64 v=72
12 Off ch=1 n=72 v=64
7 On ch=1 n=79 v=120
87 Off ch=1 n=60 v=64
10 Off ch=1 n=55 v=64
0 Off ch=1 n=64 v=64
100 Off ch=1 n=79 v=64
34 On ch=1 n=72 v=127
3 On ch=1 n=55 v=74
0 On ch=1 n=64 v=70
0 On ch=1 n=60 v=74
951 Off ch=1 n=64 v=64
13 Off ch=1 n=60 v=64
0 Off ch=1 n=55 v=64
110 Off ch=1 n=72 v=64
116 On ch=1 n=72 v=109
59 Off ch=1 n=72 v=64
19 On ch=1 n=72 v=113
68 On ch=1 n=74 v=113
11 Off ch=1 n=72 v=64
46 Off ch=1 n=74 v=64
41 On ch=1 n=72 v=113
50 Off ch=1 n=72 v=64
17 On ch=1 n=72 v=113
75 On ch=1 n=74 v=104
10 Off ch=1 n=72 v=64
48 Off ch=1 n=74 v=64
26 On ch=1 n=74 v=104
55 Off ch=1 n=74 v=64
13 On ch=1 n=74 v=89
76 On ch=1 n=77 v=86
9 Off ch=1 n=74 v=64
43 Off ch=1 n=77 v=64
44 On ch=1 n=74 v=113
52 Off ch=1 n=74 v=64
18 On ch=1 n=74 v=101
74 On ch=1 n=77 v=120
11 Off ch=1 n=74 v=64
43 Off ch=1 n=77 v=64
46 On ch=1 n=77 v=92
48 Off ch=1 n=77 v=64
17 On ch=1 n=77 v=109
85 On ch=1 n=79 v=109
7 Off ch=1 n=77 v=64
37 Off ch=1 n=79 v=64
54 On ch=1 n=77 v=113
57 Off ch=1 n=77 v=64
2 On ch=1 n=79 v=98
83 On ch=1 n=81 v=113
17 Off ch=1 n=79 v=64
39 Off ch=1 n=81 v=64
33 On ch=1 n=79 v=113
50 Off ch=1 n=79 v=64
9 On ch=1 n=81 v=109
85 On ch=1 n=84 v=109
34 Off ch=1 n=81 v=64
20 Off ch=1 n=84 v=64
29 On ch=1 n=81 v=101
111 Off ch=1 n=81 v=64
383 On ch=1 n=84 v=127
94 Off ch=1 n=84 v=64
67 On ch=1 n=86 v=127
91 Off ch=1 n=86 v=64
122 On ch=1 n=89 v=120
94 Off ch=1 n=89 v=64
152 On ch=1 n=84 v=120
86 Off ch=1 n=84 v=64
20 On ch=1 n=86 v=101
84 Off ch=1 n=86 v=64
33 On ch=1 n=89 v=113
72 Off ch=1 n=89 v=64
36 On ch=1 n=65 v=72
2 On ch=1 n=60 v=72
1 On ch=1 n=91 v=85
2 On ch=1 n=57 v=76
79 On ch=1 n=93 v=46
3 On ch=1 n=92 v=101
12 Off ch=1 n=91 v=64
14 Off ch=1 n=93 v=64
72 On ch=1 n=93 v=85
24 Off ch=1 n=92 v=64
106 Off ch=1 n=93 v=64
12 Off ch=1 n=60 v=64
5 Off ch=1 n=65 v=64
2 On ch=1 n=94 v=104
27 Off ch=1 n=57 v=64
86 On ch=1 n=95 v=95
2 Off ch=1 n=94 v=64
41 On ch=1 n=58 v=64
13 On ch=1 n=65 v=62
5 On ch=1 n=62 v=73
90 Off ch=1 n=95 v=64
9 On ch=1 n=96 v=127
120 On ch=1 n=92 v=127
128 On ch=1 n=93 v=95
12 Off ch=1 n=92 v=64
98 On ch=1 n=89 v=113
38 Off ch=1 n=93 v=64
27 Off ch=1 n=96 v=64
43 Off ch=1 n=89 v=64
10 On ch=1 n=84 v=109
79 Off ch=1 n=84 v=64
48 On ch=1 n=82 v=120
7 On ch=1 n=89 v=86
48 Off ch=1 n=89 v=64
14 Off ch=1 n=65 v=64
36 Off ch=1 n=62 v=64
5 Off ch=1 n=82 v=64
29 On ch=1 n=77 v=92
7 Off ch=1 n=58 v=64
55 Off ch=1 n=77 v=64
35 On ch=1 n=62 v=77
3 On ch=1 n=57 v=60
1 On ch=1 n=80 v=116
1 On ch=1 n=65 v=67
1 On ch=1 n=89 v=116
58 On ch=1 n=81 v=101
12 Off ch=1 n=80 v=64
420 Off ch=1 n=89 v=64
57 Off ch=1 n=81 v=64
29 On ch=1 n=89 v=92
5 On ch=1 n=84 v=113
24 Off ch=1 n=65 v=64
70 Off ch=1 n=57 v=64
2 Off ch=1 n=62 v=64
38 On ch=1 n=80 v=120
14 On ch=1 n=60 v=70
5 On ch=1 n=64 v=61
3 On ch=1 n=55 v=61
24 Off ch=1 n=84 v=64
38 On ch=1 n=81 v=104
8 Off ch=1 n=80 v=64
30 Off ch=1 n=64 v=64
8 Off ch=1 n=55 v=64
8 Off ch=1 n=60 v=64
42 Off ch=1 n=89 v=64
39 Off ch=1 n=81 v=64
38 On ch=1 n=79 v=109
10 On ch=1 n=64 v=73
2 On ch=1 n=55 v=61
0 On ch=1 n=60 v=66
436 On ch=1 n=79 v=127
126 Off ch=1 n=79 v=64
31 On ch=1 n=81 v=98
88 Off ch=1 n=81 v=64
134 On ch=1 n=84 v=113
95 Off ch=1 n=84 v=64
139 On ch=1 n=86 v=120
101 Off ch=1 n=86 v=64
134 On ch=1 n=86 v=113
111 On ch=1 n=87 v=80
10 Off ch=1 n=86 v=64
23 Off ch=1 n=79 v=64
49 Off ch=1 n=87 v=64
29 On ch=1 n=86 v=85
56 On ch=1 n=84 v=85
16 Off ch=1 n=86 v=64
44 Off ch=1 n=84 v=64
49 On ch=1 n=86 v=127
31 Off ch=1 n=55 v=64
18 Off ch=1 n=64 v=64
5 Off ch=1 n=60 v=64
90 Off ch=1 n=86 v=64
103 On ch=1 n=84 v=120
432 On ch=1 n=79 v=127
32 Off ch=1 n=84 v=64
203 Off ch=1 n=79 v=64
0 On ch=1 n=81 v=112
237 On ch=1 n=43 v=86
8 On ch=1 n=74 v=118
5 On ch=1 n=82 v=124
7 Par ch=1 c=64 v=0
30 Off ch=1 n=81 v=64
120 Par ch=1 c=64 v=127
26 On ch=1 n=50 v=91
100 Off ch=1 n=82 v=64
67 On ch=1 n=86 v=124
114 On ch=1 n=58 v=90
2 Off ch=1 n=86 v=64
60 Off ch=1 n=74 v=64
103 Off ch=1 n=50 v=64
10 Off ch=1 n=43 v=64
18 On ch=1 n=84 v=127
41 Off ch=1 n=58 v=64
80 Off ch=1 n=84 v=64
145 On ch=1 n=45 v=86
0 On ch=1 n=57 v=85
23 On ch=1 n=72 v=124
0 On ch=1 n=77 v=127
10 Par ch=1 c=64 v=0
124 Par ch=1 c=64 v=127
70 On ch=1 n=53 v=76
100 Off ch=1 n=77 v=64
10 Off ch=1 n=57 v=64
49 On ch=1 n=79 v=124
140 On ch=1 n=57 v=83
18 Off ch=1 n=79 v=64
2 Off ch=1 n=72 v=64
47 Off ch=1 n=45 v=64
49 Off ch=1 n=53 v=64
38 Off ch=1 n=57 v=64
13 On ch=1 n=81 v=127
116 Off ch=1 n=81 v=64
165 On ch=1 n=58 v=94
5 On ch=1 n=46 v=83
8 Par ch=1 c=64 v=0
3 On ch=1 n=81 v=120
2 On ch=1 n=74 v=118
83 Par ch=1 c=64 v=127
121 On ch=1 n=53 v=83
224 Off ch=1 n=53 v=64
16 Off ch=1 n=81 v=64
15 On ch=1 n=84 v=108
23 Off ch=1 n=46 v=64
13 Off ch=1 n=58 v=64
8 Off ch=1 n=74 v=64
124 Off ch=1 n=84 v=64
69 On ch=1 n=60 v=90
3 On ch=1 n=48 v=91
2 On ch=1 n=79 v=104
3 On ch=1 n=76 v=112
3 On ch=1 n=72 v=108
74 Par ch=1 c=64 v=0
129 Par ch=1 c=64 v=127
230 Off ch=1 n=76 v=64
7 Off ch=1 n=72 v=64
13 On ch=1 n=55 v=83
18 Off ch=1 n=79 v=64
207 Off ch=1 n=60 v=64
2 Off ch=1 n=55 v=64
31 On ch=1 n=86 v=124
10 Off ch=1 n=48 v=64
85 Off ch=1 n=86 v=64
135 On ch=1 n=88 v=127
97 Off ch=1 n=88 v=64
129 On ch=1 n=88 v=108
13 On ch=1 n=43 v=90
0 On ch=1 n=81 v=112
75 Par ch=1 c=64 v=0
8 On ch=1 n=89 v=96
46 Off ch=1 n=88 v=64
65 On ch=1 n=50 v=96
49 Par ch=1 c=64 v=127
7 Off ch=1 n=81 v=64
8 Off ch=1 n=89 v=64
77 On ch=1 n=88 v=118
3 On ch=1 n=79 v=94
147 On ch=1 n=58 v=96
13 Off ch=1 n=88 v=64
2 Off ch=1 n=79 v=64
145 On ch=1 n=86 v=127
5 Off ch=1 n=43 v=64
13 Off ch=1 n=50 v=64
67 Off ch=1 n=58 v=64
39 Off ch=1 n=86 v=64
180 On ch=1 n=45 v=88
0 On ch=1 n=57 v=94
10 On ch=1 n=84 v=98
3 On ch=1 n=77 v=127
15 Par ch=1 c=64 v=0
88 Par ch=1 c=64 v=127
113 Off ch=1 n=84 v=64
26 On ch=1 n=53 v=88
21 Off ch=1 n=77 v=64
59 Off ch=1 n=57 v=64
31 On ch=1 n=82 v=124
129 Off ch=1 n=82 v=64
26 On ch=1 n=57 v=71
69 Off ch=1 n=45 v=64
52 Off ch=1 n=53 v=64
26 Off ch=1 n=57 v=64
13 On ch=1 n=81 v=112
152 Off ch=1 n=81 v=64
136 On ch=1 n=46 v=76
3 On ch=1 n=62 v=67
2 On ch=1 n=53 v=86
8 Par ch=1 c=64 v=0
8 On ch=1 n=81 v=124
0 On ch=1 n=74 v=112
77 Par ch=1 c=64 v=127
323 Off ch=1 n=53 v=64
2 Off ch=1 n=46 v=64
54 Off ch=1 n=62 v=64
3 On ch=1 n=84 v=102
20 Off ch=1 n=81 v=64
29 Off ch=1 n=74 v=64
185 On ch=1 n=55 v=88
16 On ch=1 n=64 v=72
0 On ch=1 n=79 v=112
0 On ch=1 n=48 v=71
2 On ch=1 n=72 v=108
37 Off ch=1 n=84 v=64
46 Par ch=1 c=64 v=0
134 Par ch=1 c=64 v=127
126 Off ch=1 n=64 v=64
75 Off ch=1 n=72 v=64
54 Off ch=1 n=79 v=64
26 On ch=1 n=60 v=96
222 Off ch=1 n=55 v=64
2 Off ch=1 n=60 v=64
5 On ch=1 n=84 v=127
8 Off ch=1 n=48 v=64
90 Off ch=1 n=84 v=64
132 On ch=1 n=86 v=127
93 Off ch=1 n=86 v=64
154 On ch=1 n=44 v=102
13 On ch=1 n=79 v=118
3 On ch=1 n=87 v=127
28 Par ch=1 c=64 v=0
147 Par ch=1 c=64 v=127
18 On ch=1 n=51 v=80
49 Off ch=1 n=79 v=64
5 Off ch=1 n=87 v=64
114 On ch=1 n=77 v=104
2 On ch=1 n=86 v=108
114 Off ch=1 n=86 v=64
2 On ch=1 n=56 v=94
21 Off ch=1 n=77 v=64
101 Off ch=1 n=44 v=64
90 On ch=1 n=84 v=120
0 On ch=1 n=75 v=118
80 Off ch=1 n=84 v=64
2 Off ch=1 n=75 v=64
116 Off ch=1 n=56 v=64
34 Off ch=1 n=51 v=64
2 On ch=1 n=44 v=94
31 On ch=1 n=75 v=124
3 On ch=1 n=84 v=124
170 Off ch=1 n=84 v=64
8 Off ch=1 n=75 v=64
7 On ch=1 n=51 v=66
168 On ch=1 n=82 v=118
80 On ch=1 n=56 v=91
21 Off ch=1 n=82 v=64
15 Off ch=1 n=44 v=64
13 Off ch=1 n=51 v=64
90 Off ch=1 n=56 v=64
96 On ch=1 n=80 v=124
85 Off ch=1 n=80 v=64
172 On ch=1 n=48 v=88
11 On ch=1 n=58 v=102
7 On ch=1 n=84 v=120
3 On ch=1 n=72 v=112
0 On ch=1 n=77 v=108
3 Par ch=1 c=64 v=0
27 On ch=1 n=65 v=95
0 On ch=1 n=77 v=119
65 Par ch=1 c=64 v=127
95 Off ch=1 n=77 v=64
10 Off ch=1 n=65 v=64
68 Off ch=1 n=77 v=64
0 Off ch=1 n=58 v=64
8 Off ch=1 n=72 v=64
2 Off ch=1 n=84 v=64
0 Off ch=1 n=48 v=64
108 On ch=1 n=64 v=77
0 On ch=1 n=76 v=98
152 Off ch=1 n=76 v=64
28 Off ch=1 n=64 v=64
137 On ch=1 n=62 v=76
0 On ch=1 n=74 v=101
144 Off ch=1 n=74 v=64
3 Off ch=1 n=62 v=64
157 On ch=1 n=62 v=85
8 On ch=1 n=74 v=104
185 Off ch=1 n=62 v=64
16 Off ch=1 n=74 v=64
108 On ch=1 n=60 v=73
23 On ch=1 n=72 v=104
158 Off ch=1 n=72 v=64
28 Off ch=1 n=60 v=64
106 On ch=1 n=58 v=80
2 On ch=1 n=70 v=85
127 Off ch=1 n=70 v=64
18 Off ch=1 n=58 v=64
162 On ch=1 n=79 v=122
0 On ch=1 n=67 v=95
157 Off ch=1 n=79 v=64
55 Off ch=1 n=67 v=64
121 On ch=1 n=65 v=77
13 On ch=1 n=77 v=115
144 Off ch=1 n=77 v=64
18 Off ch=1 n=65 v=64
137 On ch=1 n=64 v=73
12 On ch=1 n=76 v=95
127 Off ch=1 n=64 v=64
13 Off ch=1 n=76 v=64
157 On ch=1 n=64 v=83
10 On ch=1 n=76 v=104
139 Off ch=1 n=76 v=64
21 Off ch=1 n=64 v=64
144 On ch=1 n=62 v=76
16 On ch=1 n=74 v=104
124 Off ch=1 n=74 v=64
25 Off ch=1 n=62 v=64
124 On ch=1 n=60 v=88
16 On ch=1 n=72 v=104
95 Off ch=1 n=60 v=64
26 On ch=1 n=74 v=83
33 Off ch=1 n=72 v=64
3 On ch=1 n=77 v=80
31 Off ch=1 n=74 v=64
0 On ch=1 n=65 v=17
5 On ch=1 n=79 v=62
39 On ch=1 n=81 v=73
2 Off ch=1 n=77 v=64
18 Off ch=1 n=79 v=64
5 Off ch=1 n=65 v=64
16 Off ch=1 n=81 v=64
3 On ch=1 n=84 v=73
23 Off ch=1 n=84 v=64
59 On ch=1 n=89 v=104
5 On ch=1 n=65 v=79
3 On ch=1 n=60 v=91
0 On ch=1 n=84 v=108
0 On ch=1 n=53 v=70
2 On ch=1 n=81 v=79
134 Par ch=1 c=64 v=0
98 Off ch=1 n=84 v=64
6 Off ch=1 n=65 v=64
0 Off ch=1 n=81 v=64
2 Off ch=1 n=89 v=64
8 Off ch=1 n=60 v=64
10 Off ch=1 n=53 v=64
0 Meta TrkEnd
TrkEnd
MTrk
TimestampType=Delta
0 Meta Text "BASS"
0 Par ch=2 c=7 v=120
0 Par ch=2 c=10 v=64
0 Par ch=2 c=91 v=0
0 Par ch=2 c=93 v=20
0 PrCh ch=2 p=37
0 Par ch=2 c=64 v=0
0 Pb ch=2 v=8192
339 On ch=2 n=29 v=123
3866 Off ch=2 n=29 v=64
7654 On ch=2 n=29 v=105
482 Off ch=2 n=29 v=64
0 On ch=2 n=29 v=105
480 Off ch=2 n=29 v=64
0 On ch=2 n=29 v=105
482 Off ch=2 n=29 v=64
0 On ch=2 n=29 v=105
480 Off ch=2 n=29 v=64
0 On ch=2 n=29 v=105
480 Off ch=2 n=29 v=64
0 On ch=2 n=29 v=105
478 Off ch=2 n=29 v=64
0 On ch=2 n=29 v=105
478 Off ch=2 n=29 v=64
0 On ch=2 n=29 v=105
481 Off ch=2 n=29 v=64
0 On ch=2 n=29 v=105
482 Off ch=2 n=29 v=64
0 On ch=2 n=29 v=105
478 Off ch=2 n=29 v=64
0 On ch=2 n=29 v=105
477 Off ch=2 n=29 v=64
0 On ch=2 n=29 v=105
484 Off ch=2 n=29 v=64
0 On ch=2 n=29 v=105
480 Off ch=2 n=29 v=64
0 On ch=2 n=29 v=105
478 Off ch=2 n=29 v=64
0 On ch=2 n=29 v=114
723 On ch=2 n=36 v=105
103 Off ch=2 n=29 v=64
11 On ch=2 n=33 v=105
15 Off ch=2 n=36 v=64
109 On ch=2 n=29 v=115
60 Off ch=2 n=33 v=64
575 Off ch=2 n=29 v=64
85 On ch=2 n=29 v=105
120 On ch=2 n=31 v=105
39 Off ch=2 n=29 v=64
81 On ch=2 n=33 v=105
51 Off ch=2 n=31 v=64
598 Off ch=2 n=33 v=64
71 On ch=2 n=33 v=105
243 On ch=2 n=34 v=105
20 Off ch=2 n=33 v=64
580 Off ch=2 n=34 v=64
117 On ch=2 n=34 v=105
120 On ch=2 n=36 v=105
21 Off ch=2 n=34 v=64
81 Off ch=2 n=36 v=64
19 On ch=2 n=38 v=105
714 Off ch=2 n=38 v=64
5 On ch=2 n=36 v=107
178 Off ch=2 n=36 v=64
62 On ch=2 n=36 v=105
2567 Off ch=2 n=36 v=64
73 On ch=2 n=36 v=105
119 Off ch=2 n=36 v=64
1 On ch=2 n=38 v=105
120 On ch=2 n=29 v=105
21 Off ch=2 n=38 v=64
928 Off ch=2 n=29 v=64
11 On ch=2 n=33 v=105
655 Off ch=2 n=33 v=64
65 On ch=2 n=33 v=105
216 Off ch=2 n=33 v=64
24 On ch=2 n=34 v=105
657 Off ch=2 n=34 v=64
63 On ch=2 n=34 v=105
120 On ch=2 n=36 v=105
11 Off ch=2 n=34 v=64
109 On ch=2 n=38 v=105
22 Off ch=2 n=36 v=64
695 Off ch=2 n=38 v=64
3 On ch=2 n=36 v=105
179 Off ch=2 n=36 v=64
61 On ch=2 n=36 v=105
2570 Off ch=2 n=36 v=64
70 On ch=2 n=36 v=105
120 On ch=2 n=38 v=105
27 Off ch=2 n=36 v=64
93 On ch=2 n=31 v=105
18 Off ch=2 n=38 v=64
595 Off ch=2 n=31 v=64
107 On ch=2 n=31 v=105
240 On ch=2 n=33 v=105
11 Off ch=2 n=31 v=64
599 Off ch=2 n=33 v=64
110 On ch=2 n=33 v=105
240 On ch=2 n=34 v=105
5 Off ch=2 n=33 v=64
648 Off ch=2 n=34 v=64
67 On ch=2 n=34 v=105
240 Off ch=2 n=34 v=64
0 On ch=2 n=36 v=105
404 Off ch=2 n=36 v=64
76 On ch=2 n=36 v=105
120 On ch=2 n=38 v=105
16 Off ch=2 n=36 v=64
71 Off ch=2 n=38 v=64
33 On ch=2 n=33 v=105
100 Off ch=2 n=33 v=64
20 On ch=2 n=34 v=105
120 On ch=2 n=31 v=105
6 Off ch=2 n=34 v=64
612 Off ch=2 n=31 v=64
101 On ch=2 n=31 v=105
241 On ch=2 n=33 v=105
14 Off ch=2 n=31 v=64
588 Off ch=2 n=33 v=64
118 On ch=2 n=33 v=105
240 On ch=2 n=34 v=105
15 Off ch=2 n=33 v=64
623 Off ch=2 n=34 v=64
82 On ch=2 n=34 v=105
240 On ch=2 n=36 v=105
30 Off ch=2 n=34 v=64
562 Off ch=2 n=36 v=64
8 On ch=2 n=31 v=105
102 Off ch=2 n=31 v=64
18 On ch=2 n=36 v=105
120 On ch=2 n=34 v=105
47 Off ch=2 n=36 v=64
73 On ch=2 n=32 v=105
19 Off ch=2 n=34 v=64
566 Off ch=2 n=32 v=64
134 On ch=2 n=32 v=105
201 Off ch=2 n=32 v=64
40 On ch=2 n=32 v=105
625 Off ch=2 n=32 v=64
95 On ch=2 n=32 v=105
120 On ch=2 n=34 v=105
31 Off ch=2 n=32 v=64
89 On ch=2 n=36 v=105
17 Off ch=2 n=34 v=64
695 Off ch=2 n=36 v=64
248 On ch=2 n=36 v=105
840 On ch=2 n=34 v=105
0 On ch=2 n=33 v=105
23 Off ch=2 n=36 v=64
97 On ch=2 n=29 v=105
7 Off ch=2 n=33 v=64
24 Off ch=2 n=34 v=64
6858 Off ch=2 n=29 v=64
71 On ch=2 n=41 v=109
105 Off ch=2 n=41 v=64
15 On ch=2 n=43 v=107
120 On ch=2 n=48 v=105
21 Off ch=2 n=43 v=64
99 On ch=2 n=50 v=105
26 Off ch=2 n=48 v=64
94 On ch=2 n=41 v=107
37 Off ch=2 n=50 v=64
49 Off ch=2 n=41 v=64
34 On ch=2 n=43 v=107
120 On ch=2 n=29 v=127
6 Off ch=2 n=43 v=64
575 Off ch=2 n=29 v=64
139 On ch=2 n=29 v=105
240 On ch=2 n=33 v=105
35 Off ch=2 n=29 v=64
545 Off ch=2 n=33 v=64
140 On ch=2 n=33 v=105
240 On ch=2 n=34 v=105
1 Off ch=2 n=33 v=64
592 Off ch=2 n=34 v=64
127 On ch=2 n=34 v=105
120 On ch=2 n=36 v=105
43 Off ch=2 n=34 v=64
77 On ch=2 n=38 v=105
7 Off ch=2 n=36 v=64
713 On ch=2 n=36 v=105
37 Off ch=2 n=38 v=64
174 Off ch=2 n=36 v=64
29 On ch=2 n=36 v=105
937 Off ch=2 n=36 v=64
24 On ch=2 n=36 v=105
642 Off ch=2 n=36 v=64
77 On ch=2 n=36 v=105
625 Off ch=2 n=36 v=64
95 On ch=2 n=36 v=105
120 On ch=2 n=38 v=105
21 Off ch=2 n=36 v=64
73 Off ch=2 n=38 v=64
26 On ch=2 n=31 v=105
120 On ch=2 n=33 v=105
14 Off ch=2 n=31 v=64
106 On ch=2 n=29 v=105
27 Off ch=2 n=33 v=64
623 Off ch=2 n=29 v=64
71 On ch=2 n=29 v=105
121 On ch=2 n=31 v=105
33 Off ch=2 n=29 v=64
88 On ch=2 n=33 v=105
28 Off ch=2 n=31 v=64
585 Off ch=2 n=33 v=64
104 On ch=2 n=33 v=105
242 On ch=2 n=34 v=105
16 Off ch=2 n=33 v=64
643 Off ch=2 n=34 v=64
61 On ch=2 n=34 v=105
121 On ch=2 n=36 v=105
23 Off ch=2 n=34 v=64
95 On ch=2 n=38 v=105
24 Off ch=2 n=36 v=64
694 On ch=2 n=36 v=105
19 Off ch=2 n=38 v=64
177 Off ch=2 n=36 v=64
45 On ch=2 n=36 v=105
912 Off ch=2 n=36 v=64
48 On ch=2 n=36 v=105
456 Off ch=2 n=36 v=64
24 On ch=2 n=36 v=105
920 Off ch=2 n=36 v=64
42 On ch=2 n=36 v=105
121 On ch=2 n=38 v=105
31 Off ch=2 n=36 v=64
65 Off ch=2 n=38 v=64
21 On ch=2 n=33 v=105
117 Off ch=2 n=33 v=64
3 On ch=2 n=34 v=105
121 On ch=2 n=31 v=105
18 Off ch=2 n=34 v=64
583 Off ch=2 n=31 v=64
114 On ch=2 n=31 v=105
243 On ch=2 n=33 v=105
29 Off ch=2 n=31 v=64
584 Off ch=2 n=33 v=64
103 On ch=2 n=33 v=105
243 On ch=2 n=34 v=105
25 Off ch=2 n=33 v=64
610 Off ch=2 n=34 v=64
82 On ch=2 n=34 v=105
243 On ch=2 n=36 v=105
25 Off ch=2 n=34 v=64
662 Off ch=2 n=36 v=64
31 On ch=2 n=33 v=105
121 On ch=2 n=34 v=105
42 Off ch=2 n=33 v=64
78 On ch=2 n=31 v=105
16 Off ch=2 n=34 v=64
594 Off ch=2 n=31 v=64
112 On ch=2 n=31 v=105
237 On ch=2 n=33 v=105
51 Off ch=2 n=31 v=64
552 Off ch=2 n=33 v=64
124 On ch=2 n=33 v=105
232 On ch=2 n=34 v=105
33 Off ch=2 n=33 v=64
585 Off ch=2 n=34 v=64
108 On ch=2 n=34 v=105
235 On ch=2 n=36 v=105
43 Off ch=2 n=34 v=64
582 Off ch=2 n=36 v=64
94 On ch=2 n=36 v=105
120 On ch=2 n=34 v=105
27 Off ch=2 n=36 v=64
95 On ch=2 n=32 v=105
50 Off ch=2 n=34 v=64
553 Off ch=2 n=32 v=64
122 On ch=2 n=32 v=105
235 On ch=2 n=32 v=105
6 Off ch=2 n=32 v=64
634 Off ch=2 n=32 v=64
82 On ch=2 n=32 v=105
121 On ch=2 n=34 v=105
25 Off ch=2 n=32 v=64
95 On ch=2 n=36 v=105
23 Off ch=2 n=34 v=64
869 Off ch=2 n=36 v=64
68 On ch=2 n=36 v=105
677 Off ch=2 n=36 v=64
42 On ch=2 n=36 v=105
198 Off ch=2 n=36 v=64
44 On ch=2 n=36 v=105
652 Off ch=2 n=36 v=64
67 On ch=2 n=36 v=105
216 Off ch=2 n=36 v=64
27 On ch=2 n=36 v=105
437 Off ch=2 n=36 v=64
41 On ch=2 n=36 v=105
355 On ch=2 n=34 v=105
1 On ch=2 n=33 v=105
60 On ch=2 n=31 v=105
23 Off ch=2 n=34 v=64
25 Off ch=2 n=36 v=64
18 On ch=2 n=29 v=127
50 Off ch=2 n=33 v=64
21 Off ch=2 n=31 v=64
4745 Off ch=2 n=29 v=64
22542 On ch=2 n=29 v=105
470 Off ch=2 n=29 v=64
491 On ch=2 n=29 v=105
456 Off ch=2 n=29 v=64
505 On ch=2 n=29 v=105
425 Off ch=2 n=29 v=64
536 On ch=2 n=29 v=105
422 Off ch=2 n=29 v=64
535 On ch=2 n=29 v=105
462 Off ch=2 n=29 v=64
497 On ch=2 n=29 v=108
499 Off ch=2 n=29 v=64
461 On ch=2 n=29 v=105
488 Off ch=2 n=29 v=64
471 On ch=2 n=29 v=105
525 Off ch=2 n=29 v=64
434 On ch=2 n=29 v=108
511 Off ch=2 n=29 v=64
448 On ch=2 n=29 v=105
538 Off ch=2 n=29 v=64
423 On ch=2 n=29 v=110
527 Off ch=2 n=29 v=64
431 On ch=2 n=29 v=113
558 Off ch=2 n=29 v=64
405 On ch=2 n=29 v=110
533 Off ch=2 n=29 v=64
428 On ch=2 n=29 v=110
514 Off ch=2 n=29 v=64
8606 On ch=2 n=29 v=105
635 Off ch=2 n=29 v=64
85 On ch=2 n=29 v=105
120 On ch=2 n=31 v=105
39 Off ch=2 n=29 v=64
81 On ch=2 n=33 v=105
51 Off ch=2 n=31 v=64
598 Off ch=2 n=33 v=64
71 On ch=2 n=33 v=105
240 On ch=2 n=34 v=105
23 Off ch=2 n=33 v=64
577 Off ch=2 n=34 v=64
120 On ch=2 n=34 v=105
120 On ch=2 n=36 v=105
21 Off ch=2 n=34 v=64
81 Off ch=2 n=36 v=64
19 On ch=2 n=38 v=105
714 Off ch=2 n=38 v=64
5 On ch=2 n=36 v=107
178 Off ch=2 n=36 v=64
62 On ch=2 n=36 v=105
2567 Off ch=2 n=36 v=64
73 On ch=2 n=36 v=105
119 Off ch=2 n=36 v=64
1 On ch=2 n=38 v=105
123 On ch=2 n=29 v=105
18 Off ch=2 n=38 v=64
931 Off ch=2 n=29 v=64
11 On ch=2 n=33 v=105
655 Off ch=2 n=33 v=64
65 On ch=2 n=33 v=105
216 Off ch=2 n=33 v=64
24 On ch=2 n=34 v=105
657 Off ch=2 n=34 v=64
64 On ch=2 n=34 v=105
120 On ch=2 n=36 v=105
11 Off ch=2 n=34 v=64
109 On ch=2 n=38 v=105
22 Off ch=2 n=36 v=64
695 Off ch=2 n=38 v=64
3 On ch=2 n=36 v=105
179 Off ch=2 n=36 v=64
61 On ch=2 n=36 v=105
2570 Off ch=2 n=36 v=64
70 On ch=2 n=36 v=105
120 On ch=2 n=38 v=105
27 Off ch=2 n=36 v=64
93 On ch=2 n=31 v=105
18 Off ch=2 n=38 v=64
595 Off ch=2 n=31 v=64
106 On ch=2 n=31 v=105
241 On ch=2 n=33 v=105
10 Off ch=2 n=31 v=64
600 Off ch=2 n=33 v=64
109 On ch=2 n=33 v=105
241 On ch=2 n=34 v=105
4 Off ch=2 n=33 v=64
649 Off ch=2 n=34 v=64
66 On ch=2 n=34 v=105
240 Off ch=2 n=34 v=64
0 On ch=2 n=36 v=105
404 Off ch=2 n=36 v=64
77 On ch=2 n=36 v=105
120 On ch=2 n=38 v=105
16 Off ch=2 n=36 v=64
71 Off ch=2 n=38 v=64
32 On ch=2 n=33 v=105
100 Off ch=2 n=33 v=64
20 On ch=2 n=34 v=105
120 On ch=2 n=31 v=105
6 Off ch=2 n=34 v=64
612 Off ch=2 n=31 v=64
102 On ch=2 n=31 v=105
241 On ch=2 n=33 v=105
14 Off ch=2 n=31 v=64
588 Off ch=2 n=33 v=64
117 On ch=2 n=33 v=105
240 On ch=2 n=34 v=105
15 Off ch=2 n=33 v=64
623 Off ch=2 n=34 v=64
82 On ch=2 n=34 v=105
241 On ch=2 n=36 v=105
29 Off ch=2 n=34 v=64
563 Off ch=2 n=36 v=64
7 On ch=2 n=31 v=105
102 Off ch=2 n=31 v=64
18 On ch=2 n=36 v=105
120 On ch=2 n=34 v=105
47 Off ch=2 n=36 v=64
74 On ch=2 n=32 v=105
18 Off ch=2 n=34 v=64
567 Off ch=2 n=32 v=64
134 On ch=2 n=32 v=105
201 Off ch=2 n=32 v=64
40 On ch=2 n=32 v=105
625 Off ch=2 n=32 v=64
95 On ch=2 n=32 v=105
120 On ch=2 n=34 v=105
31 Off ch=2 n=32 v=64
89 On ch=2 n=36 v=105
17 Off ch=2 n=34 v=64
695 Off ch=2 n=36 v=64
8 On ch=2 n=36 v=105
195 Off ch=2 n=36 v=64
45 On ch=2 n=36 v=105
956 Off ch=2 n=36 v=64
5 On ch=2 n=29 v=111
581 Off ch=2 n=29 v=64
138 On ch=2 n=29 v=105
237 Off ch=2 n=29 v=64
4 On ch=2 n=33 v=105
580 Off ch=2 n=33 v=64
139 On ch=2 n=33 v=105
240 On ch=2 n=34 v=105
1 Off ch=2 n=33 v=64
592 Off ch=2 n=34 v=64
127 On ch=2 n=34 v=105
120 On ch=2 n=36 v=105
43 Off ch=2 n=34 v=64
77 On ch=2 n=38 v=105
7 Off ch=2 n=36 v=64
714 On ch=2 n=36 v=105
36 Off ch=2 n=38 v=64
175 Off ch=2 n=36 v=64
29 On ch=2 n=36 v=105
937 Off ch=2 n=36 v=64
23 On ch=2 n=36 v=105
642 Off ch=2 n=36 v=64
78 On ch=2 n=36 v=105
625 Off ch=2 n=36 v=64
95 On ch=2 n=36 v=105
120 On ch=2 n=38 v=105
21 Off ch=2 n=36 v=64
73 Off ch=2 n=38 v=64
25 On ch=2 n=31 v=105
120 On ch=2 n=33 v=105
14 Off ch=2 n=31 v=64
106 On ch=2 n=29 v=105
27 Off ch=2 n=33 v=64
623 Off ch=2 n=29 v=64
71 On ch=2 n=29 v=105
120 On ch=2 n=31 v=105
34 Off ch=2 n=29 v=64
86 On ch=2 n=33 v=105
29 Off ch=2 n=31 v=64
584 Off ch=2 n=33 v=64
107 On ch=2 n=33 v=105
240 On ch=2 n=34 v=105
18 Off ch=2 n=33 v=64
641 Off ch=2 n=34 v=64
61 On ch=2 n=34 v=105
120 On ch=2 n=36 v=105
24 Off ch=2 n=34 v=64
96 On ch=2 n=38 v=105
22 Off ch=2 n=36 v=64
697 On ch=2 n=36 v=105
18 Off ch=2 n=38 v=64
178 Off ch=2 n=36 v=64
45 On ch=2 n=36 v=105
912 Off ch=2 n=36 v=64
48 On ch=2 n=36 v=105
456 Off ch=2 n=36 v=64
24 On ch=2 n=36 v=105
920 Off ch=2 n=36 v=64
38 On ch=2 n=36 v=105
120 On ch=2 n=38 v=105
32 Off ch=2 n=36 v=64
64 Off ch=2 n=38 v=64
24 On ch=2 n=33 v=105
117 Off ch=2 n=33 v=64
3 On ch=2 n=34 v=105
120 On ch=2 n=31 v=105
19 Off ch=2 n=34 v=64
582 Off ch=2 n=31 v=64
119 On ch=2 n=31 v=105
240 On ch=2 n=33 v=105
32 Off ch=2 n=31 v=64
581 Off ch=2 n=33 v=64
107 On ch=2 n=33 v=105
240 On ch=2 n=34 v=105
28 Off ch=2 n=33 v=64
607 Off ch=2 n=34 v=64
85 On ch=2 n=34 v=105
240 On ch=2 n=36 v=105
28 Off ch=2 n=34 v=64
659 Off ch=2 n=36 v=64
33 On ch=2 n=33 v=105
120 On ch=2 n=34 v=105
43 Off ch=2 n=33 v=64
77 On ch=2 n=31 v=105
16 Off ch=2 n=34 v=64
594 Off ch=2 n=31 v=64
110 On ch=2 n=31 v=105
235 Off ch=2 n=31 v=64
5 On ch=2 n=33 v=105
603 Off ch=2 n=33 v=64
117 On ch=2 n=33 v=105
240 On ch=2 n=34 v=105
25 Off ch=2 n=33 v=64
593 Off ch=2 n=34 v=64
102 On ch=2 n=34 v=105
235 Off ch=2 n=34 v=64
5 On ch=2 n=36 v=105
625 Off ch=2 n=36 v=64
95 On ch=2 n=36 v=105
120 On ch=2 n=34 v=105
27 Off ch=2 n=36 v=64
93 On ch=2 n=32 v=105
52 Off ch=2 n=34 v=64
551 Off ch=2 n=32 v=64
117 On ch=2 n=32 v=105
240 On ch=2 n=32 v=105
1 Off ch=2 n=32 v=64
639 Off ch=2 n=32 v=64
80 On ch=2 n=32 v=105
120 On ch=2 n=34 v=105
26 Off ch=2 n=32 v=64
94 On ch=2 n=36 v=105
23 Off ch=2 n=34 v=64
869 Off ch=2 n=36 v=64
68 On ch=2 n=36 v=105
677 Off ch=2 n=36 v=64
43 On ch=2 n=36 v=105
198 Off ch=2 n=36 v=64
42 On ch=2 n=36 v=105
652 Off ch=2 n=36 v=64
68 On ch=2 n=36 v=105
216 Off ch=2 n=36 v=64
24 On ch=2 n=36 v=105
437 Off ch=2 n=36 v=64
43 On ch=2 n=36 v=105
464 Off ch=2 n=36 v=64
16 On ch=2 n=29 v=127
394 Off ch=2 n=29 v=64
0 Meta TrkEnd
TrkEnd
MTrk
TimestampType=Delta
0 Meta Text "OBOE OF MYSTERY"
0 Par ch=3 c=7 v=0
0 Par ch=3 c=10 v=0
0 Pb ch=3 v=8192
0 PrCh ch=3 p=68
0 Par ch=3 c=91 v=100
0 Par ch=3 c=93 v=0
0 Par ch=3 c=64 v=0
91060 On ch=3 n=77 v=127
110 Par ch=3 c=7 v=1
5 Par ch=3 c=7 v=2
8 Pb ch=3 v=8452
3 Par ch=3 c=7 v=4
13 Par ch=3 c=7 v=5
10 Par ch=3 c=7 v=7
11 Par ch=3 c=7 v=8
8 Par ch=3 c=7 v=10
5 Par ch=3 c=7 v=11
8 Par ch=3 c=7 v=12
8 Par ch=3 c=7 v=13
2 Pb ch=3 v=8582
8 Par ch=3 c=7 v=15
11 Par ch=3 c=7 v=16
10 Par ch=3 c=7 v=17
11 Par ch=3 c=7 v=18
5 Pb ch=3 v=8712
5 Par ch=3 c=7 v=19
8 Par ch=3 c=7 v=20
11 Par ch=3 c=7 v=21
5 Pb ch=3 v=8842
5 Par ch=3 c=7 v=22
5 Par ch=3 c=7 v=23
8 Pb ch=3 v=8972
3 Par ch=3 c=7 v=24
13 Par ch=3 c=7 v=25
3 Pb ch=3 v=9102
7 Par ch=3 c=7 v=26
16 Par ch=3 c=7 v=27
0 Pb ch=3 v=9232
11 Par ch=3 c=7 v=28
10 Par ch=3 c=7 v=29
8 Pb ch=3 v=9362
5 Par ch=3 c=7 v=30
11 Par ch=3 c=7 v=31
15 Par ch=3 c=7 v=32
11 Pb ch=3 v=9492
5 Par ch=3 c=7 v=33
8 Par ch=3 c=7 v=34
11 Par ch=3 c=7 v=35
2 Pb ch=3 v=9622
13 Par ch=3 c=7 v=36
16 Par ch=3 c=7 v=37
5 Pb ch=3 v=9752
13 Par ch=3 c=7 v=38
21 Par ch=3 c=7 v=39
6 Pb ch=3 v=9882
10 Par ch=3 c=7 v=40
18 Par ch=3 c=7 v=41
16 Par ch=3 c=7 v=42
3 Pb ch=3 v=10012
13 Par ch=3 c=7 v=43
16 Par ch=3 c=7 v=44
5 Pb ch=3 v=10142
13 Par ch=3 c=7 v=45
10 Pb ch=3 v=10272
6 Par ch=3 c=7 v=46
21 Pb ch=3 v=10402
5 Par ch=3 c=7 v=47
13 Par ch=3 c=7 v=48
3 Pb ch=3 v=10532
13 Par ch=3 c=7 v=49
5 Pb ch=3 v=10662
10 Par ch=3 c=7 v=50
6 Pb ch=3 v=10792
10 Par ch=3 c=7 v=51
5 Pb ch=3 v=10922
11 Par ch=3 c=7 v=52
13 Pb ch=3 v=11052
5 Par ch=3 c=7 v=53
11 Pb ch=3 v=11182
10 Par ch=3 c=7 v=54
11 Pb ch=3 v=11312
10 Par ch=3 c=7 v=55
13 Pb ch=3 v=11442
6 Par ch=3 c=7 v=56
15 Pb ch=3 v=11572
6 Par ch=3 c=7 v=57
15 Pb ch=3 v=11702
8 Par ch=3 c=7 v=58
11 Pb ch=3 v=11832
15 Pb ch=3 v=11962
6 Par ch=3 c=7 v=59
10 Pb ch=3 v=12092
13 Pb ch=3 v=12222
5 Par ch=3 c=7 v=60
11 Pb ch=3 v=12352
10 Pb ch=3 v=12482
6 Par ch=3 c=7 v=61
5 Pb ch=3 v=12612
10 Pb ch=3 v=12742
14 Pb ch=3 v=12872
5 Par ch=3 c=7 v=62
5 Pb ch=3 v=13002
11 Pb ch=3 v=13132
5 Par ch=3 c=7 v=63
5 Pb ch=3 v=13262
13 Pb ch=3 v=13392
16 Pb ch=3 v=13522
0 Par ch=3 c=7 v=64
10 Pb ch=3 v=13652
11 Pb ch=3 v=13782
8 Par ch=3 c=7 v=65
2 Pb ch=3 v=13912
13 Pb ch=3 v=14042
11 Pb ch=3 v=14172
5 Par ch=3 c=7 v=66
5 Pb ch=3 v=14302
11 Pb ch=3 v=14432
8 Pb ch=3 v=14562
10 Pb ch=3 v=14692
8 Pb ch=3 v=14822
8 Par ch=3 c=7 v=67
5 Pb ch=3 v=14952
16 Pb ch=3 v=15082
10 Pb ch=3 v=15212
8 Par ch=3 c=7 v=68
3 Pb ch=3 v=15342
8 Pb ch=3 v=15472
10 Pb ch=3 v=15602
16 Pb ch=3 v=15732
5 Par ch=3 c=7 v=69
6 Pb ch=3 v=15862
10 Pb ch=3 v=15992
10 Pb ch=3 v=16122
14 Pb ch=3 v=16252
2 Par ch=3 c=7 v=70
8 Pb ch=3 v=16382
34 Par ch=3 c=7 v=71
37 Par ch=3 c=7 v=72
34 Par ch=3 c=7 v=73
42 Par ch=3 c=7 v=74
44 Par ch=3 c=7 v=75
40 Par ch=3 c=7 v=76
37 Par ch=3 c=7 v=77
78 Par ch=3 c=7 v=78
76 Par ch=3 c=7 v=79
100 Par ch=3 c=7 v=80
102 Par ch=3 c=7 v=81
81 Par ch=3 c=7 v=82
87 Par ch=3 c=7 v=83
176 Par ch=3 c=7 v=84
243 Par ch=3 c=7 v=85
336 Par ch=3 c=7 v=84
37 Par ch=3 c=7 v=83
44 Par ch=3 c=7 v=82
34 Par ch=3 c=7 v=81
19 Pb ch=3 v=16252
2 Par ch=3 c=7 v=80
14 Pb ch=3 v=16122
18 Pb ch=3 v=15992
3 Par ch=3 c=7 v=79
23 Pb ch=3 v=15862
24 Par ch=3 c=7 v=78
13 Pb ch=3 v=15732
21 Pb ch=3 v=15602
21 Pb ch=3 v=15472
13 Pb ch=3 v=15342
5 Par ch=3 c=7 v=77
5 Pb ch=3 v=15212
16 Pb ch=3 v=15082
11 Pb ch=3 v=14952
10 Pb ch=3 v=14822
13 Pb ch=3 v=14692
16 Pb ch=3 v=14562
10 Pb ch=3 v=14432
0 Par ch=3 c=7 v=76
11 Pb ch=3 v=14302
13 Pb ch=3 v=14172
10 Pb ch=3 v=14042
11 Pb ch=3 v=13912
10 Pb ch=3 v=13782
16 Pb ch=3 v=13652
5 Par ch=3 c=7 v=75
6 Pb ch=3 v=13522
10 Pb ch=3 v=13392
8 Pb ch=3 v=13262
16 Pb ch=3 v=13132
10 Pb ch=3 v=13002
3 Par ch=3 c=7 v=74
10 Pb ch=3 v=12872
11 Pb ch=3 v=12742
5 Pb ch=3 v=12612
11 Pb ch=3 v=12482
10 Pb ch=3 v=12352
3 Par ch=3 c=7 v=73
8 Pb ch=3 v=12222
13 Pb ch=3 v=12092
10 Pb ch=3 v=11962
11 Pb ch=3 v=11832
5 Par ch=3 c=7 v=72
5 Pb ch=3 v=11702
8 Pb ch=3 v=11572
8 Pb ch=3 v=11442
13 Pb ch=3 v=11312
10 Pb ch=3 v=11182
0 Par ch=3 c=7 v=71
6 Pb ch=3 v=11052
10 Pb ch=3 v=10922
11 Pb ch=3 v=10792
10 Pb ch=3 v=10662
13 Pb ch=3 v=10532
11 Pb ch=3 v=10402
5 Par ch=3 c=7 v=70
5 Pb ch=3 v=10272
11 Pb ch=3 v=10142
10 Pb ch=3 v=10012
8 Pb ch=3 v=9882
11 Pb ch=3 v=9752
5 Par ch=3 c=7 v=69
10 Pb ch=3 v=9622
11 Pb ch=3 v=9492
16 Pb ch=3 v=9362
18 Pb ch=3 v=9232
5 Par ch=3 c=7 v=68
16 Pb ch=3 v=9102
23 Pb ch=3 v=8972
16 Par ch=3 c=7 v=67
11 Pb ch=3 v=8842
15 Pb ch=3 v=8712
21 Pb ch=3 v=8582
14 Par ch=3 c=7 v=66
44 Pb ch=3 v=8452
11 Par ch=3 c=7 v=65
47 Par ch=3 c=7 v=64
52 Par ch=3 c=7 v=63
11 Pb ch=3 v=8192
39 Par ch=3 c=7 v=62
5 Pb ch=3 v=8192
71 Par ch=3 c=7 v=61
97 Par ch=3 c=7 v=60
100 Par ch=3 c=7 v=59
105 Par ch=3 c=7 v=58
76 Par ch=3 c=7 v=57
60 Par ch=3 c=7 v=56
45 Par ch=3 c=7 v=55
41 Par ch=3 c=7 v=54
40 Par ch=3 c=7 v=53
60 Par ch=3 c=7 v=52
94 Par ch=3 c=7 v=51
66 Par ch=3 c=7 v=50
55 Par ch=3 c=7 v=49
45 Par ch=3 c=7 v=48
57 Par ch=3 c=7 v=47
50 Par ch=3 c=7 v=46
50 Par ch=3 c=7 v=45
60 Par ch=3 c=7 v=44
50 Par ch=3 c=7 v=43
39 Par ch=3 c=7 v=42
11 Par ch=3 c=1 v=1
16 Par ch=3 c=1 v=2
5 Par ch=3 c=7 v=41
34 Par ch=3 c=1 v=3
10 Par ch=3 c=7 v=40
21 Par ch=3 c=1 v=4
19 Par ch=3 c=1 v=5
5 Par ch=3 c=7 v=39
16 Par ch=3 c=1 v=6
26 Par ch=3 c=7 v=38
5 Par ch=3 c=1 v=7
24 Par ch=3 c=1 v=8
16 Par ch=3 c=7 v=37
13 Par ch=3 c=1 v=9
31 Par ch=3 c=1 v=10
0 Par ch=3 c=7 v=36
26 Par ch=3 c=1 v=11
13 Par ch=3 c=7 v=35
42 Par ch=3 c=7 v=34
0 Par ch=3 c=1 v=12
53 Par ch=3 c=1 v=13
3 Par ch=3 c=7 v=33
39 Par ch=3 c=1 v=14
21 Par ch=3 c=7 v=32
5 Par ch=3 c=1 v=15
29 Par ch=3 c=1 v=16
23 Par ch=3 c=7 v=31
48 Par ch=3 c=7 v=30
10 Par ch=3 c=1 v=17
34 Par ch=3 c=7 v=29
6 Par ch=3 c=1 v=18
36 Par ch=3 c=7 v=28
34 Par ch=3 c=1 v=19
11 Par ch=3 c=7 v=27
50 Par ch=3 c=7 v=26
26 Par ch=3 c=1 v=20
29 Par ch=3 c=7 v=25
44 Par ch=3 c=7 v=24
42 Par ch=3 c=7 v=23
53 Par ch=3 c=1 v=21
7 Par ch=3 c=7 v=22
50 Par ch=3 c=7 v=21
45 Par ch=3 c=7 v=20
37 Par ch=3 c=7 v=19
28 Par ch=3 c=7 v=18
16 Par ch=3 c=1 v=20
8 Par ch=3 c=7 v=17
26 Par ch=3 c=7 v=16
11 Par ch=3 c=1 v=19
13 Par ch=3 c=7 v=15
8 Par ch=3 c=1 v=18
13 Par ch=3 c=7 v=14
2 Par ch=3 c=1 v=17
14 Par ch=3 c=1 v=16
5 Par ch=3 c=7 v=13
16 Par ch=3 c=1 v=15
5 Par ch=3 c=7 v=12
10 Par ch=3 c=1 v=14
8 Par ch=3 c=7 v=11
11 Par ch=3 c=7 v=10
5 Par ch=3 c=1 v=13
10 Par ch=3 c=1 v=12
11 Par ch=3 c=7 v=9
2 Par ch=3 c=1 v=11
16 Par ch=3 c=1 v=10
5 Par ch=3 c=7 v=8
6 Par ch=3 c=1 v=9
10 Par ch=3 c=1 v=8
8 Par ch=3 c=7 v=7
3 Par ch=3 c=1 v=7
5 Par ch=3 c=1 v=6
5 Par ch=3 c=1 v=5
8 Par ch=3 c=1 v=4
5 Par ch=3 c=7 v=6
6 Par ch=3 c=1 v=3
10 Par ch=3 c=1 v=2
5 Par ch=3 c=1 v=1
0 Par ch=3 c=7 v=5
5 Par ch=3 c=1 v=0
6 Par ch=3 c=7 v=4
8 Par ch=3 c=7 v=3
7 Par ch=3 c=7 v=2
14 Par ch=3 c=7 v=1
10 Par ch=3 c=7 v=0
63 Off ch=3 n=77 v=64
2126 Par ch=3 c=7 v=1
11 Par ch=3 c=7 v=2
10 Par ch=3 c=7 v=3
11 Par ch=3 c=7 v=4
16 Par ch=3 c=7 v=5
7 Par ch=3 c=7 v=6
14 Par ch=3 c=7 v=7
18 Par ch=3 c=7 v=8
16 Par ch=3 c=7 v=9
8 Par ch=3 c=7 v=10
5 Par ch=3 c=7 v=11
8 Par ch=3 c=7 v=12
10 Par ch=3 c=7 v=14
13 Par ch=3 c=7 v=15
6 Par ch=3 c=7 v=16
10 Par ch=3 c=7 v=17
5 Par ch=3 c=7 v=18
8 Par ch=3 c=7 v=19
8 Par ch=3 c=7 v=20
13 Par ch=3 c=7 v=21
11 Pb ch=3 v=8192
5 Par ch=3 c=7 v=22
10 Par ch=3 c=7 v=23
11 Par ch=3 c=7 v=24
8 Pb ch=3 v=8452
2 Par ch=3 c=7 v=25
8 Par ch=3 c=7 v=26
11 Par ch=3 c=7 v=27
10 Par ch=3 c=7 v=28
5 Par ch=3 c=7 v=29
0 Pb ch=3 v=8582
11 Par ch=3 c=7 v=30
1 Par ch=3 c=10 v=115
7 On ch=3 n=82 v=127
2 Pb ch=3 v=8712
6 Par ch=3 c=7 v=31
7 Par ch=3 c=7 v=32
11 Pb ch=3 v=8842
5 Par ch=3 c=7 v=33
5 Pb ch=3 v=8972
6 Par ch=3 c=7 v=34
5 Pb ch=3 v=9102
8 Pb ch=3 v=9232
2 Par ch=3 c=7 v=35
8 Pb ch=3 v=9362
11 Pb ch=3 v=9492
0 Par ch=3 c=7 v=36
10 Par ch=3 c=7 v=37
5 Pb ch=3 v=9622
6 Par ch=3 c=7 v=38
5 Pb ch=3 v=9882
5 Pb ch=3 v=10012
5 Par ch=3 c=7 v=39
8 Pb ch=3 v=10142
3 Par ch=3 c=7 v=40
8 Pb ch=3 v=10272
5 Pb ch=3 v=10402
5 Par ch=3 c=7 v=41
6 Pb ch=3 v=10532
5 Pb ch=3 v=10662
5 Par ch=3 c=7 v=42
5 Pb ch=3 v=10792
6 Pb ch=3 v=10922
0 Par ch=3 c=7 v=43
13 Pb ch=3 v=11052
2 Par ch=3 c=7 v=44
8 Pb ch=3 v=11182
5 Pb ch=3 v=11312
6 Par ch=3 c=7 v=45
5 Pb ch=3 v=11442
8 Par ch=3 c=7 v=46
2 Pb ch=3 v=11572
11 Pb ch=3 v=11702
0 Par ch=3 c=7 v=47
10 Pb ch=3 v=11832
6 Par ch=3 c=7 v=48
5 Pb ch=3 v=11962
8 Pb ch=3 v=12092
0 Par ch=3 c=7 v=49
8 Pb ch=3 v=12222
2 Par ch=3 c=7 v=50
8 Pb ch=3 v=12352
8 Par ch=3 c=7 v=51
5 Pb ch=3 v=12482
8 Pb ch=3 v=12612
3 Par ch=3 c=7 v=52
5 Pb ch=3 v=12742
8 Par ch=3 c=7 v=53
2 Pb ch=3 v=12872
8 Pb ch=3 v=13002
5 Par ch=3 c=7 v=54
11 Pb ch=3 v=13132
5 Par ch=3 c=7 v=55
5 Pb ch=3 v=13262
8 Par ch=3 c=7 v=56
6 Pb ch=3 v=13392
10 Pb ch=3 v=13522
5 Par ch=3 c=7 v=57
6 Pb ch=3 v=13652
5 Par ch=3 c=7 v=58
5 Pb ch=3 v=13782
8 Par ch=3 c=7 v=59
5 Pb ch=3 v=13912
5 Pb ch=3 v=14042
11 Par ch=3 c=7 v=60
5 Pb ch=3 v=14172
11 Pb ch=3 v=14302
0 Par ch=3 c=7 v=61
13 Par ch=3 c=7 v=62
2 Pb ch=3 v=14432
11 Pb ch=3 v=14562
2 Par ch=3 c=7 v=63
11 Pb ch=3 v=14692
5 Par ch=3 c=7 v=64
5 Pb ch=3 v=14822
11 Par ch=3 c=7 v=65
5 Pb ch=3 v=14952
5 Par ch=3 c=7 v=66
6 Pb ch=3 v=15082
7 Pb ch=3 v=15212
3 Par ch=3 c=7 v=67
5 Pb ch=3 v=15342
8 Pb ch=3 v=15472
5 Par ch=3 c=7 v=68
11 Pb ch=3 v=15602
5 Pb ch=3 v=15732
0 Par ch=3 c=7 v=69
11 Par ch=3 c=7 v=70
5 Pb ch=3 v=15862
8 Par ch=3 c=7 v=71
10 Pb ch=3 v=15992
6 Par ch=3 c=7 v=72
5 Pb ch=3 v=16122
10 Par ch=3 c=7 v=73
6 Pb ch=3 v=16382
18 Par ch=3 c=7 v=74
16 Par ch=3 c=7 v=75
26 Par ch=3 c=7 v=76
21 Par ch=3 c=7 v=77
29 Par ch=3 c=7 v=78
15 Par ch=3 c=7 v=79
34 Par ch=3 c=7 v=80
35 Par ch=3 c=7 v=81
31 Par ch=3 c=7 v=82
39 Par ch=3 c=7 v=83
42 Par ch=3 c=7 v=84
34 Par ch=3 c=7 v=85
32 Par ch=3 c=7 v=86
34 Par ch=3 c=7 v=87
31 Par ch=3 c=7 v=88
32 Par ch=3 c=7 v=89
34 Par ch=3 c=7 v=90
29 Par ch=3 c=7 v=91
23 Par ch=3 c=7 v=92
32 Par ch=3 c=7 v=93
21 Par ch=3 c=7 v=94
34 Par ch=3 c=7 v=95
44 Par ch=3 c=7 v=96
37 Par ch=3 c=7 v=97
29 Par ch=3 c=7 v=98
21 Par ch=3 c=7 v=99
29 Par ch=3 c=7 v=100
29 Par ch=3 c=7 v=101
21 Par ch=3 c=7 v=102
21 Par ch=3 c=7 v=103
26 Par ch=3 c=7 v=104
29 Par ch=3 c=7 v=105
42 Par ch=3 c=7 v=106
44 Par ch=3 c=7 v=107
63 Pb ch=3 v=16122
8 Par ch=3 c=7 v=106
5 Pb ch=3 v=15992
8 Pb ch=3 v=15862
5 Pb ch=3 v=15732
6 Pb ch=3 v=15602
5 Par ch=3 c=7 v=105
5 Pb ch=3 v=15472
5 Pb ch=3 v=15342
6 Pb ch=3 v=15212
5 Pb ch=3 v=15082
2 Par ch=3 c=7 v=104
3 Pb ch=3 v=14952
8 Pb ch=3 v=14822
3 Par ch=3 c=7 v=103
7 Pb ch=3 v=14562
11 Pb ch=3 v=14432
0 Par ch=3 c=7 v=102
5 Pb ch=3 v=14302
11 Pb ch=3 v=14172
5 Pb ch=3 v=14042
0 Par ch=3 c=7 v=101
5 Pb ch=3 v=13912
5 Par ch=3 c=7 v=100
6 Pb ch=3 v=13652
13 Pb ch=3 v=13522
0 Par ch=3 c=7 v=99
10 Par ch=3 c=7 v=98
0 Pb ch=3 v=13392
5 Pb ch=3 v=13262
8 Par ch=3 c=7 v=97
3 Pb ch=3 v=13132
5 Pb ch=3 v=13002
13 Pb ch=3 v=12872
6 Pb ch=3 v=12742
0 Par ch=3 c=7 v=96
5 Pb ch=3 v=12612
10 Pb ch=3 v=12482
6 Pb ch=3 v=12352
5 Par ch=3 c=7 v=95
5 Pb ch=3 v=12222
5 Pb ch=3 v=12092
11 Pb ch=3 v=11962
5 Pb ch=3 v=11832
8 Pb ch=3 v=11702
5 Par ch=3 c=7 v=94
5 Pb ch=3 v=11572
6 Pb ch=3 v=11442
10 Pb ch=3 v=11312
13 Pb ch=3 v=11182
0 Par ch=3 c=7 v=93
8 Pb ch=3 v=11052
13 Pb ch=3 v=10922
5 Pb ch=3 v=10792
0 Par ch=3 c=7 v=92
11 Pb ch=3 v=10662
10 Pb ch=3 v=10532
6 Par ch=3 c=7 v=91
5 Pb ch=3 v=10402
8 Pb ch=3 v=10272
5 Pb ch=3 v=10142
3 Par ch=3 c=7 v=90
7 Pb ch=3 v=10012
11 Pb ch=3 v=9882
10 Pb ch=3 v=9752
6 Par ch=3 c=7 v=89
5 Pb ch=3 v=9622
5 Pb ch=3 v=9492
11 Pb ch=3 v=9362
10 Pb ch=3 v=9232
8 Par ch=3 c=7 v=88
5 Pb ch=3 v=9102
11 Pb ch=3 v=8972
15 Pb ch=3 v=8842
0 Par ch=3 c=7 v=87
14 Pb ch=3 v=8712
10 Pb ch=3 v=8582
5 Par ch=3 c=7 v=86
6 Pb ch=3 v=8452
15 Pb ch=3 v=8192
16 Par ch=3 c=7 v=85
29 Par ch=3 c=7 v=84
23 Par ch=3 c=7 v=83
27 Par ch=3 c=7 v=82
26 Par ch=3 c=7 v=81
34 Par ch=3 c=7 v=80
5 Pb ch=3 v=8192
21 Par ch=3 c=7 v=79
34 Par ch=3 c=7 v=78
37 Par ch=3 c=7 v=77
45 Par ch=3 c=7 v=76
39 Par ch=3 c=7 v=75
55 Par ch=3 c=7 v=74
55 Par ch=3 c=7 v=73
55 Par ch=3 c=7 v=72
45 Par ch=3 c=7 v=71
36 Par ch=3 c=7 v=70
32 Par ch=3 c=7 v=69
39 Par ch=3 c=7 v=68
50 Par ch=3 c=7 v=67
50 Par ch=3 c=7 v=66
60 Par ch=3 c=7 v=65
60 Par ch=3 c=7 v=64
61 Par ch=3 c=7 v=63
39 Par ch=3 c=7 v=62
66 Par ch=3 c=7 v=61
60 Par ch=3 c=7 v=60
47 Par ch=3 c=7 v=59
47 Par ch=3 c=7 v=58
32 Par ch=3 c=7 v=57
39 Par ch=3 c=7 v=56
39 Par ch=3 c=7 v=55
35 Par ch=3 c=7 v=54
26 Par ch=3 c=1 v=1
8 Par ch=3 c=7 v=53
18 Par ch=3 c=1 v=2
10 Par ch=3 c=7 v=52
32 Par ch=3 c=1 v=3
13 Par ch=3 c=7 v=51
11 Par ch=3 c=1 v=4
20 Par ch=3 c=1 v=5
19 Par ch=3 c=7 v=50
8 Par ch=3 c=1 v=6
23 Par ch=3 c=1 v=7
21 Par ch=3 c=7 v=49
8 Par ch=3 c=1 v=8
16 Par ch=3 c=1 v=9
16 Par ch=3 c=1 v=10
5 Par ch=3 c=7 v=48
10 Par ch=3 c=1 v=11
19 Par ch=3 c=1 v=12
10 Par ch=3 c=7 v=47
11 Par ch=3 c=1 v=13
23 Par ch=3 c=1 v=14
3 Par ch=3 c=7 v=46
18 Par ch=3 c=1 v=15
21 Par ch=3 c=1 v=16
11 Par ch=3 c=1 v=17
5 Par ch=3 c=7 v=45
18 Par ch=3 c=1 v=18
21 Par ch=3 c=1 v=19
6 Par ch=3 c=7 v=44
28 Par ch=3 c=1 v=20
27 Par ch=3 c=7 v=43
15 Par ch=3 c=1 v=21
29 Par ch=3 c=1 v=22
11 Par ch=3 c=7 v=42
39 Par ch=3 c=7 v=41
34 Par ch=3 c=7 v=40
37 Par ch=3 c=7 v=39
36 Par ch=3 c=7 v=38
24 Par ch=3 c=7 v=37
5 Par ch=3 c=1 v=21
24 Par ch=3 c=7 v=36
13 Par ch=3 c=1 v=20
8 Par ch=3 c=7 v=35
16 Par ch=3 c=7 v=34
5 Par ch=3 c=1 v=19
5 Par ch=3 c=7 v=33
5 Par ch=3 c=1 v=18
13 Par ch=3 c=7 v=32
8 Par ch=3 c=7 v=31
3 Par ch=3 c=1 v=17
10 Par ch=3 c=7 v=30
6 Par ch=3 c=1 v=16
10 Par ch=3 c=1 v=15
5 Par ch=3 c=7 v=29
6 Par ch=3 c=1 v=14
8 Par ch=3 c=1 v=13
5 Par ch=3 c=7 v=28
8 Par ch=3 c=1 v=12
8 Par ch=3 c=7 v=27
5 Par ch=3 c=1 v=10
5 Par ch=3 c=1 v=9
5 Par ch=3 c=7 v=26
5 Par ch=3 c=1 v=8
6 Par ch=3 c=7 v=25
5 Par ch=3 c=1 v=7
5 Par ch=3 c=7 v=24
5 Par ch=3 c=1 v=6
8 Par ch=3 c=7 v=23
6 Par ch=3 c=1 v=4
5 Par ch=3 c=7 v=22
5 Par ch=3 c=1 v=3
5 Par ch=3 c=7 v=21
6 Par ch=3 c=1 v=2
5 Par ch=3 c=1 v=1
0 Par ch=3 c=7 v=20
5 Par ch=3 c=1 v=0
11 Par ch=3 c=7 v=19
15 Par ch=3 c=7 v=18
13 Par ch=3 c=7 v=17
16 Par ch=3 c=7 v=16
16 Par ch=3 c=7 v=15
13 Par ch=3 c=7 v=14
21 Par ch=3 c=7 v=13
18 Par ch=3 c=7 v=12
21 Par ch=3 c=7 v=11
16 Par ch=3 c=7 v=10
13 Par ch=3 c=7 v=9
5 Off ch=3 n=82 v=64
6 Par ch=3 c=7 v=8
10 Par ch=3 c=7 v=7
16 Par ch=3 c=7 v=6
16 Par ch=3 c=7 v=5
10 Par ch=3 c=7 v=4
13 Par ch=3 c=7 v=3
16 Par ch=3 c=7 v=2
10 Par ch=3 c=7 v=1
11 Par ch=3 c=7 v=0
372 Par ch=3 c=7 v=1
11 Par ch=3 c=7 v=2
10 Par ch=3 c=7 v=3
3 Par ch=3 c=7 v=4
15 Par ch=3 c=7 v=5
11 Par ch=3 c=7 v=6
18 Par ch=3 c=7 v=7
8 Par ch=3 c=7 v=8
8 Par ch=3 c=7 v=10
11 Par ch=3 c=7 v=11
5 Par ch=3 c=7 v=12
5 Par ch=3 c=7 v=13
5 Par ch=3 c=7 v=14
11 Par ch=3 c=7 v=16
13 Par ch=3 c=7 v=17
10 Par ch=3 c=7 v=18
11 Par ch=3 c=7 v=19
8 Par ch=3 c=7 v=20
15 Par ch=3 c=7 v=21
11 Par ch=3 c=7 v=22
10 Par ch=3 c=7 v=23
11 Par ch=3 c=7 v=25
8 Par ch=3 c=7 v=26
5 Par ch=3 c=7 v=27
11 Par ch=3 c=7 v=28
5 Par ch=3 c=7 v=29
8 Par ch=3 c=7 v=31
13 Par ch=3 c=7 v=32
5 Par ch=3 c=7 v=33
10 Par ch=3 c=7 v=34
11 Par ch=3 c=7 v=35
8 Par ch=3 c=7 v=36
10 Par ch=3 c=7 v=37
11 Par ch=3 c=7 v=38
10 Par ch=3 c=7 v=39
11 Par ch=3 c=7 v=40
10 Par ch=3 c=7 v=41
6 Par ch=3 c=7 v=42
7 Par ch=3 c=7 v=43
6 Par ch=3 c=7 v=44
10 Par ch=3 c=7 v=45
11 Par ch=3 c=7 v=46
15 Par ch=3 c=7 v=47
19 Par ch=3 c=7 v=48
15 Par ch=3 c=7 v=49
16 Par ch=3 c=7 v=50
13 Par ch=3 c=7 v=51
13 Par ch=3 c=7 v=52
13 Par ch=3 c=7 v=53
24 Par ch=3 c=7 v=54
58 Par ch=3 c=7 v=55
14 Par ch=3 c=10 v=50
30 On ch=3 n=77 v=123
6 Par ch=3 c=7 v=66
76 Par ch=3 c=7 v=67
76 Par ch=3 c=7 v=68
73 Par ch=3 c=7 v=69
42 Par ch=3 c=7 v=70
60 Par ch=3 c=7 v=71
40 Par ch=3 c=7 v=72
26 Par ch=3 c=7 v=73
29 Par ch=3 c=7 v=74
29 Par ch=3 c=7 v=75
31 Par ch=3 c=7 v=76
26 Par ch=3 c=7 v=77
34 Par ch=3 c=7 v=78
40 Par ch=3 c=7 v=79
34 Par ch=3 c=7 v=80
42 Par ch=3 c=7 v=81
31 Par ch=3 c=7 v=82
29 Par ch=3 c=7 v=83
31 Par ch=3 c=7 v=84
45 Par ch=3 c=7 v=85
55 Par ch=3 c=7 v=86
45 Par ch=3 c=7 v=87
55 Par ch=3 c=7 v=88
42 Par ch=3 c=7 v=89
50 Par ch=3 c=7 v=90
49 Par ch=3 c=7 v=91
61 Par ch=3 c=7 v=92
44 Par ch=3 c=7 v=93
61 Par ch=3 c=7 v=94
47 Par ch=3 c=7 v=95
44 Par ch=3 c=7 v=96
74 Par ch=3 c=7 v=97
91 Par ch=3 c=7 v=98
87 Par ch=3 c=7 v=99
84 Par ch=3 c=7 v=100
60 Par ch=3 c=7 v=101
50 Par ch=3 c=7 v=102
37 Par ch=3 c=7 v=103
183 Par ch=3 c=7 v=102
50 On ch=3 n=78 v=98
5 Par ch=3 c=7 v=101
21 Par ch=3 c=7 v=100
6 Off ch=3 n=77 v=64
15 Par ch=3 c=7 v=99
24 Par ch=3 c=7 v=98
8 On ch=3 n=77 v=67
8 Par ch=3 c=7 v=97
15 Par ch=3 c=7 v=96
24 Par ch=3 c=7 v=95
3 Off ch=3 n=78 v=64
23 Par ch=3 c=7 v=94
13 On ch=3 n=75 v=98
8 Par ch=3 c=7 v=93
18 Par ch=3 c=7 v=92
6 Off ch=3 n=77 v=64
15 Par ch=3 c=7 v=91
27 Par ch=3 c=7 v=90
26 On ch=3 n=77 v=95
26 Off ch=3 n=75 v=64
192 Par ch=3 c=7 v=91
81 Par ch=3 c=7 v=92
37 Par ch=3 c=7 v=93
39 Par ch=3 c=7 v=94
44 Par ch=3 c=7 v=95
27 Par ch=3 c=7 v=96
34 Par ch=3 c=7 v=97
26 Par ch=3 c=7 v=98
121 Par ch=3 c=7 v=99
199 Par ch=3 c=7 v=100
5 Par ch=3 c=1 v=1
5 Par ch=3 c=1 v=2
21 Par ch=3 c=1 v=3
11 Par ch=3 c=1 v=4
13 Par ch=3 c=1 v=5
5 Par ch=3 c=1 v=6
16 Par ch=3 c=1 v=7
10 Par ch=3 c=1 v=9
11 Par ch=3 c=1 v=10
5 Par ch=3 c=1 v=11
11 Par ch=3 c=1 v=12
7 Par ch=3 c=1 v=14
11 Par ch=3 c=1 v=15
5 Par ch=3 c=1 v=16
5 Par ch=3 c=1 v=17
6 Par ch=3 c=1 v=18
10 Par ch=3 c=1 v=19
5 Par ch=3 c=1 v=20
14 Par ch=3 c=1 v=21
10 Par ch=3 c=1 v=22
37 Par ch=3 c=7 v=101
10 Par ch=3 c=1 v=21
5 Par ch=3 c=1 v=20
6 Par ch=3 c=1 v=19
5 Par ch=3 c=1 v=18
3 Par ch=3 c=1 v=17
5 Par ch=3 c=1 v=15
5 Par ch=3 c=1 v=14
5 Par ch=3 c=1 v=12
6 Par ch=3 c=1 v=10
7 Par ch=3 c=1 v=8
3 Par ch=3 c=1 v=6
8 Par ch=3 c=1 v=4
5 Par ch=3 c=1 v=2
11 Par ch=3 c=1 v=0
0 On ch=3 n=79 v=113
26 Off ch=3 n=77 v=64
92 On ch=3 n=80 v=116
5 Off ch=3 n=79 v=64
23 Par ch=3 c=7 v=102
61 Par ch=3 c=7 v=103
42 On ch=3 n=82 v=109
15 Off ch=3 n=80 v=64
58 Par ch=3 c=7 v=104
37 On ch=3 n=84 v=100
18 Par ch=3 c=7 v=103
11 Off ch=3 n=82 v=64
105 Par ch=3 c=7 v=102
104 Par ch=3 c=7 v=101
187 Par ch=3 c=7 v=102
154 Par ch=3 c=1 v=1
13 Par ch=3 c=7 v=103
8 Par ch=3 c=1 v=2
21 Par ch=3 c=1 v=3
8 Par ch=3 c=1 v=4
8 Par ch=3 c=1 v=6
10 Par ch=3 c=1 v=7
6 Par ch=3 c=1 v=8
13 Par ch=3 c=1 v=9
5 Par ch=3 c=1 v=10
11 Par ch=3 c=1 v=11
13 Par ch=3 c=1 v=12
10 Par ch=3 c=1 v=13
8 Par ch=3 c=1 v=14
18 Par ch=3 c=1 v=15
11 Par ch=3 c=1 v=16
8 Par ch=3 c=1 v=17
5 Par ch=3 c=1 v=18
10 Par ch=3 c=1 v=19
6 Par ch=3 c=1 v=20
5 Par ch=3 c=1 v=21
5 Par ch=3 c=1 v=22
11 Par ch=3 c=1 v=23
5 Par ch=3 c=1 v=24
10 Par ch=3 c=1 v=25
11 Par ch=3 c=1 v=26
13 Par ch=3 c=1 v=27
21 Par ch=3 c=1 v=28
18 Par ch=3 c=1 v=29
16 Par ch=3 c=1 v=30
16 Par ch=3 c=1 v=31
5 Par ch=3 c=7 v=104
24 Par ch=3 c=1 v=32
52 Par ch=3 c=1 v=31
11 Par ch=3 c=1 v=30
5 Par ch=3 c=1 v=29
5 Par ch=3 c=1 v=28
8 Par ch=3 c=1 v=27
5 Par ch=3 c=1 v=26
5 Par ch=3 c=1 v=25
6 Par ch=3 c=1 v=23
5 Off ch=3 n=84 v=64
0 Par ch=3 c=1 v=22
5 Par ch=3 c=1 v=20
5 Par ch=3 c=1 v=18
6 Par ch=3 c=1 v=16
5 Par ch=3 c=1 v=14
5 Par ch=3 c=1 v=12
5 Par ch=3 c=1 v=10
8 Par ch=3 c=1 v=7
3 On ch=3 n=83 v=113
2 Par ch=3 c=1 v=4
6 Par ch=3 c=1 v=3
5 Par ch=3 c=1 v=0
0 Par ch=3 c=7 v=105
97 Off ch=3 n=83 v=64
128 On ch=3 n=84 v=127
35 Par ch=3 c=7 v=106
94 On ch=3 n=83 v=109
34 Off ch=3 n=84 v=64
89 On ch=3 n=80 v=95
26 Off ch=3 n=83 v=64
82 Off ch=3 n=80 v=64
2 On ch=3 n=76 v=94
6 Par ch=3 c=7 v=105
120 Off ch=3 n=76 v=64
8 On ch=3 n=79 v=113
128 On ch=3 n=82 v=109
3 Off ch=3 n=79 v=64
129 On ch=3 n=79 v=107
10 Off ch=3 n=82 v=64
115 On ch=3 n=75 v=109
19 Off ch=3 n=79 v=64
115 On ch=3 n=74 v=109
16 Off ch=3 n=75 v=64
89 Par ch=3 c=7 v=104
207 Par ch=3 c=7 v=105
181 Par ch=3 c=1 v=1
3 Par ch=3 c=1 v=2
5 Par ch=3 c=1 v=3
5 Par ch=3 c=1 v=4
5 Par ch=3 c=1 v=6
6 Par ch=3 c=1 v=7
5 Par ch=3 c=1 v=8
5 Par ch=3 c=1 v=9
5 Par ch=3 c=1 v=10
6 Par ch=3 c=1 v=11
10 Par ch=3 c=1 v=12
5 Par ch=3 c=1 v=13
11 Par ch=3 c=1 v=14
5 Par ch=3 c=1 v=15
13 Par ch=3 c=1 v=16
5 Par ch=3 c=1 v=17
8 Par ch=3 c=1 v=18
8 Par ch=3 c=1 v=19
19 Par ch=3 c=1 v=20
125 Par ch=3 c=1 v=21
32 Par ch=3 c=1 v=22
18 Par ch=3 c=1 v=23
26 Par ch=3 c=1 v=24
105 Par ch=3 c=1 v=23
11 Par ch=3 c=1 v=22
8 Par ch=3 c=1 v=20
2 Par ch=3 c=1 v=19
8 Par ch=3 c=1 v=18
5 Par ch=3 c=1 v=17
6 Par ch=3 c=1 v=16
5 Par ch=3 c=1 v=15
5 Par ch=3 c=1 v=14
3 Par ch=3 c=7 v=106
8 Par ch=3 c=1 v=12
5 Par ch=3 c=1 v=11
5 Par ch=3 c=1 v=9
5 Par ch=3 c=1 v=8
6 Par ch=3 c=1 v=7
5 Par ch=3 c=1 v=5
5 Par ch=3 c=1 v=3
5 Par ch=3 c=1 v=2
6 Par ch=3 c=1 v=0
76 On ch=3 n=75 v=102
31 Off ch=3 n=74 v=64
97 On ch=3 n=74 v=117
8 Off ch=3 n=75 v=64
107 On ch=3 n=71 v=109
24 Off ch=3 n=74 v=64
102 Off ch=3 n=71 v=64
6 On ch=3 n=72 v=112
120 Par ch=3 c=7 v=105
470 Par ch=3 c=1 v=1
18 Par ch=3 c=1 v=2
29 Par ch=3 c=1 v=3
15 Par ch=3 c=1 v=4
0 Par ch=3 c=7 v=104
11 Par ch=3 c=1 v=5
13 Par ch=3 c=1 v=7
13 Par ch=3 c=1 v=8
8 Par ch=3 c=1 v=9
5 Par ch=3 c=1 v=10
16 Par ch=3 c=1 v=11
18 Par ch=3 c=1 v=12
8 Par ch=3 c=1 v=13
19 Par ch=3 c=1 v=14
15 Par ch=3 c=1 v=15
11 Par ch=3 c=1 v=16
13 Par ch=3 c=1 v=17
10 Par ch=3 c=1 v=18
11 Par ch=3 c=1 v=19
10 Par ch=3 c=1 v=20
11 Par ch=3 c=1 v=21
5 Par ch=3 c=1 v=22
11 Par ch=3 c=1 v=23
13 Par ch=3 c=1 v=24
15 Par ch=3 c=1 v=25
21 Par ch=3 c=1 v=26
50 Par ch=3 c=1 v=25
11 Par ch=3 c=1 v=24
13 Par ch=3 c=1 v=23
2 Par ch=3 c=1 v=21
8 Par ch=3 c=1 v=20
6 Par ch=3 c=1 v=19
5 Par ch=3 c=1 v=18
5 Par ch=3 c=1 v=17
5 Par ch=3 c=1 v=16
6 Par ch=3 c=1 v=14
5 Off ch=3 n=72 v=64
2 Par ch=3 c=1 v=13
3 Par ch=3 c=1 v=11
8 Par ch=3 c=1 v=9
5 Par ch=3 c=1 v=8
5 Par ch=3 c=1 v=7
6 Par ch=3 c=1 v=5
5 Par ch=3 c=1 v=4
5 Par ch=3 c=1 v=3
8 On ch=3 n=71 v=116
3 Par ch=3 c=1 v=0
152 Off ch=3 n=71 v=64
112 On ch=3 n=72 v=123
124 Off ch=3 n=72 v=64
2 On ch=3 n=73 v=116
116 Off ch=3 n=73 v=64
13 On ch=3 n=74 v=117
107 On ch=3 n=75 v=113
6 Off ch=3 n=74 v=64
104 Off ch=3 n=75 v=64
3 On ch=3 n=76 v=117
110 Off ch=3 n=76 v=64
21 On ch=3 n=77 v=117
110 Off ch=3 n=77 v=64
19 On ch=3 n=79 v=91
102 On ch=3 n=74 v=114
34 Off ch=3 n=79 v=64
94 On ch=3 n=75 v=114
27 Off ch=3 n=74 v=64
83 Off ch=3 n=75 v=64
11 On ch=3 n=77 v=117
493 Par ch=3 c=1 v=1
10 Par ch=3 c=1 v=2
13 Par ch=3 c=1 v=3
11 Par ch=3 c=1 v=5
5 Par ch=3 c=1 v=6
11 Par ch=3 c=1 v=7
5 Par ch=3 c=1 v=8
5 Par ch=3 c=1 v=9
5 Par ch=3 c=1 v=11
0 Par ch=3 c=7 v=105
6 Par ch=3 c=1 v=12
5 Par ch=3 c=1 v=13
5 Par ch=3 c=1 v=15
8 Par ch=3 c=1 v=16
5 Par ch=3 c=1 v=17
6 Par ch=3 c=1 v=19
10 Par ch=3 c=1 v=20
5 Par ch=3 c=1 v=21
5 Par ch=3 c=1 v=22
8 Par ch=3 c=1 v=24
11 Par ch=3 c=1 v=25
5 Par ch=3 c=1 v=26
11 Par ch=3 c=1 v=27
5 Par ch=3 c=1 v=28
10 Par ch=3 c=1 v=29
6 Par ch=3 c=1 v=30
5 Par ch=3 c=1 v=31
10 Par ch=3 c=1 v=32
11 Par ch=3 c=1 v=33
2 Par ch=3 c=1 v=34
268 Par ch=3 c=1 v=2
79 On ch=3 n=79 v=127
39 Off ch=3 n=77 v=64
97 Par ch=3 c=1 v=0
8 On ch=3 n=80 v=89
2 Off ch=3 n=79 v=64
74 On ch=3 n=82 v=116
8 Off ch=3 n=80 v=64
128 On ch=3 n=83 v=124
13 Off ch=3 n=82 v=64
441 Par ch=3 c=1 v=1
10 Par ch=3 c=1 v=2
8 Par ch=3 c=1 v=3
8 Par ch=3 c=1 v=4
13 Par ch=3 c=1 v=5
5 Par ch=3 c=1 v=6
11 Par ch=3 c=1 v=7
10 Par ch=3 c=1 v=8
11 Par ch=3 c=1 v=9
44 Par ch=3 c=1 v=8
11 Par ch=3 c=1 v=7
5 Par ch=3 c=1 v=6
5 Par ch=3 c=1 v=4
6 Par ch=3 c=1 v=3
5 Par ch=3 c=1 v=2
8 Par ch=3 c=1 v=0
330 Off ch=3 n=83 v=64
100 On ch=3 n=83 v=100
76 On ch=3 n=84 v=109
13 Off ch=3 n=83 v=64
107 On ch=3 n=83 v=89
11 Off ch=3 n=84 v=64
37 On ch=3 n=80 v=116
15 Off ch=3 n=83 v=64
184 On ch=3 n=79 v=121
8 Off ch=3 n=80 v=64
233 Off ch=3 n=79 v=64
3 On ch=3 n=83 v=100
246 Off ch=3 n=83 v=64
8 On ch=3 n=84 v=88
1930 Off ch=3 n=84 v=64
0 Meta TrkEnd
TrkEnd
MTrk
TimestampType=Delta
0 Meta Text "LOW GUITAR"
0 Pb ch=4 v=8192
0 Par ch=4 c=7 v=93
0 Par ch=4 c=10 v=29
0 Par ch=4 c=91 v=57
0 Par ch=4 c=93 v=114
0 PrCh ch=4 p=30
0 Par ch=4 c=64 v=0
40180 Pb ch=4 v=8192
451 On ch=4 n=44 v=92
1960 On ch=4 n=48 v=98
15 Off ch=4 n=44 v=64
1707 Pb ch=4 v=7936
5 Pb ch=4 v=7808
5 Pb ch=4 v=7552
5 Pb ch=4 v=7424
5 Pb ch=4 v=7168
5 Pb ch=4 v=7040
5 Pb ch=4 v=6784
5 Pb ch=4 v=6528
5 Pb ch=4 v=6272
7 Pb ch=4 v=6016
5 Pb ch=4 v=5760
5 Pb ch=4 v=5376
5 Pb ch=4 v=5120
5 Pb ch=4 v=4864
5 Pb ch=4 v=4480
5 Pb ch=4 v=4224
5 Pb ch=4 v=3968
5 Pb ch=4 v=3584
5 Pb ch=4 v=3328
5 Pb ch=4 v=2944
5 Pb ch=4 v=2688
5 Pb ch=4 v=2304
5 Pb ch=4 v=2048
5 Pb ch=4 v=1664
5 Pb ch=4 v=1408
5 Pb ch=4 v=1024
5 Pb ch=4 v=768
2 Off ch=4 n=48 v=64
5 Pb ch=4 v=512
5 Pb ch=4 v=128
5 Pb ch=4 v=0
170 Pb ch=4 v=128
5 Pb ch=4 v=2432
5 Pb ch=4 v=7680
5 Pb ch=4 v=10402
5 Pb ch=4 v=15732
4 Pb ch=4 v=16382
5 Pb ch=4 v=15732
8 Pb ch=4 v=11702
5 Pb ch=4 v=8192
5 Pb ch=4 v=5760
2 Pb ch=4 v=4352
8 Pb ch=4 v=6016
5 Pb ch=4 v=8192
5 Pb ch=4 v=10662
5 Pb ch=4 v=13522
10 Pb ch=4 v=11052
5 Pb ch=4 v=8192
5 Pb ch=4 v=7424
5 Pb ch=4 v=7296
5 Pb ch=4 v=8192
5 Pb ch=4 v=9232
5 Pb ch=4 v=11182
5 Pb ch=4 v=11052
5 Pb ch=4 v=8452
4 Pb ch=4 v=8192
15 Pb ch=4 v=8842
5 Pb ch=4 v=9882
5 Pb ch=4 v=8972
5 Pb ch=4 v=8192
13 Pb ch=4 v=8842
5 Pb ch=4 v=8712
5 Pb ch=4 v=8192
10 Pb ch=4 v=8192
5 Pb ch=4 v=8192
7344 Par ch=4 c=7 v=93
5 On ch=4 n=41 v=101
869 On ch=4 n=43 v=100
42 Off ch=4 n=41 v=64
65 On ch=4 n=45 v=97
27 Off ch=4 n=43 v=64
923 On ch=4 n=46 v=88
25 Off ch=4 n=45 v=64
876 On ch=4 n=48 v=79
44 Off ch=4 n=46 v=64
35 On ch=4 n=50 v=101
40 Off ch=4 n=48 v=64
657 On ch=4 n=48 v=92
42 Off ch=4 n=50 v=64
179 Off ch=4 n=48 v=64
60 On ch=4 n=48 v=98
2543 Pb ch=4 v=8192
5 Pb ch=4 v=7808
5 Pb ch=4 v=7552
5 Pb ch=4 v=7296
5 Pb ch=4 v=7040
5 Pb ch=4 v=6784
5 Pb ch=4 v=6528
5 Pb ch=4 v=6272
5 Pb ch=4 v=6016
5 Pb ch=4 v=5760
4 Pb ch=4 v=5504
5 Pb ch=4 v=5248
8 Pb ch=4 v=4864
5 Pb ch=4 v=4608
5 Pb ch=4 v=4352
5 Pb ch=4 v=4096
5 Pb ch=4 v=3712
5 Pb ch=4 v=3328
5 Pb ch=4 v=3072
5 Pb ch=4 v=2560
5 Pb ch=4 v=2176
2 Off ch=4 n=48 v=64
3 Pb ch=4 v=1664
5 Pb ch=4 v=1280
5 Pb ch=4 v=768
5 Pb ch=4 v=384
5 Pb ch=4 v=0
47 Pb ch=4 v=256
5 Pb ch=4 v=1792
5 Pb ch=4 v=4992
5 Pb ch=4 v=8192
5 Pb ch=4 v=10142
5 Pb ch=4 v=12222
5 Pb ch=4 v=11572
5 Pb ch=4 v=8452
5 Pb ch=4 v=8192
15 Pb ch=4 v=8582
5 Pb ch=4 v=10142
10 Pb ch=4 v=8452
5 Pb ch=4 v=8192
12 Pb ch=4 v=9102
5 Pb ch=4 v=8972
5 Pb ch=4 v=8192
15 Pb ch=4 v=8712
5 Pb ch=4 v=8192
25 On ch=4 n=41 v=100
925 On ch=4 n=45 v=101
30 Off ch=4 n=41 v=64
946 On ch=4 n=46 v=95
9 Off ch=4 n=45 v=64
652 Off ch=4 n=46 v=64
43 On ch=4 n=46 v=88
134 On ch=4 n=48 v=97
15 Off ch=4 n=46 v=64
65 On ch=4 n=50 v=97
39 Off ch=4 n=48 v=64
672 On ch=4 n=48 v=95
37 Off ch=4 n=50 v=64
172 Off ch=4 n=48 v=64
60 On ch=4 n=48 v=101
1366 Pb ch=4 v=8192
5 Pb ch=4 v=7680
5 Pb ch=4 v=7168
5 Pb ch=4 v=6656
10 Pb ch=4 v=7808
5 Pb ch=4 v=8192
5 Pb ch=4 v=9622
5 Pb ch=4 v=10402
5 Pb ch=4 v=8972
5 Pb ch=4 v=8192
14 Pb ch=4 v=8842
5 Pb ch=4 v=9102
5 Pb ch=4 v=8192
15 Pb ch=4 v=8582
5 Pb ch=4 v=8192
403 Pb ch=4 v=7808
5 Pb ch=4 v=7168
5 Pb ch=4 v=6400
5 Pb ch=4 v=5632
5 Pb ch=4 v=4992
5 Pb ch=4 v=4608
5 Pb ch=4 v=5632
5 Pb ch=4 v=8192
5 Pb ch=4 v=9362
5 Pb ch=4 v=11832
5 Pb ch=4 v=12352
5 Pb ch=4 v=9752
5 Pb ch=4 v=8192
5 Pb ch=4 v=7936
8 Pb ch=4 v=8192
5 Pb ch=4 v=8452
4 Pb ch=4 v=10142
3 Pb ch=4 v=10272
7 Pb ch=4 v=8192
5 Pb ch=4 v=8192
10 Pb ch=4 v=8192
5 Pb ch=4 v=9232
5 Pb ch=4 v=8712
5 Pb ch=4 v=8192
10 Pb ch=4 v=8192
5 Pb ch=4 v=8582
5 Pb ch=4 v=8192
622 Pb ch=4 v=8192
5 Pb ch=4 v=7936
5 Pb ch=4 v=7680
5 Pb ch=4 v=7552
5 Pb ch=4 v=7424
5 Pb ch=4 v=7168
5 Pb ch=4 v=7040
5 Pb ch=4 v=6784
5 Pb ch=4 v=6528
7 Pb ch=4 v=6400
5 Pb ch=4 v=6016
5 Pb ch=4 v=5760
5 Pb ch=4 v=5376
5 Pb ch=4 v=5120
5 Pb ch=4 v=4736
5 Pb ch=4 v=4352
5 Pb ch=4 v=3968
5 Pb ch=4 v=3456
5 Off ch=4 n=48 v=64
3 Pb ch=4 v=2944
5 Pb ch=4 v=2432
5 Pb ch=4 v=1920
5 Pb ch=4 v=1408
5 Pb ch=4 v=896
5 Pb ch=4 v=384
5 Pb ch=4 v=0
32 Pb ch=4 v=384
5 Pb ch=4 v=2432
5 Pb ch=4 v=6912
5 Pb ch=4 v=8582
5 Pb ch=4 v=11052
5 Pb ch=4 v=11962
5 Pb ch=4 v=10012
5 Pb ch=4 v=8192
77 On ch=4 n=43 v=106
975 On ch=4 n=45 v=98
20 Off ch=4 n=43 v=64
921 On ch=4 n=46 v=92
32 Off ch=4 n=45 v=64
906 On ch=4 n=48 v=98
25 Off ch=4 n=46 v=64
584 Pb ch=4 v=8192
5 Pb ch=4 v=7936
5 Pb ch=4 v=7808
8 Pb ch=4 v=7680
7 Pb ch=4 v=7552
8 Pb ch=4 v=7424
5 Pb ch=4 v=7296
9 Pb ch=4 v=7168
10 Pb ch=4 v=7040
5 Pb ch=4 v=6912
5 Pb ch=4 v=6784
5 Pb ch=4 v=6656
5 Pb ch=4 v=6528
5 Pb ch=4 v=6400
5 Pb ch=4 v=6272
5 Pb ch=4 v=6144
10 Pb ch=4 v=5888
5 Pb ch=4 v=5760
5 Pb ch=4 v=5632
5 Pb ch=4 v=5504
5 Pb ch=4 v=5376
5 Pb ch=4 v=5248
5 Pb ch=4 v=4992
5 Pb ch=4 v=4864
5 Pb ch=4 v=4736
7 Pb ch=4 v=4608
5 Pb ch=4 v=4352
5 Pb ch=4 v=4224
5 Pb ch=4 v=3968
5 Pb ch=4 v=3840
5 Pb ch=4 v=3584
5 Pb ch=4 v=3456
5 Pb ch=4 v=3200
5 Pb ch=4 v=2944
5 Pb ch=4 v=2688
5 Pb ch=4 v=2432
5 Pb ch=4 v=2176
5 Pb ch=4 v=1792
8 Pb ch=4 v=1408
5 Pb ch=4 v=1024
5 Pb ch=4 v=768
5 Pb ch=4 v=384
5 Pb ch=4 v=0
19 Off ch=4 n=48 v=64
35 Pb ch=4 v=384
5 Pb ch=4 v=1920
5 Pb ch=4 v=4992
5 Pb ch=4 v=8192
5 Pb ch=4 v=10012
5 Pb ch=4 v=12092
5 Pb ch=4 v=11702
5 Pb ch=4 v=8452
5 Pb ch=4 v=8192
15 Pb ch=4 v=8582
8 Pb ch=4 v=10402
2 On ch=4 n=43 v=100
5 Pb ch=4 v=8712
5 Pb ch=4 v=8192
12 Pb ch=4 v=8972
5 Pb ch=4 v=9102
8 Pb ch=4 v=8192
10 Pb ch=4 v=8192
5 Pb ch=4 v=8582
5 Pb ch=4 v=8192
913 On ch=4 n=45 v=100
12 Off ch=4 n=43 v=64
943 On ch=4 n=46 v=88
43 Off ch=4 n=45 v=64
903 On ch=4 n=48 v=98
27 Off ch=4 n=46 v=64
605 Pb ch=4 v=8192
5 Pb ch=4 v=7936
5 Pb ch=4 v=7808
10 Pb ch=4 v=7680
9 Pb ch=4 v=7552
5 Pb ch=4 v=7424
10 Pb ch=4 v=7296
5 Pb ch=4 v=7168
10 Pb ch=4 v=7040
8 Pb ch=4 v=6912
5 Pb ch=4 v=6784
10 Pb ch=4 v=6528
5 Pb ch=4 v=6400
10 Pb ch=4 v=6272
5 Pb ch=4 v=6144
5 Pb ch=4 v=6016
5 Pb ch=4 v=5888
5 Pb ch=4 v=5760
5 Pb ch=4 v=5632
7 Pb ch=4 v=5504
5 Pb ch=4 v=5376
5 Pb ch=4 v=5248
5 Pb ch=4 v=5120
5 Pb ch=4 v=4864
2 Pb ch=4 v=4736
8 Pb ch=4 v=4608
5 Pb ch=4 v=4480
5 Pb ch=4 v=4224
5 Pb ch=4 v=4096
5 Pb ch=4 v=3840
5 Pb ch=4 v=3712
5 Pb ch=4 v=3584
5 Pb ch=4 v=3328
5 Pb ch=4 v=3200
5 Pb ch=4 v=2944
5 Pb ch=4 v=2688
5 Pb ch=4 v=2560
5 Pb ch=4 v=2304
5 Pb ch=4 v=2176
4 Pb ch=4 v=1920
5 Pb ch=4 v=1664
5 Pb ch=4 v=1408
8 Pb ch=4 v=1152
5 Pb ch=4 v=768
5 Pb ch=4 v=384
2 Off ch=4 n=48 v=64
3 Pb ch=4 v=0
55 Pb ch=4 v=640
5 Pb ch=4 v=2432
5 Pb ch=4 v=6272
5 Pb ch=4 v=8192
4 Pb ch=4 v=10792
5 Pb ch=4 v=12352
5 Pb ch=4 v=11052
5 Pb ch=4 v=8192
8 Pb ch=4 v=8192
12 On ch=4 n=44 v=110
5 Pb ch=4 v=9882
10 Pb ch=4 v=8192
18 Pb ch=4 v=9102
5 Pb ch=4 v=8972
5 Pb ch=4 v=8192
15 Pb ch=4 v=8712
5 Pb ch=4 v=8192
1836 On ch=4 n=48 v=100
2 Off ch=4 n=44 v=64
2336 Off ch=4 n=48 v=64
75 On ch=4 n=48 v=95
940 Off ch=4 n=48 v=64
33 On ch=4 n=48 v=66
470 Off ch=4 n=48 v=64
70077 Par ch=4 c=7 v=86
8 On ch=4 n=44 v=100
1960 On ch=4 n=48 v=105
15 Off ch=4 n=44 v=64
1841 Off ch=4 n=48 v=64
49 On ch=4 n=41 v=101
869 On ch=4 n=43 v=100
42 Off ch=4 n=41 v=64
65 On ch=4 n=45 v=97
27 Off ch=4 n=43 v=64
923 On ch=4 n=46 v=88
25 Off ch=4 n=45 v=64
876 On ch=4 n=48 v=79
44 Off ch=4 n=46 v=64
35 On ch=4 n=50 v=101
40 Off ch=4 n=48 v=64
657 On ch=4 n=48 v=92
42 Off ch=4 n=50 v=64
179 Off ch=4 n=48 v=64
60 On ch=4 n=48 v=98
2543 Pb ch=4 v=8192
5 Pb ch=4 v=7808
5 Pb ch=4 v=7552
5 Pb ch=4 v=7296
5 Pb ch=4 v=7040
5 Pb ch=4 v=6784
5 Pb ch=4 v=6528
5 Pb ch=4 v=6272
5 Pb ch=4 v=6016
5 Pb ch=4 v=5760
4 Pb ch=4 v=5504
5 Pb ch=4 v=5248
8 Pb ch=4 v=4864
5 Pb ch=4 v=4608
5 Pb ch=4 v=4352
5 Pb ch=4 v=4096
5 Pb ch=4 v=3712
5 Pb ch=4 v=3328
5 Pb ch=4 v=3072
5 Pb ch=4 v=2560
5 Pb ch=4 v=2176
2 Off ch=4 n=48 v=64
3 Pb ch=4 v=1664
5 Pb ch=4 v=1280
5 Pb ch=4 v=768
5 Pb ch=4 v=384
5 Pb ch=4 v=0
47 Pb ch=4 v=256
5 Pb ch=4 v=1792
5 Pb ch=4 v=4992
5 Pb ch=4 v=8192
5 Pb ch=4 v=10142
5 Pb ch=4 v=12222
5 Pb ch=4 v=11572
5 Pb ch=4 v=8452
5 Pb ch=4 v=8192
15 Pb ch=4 v=8582
5 Pb ch=4 v=10142
10 Pb ch=4 v=8452
5 Pb ch=4 v=8192
12 Pb ch=4 v=9102
5 Pb ch=4 v=8972
5 Pb ch=4 v=8192
15 Pb ch=4 v=8712
5 Pb ch=4 v=8192
25 On ch=4 n=41 v=100
925 On ch=4 n=45 v=101
30 Off ch=4 n=41 v=64
946 On ch=4 n=46 v=95
9 Off ch=4 n=45 v=64
652 Off ch=4 n=46 v=64
43 On ch=4 n=46 v=88
134 On ch=4 n=48 v=97
15 Off ch=4 n=46 v=64
65 On ch=4 n=50 v=97
39 Off ch=4 n=48 v=64
672 On ch=4 n=48 v=95
37 Off ch=4 n=50 v=64
172 Off ch=4 n=48 v=64
60 On ch=4 n=48 v=101
1366 Pb ch=4 v=8192
5 Pb ch=4 v=7680
5 Pb ch=4 v=7168
5 Pb ch=4 v=6656
10 Pb ch=4 v=7808
5 Pb ch=4 v=8192
5 Pb ch=4 v=9622
5 Pb ch=4 v=10402
5 Pb ch=4 v=8972
5 Pb ch=4 v=8192
14 Pb ch=4 v=8842
5 Pb ch=4 v=9102
5 Pb ch=4 v=8192
15 Pb ch=4 v=8582
5 Pb ch=4 v=8192
403 Pb ch=4 v=7808
5 Pb ch=4 v=7168
5 Pb ch=4 v=6400
5 Pb ch=4 v=5632
5 Pb ch=4 v=4992
5 Pb ch=4 v=4608
5 Pb ch=4 v=5632
5 Pb ch=4 v=8192
5 Pb ch=4 v=9362
5 Pb ch=4 v=11832
5 Pb ch=4 v=12352
5 Pb ch=4 v=9752
5 Pb ch=4 v=8192
5 Pb ch=4 v=7936
8 Pb ch=4 v=8192
5 Pb ch=4 v=8452
4 Pb ch=4 v=10142
3 Pb ch=4 v=10272
7 Pb ch=4 v=8192
5 Pb ch=4 v=8192
10 Pb ch=4 v=8192
5 Pb ch=4 v=9232
5 Pb ch=4 v=8712
5 Pb ch=4 v=8192
10 Pb ch=4 v=8192
5 Pb ch=4 v=8582
5 Pb ch=4 v=8192
592 Pb ch=4 v=8192
5 Pb ch=4 v=7936
5 Pb ch=4 v=7680
5 Pb ch=4 v=7552
5 Pb ch=4 v=7424
5 Pb ch=4 v=7168
5 Pb ch=4 v=7040
5 Pb ch=4 v=6784
5 Pb ch=4 v=6528
7 Pb ch=4 v=6400
5 Pb ch=4 v=6016
5 Pb ch=4 v=5760
5 Pb ch=4 v=5376
5 Pb ch=4 v=5120
5 Pb ch=4 v=4736
5 Pb ch=4 v=4352
5 Pb ch=4 v=3968
5 Pb ch=4 v=3456
8 Pb ch=4 v=2944
5 Pb ch=4 v=2432
5 Pb ch=4 v=1920
5 Pb ch=4 v=1408
5 Pb ch=4 v=896
5 Pb ch=4 v=384
2 Off ch=4 n=48 v=64
3 Pb ch=4 v=0
32 Pb ch=4 v=384
5 Pb ch=4 v=2432
5 Pb ch=4 v=6912
5 Pb ch=4 v=8582
5 Pb ch=4 v=11052
5 Pb ch=4 v=11962
5 Pb ch=4 v=10012
5 Pb ch=4 v=8192
77 On ch=4 n=43 v=106
975 On ch=4 n=45 v=98
20 Off ch=4 n=43 v=64
921 On ch=4 n=46 v=92
32 Off ch=4 n=45 v=64
906 On ch=4 n=48 v=98
25 Off ch=4 n=46 v=64
584 Pb ch=4 v=8192
5 Pb ch=4 v=7936
5 Pb ch=4 v=7808
8 Pb ch=4 v=7680
7 Pb ch=4 v=7552
8 Pb ch=4 v=7424
5 Pb ch=4 v=7296
9 Pb ch=4 v=7168
10 Pb ch=4 v=7040
5 Pb ch=4 v=6912
5 Pb ch=4 v=6784
5 Pb ch=4 v=6656
5 Pb ch=4 v=6528
5 Pb ch=4 v=6400
5 Pb ch=4 v=6272
5 Pb ch=4 v=6144
10 Pb ch=4 v=5888
5 Pb ch=4 v=5760
5 Pb ch=4 v=5632
5 Pb ch=4 v=5504
5 Pb ch=4 v=5376
5 Pb ch=4 v=5248
5 Pb ch=4 v=4992
5 Pb ch=4 v=4864
5 Pb ch=4 v=4736
7 Pb ch=4 v=4608
5 Pb ch=4 v=4352
5 Pb ch=4 v=4224
5 Pb ch=4 v=3968
5 Pb ch=4 v=3840
5 Pb ch=4 v=3584
5 Pb ch=4 v=3456
5 Pb ch=4 v=3200
5 Pb ch=4 v=2944
5 Pb ch=4 v=2688
5 Pb ch=4 v=2432
5 Pb ch=4 v=2176
5 Pb ch=4 v=1792
8 Pb ch=4 v=1408
5 Pb ch=4 v=1024
5 Pb ch=4 v=768
5 Pb ch=4 v=384
5 Pb ch=4 v=0
19 Off ch=4 n=48 v=64
35 Pb ch=4 v=384
5 Pb ch=4 v=1920
5 Pb ch=4 v=4992
5 Pb ch=4 v=8192
5 Pb ch=4 v=10012
5 Pb ch=4 v=12092
5 Pb ch=4 v=11702
5 Pb ch=4 v=8452
5 Pb ch=4 v=8192
15 Pb ch=4 v=8582
8 Pb ch=4 v=10402
2 On ch=4 n=43 v=100
5 Pb ch=4 v=8712
5 Pb ch=4 v=8192
12 Pb ch=4 v=8972
5 Pb ch=4 v=9102
8 Pb ch=4 v=8192
10 Pb ch=4 v=8192
5 Pb ch=4 v=8582
5 Pb ch=4 v=8192
913 On ch=4 n=45 v=100
12 Off ch=4 n=43 v=64
943 On ch=4 n=46 v=88
43 Off ch=4 n=45 v=64
903 On ch=4 n=48 v=98
27 Off ch=4 n=46 v=64
605 Pb ch=4 v=8192
5 Pb ch=4 v=7936
5 Pb ch=4 v=7808
10 Pb ch=4 v=7680
9 Pb ch=4 v=7552
5 Pb ch=4 v=7424
10 Pb ch=4 v=7296
5 Pb ch=4 v=7168
10 Pb ch=4 v=7040
8 Pb ch=4 v=6912
5 Pb ch=4 v=6784
10 Pb ch=4 v=6528
5 Pb ch=4 v=6400
10 Pb ch=4 v=6272
5 Pb ch=4 v=6144
5 Pb ch=4 v=6016
5 Pb ch=4 v=5888
5 Pb ch=4 v=5760
5 Pb ch=4 v=5632
7 Pb ch=4 v=5504
5 Pb ch=4 v=5376
5 Pb ch=4 v=5248
5 Pb ch=4 v=5120
5 Pb ch=4 v=4864
2 Pb ch=4 v=4736
8 Pb ch=4 v=4608
5 Pb ch=4 v=4480
5 Pb ch=4 v=4224
5 Pb ch=4 v=4096
5 Pb ch=4 v=3840
5 Pb ch=4 v=3712
5 Pb ch=4 v=3584
5 Pb ch=4 v=3328
5 Pb ch=4 v=3200
5 Pb ch=4 v=2944
5 Pb ch=4 v=2688
5 Pb ch=4 v=2560
5 Pb ch=4 v=2304
5 Pb ch=4 v=2176
4 Pb ch=4 v=1920
5 Pb ch=4 v=1664
5 Pb ch=4 v=1408
8 Pb ch=4 v=1152
5 Pb ch=4 v=768
5 Pb ch=4 v=384
2 Off ch=4 n=48 v=64
3 Pb ch=4 v=0
55 Pb ch=4 v=640
5 Pb ch=4 v=2432
5 Pb ch=4 v=6272
5 Pb ch=4 v=8192
4 Pb ch=4 v=10792
5 Pb ch=4 v=12352
5 Pb ch=4 v=11052
5 Pb ch=4 v=8192
8 Pb ch=4 v=8192
12 On ch=4 n=44 v=110
5 Pb ch=4 v=9882
10 Pb ch=4 v=8192
18 Pb ch=4 v=9102
5 Pb ch=4 v=8972
5 Pb ch=4 v=8192
15 Pb ch=4 v=8712
5 Pb ch=4 v=8192
1836 On ch=4 n=48 v=100
2 Off ch=4 n=44 v=64
2336 Off ch=4 n=48 v=64
75 On ch=4 n=48 v=95
940 Off ch=4 n=48 v=64
33 On ch=4 n=48 v=66
453 On ch=4 n=48 v=106
8 On ch=4 n=41 v=118
9 Off ch=4 n=48 v=64
326 Off ch=4 n=48 v=64
8 Off ch=4 n=41 v=64
0 Meta TrkEnd
TrkEnd
MTrk
TimestampType=Delta
0 Meta Text "GUITAR LEAD"
0 Pb ch=5 v=8192
0 Par ch=5 c=7 v=95
0 Par ch=5 c=10 v=93
0 Par ch=5 c=91 v=80
0 Par ch=5 c=93 v=47
0 PrCh ch=5 p=29
0 Par ch=5 c=64 v=0
43164 Pb ch=5 v=8192
5063 On ch=5 n=72 v=127
112 On ch=5 n=77 v=113
30 Off ch=5 n=72 v=64
102 Off ch=5 n=77 v=64
2 On ch=5 n=79 v=109
80 On ch=5 n=77 v=92
42 Off ch=5 n=79 v=64
65 Off ch=5 n=77 v=64
2 On ch=5 n=72 v=95
62 On ch=5 n=77 v=84
15 Off ch=5 n=72 v=64
100 On ch=5 n=81 v=105
7 Off ch=5 n=77 v=64
77 On ch=5 n=77 v=95
28 Off ch=5 n=81 v=64
64 Off ch=5 n=77 v=64
8 On ch=5 n=72 v=95
70 On ch=5 n=77 v=95
7 Off ch=5 n=72 v=64
92 Off ch=5 n=77 v=64
0 On ch=5 n=79 v=94
95 On ch=5 n=77 v=92
32 Off ch=5 n=79 v=64
70 Off ch=5 n=77 v=64
10 On ch=5 n=72 v=92
47 On ch=5 n=77 v=83
15 Off ch=5 n=72 v=64
97 On ch=5 n=81 v=77
5 Off ch=5 n=77 v=64
84 On ch=5 n=77 v=88
23 Off ch=5 n=81 v=64
77 Off ch=5 n=77 v=64
15 On ch=5 n=72 v=95
57 On ch=5 n=77 v=84
8 Off ch=5 n=72 v=64
104 On ch=5 n=79 v=88
5 Off ch=5 n=77 v=64
82 On ch=5 n=77 v=92
37 Off ch=5 n=79 v=64
80 Off ch=5 n=77 v=64
3 On ch=5 n=72 v=100
62 On ch=5 n=77 v=95
17 Off ch=5 n=72 v=64
100 Off ch=5 n=77 v=64
2 On ch=5 n=81 v=98
80 On ch=5 n=77 v=87
27 Off ch=5 n=81 v=64
75 Off ch=5 n=77 v=64
2 On ch=5 n=72 v=91
55 On ch=5 n=77 v=95
15 Off ch=5 n=72 v=64
94 On ch=5 n=79 v=95
3 Off ch=5 n=77 v=64
85 On ch=5 n=77 v=92
29 Off ch=5 n=79 v=64
75 Off ch=5 n=77 v=64
5 On ch=5 n=72 v=86
55 On ch=5 n=77 v=87
12 Off ch=5 n=72 v=64
85 Off ch=5 n=77 v=64
2 On ch=5 n=81 v=94
82 On ch=5 n=77 v=95
18 Off ch=5 n=81 v=64
87 Off ch=5 n=77 v=64
2 On ch=5 n=72 v=94
68 On ch=5 n=77 v=77
14 Off ch=5 n=72 v=64
95 On ch=5 n=79 v=105
15 Off ch=5 n=77 v=64
95 On ch=5 n=77 v=83
27 Off ch=5 n=79 v=64
20 On ch=5 n=72 v=87
32 Off ch=5 n=77 v=64
82 On ch=5 n=77 v=92
18 Off ch=5 n=72 v=64
104 On ch=5 n=81 v=95
3 Off ch=5 n=77 v=64
87 On ch=5 n=77 v=98
35 Off ch=5 n=81 v=64
77 On ch=5 n=72 v=100
10 Off ch=5 n=77 v=64
57 On ch=5 n=77 v=86
57 Off ch=5 n=72 v=64
57 On ch=5 n=82 v=119
28 Off ch=5 n=77 v=64
99 Pb ch=5 v=8192
5 Pb ch=5 v=8582
10 Pb ch=5 v=8712
5 Pb ch=5 v=8842
5 Pb ch=5 v=8972
5 Pb ch=5 v=9232
8 Pb ch=5 v=9362
4 Pb ch=5 v=9622
5 Pb ch=5 v=9882
5 Pb ch=5 v=10272
5 Pb ch=5 v=10662
5 Pb ch=5 v=11182
5 Pb ch=5 v=11702
5 Pb ch=5 v=12222
5 Pb ch=5 v=12742
8 Pb ch=5 v=13262
5 Pb ch=5 v=13652
5 Pb ch=5 v=14172
5 Pb ch=5 v=14692
5 Pb ch=5 v=15212
5 Pb ch=5 v=15602
5 Pb ch=5 v=15862
5 Pb ch=5 v=16122
5 Pb ch=5 v=16382
432 Par ch=5 c=7 v=73
82 Par ch=5 c=7 v=72
118 Par ch=5 c=7 v=71
91 Par ch=5 c=7 v=70
129 Par ch=5 c=7 v=69
97 Par ch=5 c=7 v=68
60 Par ch=5 c=7 v=67
92 Par ch=5 c=7 v=65
55 Par ch=5 c=7 v=64
55 Par ch=5 c=7 v=63
60 Par ch=5 c=7 v=62
45 Par ch=5 c=7 v=61
55 Par ch=5 c=7 v=60
76 Par ch=5 c=7 v=59
50 Par ch=5 c=7 v=58
86 Par ch=5 c=7 v=57
90 Par ch=5 c=7 v=56
99 Par ch=5 c=7 v=55
74 Par ch=5 c=7 v=54
73 Par ch=5 c=7 v=53
71 Par ch=5 c=7 v=52
60 Par ch=5 c=7 v=51
60 Par ch=5 c=7 v=50
92 Par ch=5 c=7 v=49
55 Par ch=5 c=7 v=48
84 Par ch=5 c=7 v=46
71 Par ch=5 c=7 v=45
45 Par ch=5 c=7 v=44
55 Par ch=5 c=7 v=43
63 Par ch=5 c=7 v=41
12 Off ch=5 n=82 v=64
56 Par ch=5 c=7 v=39
76 Par ch=5 c=7 v=37
78 Par ch=5 c=7 v=35
76 Par ch=5 c=7 v=33
66 Par ch=5 c=7 v=31
50 Par ch=5 c=7 v=30
55 Par ch=5 c=7 v=29
50 Par ch=5 c=7 v=28
97 Par ch=5 c=7 v=27
65 Par ch=5 c=7 v=26
45 Par ch=5 c=7 v=25
87 Pb ch=5 v=16252
5 Pb ch=5 v=16122
10 Pb ch=5 v=15992
8 Pb ch=5 v=15862
7 Pb ch=5 v=15732
5 Pb ch=5 v=15602
5 Pb ch=5 v=15472
5 Pb ch=5 v=15342
10 Pb ch=5 v=15212
5 Pb ch=5 v=15082
7 Pb ch=5 v=14952
5 Pb ch=5 v=14822
10 Pb ch=5 v=14692
5 Pb ch=5 v=14562
10 Pb ch=5 v=14432
10 Pb ch=5 v=14172
10 Pb ch=5 v=14042
5 Pb ch=5 v=13912
5 Pb ch=5 v=13782
5 Pb ch=5 v=13652
5 Pb ch=5 v=13522
5 Pb ch=5 v=13392
5 Pb ch=5 v=13132
5 Pb ch=5 v=13002
5 Pb ch=5 v=12872
7 Pb ch=5 v=12612
5 Pb ch=5 v=12352
5 Pb ch=5 v=12092
5 Pb ch=5 v=11962
5 Pb ch=5 v=11702
5 Pb ch=5 v=11572
5 Pb ch=5 v=11312
5 Pb ch=5 v=11182
5 Pb ch=5 v=11052
5 Pb ch=5 v=10792
5 Pb ch=5 v=10662
8 Pb ch=5 v=10402
2 Pb ch=5 v=10272
8 Pb ch=5 v=10142
5 Pb ch=5 v=10012
5 Pb ch=5 v=9752
5 Pb ch=5 v=9622
5 Pb ch=5 v=9492
5 Pb ch=5 v=9362
9 Pb ch=5 v=9232
5 Pb ch=5 v=9102
5 Pb ch=5 v=8972
5 Pb ch=5 v=8842
5 Pb ch=5 v=8712
5 Pb ch=5 v=8582
5 Pb ch=5 v=8452
5 Pb ch=5 v=8192
18 Pb ch=5 v=8192
464 Par ch=5 c=7 v=26
45 Par ch=5 c=7 v=28
50 Par ch=5 c=7 v=30
47 Par ch=5 c=7 v=32
50 Par ch=5 c=7 v=34
73 Par ch=5 c=7 v=36
71 Par ch=5 c=7 v=38
76 Par ch=5 c=7 v=40
79 Par ch=5 c=7 v=42
70 Par ch=5 c=7 v=44
61 Par ch=5 c=7 v=46
44 Par ch=5 c=7 v=48
50 Par ch=5 c=7 v=50
26 Par ch=5 c=7 v=51
92 Par ch=5 c=7 v=52
55 Par ch=5 c=7 v=53
74 Par ch=5 c=7 v=55
133 Par ch=5 c=7 v=56
100 Par ch=5 c=7 v=57
76 Par ch=5 c=7 v=59
34 Par ch=5 c=7 v=60
55 Par ch=5 c=7 v=61
76 Par ch=5 c=7 v=62
76 Par ch=5 c=7 v=64
84 Par ch=5 c=7 v=66
97 Par ch=5 c=7 v=68
60 Par ch=5 c=7 v=69
84 Par ch=5 c=7 v=70
286 Par ch=5 c=7 v=71
37 Par ch=5 c=7 v=72
60 Par ch=5 c=7 v=73
92 Par ch=5 c=7 v=74
370 Par ch=5 c=7 v=75
658 Par ch=5 c=7 v=74
5199 On ch=5 n=67 v=120
246 On ch=5 n=69 v=105
30 Off ch=5 n=67 v=64
124 Off ch=5 n=69 v=64
53 Pb ch=5 v=7936
5 Pb ch=5 v=7680
5 Pb ch=5 v=7296
5 Pb ch=5 v=6912
4 Pb ch=5 v=6528
5 Pb ch=5 v=6144
5 Pb ch=5 v=5760
5 Pb ch=5 v=5376
5 Pb ch=5 v=4992
8 Pb ch=5 v=4736
5 Pb ch=5 v=4352
7 On ch=5 n=70 v=113
3 Pb ch=5 v=3840
5 Pb ch=5 v=3584
5 Pb ch=5 v=3456
5 Pb ch=5 v=3328
5 Pb ch=5 v=3200
5 Pb ch=5 v=3072
10 Pb ch=5 v=2944
22 Pb ch=5 v=3072
5 Pb ch=5 v=3200
5 Pb ch=5 v=3456
5 Pb ch=5 v=3712
5 Pb ch=5 v=4096
5 Pb ch=5 v=4480
5 Pb ch=5 v=5120
5 Pb ch=5 v=5888
5 Pb ch=5 v=6528
5 Pb ch=5 v=7296
5 Pb ch=5 v=7936
5 Pb ch=5 v=8192
249 On ch=5 n=74 v=95
34 Off ch=5 n=70 v=64
254 On ch=5 n=72 v=109
35 Off ch=5 n=74 v=64
209 Off ch=5 n=72 v=64
52 On ch=5 n=65 v=113
341 Off ch=5 n=65 v=64
8 On ch=5 n=67 v=94
316 On ch=5 n=69 v=95
19 Off ch=5 n=67 v=64
155 Off ch=5 n=69 v=64
42 Pb ch=5 v=8192
5 Pb ch=5 v=7680
5 Pb ch=5 v=7424
5 Pb ch=5 v=7168
7 Pb ch=5 v=6912
5 Pb ch=5 v=6656
5 Pb ch=5 v=6400
5 Pb ch=5 v=6144
5 Pb ch=5 v=6016
5 Pb ch=5 v=5760
5 Pb ch=5 v=5632
5 Pb ch=5 v=5376
5 Pb ch=5 v=5248
5 Pb ch=5 v=5120
3 On ch=5 n=69 v=113
5 Pb ch=5 v=4864
5 Pb ch=5 v=4736
5 Pb ch=5 v=4608
10 Pb ch=5 v=4480
5 Pb ch=5 v=4352
14 Pb ch=5 v=4224
20 Pb ch=5 v=4352
8 Pb ch=5 v=4480
5 Pb ch=5 v=4608
5 Pb ch=5 v=4864
5 Pb ch=5 v=4992
5 Pb ch=5 v=5248
5 Pb ch=5 v=5632
5 Pb ch=5 v=6016
7 Pb ch=5 v=6528
5 Pb ch=5 v=7168
5 Pb ch=5 v=7680
5 Pb ch=5 v=8192
368 On ch=5 n=72 v=91
25 Off ch=5 n=69 v=64
222 On ch=5 n=67 v=88
2 Off ch=5 n=72 v=64
689 Off ch=5 n=67 v=64
38 On ch=5 n=74 v=113
216 On ch=5 n=76 v=100
12 Off ch=5 n=74 v=64
130 Off ch=5 n=76 v=64
32 Pb ch=5 v=7808
5 Pb ch=5 v=7424
5 Pb ch=5 v=7168
8 Pb ch=5 v=6784
5 Pb ch=5 v=6400
5 Pb ch=5 v=6016
5 Pb ch=5 v=5632
5 Pb ch=5 v=5248
4 Pb ch=5 v=4992
8 Pb ch=5 v=4608
5 Pb ch=5 v=4352
5 Pb ch=5 v=4096
5 On ch=5 n=77 v=109
2 Pb ch=5 v=3840
5 Pb ch=5 v=3712
10 Pb ch=5 v=3584
23 Pb ch=5 v=3712
5 Pb ch=5 v=3840
5 Pb ch=5 v=4096
5 Pb ch=5 v=4480
7 Pb ch=5 v=4864
5 Pb ch=5 v=5376
5 Pb ch=5 v=5760
7 Pb ch=5 v=6144
5 Pb ch=5 v=6528
5 Pb ch=5 v=6784
5 Pb ch=5 v=7040
5 Pb ch=5 v=7424
5 Pb ch=5 v=7680
5 Pb ch=5 v=8192
10 Pb ch=5 v=8192
262 On ch=5 n=76 v=100
52 Off ch=5 n=77 v=64
204 On ch=5 n=74 v=113
42 Off ch=5 n=76 v=64
256 Off ch=5 n=74 v=64
10 On ch=5 n=72 v=100
351 On ch=5 n=70 v=113
37 Off ch=5 n=72 v=64
267 On ch=5 n=69 v=95
44 Off ch=5 n=70 v=64
135 Off ch=5 n=69 v=64
35 Pb ch=5 v=7936
5 Pb ch=5 v=7552
5 Pb ch=5 v=7296
5 Pb ch=5 v=7040
5 Pb ch=5 v=6784
4 Pb ch=5 v=6528
5 Pb ch=5 v=6400
5 Pb ch=5 v=6144
5 Pb ch=5 v=6016
5 Pb ch=5 v=5888
5 Pb ch=5 v=5760
10 Pb ch=5 v=5632
10 On ch=5 n=69 v=109
20 Pb ch=5 v=5760
5 Pb ch=5 v=5888
5 Pb ch=5 v=6016
5 Pb ch=5 v=6272
5 Pb ch=5 v=6528
8 Pb ch=5 v=6784
5 Pb ch=5 v=7040
7 Pb ch=5 v=7424
5 Pb ch=5 v=7808
5 Pb ch=5 v=8192
425 On ch=5 n=72 v=92
20 Off ch=5 n=69 v=64
209 Off ch=5 n=72 v=64
20 On ch=5 n=67 v=87
722 Off ch=5 n=67 v=64
490 On ch=5 n=51 v=109
2 On ch=5 n=44 v=109
1921 Off ch=5 n=44 v=64
13 Off ch=5 n=51 v=64
12 On ch=5 n=55 v=95
12 On ch=5 n=48 v=95
3675 Off ch=5 n=48 v=64
25 Off ch=5 n=55 v=64
72720 Pb ch=5 v=8192
1317 On ch=5 n=82 v=119
127 Pb ch=5 v=8192
5 Pb ch=5 v=8582
10 Pb ch=5 v=8712
5 Pb ch=5 v=8842
5 Pb ch=5 v=8972
5 Pb ch=5 v=9232
8 Pb ch=5 v=9362
4 Pb ch=5 v=9622
5 Pb ch=5 v=9882
5 Pb ch=5 v=10272
5 Pb ch=5 v=10662
5 Pb ch=5 v=11182
5 Pb ch=5 v=11702
5 Pb ch=5 v=12222
5 Pb ch=5 v=12742
8 Pb ch=5 v=13262
5 Pb ch=5 v=13652
5 Pb ch=5 v=14172
5 Pb ch=5 v=14692
5 Pb ch=5 v=15212
5 Pb ch=5 v=15602
5 Pb ch=5 v=15862
5 Pb ch=5 v=16122
5 Pb ch=5 v=16382
3388 Pb ch=5 v=16252
5 Pb ch=5 v=16122
10 Pb ch=5 v=15992
8 Pb ch=5 v=15862
7 Pb ch=5 v=15732
5 Pb ch=5 v=15602
5 Pb ch=5 v=15472
5 Pb ch=5 v=15342
10 Pb ch=5 v=15212
5 Pb ch=5 v=15082
7 Pb ch=5 v=14952
5 Pb ch=5 v=14822
10 Pb ch=5 v=14692
5 Pb ch=5 v=14562
10 Pb ch=5 v=14432
10 Pb ch=5 v=14172
10 Pb ch=5 v=14042
5 Pb ch=5 v=13912
5 Pb ch=5 v=13782
5 Pb ch=5 v=13652
5 Pb ch=5 v=13522
5 Pb ch=5 v=13392
5 Pb ch=5 v=13132
5 Pb ch=5 v=13002
5 Pb ch=5 v=12872
2 Off ch=5 n=82 v=64
5 Pb ch=5 v=12612
5 Pb ch=5 v=12352
5 Pb ch=5 v=12092
5 Pb ch=5 v=11962
5 Pb ch=5 v=11702
5 Pb ch=5 v=11572
5 Pb ch=5 v=11312
5 Pb ch=5 v=11182
5 Pb ch=5 v=11052
5 Pb ch=5 v=10792
5 Pb ch=5 v=10662
8 Pb ch=5 v=10402
2 Pb ch=5 v=10272
8 Pb ch=5 v=10142
5 Pb ch=5 v=10012
5 Pb ch=5 v=9752
5 Pb ch=5 v=9622
5 Pb ch=5 v=9492
5 Pb ch=5 v=9362
9 Pb ch=5 v=9232
5 Pb ch=5 v=9102
5 Pb ch=5 v=8972
5 Pb ch=5 v=8842
5 Pb ch=5 v=8712
5 Pb ch=5 v=8582
5 Pb ch=5 v=8452
5 Pb ch=5 v=8192
18 Pb ch=5 v=8192
8982 On ch=5 n=67 v=97
238 On ch=5 n=69 v=105
21 Off ch=5 n=67 v=64
133 Off ch=5 n=69 v=64
53 Pb ch=5 v=7936
5 Pb ch=5 v=7680
5 Pb ch=5 v=7296
5 Pb ch=5 v=6912
4 Pb ch=5 v=6528
5 Pb ch=5 v=6144
5 Pb ch=5 v=5760
5 Pb ch=5 v=5376
5 Pb ch=5 v=4992
8 Pb ch=5 v=4736
5 Pb ch=5 v=4352
7 On ch=5 n=70 v=113
3 Pb ch=5 v=3840
5 Pb ch=5 v=3584
5 Pb ch=5 v=3456
5 Pb ch=5 v=3328
5 Pb ch=5 v=3200
5 Pb ch=5 v=3072
10 Pb ch=5 v=2944
22 Pb ch=5 v=3072
5 Pb ch=5 v=3200
5 Pb ch=5 v=3456
5 Pb ch=5 v=3712
5 Pb ch=5 v=4096
5 Pb ch=5 v=4480
5 Pb ch=5 v=5120
5 Pb ch=5 v=5888
5 Pb ch=5 v=6528
5 Pb ch=5 v=7296
5 Pb ch=5 v=7936
5 Pb ch=5 v=8192
249 On ch=5 n=74 v=95
34 Off ch=5 n=70 v=64
254 On ch=5 n=72 v=109
35 Off ch=5 n=74 v=64
209 Off ch=5 n=72 v=64
52 On ch=5 n=65 v=113
341 Off ch=5 n=65 v=64
8 On ch=5 n=67 v=94
316 On ch=5 n=69 v=95
19 Off ch=5 n=67 v=64
155 Off ch=5 n=69 v=64
42 Pb ch=5 v=8192
5 Pb ch=5 v=7680
5 Pb ch=5 v=7424
5 Pb ch=5 v=7168
7 Pb ch=5 v=6912
5 Pb ch=5 v=6656
5 Pb ch=5 v=6400
5 Pb ch=5 v=6144
5 Pb ch=5 v=6016
5 Pb ch=5 v=5760
5 Pb ch=5 v=5632
5 Pb ch=5 v=5376
5 Pb ch=5 v=5248
5 Pb ch=5 v=5120
3 On ch=5 n=69 v=113
5 Pb ch=5 v=4864
5 Pb ch=5 v=4736
5 Pb ch=5 v=4608
10 Pb ch=5 v=4480
5 Pb ch=5 v=4352
14 Pb ch=5 v=4224
20 Pb ch=5 v=4352
8 Pb ch=5 v=4480
5 Pb ch=5 v=4608
5 Pb ch=5 v=4864
5 Pb ch=5 v=4992
5 Pb ch=5 v=5248
5 Pb ch=5 v=5632
5 Pb ch=5 v=6016
7 Pb ch=5 v=6528
5 Pb ch=5 v=7168
5 Pb ch=5 v=7680
5 Pb ch=5 v=8192
368 On ch=5 n=72 v=91
25 Off ch=5 n=69 v=64
222 On ch=5 n=67 v=88
2 Off ch=5 n=72 v=64
689 Off ch=5 n=67 v=64
38 On ch=5 n=74 v=113
216 On ch=5 n=76 v=100
12 Off ch=5 n=74 v=64
130 Off ch=5 n=76 v=64
32 Pb ch=5 v=7808
5 Pb ch=5 v=7424
5 Pb ch=5 v=7168
8 Pb ch=5 v=6784
5 Pb ch=5 v=6400
5 Pb ch=5 v=6016
5 Pb ch=5 v=5632
5 Pb ch=5 v=5248
4 Pb ch=5 v=4992
8 Pb ch=5 v=4608
5 Pb ch=5 v=4352
5 Pb ch=5 v=4096
5 On ch=5 n=77 v=109
2 Pb ch=5 v=3840
5 Pb ch=5 v=3712
10 Pb ch=5 v=3584
23 Pb ch=5 v=3712
5 Pb ch=5 v=3840
5 Pb ch=5 v=4096
5 Pb ch=5 v=4480
7 Pb ch=5 v=4864
5 Pb ch=5 v=5376
5 Pb ch=5 v=5760
7 Pb ch=5 v=6144
5 Pb ch=5 v=6528
5 Pb ch=5 v=6784
5 Pb ch=5 v=7040
5 Pb ch=5 v=7424
5 Pb ch=5 v=7680
5 Pb ch=5 v=8192
10 Pb ch=5 v=8192
262 On ch=5 n=76 v=100
52 Off ch=5 n=77 v=64
204 On ch=5 n=74 v=113
42 Off ch=5 n=76 v=64
256 Off ch=5 n=74 v=64
10 On ch=5 n=72 v=100
351 On ch=5 n=70 v=113
37 Off ch=5 n=72 v=64
267 On ch=5 n=69 v=95
44 Off ch=5 n=70 v=64
135 Off ch=5 n=69 v=64
35 Pb ch=5 v=7936
5 Pb ch=5 v=7552
5 Pb ch=5 v=7296
5 Pb ch=5 v=7040
5 Pb ch=5 v=6784
4 Pb ch=5 v=6528
5 Pb ch=5 v=6400
5 Pb ch=5 v=6144
5 Pb ch=5 v=6016
5 Pb ch=5 v=5888
5 Pb ch=5 v=5760
10 Pb ch=5 v=5632
10 On ch=5 n=69 v=109
20 Pb ch=5 v=5760
5 Pb ch=5 v=5888
5 Pb ch=5 v=6016
5 Pb ch=5 v=6272
5 Pb ch=5 v=6528
8 Pb ch=5 v=6784
5 Pb ch=5 v=7040
7 Pb ch=5 v=7424
5 Pb ch=5 v=7808
5 Pb ch=5 v=8192
425 On ch=5 n=72 v=92
20 Off ch=5 n=69 v=64
209 Off ch=5 n=72 v=64
20 On ch=5 n=67 v=87
722 Off ch=5 n=67 v=64
490 On ch=5 n=51 v=109
2 On ch=5 n=44 v=109
1921 Off ch=5 n=44 v=64
13 Off ch=5 n=51 v=64
12 On ch=5 n=55 v=95
12 On ch=5 n=48 v=95
3675 Off ch=5 n=48 v=64
25 Off ch=5 n=55 v=64
0 Meta TrkEnd
TrkEnd
MTrk
TimestampType=Delta
0 Meta Text "ORCH  HITS"
0 Par ch=6 c=10 v=10
0 PrCh ch=6 p=55
0 Par ch=6 c=7 v=110
0 Par ch=6 c=91 v=65
0 Par ch=6 c=93 v=15
0 Par ch=6 c=64 v=0
0 Pb ch=6 v=8192
441 Par ch=6 c=10 v=1
14 Par ch=6 c=10 v=6
10 Par ch=6 c=10 v=11
8 Par ch=6 c=10 v=16
13 Par ch=6 c=10 v=21
10 Par ch=6 c=10 v=26
21 Par ch=6 c=10 v=31
32 Par ch=6 c=10 v=35
42 Par ch=6 c=10 v=34
13 Par ch=6 c=10 v=29
8 Par ch=6 c=10 v=24
7 Par ch=6 c=10 v=19
8 Par ch=6 c=10 v=14
7 Par ch=6 c=10 v=9
9 Par ch=6 c=10 v=4
16 Par ch=6 c=10 v=0
3256 On ch=6 n=48 v=92
18 On ch=6 n=72 v=107
29 On ch=6 n=62 v=110
5 On ch=6 n=50 v=120
25 On ch=6 n=74 v=127
23 Par ch=6 c=10 v=1
2 On ch=6 n=52 v=115
14 Par ch=6 c=10 v=3
6 Par ch=6 c=10 v=8
7 Par ch=6 c=10 v=13
8 Off ch=6 n=72 v=64
2 Par ch=6 c=10 v=18
5 Par ch=6 c=10 v=24
2 Off ch=6 n=48 v=64
3 Par ch=6 c=10 v=29
5 Par ch=6 c=10 v=36
5 Par ch=6 c=10 v=45
0 On ch=6 n=76 v=127
5 Par ch=6 c=10 v=55
5 Par ch=6 c=10 v=66
5 Par ch=6 c=10 v=76
0 On ch=6 n=64 v=120
5 Par ch=6 c=10 v=87
5 Par ch=6 c=10 v=97
5 Par ch=6 c=10 v=105
5 Par ch=6 c=10 v=112
5 Off ch=6 n=50 v=64
0 Par ch=6 c=10 v=118
5 Par ch=6 c=10 v=123
4 Off ch=6 n=62 v=64
0 On ch=6 n=53 v=115
2 Par ch=6 c=10 v=127
26 Off ch=6 n=74 v=64
2 On ch=6 n=77 v=120
15 On ch=6 n=65 v=127
13 Off ch=6 n=52 v=64
62 Off ch=6 n=76 v=64
7 Off ch=6 n=64 v=64
146 Off ch=6 n=53 v=64
15 Off ch=6 n=77 v=64
117 Off ch=6 n=65 v=64
37828 Par ch=6 c=10 v=126
37 Par ch=6 c=10 v=121
11 Par ch=6 c=10 v=120
49 Par ch=6 c=10 v=121
21 Par ch=6 c=10 v=126
11 Par ch=6 c=10 v=127
1843 On ch=6 n=60 v=117
74 On ch=6 n=62 v=120
13 Par ch=6 c=10 v=125
7 Par ch=6 c=10 v=120
5 Par ch=6 c=10 v=115
9 Par ch=6 c=10 v=110
7 Par ch=6 c=10 v=105
11 On ch=6 n=64 v=123
1 Par ch=6 c=10 v=100
15 Par ch=6 c=10 v=95
15 Par ch=6 c=10 v=90
11 Off ch=6 n=60 v=64
14 Par ch=6 c=10 v=85
11 Par ch=6 c=10 v=80
6 Par ch=6 c=10 v=75
5 Par ch=6 c=10 v=70
5 Par ch=6 c=10 v=62
3 Off ch=6 n=62 v=64
2 Par ch=6 c=10 v=54
5 Par ch=6 c=10 v=47
5 Par ch=6 c=10 v=39
5 Par ch=6 c=10 v=31
5 Par ch=6 c=10 v=22
5 Par ch=6 c=10 v=14
0 On ch=6 n=65 v=127
5 Par ch=6 c=10 v=9
5 Par ch=6 c=10 v=4
3 Par ch=6 c=10 v=1
5 Par ch=6 c=10 v=0
39 Off ch=6 n=64 v=64
239 Off ch=6 n=65 v=64
83077 Par ch=6 c=10 v=64
23 On ch=6 n=53 v=115
30 On ch=6 n=77 v=120
15 On ch=6 n=65 v=127
228 Off ch=6 n=53 v=64
15 Off ch=6 n=77 v=64
117 Off ch=6 n=65 v=64
51288 On ch=6 n=60 v=105
59 On ch=6 n=62 v=115
60 On ch=6 n=64 v=124
46 Off ch=6 n=60 v=64
44 Off ch=6 n=62 v=64
15 On ch=6 n=65 v=127
52 Off ch=6 n=64 v=64
271 Off ch=6 n=65 v=64
0 Meta TrkEnd
TrkEnd
MTrk
TimestampType=Delta
0 Meta Text "FRETLESS BASS LEAD"
0 Pb ch=7 v=8192
0 PrCh ch=7 p=35
0 Par ch=7 c=7 v=85
0 Par ch=7 c=10 v=80
0 Par ch=7 c=91 v=22
0 Par ch=7 c=93 v=87
0 Par ch=7 c=64 v=0
81860 Pb ch=7 v=8192
71 On ch=7 n=41 v=127
341 Off ch=7 n=41 v=64
10 On ch=7 n=48 v=123
312 On ch=7 n=53 v=118
5 Off ch=7 n=48 v=64
147 Off ch=7 n=53 v=64
129 On ch=7 n=55 v=126
90 Pb ch=7 v=8192
10 Pb ch=7 v=8452
16 Pb ch=7 v=8582
10 Pb ch=7 v=8712
10 Pb ch=7 v=8842
16 Pb ch=7 v=8972
10 Pb ch=7 v=9102
10 Pb ch=7 v=9232
8 Pb ch=7 v=9362
11 Pb ch=7 v=9492
20 Pb ch=7 v=9622
18 Pb ch=7 v=9752
18 Pb ch=7 v=9882
21 Pb ch=7 v=10012
10 Pb ch=7 v=10142
8 Pb ch=7 v=10272
8 Pb ch=7 v=10402
7 Pb ch=7 v=10532
6 Pb ch=7 v=10662
5 Pb ch=7 v=10792
10 Pb ch=7 v=11052
10 Pb ch=7 v=11182
5 Pb ch=7 v=11312
11 Pb ch=7 v=11442
10 Pb ch=7 v=11572
18 Pb ch=7 v=11702
70 Pb ch=7 v=11832
44 Pb ch=7 v=11962
74 Pb ch=7 v=11832
13 Pb ch=7 v=11702
11 Pb ch=7 v=11572
5 Pb ch=7 v=11442
5 Pb ch=7 v=11182
5 Pb ch=7 v=10922
5 Pb ch=7 v=10662
5 Pb ch=7 v=10402
5 Pb ch=7 v=10012
6 Pb ch=7 v=9622
5 Pb ch=7 v=9362
5 Pb ch=7 v=8972
5 Pb ch=7 v=8712
5 Pb ch=7 v=8192
26 Pb ch=7 v=8192
77 On ch=7 n=49 v=97
52 Off ch=7 n=55 v=64
170 Off ch=7 n=49 v=64
41 On ch=7 n=49 v=126
2975 Off ch=7 n=49 v=64
1808 On ch=7 n=53 v=127
15 Pb ch=7 v=8192
5 Pb ch=7 v=8452
5 Pb ch=7 v=8582
11 Pb ch=7 v=8842
5 Pb ch=7 v=8972
5 Pb ch=7 v=9102
5 Pb ch=7 v=9232
8 Pb ch=7 v=9362
5 Pb ch=7 v=9622
5 Pb ch=7 v=9882
5 Pb ch=7 v=10142
8 Pb ch=7 v=10532
5 Pb ch=7 v=10922
5 Pb ch=7 v=11312
5 Pb ch=7 v=11832
6 Pb ch=7 v=12612
5 Pb ch=7 v=13522
5 Pb ch=7 v=14432
8 Pb ch=7 v=15602
5 Pb ch=7 v=16382
209 Pb ch=7 v=16252
7 Pb ch=7 v=15472
6 Pb ch=7 v=14692
5 Pb ch=7 v=13782
2 Pb ch=7 v=12742
8 Pb ch=7 v=11702
5 Pb ch=7 v=10662
5 Pb ch=7 v=9752
6 Pb ch=7 v=8972
5 Pb ch=7 v=8192
283 On ch=7 n=51 v=118
39 Off ch=7 n=53 v=64
196 Off ch=7 n=51 v=64
64 On ch=7 n=51 v=111
330 On ch=7 n=46 v=102
34 Off ch=7 n=51 v=64
209 Off ch=7 n=46 v=64
110 On ch=7 n=46 v=123
212 Off ch=7 n=46 v=64
33 On ch=7 n=46 v=100
80 Pb ch=7 v=8452
5 Pb ch=7 v=8582
13 Pb ch=7 v=8712
11 Pb ch=7 v=8972
5 Pb ch=7 v=9102
5 Pb ch=7 v=9232
5 Pb ch=7 v=9362
5 Pb ch=7 v=9492
5 Pb ch=7 v=9622
8 Pb ch=7 v=9752
5 Pb ch=7 v=9882
5 Pb ch=7 v=10012
6 Pb ch=7 v=10272
5 Pb ch=7 v=10402
5 Pb ch=7 v=10662
5 Pb ch=7 v=10922
5 Pb ch=7 v=11182
5 Pb ch=7 v=11572
6 Pb ch=7 v=11832
5 Pb ch=7 v=12352
5 Pb ch=7 v=12872
5 Pb ch=7 v=13392
5 Pb ch=7 v=13912
8 Pb ch=7 v=14432
5 Pb ch=7 v=14952
5 Pb ch=7 v=15212
5 Pb ch=7 v=15602
6 Pb ch=7 v=15862
5 Pb ch=7 v=15992
5 Pb ch=7 v=16252
5 Pb ch=7 v=16382
3617 Pb ch=7 v=16122
5 Pb ch=7 v=15212
5 Pb ch=7 v=14172
5 Pb ch=7 v=12612
6 Pb ch=7 v=9882
7 Pb ch=7 v=8192
18 Pb ch=7 v=9492
6 Pb ch=7 v=10142
5 Pb ch=7 v=8582
5 Pb ch=7 v=8192
15 Pb ch=7 v=8972
8 Pb ch=7 v=8192
15 Pb ch=7 v=8582
6 Pb ch=7 v=8192
56 Off ch=7 n=46 v=64
2684 On ch=7 n=53 v=116
361 Off ch=7 n=53 v=64
0 On ch=7 n=60 v=123
302 Off ch=7 n=60 v=64
10 On ch=7 n=65 v=111
191 Off ch=7 n=65 v=64
41 Pb ch=7 v=7936
5 Pb ch=7 v=7552
5 Pb ch=7 v=7168
5 Pb ch=7 v=6784
6 Pb ch=7 v=6400
5 Pb ch=7 v=6016
5 Pb ch=7 v=5632
5 Pb ch=7 v=5248
5 Pb ch=7 v=4864
5 Pb ch=7 v=4480
5 Pb ch=7 v=4096
6 Pb ch=7 v=3840
5 Pb ch=7 v=3456
5 Pb ch=7 v=3200
5 Pb ch=7 v=2944
5 Pb ch=7 v=2688
8 Pb ch=7 v=2304
0 On ch=7 n=68 v=123
8 Pb ch=7 v=2176
5 Pb ch=7 v=2048
5 Pb ch=7 v=1920
5 Pb ch=7 v=1792
13 Pb ch=7 v=1664
16 Pb ch=7 v=1792
5 Pb ch=7 v=1920
5 Pb ch=7 v=2176
5 Pb ch=7 v=2432
5 Pb ch=7 v=2688
5 Pb ch=7 v=2944
6 Pb ch=7 v=3328
5 Pb ch=7 v=3712
5 Pb ch=7 v=4096
5 Pb ch=7 v=4480
5 Pb ch=7 v=4864
5 Pb ch=7 v=5376
5 Pb ch=7 v=5760
6 Pb ch=7 v=6144
5 Pb ch=7 v=6528
5 Pb ch=7 v=6784
5 Pb ch=7 v=7040
5 Pb ch=7 v=7168
5 Pb ch=7 v=7424
6 Pb ch=7 v=7680
5 Pb ch=7 v=7808
5 Pb ch=7 v=8192
5 Pb ch=7 v=8192
557 On ch=7 n=70 v=111
15 Off ch=7 n=68 v=64
261 On ch=7 n=61 v=106
10 Off ch=7 n=70 v=64
2338 On ch=7 n=58 v=105
13 Off ch=7 n=61 v=64
5 Pb ch=7 v=8452
16 Pb ch=7 v=8582
7 Pb ch=7 v=8712
16 Pb ch=7 v=8842
10 Pb ch=7 v=8972
5 Pb ch=7 v=9102
11 Pb ch=7 v=9232
10 Pb ch=7 v=9362
8 Pb ch=7 v=9622
10 Pb ch=7 v=9882
5 Pb ch=7 v=10012
5 Pb ch=7 v=10272
6 Pb ch=7 v=10662
5 Pb ch=7 v=11182
5 Pb ch=7 v=11702
5 Pb ch=7 v=12482
5 Pb ch=7 v=13262
8 Pb ch=7 v=14172
3 Pb ch=7 v=14822
7 Pb ch=7 v=15472
5 Pb ch=7 v=15992
3 Pb ch=7 v=16382
296 Pb ch=7 v=16252
8 Pb ch=7 v=15472
5 Pb ch=7 v=14432
5 Pb ch=7 v=13262
6 Pb ch=7 v=12092
2 Pb ch=7 v=11052
8 Pb ch=7 v=9882
5 Pb ch=7 v=8192
13 Pb ch=7 v=8452
5 Pb ch=7 v=8192
1565 Off ch=7 n=58 v=64
67 On ch=7 n=58 v=111
253 On ch=7 n=65 v=116
10 Off ch=7 n=58 v=64
21 Pb ch=7 v=8452
10 Pb ch=7 v=8582
10 Pb ch=7 v=8842
5 Pb ch=7 v=8972
6 Pb ch=7 v=9102
5 Pb ch=7 v=9232
5 Pb ch=7 v=9492
5 Pb ch=7 v=9752
5 Pb ch=7 v=10012
5 Pb ch=7 v=10402
5 Pb ch=7 v=10922
6 Pb ch=7 v=11572
5 Pb ch=7 v=12222
5 Pb ch=7 v=13002
5 Pb ch=7 v=13782
5 Pb ch=7 v=14432
8 Pb ch=7 v=15212
5 Pb ch=7 v=15862
5 Pb ch=7 v=16382
258 Pb ch=7 v=15602
5 Pb ch=7 v=14562
5 Pb ch=7 v=13522
6 Pb ch=7 v=12222
5 Pb ch=7 v=11052
7 Pb ch=7 v=9752
6 Pb ch=7 v=8192
7 Pb ch=7 v=8192
240 On ch=7 n=63 v=106
39 Off ch=7 n=65 v=64
188 Off ch=7 n=63 v=64
72 On ch=7 n=63 v=118
348 On ch=7 n=58 v=103
16 Off ch=7 n=63 v=64
301 On ch=7 n=60 v=103
5 Off ch=7 n=58 v=64
292 On ch=7 n=53 v=111
38 Off ch=7 n=60 v=64
1534 Pb ch=7 v=7808
5 Pb ch=7 v=7424
6 Pb ch=7 v=7040
5 Pb ch=7 v=6656
8 Pb ch=7 v=6144
5 Pb ch=7 v=5760
5 Pb ch=7 v=5248
5 Pb ch=7 v=4736
5 Pb ch=7 v=4352
5 Pb ch=7 v=3968
5 Pb ch=7 v=3584
8 Pb ch=7 v=3200
0 On ch=7 n=48 v=106
5 Pb ch=7 v=2816
6 Pb ch=7 v=2560
5 Pb ch=7 v=2432
5 Pb ch=7 v=2304
2 Off ch=7 n=53 v=64
6 Pb ch=7 v=2176
10 Pb ch=7 v=2048
28 Pb ch=7 v=2176
5 Pb ch=7 v=2304
6 Pb ch=7 v=2432
5 Pb ch=7 v=2560
5 Pb ch=7 v=2816
5 Pb ch=7 v=3200
5 Pb ch=7 v=3584
5 Pb ch=7 v=3968
5 Pb ch=7 v=4480
6 Pb ch=7 v=5248
5 Pb ch=7 v=6016
5 Pb ch=7 v=6784
5 Pb ch=7 v=7552
5 Pb ch=7 v=8192
150 On ch=7 n=41 v=92
10 Off ch=7 n=48 v=64
1036 Par ch=7 c=1 v=1
26 Par ch=7 c=1 v=2
70 Par ch=7 c=1 v=1
10 Par ch=7 c=1 v=0
459 Pb ch=7 v=7680
5 Pb ch=7 v=7296
5 Pb ch=7 v=6912
6 Pb ch=7 v=6400
5 Pb ch=7 v=6016
5 Pb ch=7 v=5504
5 Pb ch=7 v=5120
5 Pb ch=7 v=4736
3 Off ch=7 n=41 v=64
2 Pb ch=7 v=4352
5 Pb ch=7 v=3968
6 Pb ch=7 v=3712
7 Pb ch=7 v=3456
3 On ch=7 n=48 v=111
2 Pb ch=7 v=3072
8 Pb ch=7 v=2944
5 Pb ch=7 v=2688
11 Pb ch=7 v=2560
28 Pb ch=7 v=2688
5 Pb ch=7 v=2944
5 Pb ch=7 v=3200
6 Pb ch=7 v=3456
5 Pb ch=7 v=3840
5 Pb ch=7 v=4352
5 Pb ch=7 v=4864
5 Pb ch=7 v=5632
5 Pb ch=7 v=6272
5 Pb ch=7 v=7040
6 Pb ch=7 v=7808
5 Pb ch=7 v=8192
126 On ch=7 n=53 v=106
34 Off ch=7 n=48 v=64
1577 Pb ch=7 v=7936
5 Pb ch=7 v=7552
6 Pb ch=7 v=7296
5 Pb ch=7 v=7040
5 Pb ch=7 v=6784
5 Pb ch=7 v=6400
5 Pb ch=7 v=6144
5 Pb ch=7 v=5888
6 Pb ch=7 v=5632
5 Pb ch=7 v=5376
7 Pb ch=7 v=5120
3 On ch=7 n=48 v=102
5 Pb ch=7 v=4992
13 Pb ch=7 v=4864
16 Off ch=7 n=53 v=64
2 Pb ch=7 v=4992
5 Pb ch=7 v=5120
5 Pb ch=7 v=5376
6 Pb ch=7 v=5760
5 Pb ch=7 v=6144
5 Pb ch=7 v=6528
5 Pb ch=7 v=7040
5 Pb ch=7 v=7552
5 Pb ch=7 v=8192
6 Pb ch=7 v=8192
185 On ch=7 n=41 v=103
8 Off ch=7 n=48 v=64
1585 Pb ch=7 v=8192
6 Pb ch=7 v=7680
5 Pb ch=7 v=7296
5 Pb ch=7 v=6912
5 Pb ch=7 v=6400
5 Pb ch=7 v=5888
5 Pb ch=7 v=5248
5 Pb ch=7 v=4736
6 Pb ch=7 v=4352
5 Pb ch=7 v=3840
8 Pb ch=7 v=3328
2 On ch=7 n=48 v=102
5 Off ch=7 n=41 v=64
0 Pb ch=7 v=3072
5 Pb ch=7 v=2688
6 Pb ch=7 v=2560
15 Pb ch=7 v=2432
13 Pb ch=7 v=2560
8 Pb ch=7 v=2688
5 Pb ch=7 v=2944
5 Pb ch=7 v=3328
5 Pb ch=7 v=3712
5 Pb ch=7 v=4096
5 Pb ch=7 v=4608
6 Pb ch=7 v=5120
5 Pb ch=7 v=5760
5 Pb ch=7 v=6528
5 Pb ch=7 v=7296
5 Pb ch=7 v=8192
5 Pb ch=7 v=8192
147 On ch=7 n=53 v=102
13 Off ch=7 n=48 v=64
1575 Pb ch=7 v=8192
6 Pb ch=7 v=7680
5 Pb ch=7 v=7296
5 Pb ch=7 v=7040
5 Pb ch=7 v=6656
5 Pb ch=7 v=6144
5 Pb ch=7 v=5760
5 Pb ch=7 v=5376
8 Pb ch=7 v=4864
0 On ch=7 n=48 v=106
5 Pb ch=7 v=4480
5 Off ch=7 n=53 v=64
3 Pb ch=7 v=4096
5 Pb ch=7 v=3712
5 Pb ch=7 v=3584
6 Pb ch=7 v=3456
5 Pb ch=7 v=3328
5 Pb ch=7 v=3200
10 Pb ch=7 v=3072
18 Pb ch=7 v=3200
5 Pb ch=7 v=3328
6 Pb ch=7 v=3584
5 Pb ch=7 v=3840
7 Pb ch=7 v=4224
6 Pb ch=7 v=4736
5 Pb ch=7 v=5248
5 Pb ch=7 v=5888
5 Pb ch=7 v=6528
5 Pb ch=7 v=7296
5 Pb ch=7 v=7936
6 Pb ch=7 v=8192
152 On ch=7 n=41 v=97
7 Off ch=7 n=48 v=64
1575 Pb ch=7 v=7936
6 Pb ch=7 v=7552
5 Pb ch=7 v=7168
5 Pb ch=7 v=6784
5 Pb ch=7 v=6400
5 Pb ch=7 v=6016
5 Pb ch=7 v=5632
6 Pb ch=7 v=5120
5 Pb ch=7 v=4736
5 Pb ch=7 v=4480
5 Pb ch=7 v=4096
5 Pb ch=7 v=3840
5 Pb ch=7 v=3456
6 Pb ch=7 v=3328
5 Pb ch=7 v=3072
5 Pb ch=7 v=2944
2 Off ch=7 n=41 v=64
6 On ch=7 n=48 v=105
2 Pb ch=7 v=2688
13 Pb ch=7 v=2560
16 Pb ch=7 v=2688
5 Pb ch=7 v=2816
5 Pb ch=7 v=2944
5 Pb ch=7 v=3200
5 Pb ch=7 v=3328
5 Pb ch=7 v=3712
5 Pb ch=7 v=3968
6 Pb ch=7 v=4480
5 Pb ch=7 v=4864
5 Pb ch=7 v=5504
5 Pb ch=7 v=6144
5 Pb ch=7 v=6912
8 Pb ch=7 v=7552
5 Pb ch=7 v=8192
5 Pb ch=7 v=8192
147 On ch=7 n=53 v=103
31 Off ch=7 n=48 v=64
1588 Pb ch=7 v=7808
5 Pb ch=7 v=7424
6 Pb ch=7 v=6912
5 Pb ch=7 v=6528
5 Pb ch=7 v=6016
5 Pb ch=7 v=5632
8 Pb ch=7 v=4992
0 On ch=7 n=48 v=105
5 Pb ch=7 v=4608
5 Pb ch=7 v=4352
5 Pb ch=7 v=4096
5 Off ch=7 n=53 v=64
0 Pb ch=7 v=3840
8 Pb ch=7 v=3584
5 Pb ch=7 v=3456
5 Pb ch=7 v=3328
6 Pb ch=7 v=3200
18 Pb ch=7 v=3328
5 Pb ch=7 v=3456
5 Pb ch=7 v=3712
5 Pb ch=7 v=3968
5 Pb ch=7 v=4224
8 Pb ch=7 v=4608
5 Pb ch=7 v=4992
5 Pb ch=7 v=5632
5 Pb ch=7 v=6272
6 Pb ch=7 v=6912
5 Pb ch=7 v=7552
5 Pb ch=7 v=8192
165 Off ch=7 n=48 v=64
0 On ch=7 n=41 v=102
1905 Off ch=7 n=41 v=64
0 Meta TrkEnd
TrkEnd
MTrk
TimestampType=Delta
0 Meta Text "16TH NOTE MIDDLE SECTION"
0 Par ch=8 c=10 v=65
0 Par ch=8 c=7 v=65
0 Par ch=8 c=91 v=85
0 Par ch=8 c=93 v=35
0 PrCh ch=8 p=96
0 Par ch=8 c=64 v=0
0 Pb ch=8 v=8192
77719 Par ch=8 c=10 v=127
1341 On ch=8 n=65 v=123
120 On ch=8 n=72 v=104
8 Off ch=8 n=65 v=64
37 Off ch=8 n=72 v=64
75 On ch=8 n=77 v=104
58 Off ch=8 n=77 v=64
62 On ch=8 n=84 v=119
49 Off ch=8 n=84 v=64
71 On ch=8 n=86 v=110
44 Off ch=8 n=86 v=64
76 On ch=8 n=77 v=114
37 Off ch=8 n=77 v=64
83 On ch=8 n=72 v=110
49 Off ch=8 n=72 v=64
71 On ch=8 n=91 v=104
33 Par ch=8 c=10 v=126
43 Off ch=8 n=91 v=64
27 Par ch=8 c=10 v=125
17 On ch=8 n=89 v=95
64 Off ch=8 n=89 v=64
19 Par ch=8 c=10 v=120
37 On ch=8 n=84 v=96
60 Off ch=8 n=84 v=64
9 Par ch=8 c=10 v=115
51 On ch=8 n=72 v=104
40 Off ch=8 n=72 v=64
25 Par ch=8 c=10 v=110
55 On ch=8 n=96 v=123
97 Off ch=8 n=96 v=64
11 Par ch=8 c=10 v=105
12 On ch=8 n=89 v=83
50 Off ch=8 n=89 v=64
70 On ch=8 n=65 v=92
38 Par ch=8 c=10 v=101
21 Off ch=8 n=65 v=64
46 Par ch=8 c=10 v=100
15 On ch=8 n=103 v=114
64 Off ch=8 n=103 v=64
56 On ch=8 n=89 v=44
0 On ch=8 n=91 v=17
1 Off ch=8 n=91 v=64
26 Off ch=8 n=89 v=64
16 Par ch=8 c=10 v=95
77 On ch=8 n=101 v=104
67 Off ch=8 n=101 v=64
44 Par ch=8 c=10 v=90
9 On ch=8 n=96 v=99
49 Off ch=8 n=96 v=64
14 Par ch=8 c=10 v=89
57 On ch=8 n=89 v=96
47 Off ch=8 n=89 v=64
73 On ch=8 n=72 v=92
39 Off ch=8 n=72 v=64
21 Par ch=8 c=10 v=84
60 On ch=8 n=84 v=104
25 Par ch=8 c=10 v=83
19 Off ch=8 n=84 v=64
76 On ch=8 n=79 v=92
36 Off ch=8 n=79 v=64
24 Par ch=8 c=10 v=80
60 On ch=8 n=77 v=95
12 Par ch=8 c=10 v=79
30 Off ch=8 n=77 v=64
27 Par ch=8 c=10 v=78
51 On ch=8 n=91 v=104
34 Par ch=8 c=10 v=77
19 Off ch=8 n=91 v=64
48 Par ch=8 c=10 v=76
19 On ch=8 n=89 v=87
39 Off ch=8 n=89 v=64
55 Par ch=8 c=10 v=74
26 On ch=8 n=72 v=96
36 Par ch=8 c=10 v=73
7 Off ch=8 n=72 v=64
77 On ch=8 n=84 v=101
32 Off ch=8 n=84 v=64
88 On ch=8 n=77 v=101
23 Par ch=8 c=10 v=68
22 Off ch=8 n=77 v=64
75 On ch=8 n=86 v=110
40 Off ch=8 n=86 v=64
80 On ch=8 n=77 v=96
7 Par ch=8 c=10 v=63
26 Off ch=8 n=77 v=64
83 Par ch=8 c=10 v=61
4 On ch=8 n=72 v=101
43 Off ch=8 n=72 v=64
20 Par ch=8 c=10 v=60
57 On ch=8 n=65 v=99
41 Par ch=8 c=10 v=58
8 Off ch=8 n=65 v=64
66 Par ch=8 c=10 v=57
5 On ch=8 n=80 v=104
42 Off ch=8 n=80 v=64
44 Par ch=8 c=10 v=56
34 On ch=8 n=77 v=101
33 Par ch=8 c=10 v=55
12 Off ch=8 n=77 v=64
57 Par ch=8 c=10 v=54
18 On ch=8 n=65 v=95
47 Off ch=8 n=65 v=64
73 On ch=8 n=85 v=110
63 Par ch=8 c=10 v=49
2 Off ch=8 n=85 v=64
55 On ch=8 n=80 v=93
5 Par ch=8 c=10 v=48
34 Off ch=8 n=80 v=64
64 Par ch=8 c=10 v=47
17 On ch=8 n=73 v=96
41 Off ch=8 n=73 v=64
14 Par ch=8 c=10 v=46
65 On ch=8 n=87 v=104
67 Off ch=8 n=87 v=64
53 On ch=8 n=85 v=92
60 Par ch=8 c=10 v=41
4 Off ch=8 n=85 v=64
56 On ch=8 n=80 v=101
7 Par ch=8 c=10 v=40
37 Off ch=8 n=80 v=64
64 Par ch=8 c=10 v=38
12 On ch=8 n=75 v=87
52 Off ch=8 n=75 v=64
21 Par ch=8 c=10 v=37
47 On ch=8 n=94 v=123
10 Par ch=8 c=10 v=36
39 Off ch=8 n=94 v=64
35 Par ch=8 c=10 v=35
36 On ch=8 n=92 v=75
39 Par ch=8 c=10 v=34
1 Off ch=8 n=92 v=64
66 Par ch=8 c=10 v=33
14 On ch=8 n=89 v=87
46 Off ch=8 n=89 v=64
25 Par ch=8 c=10 v=32
49 On ch=8 n=85 v=101
31 Par ch=8 c=10 v=31
8 Off ch=8 n=85 v=64
81 On ch=8 n=73 v=84
30 Par ch=8 c=10 v=30
16 Off ch=8 n=73 v=64
74 On ch=8 n=80 v=101
27 Off ch=8 n=80 v=64
93 On ch=8 n=87 v=95
11 Par ch=8 c=10 v=26
23 Off ch=8 n=87 v=64
50 Par ch=8 c=10 v=25
36 On ch=8 n=75 v=92
15 Par ch=8 c=10 v=24
27 Off ch=8 n=75 v=64
76 Par ch=8 c=10 v=23
2 On ch=8 n=99 v=127
34 Off ch=8 n=99 v=64
31 Par ch=8 c=10 v=22
55 On ch=8 n=73 v=80
36 Par ch=8 c=10 v=21
6 Off ch=8 n=73 v=64
78 On ch=8 n=89 v=96
8 Par ch=8 c=10 v=20
44 Off ch=8 n=89 v=64
36 Par ch=8 c=10 v=19
32 On ch=8 n=92 v=114
35 Off ch=8 n=92 v=64
42 Par ch=8 c=10 v=18
43 On ch=8 n=101 v=114
40 Off ch=8 n=101 v=64
17 Par ch=8 c=10 v=17
63 On ch=8 n=75 v=92
42 Off ch=8 n=75 v=64
3 Par ch=8 c=10 v=16
75 On ch=8 n=99 v=104
39 Off ch=8 n=99 v=64
18 Par ch=8 c=10 v=15
63 On ch=8 n=97 v=93
1 Par ch=8 c=10 v=14
48 Off ch=8 n=97 v=64
14 Par ch=8 c=10 v=13
57 On ch=8 n=89 v=84
56 Off ch=8 n=89 v=64
57 Par ch=8 c=10 v=10
7 On ch=8 n=73 v=96
52 Off ch=8 n=73 v=64
8 Par ch=8 c=10 v=9
60 On ch=8 n=85 v=101
47 Off ch=8 n=85 v=64
73 On ch=8 n=75 v=96
34 Par ch=8 c=10 v=4
11 Off ch=8 n=75 v=64
41 Par ch=8 c=10 v=3
34 On ch=8 n=80 v=84
49 Off ch=8 n=80 v=64
25 Par ch=8 c=10 v=2
46 On ch=8 n=89 v=93
47 Off ch=8 n=89 v=64
59 Par ch=8 c=10 v=1
14 On ch=8 n=87 v=114
57 Off ch=8 n=87 v=64
63 On ch=8 n=75 v=96
54 Off ch=8 n=75 v=64
66 On ch=8 n=79 v=87
17 Par ch=8 c=10 v=0
46 Off ch=8 n=79 v=64
57 On ch=8 n=91 v=92
55 Off ch=8 n=91 v=64
65 On ch=8 n=89 v=101
57 Off ch=8 n=89 v=64
63 On ch=8 n=70 v=87
55 Off ch=8 n=70 v=64
65 On ch=8 n=82 v=104
51 Off ch=8 n=82 v=64
69 On ch=8 n=94 v=110
36 Off ch=8 n=94 v=64
84 On ch=8 n=75 v=104
52 Off ch=8 n=75 v=64
57 Par ch=8 c=10 v=1
9 On ch=8 n=99 v=114
38 Off ch=8 n=99 v=64
79 Par ch=8 c=10 v=6
5 On ch=8 n=63 v=104
50 Off ch=8 n=63 v=64
28 Par ch=8 c=10 v=11
42 On ch=8 n=89 v=75
22 Par ch=8 c=10 v=16
31 Off ch=8 n=89 v=64
67 On ch=8 n=94 v=104
3 Par ch=8 c=10 v=21
38 Off ch=8 n=94 v=64
55 Par ch=8 c=10 v=26
24 On ch=8 n=75 v=114
48 Off ch=8 n=75 v=64
46 Par ch=8 c=10 v=31
26 On ch=8 n=87 v=93
49 Off ch=8 n=87 v=64
3 Par ch=8 c=10 v=33
67 Par ch=8 c=10 v=34
1 On ch=8 n=91 v=87
47 Off ch=8 n=91 v=64
62 Par ch=8 c=10 v=35
11 On ch=8 n=70 v=96
52 Off ch=8 n=70 v=64
51 Par ch=8 c=10 v=36
17 On ch=8 n=87 v=104
50 Off ch=8 n=87 v=64
0 Par ch=8 c=10 v=37
70 On ch=8 n=82 v=84
39 Off ch=8 n=82 v=64
77 Par ch=8 c=10 v=41
4 On ch=8 n=75 v=110
52 Off ch=8 n=75 v=64
5 Par ch=8 c=10 v=42
63 On ch=8 n=77 v=96
40 Off ch=8 n=77 v=64
80 On ch=8 n=77 v=95
45 Off ch=8 n=77 v=64
4 Par ch=8 c=10 v=47
71 On ch=8 n=87 v=101
47 Off ch=8 n=87 v=64
73 On ch=8 n=82 v=92
21 Par ch=8 c=10 v=52
9 Off ch=8 n=82 v=64
90 On ch=8 n=70 v=92
48 Off ch=8 n=70 v=64
33 Par ch=8 c=10 v=57
39 On ch=8 n=79 v=75
45 Off ch=8 n=79 v=64
75 On ch=8 n=89 v=84
17 Par ch=8 c=10 v=62
42 Off ch=8 n=89 v=64
61 On ch=8 n=75 v=92
46 Off ch=8 n=75 v=64
23 Par ch=8 c=10 v=67
51 On ch=8 n=87 v=110
44 Off ch=8 n=87 v=64
76 On ch=8 n=77 v=92
15 Par ch=8 c=10 v=72
31 Off ch=8 n=77 v=64
74 On ch=8 n=94 v=101
50 Off ch=8 n=94 v=64
31 Par ch=8 c=10 v=77
39 On ch=8 n=84 v=84
30 Off ch=8 n=84 v=64
90 On ch=8 n=65 v=110
42 Par ch=8 c=10 v=82
12 Off ch=8 n=65 v=64
66 On ch=8 n=84 v=92
38 Off ch=8 n=84 v=64
82 On ch=8 n=96 v=104
21 Par ch=8 c=10 v=87
21 Off ch=8 n=96 v=64
48 Par ch=8 c=10 v=88
30 On ch=8 n=72 v=84
45 Off ch=8 n=72 v=64
75 On ch=8 n=89 v=96
33 Off ch=8 n=89 v=64
42 Par ch=8 c=10 v=93
45 On ch=8 n=103 v=123
41 Off ch=8 n=103 v=64
79 On ch=8 n=77 v=62
46 Off ch=8 n=77 v=64
31 Par ch=8 c=10 v=98
43 On ch=8 n=101 v=110
47 Par ch=8 c=10 v=100
7 Off ch=8 n=101 v=64
66 On ch=8 n=96 v=95
2 Par ch=8 c=10 v=101
45 Off ch=8 n=96 v=64
17 Par ch=8 c=10 v=102
56 On ch=8 n=89 v=92
53 Off ch=8 n=89 v=64
33 Par ch=8 c=10 v=103
34 On ch=8 n=72 v=101
55 Off ch=8 n=72 v=64
65 On ch=8 n=84 v=110
36 Off ch=8 n=84 v=64
8 Par ch=8 c=10 v=104
75 Par ch=8 c=10 v=105
1 On ch=8 n=77 v=101
58 Off ch=8 n=77 v=64
26 Par ch=8 c=10 v=106
36 On ch=8 n=79 v=104
26 Par ch=8 c=10 v=107
23 Off ch=8 n=79 v=64
71 On ch=8 n=84 v=101
59 Off ch=8 n=84 v=64
45 Par ch=8 c=10 v=111
16 On ch=8 n=65 v=104
59 Off ch=8 n=65 v=64
10 Par ch=8 c=10 v=112
47 Par ch=8 c=10 v=113
4 On ch=8 n=77 v=87
52 Off ch=8 n=77 v=64
16 Par ch=8 c=10 v=114
52 On ch=8 n=84 v=92
10 Par ch=8 c=10 v=115
46 Off ch=8 n=84 v=64
64 On ch=8 n=72 v=110
50 Off ch=8 n=72 v=64
70 On ch=8 n=79 v=75
25 Par ch=8 c=10 v=120
26 Off ch=8 n=79 v=64
69 On ch=8 n=89 v=101
64 Off ch=8 n=89 v=64
9 Par ch=8 c=10 v=124
47 On ch=8 n=77 v=92
60 Off ch=8 n=77 v=64
47 Par ch=8 c=10 v=125
13 On ch=8 n=84 v=87
58 Off ch=8 n=84 v=64
48 Par ch=8 c=10 v=126
14 On ch=8 n=91 v=114
48 Off ch=8 n=91 v=64
72 On ch=8 n=72 v=93
31 Par ch=8 c=10 v=127
23 Off ch=8 n=72 v=64
66 On ch=8 n=108 v=119
42 Off ch=8 n=108 v=64
198 On ch=8 n=77 v=87
58 Off ch=8 n=77 v=64
62 On ch=8 n=103 v=104
59 Off ch=8 n=103 v=64
61 On ch=8 n=96 v=93
50 Off ch=8 n=96 v=64
70 On ch=8 n=91 v=87
62 Off ch=8 n=91 v=64
58 On ch=8 n=72 v=87
54 Off ch=8 n=72 v=64
66 On ch=8 n=91 v=104
46 Off ch=8 n=91 v=64
74 On ch=8 n=65 v=92
13 Par ch=8 c=10 v=126
54 Off ch=8 n=65 v=64
8 Par ch=8 c=10 v=125
45 On ch=8 n=89 v=99
56 Off ch=8 n=89 v=64
18 Par ch=8 c=10 v=120
46 On ch=8 n=84 v=92
46 Par ch=8 c=10 v=115
8 Off ch=8 n=84 v=64
66 On ch=8 n=72 v=92
27 Par ch=8 c=10 v=110
30 Off ch=8 n=72 v=64
63 On ch=8 n=79 v=78
57 Off ch=8 n=79 v=64
5 Par ch=8 c=10 v=105
58 On ch=8 n=84 v=99
54 Off ch=8 n=84 v=64
40 Par ch=8 c=10 v=100
26 On ch=8 n=77 v=87
55 Off ch=8 n=77 v=64
65 On ch=8 n=79 v=63
6 Par ch=8 c=10 v=95
50 Off ch=8 n=79 v=64
64 On ch=8 n=89 v=101
53 Par ch=8 c=10 v=90
6 Off ch=8 n=89 v=64
61 On ch=8 n=72 v=96
51 Off ch=8 n=72 v=64
69 On ch=8 n=84 v=84
22 Par ch=8 c=10 v=85
30 Off ch=8 n=84 v=64
68 On ch=8 n=96 v=110
64 Off ch=8 n=96 v=64
11 Par ch=8 c=10 v=80
45 On ch=8 n=77 v=87
52 Off ch=8 n=77 v=64
68 On ch=8 n=91 v=96
26 Par ch=8 c=10 v=75
24 Off ch=8 n=91 v=64
70 On ch=8 n=65 v=95
58 Par ch=8 c=10 v=70
9 Off ch=8 n=65 v=64
53 On ch=8 n=89 v=92
5 Par ch=8 c=10 v=68
52 Off ch=8 n=89 v=64
10 Par ch=8 c=10 v=67
53 On ch=8 n=101 v=104
47 Off ch=8 n=101 v=64
73 On ch=8 n=72 v=96
12 Par ch=8 c=10 v=62
45 Off ch=8 n=72 v=64
63 On ch=8 n=91 v=92
60 Par ch=8 c=10 v=57
4 Off ch=8 n=91 v=64
56 On ch=8 n=96 v=92
39 Off ch=8 n=96 v=64
43 Par ch=8 c=10 v=52
38 On ch=8 n=77 v=87
65 Off ch=8 n=77 v=64
36 Par ch=8 c=10 v=47
19 On ch=8 n=89 v=96
46 Off ch=8 n=89 v=64
74 On ch=8 n=79 v=96
28 Par ch=8 c=10 v=42
34 Off ch=8 n=79 v=64
58 On ch=8 n=91 v=78
0 On ch=8 n=89 v=96
33 Off ch=8 n=89 v=64
6 Off ch=8 n=91 v=64
68 Par ch=8 c=10 v=38
13 On ch=8 n=84 v=71
52 Off ch=8 n=84 v=64
30 Par ch=8 c=10 v=37
38 On ch=8 n=81 v=87
29 Par ch=8 c=10 v=36
33 Off ch=8 n=81 v=64
58 On ch=8 n=89 v=96
74 Off ch=8 n=89 v=64
46 On ch=8 n=84 v=87
11 Par ch=8 c=10 v=31
37 Off ch=8 n=84 v=64
30 Par ch=8 c=10 v=30
42 On ch=8 n=77 v=96
20 Par ch=8 c=10 v=29
44 Off ch=8 n=77 v=64
31 Par ch=8 c=10 v=28
25 On ch=8 n=84 v=104
50 Off ch=8 n=84 v=64
70 On ch=8 n=72 v=93
48 Off ch=8 n=72 v=64
59 Par ch=8 c=10 v=23
13 On ch=8 n=85 v=101
63 Off ch=8 n=85 v=64
57 On ch=8 n=65 v=96
61 Par ch=8 c=10 v=19
18 Off ch=8 n=65 v=64
41 On ch=8 n=77 v=84
8 Par ch=8 c=10 v=18
44 Off ch=8 n=77 v=64
12 Par ch=8 c=10 v=17
56 On ch=8 n=87 v=104
24 Par ch=8 c=10 v=16
43 Off ch=8 n=87 v=64
19 Par ch=8 c=10 v=15
34 On ch=8 n=73 v=84
36 Par ch=8 c=10 v=14
13 Off ch=8 n=73 v=64
71 On ch=8 n=77 v=87
32 Par ch=8 c=10 v=12
22 Off ch=8 n=77 v=64
42 Par ch=8 c=10 v=11
24 On ch=8 n=80 v=101
54 Par ch=8 c=10 v=10
13 Off ch=8 n=80 v=64
53 On ch=8 n=75 v=92
8 Par ch=8 c=10 v=9
51 Off ch=8 n=75 v=64
61 On ch=8 n=85 v=92
47 Off ch=8 n=85 v=64
17 Par ch=8 c=10 v=4
49 Par ch=8 c=10 v=3
7 On ch=8 n=73 v=83
41 Off ch=8 n=73 v=64
32 Par ch=8 c=10 v=2
47 On ch=8 n=94 v=114
45 Par ch=8 c=10 v=1
24 Off ch=8 n=94 v=64
51 On ch=8 n=92 v=71
40 Off ch=8 n=92 v=64
80 On ch=8 n=75 v=96
14 Par ch=8 c=10 v=0
38 Off ch=8 n=75 v=64
68 On ch=8 n=99 v=119
53 Off ch=8 n=99 v=64
67 On ch=8 n=97 v=104
55 Off ch=8 n=97 v=64
65 On ch=8 n=73 v=96
50 Off ch=8 n=73 v=64
70 On ch=8 n=89 v=87
68 Off ch=8 n=89 v=64
52 On ch=8 n=97 v=107
39 Off ch=8 n=97 v=64
81 On ch=8 n=65 v=92
55 Off ch=8 n=65 v=64
65 On ch=8 n=85 v=101
42 Off ch=8 n=85 v=64
78 On ch=8 n=94 v=96
44 Par ch=8 c=10 v=1
2 Off ch=8 n=94 v=64
60 Par ch=8 c=10 v=2
14 On ch=8 n=73 v=80
49 Off ch=8 n=73 v=64
32 Par ch=8 c=10 v=7
39 On ch=8 n=92 v=114
39 Par ch=8 c=10 v=12
8 Off ch=8 n=92 v=64
73 On ch=8 n=85 v=83
6 Par ch=8 c=10 v=17
40 Off ch=8 n=85 v=64
74 On ch=8 n=75 v=95
53 Off ch=8 n=75 v=64
24 Par ch=8 c=10 v=22
43 On ch=8 n=80 v=63
51 Off ch=8 n=80 v=64
69 On ch=8 n=89 v=87
49 Par ch=8 c=10 v=27
10 Off ch=8 n=89 v=64
31 Par ch=8 c=10 v=28
30 On ch=8 n=73 v=92
59 Off ch=8 n=73 v=64
24 Par ch=8 c=10 v=29
37 On ch=8 n=87 v=119
67 Off ch=8 n=87 v=64
53 On ch=8 n=75 v=95
3 Par ch=8 c=10 v=30
49 Par ch=8 c=10 v=31
4 Off ch=8 n=75 v=64
61 Par ch=8 c=10 v=32
3 On ch=8 n=80 v=87
54 Off ch=8 n=80 v=64
4 Par ch=8 c=10 v=33
57 Par ch=8 c=10 v=34
5 On ch=8 n=85 v=93
55 Off ch=8 n=85 v=64
2 Par ch=8 c=10 v=35
63 On ch=8 n=63 v=104
66 Off ch=8 n=63 v=64
54 On ch=8 n=79 v=75
36 Par ch=8 c=10 v=40
11 Off ch=8 n=79 v=64
41 Par ch=8 c=10 v=41
32 On ch=8 n=87 v=104
30 Par ch=8 c=10 v=42
26 Off ch=8 n=87 v=64
64 On ch=8 n=75 v=104
23 Par ch=8 c=10 v=43
31 Off ch=8 n=75 v=64
54 Par ch=8 c=10 v=44
12 On ch=8 n=82 v=93
27 Par ch=8 c=10 v=45
29 Off ch=8 n=82 v=64
56 Par ch=8 c=10 v=46
8 On ch=8 n=89 v=87
61 Par ch=8 c=10 v=47
6 Off ch=8 n=89 v=64
53 On ch=8 n=70 v=96
62 Off ch=8 n=70 v=64
58 On ch=8 n=87 v=104
31 Off ch=8 n=87 v=64
15 Par ch=8 c=10 v=52
46 Par ch=8 c=10 v=53
28 On ch=8 n=75 v=101
39 Par ch=8 c=10 v=54
8 Off ch=8 n=75 v=64
64 Par ch=8 c=10 v=55
9 On ch=8 n=94 v=99
50 Off ch=8 n=94 v=64
21 Par ch=8 c=10 v=56
49 On ch=8 n=89 v=92
49 Off ch=8 n=89 v=64
71 On ch=8 n=79 v=87
35 Par ch=8 c=10 v=60
19 Off ch=8 n=79 v=64
61 Par ch=8 c=10 v=61
5 On ch=8 n=99 v=110
39 Off ch=8 n=99 v=64
59 Par ch=8 c=10 v=62
22 On ch=8 n=82 v=101
34 Off ch=8 n=82 v=64
11 Par ch=8 c=10 v=63
75 On ch=8 n=91 v=78
26 Par ch=8 c=10 v=65
28 Off ch=8 n=91 v=64
46 Par ch=8 c=10 v=66
20 On ch=8 n=106 v=123
27 Off ch=8 n=106 v=64
15 Par ch=8 c=10 v=67
70 Par ch=8 c=10 v=68
8 On ch=8 n=65 v=104
59 Par ch=8 c=10 v=69
4 Off ch=8 n=65 v=64
57 On ch=8 n=108 v=104
43 Off ch=8 n=108 v=64
77 On ch=8 n=106 v=107
4 Par ch=8 c=10 v=73
42 Off ch=8 n=106 v=64
38 Par ch=8 c=10 v=74
36 On ch=8 n=77 v=93
26 Par ch=8 c=10 v=75
26 Off ch=8 n=77 v=64
46 Par ch=8 c=10 v=76
22 On ch=8 n=96 v=84
44 Off ch=8 n=96 v=64
76 On ch=8 n=106 v=101
39 Off ch=8 n=106 v=64
33 Par ch=8 c=10 v=81
48 On ch=8 n=75 v=104
47 Off ch=8 n=75 v=64
73 On ch=8 n=99 v=96
49 Par ch=8 c=10 v=86
3 Off ch=8 n=99 v=64
68 On ch=8 n=94 v=77
52 Off ch=8 n=94 v=64
11 Par ch=8 c=10 v=89
57 On ch=8 n=75 v=87
18 Par ch=8 c=10 v=90
27 Off ch=8 n=75 v=64
22 Par ch=8 c=10 v=91
53 On ch=8 n=89 v=71
14 Par ch=8 c=10 v=92
49 Off ch=8 n=89 v=64
57 On ch=8 n=94 v=96
42 Off ch=8 n=94 v=64
68 Par ch=8 c=10 v=96
10 On ch=8 n=70 v=84
60 Off ch=8 n=70 v=64
21 Par ch=8 c=10 v=97
39 On ch=8 n=82 v=101
53 Off ch=8 n=82 v=64
67 On ch=8 n=63 v=92
16 Par ch=8 c=10 v=102
33 Off ch=8 n=63 v=64
71 On ch=8 n=87 v=87
2 Par ch=8 c=10 v=104
51 Off ch=8 n=87 v=64
10 Par ch=8 c=10 v=105
57 On ch=8 n=65 v=96
71 Off ch=8 n=65 v=64
49 On ch=8 n=77 v=78
25 Par ch=8 c=10 v=110
19 Off ch=8 n=77 v=64
76 On ch=8 n=84 v=96
50 Off ch=8 n=84 v=64
68 Par ch=8 c=10 v=115
2 On ch=8 n=72 v=87
42 Off ch=8 n=72 v=64
13 Par ch=8 c=10 v=116
65 Par ch=8 c=10 v=117
0 On ch=8 n=77 v=54
30 Off ch=8 n=77 v=64
90 On ch=8 n=89 v=101
70 Off ch=8 n=89 v=64
18 Par ch=8 c=10 v=122
32 On ch=8 n=77 v=78
52 Off ch=8 n=77 v=64
22 Par ch=8 c=10 v=125
46 On ch=8 n=84 v=78
16 Par ch=8 c=10 v=126
29 Off ch=8 n=84 v=64
75 On ch=8 n=91 v=110
22 Par ch=8 c=10 v=127
32 Off ch=8 n=91 v=64
66 On ch=8 n=72 v=95
46 Off ch=8 n=72 v=64
74 On ch=8 n=84 v=87
56 Off ch=8 n=84 v=64
64 On ch=8 n=89 v=101
52 Off ch=8 n=89 v=64
68 On ch=8 n=77 v=92
47 Off ch=8 n=77 v=64
73 On ch=8 n=96 v=114
76 Off ch=8 n=96 v=64
17 Par ch=8 c=10 v=126
27 On ch=8 n=84 v=99
55 Par ch=8 c=10 v=121
8 Off ch=8 n=84 v=64
39 Par ch=8 c=10 v=116
18 On ch=8 n=65 v=104
17 Par ch=8 c=10 v=111
39 Par ch=8 c=10 v=106
8 Off ch=8 n=65 v=64
39 Par ch=8 c=10 v=101
17 On ch=8 n=94 v=114
42 Par ch=8 c=10 v=96
1 Off ch=8 n=94 v=64
77 On ch=8 n=73 v=87
15 Par ch=8 c=10 v=91
21 Off ch=8 n=73 v=64
84 On ch=8 n=85 v=93
11 Par ch=8 c=10 v=86
43 Off ch=8 n=85 v=64
66 On ch=8 n=94 v=101
38 Par ch=8 c=10 v=81
16 Off ch=8 n=94 v=64
66 On ch=8 n=78 v=87
51 Off ch=8 n=78 v=64
69 On ch=8 n=92 v=92
30 Par ch=8 c=10 v=76
15 Off ch=8 n=92 v=64
75 On ch=8 n=90 v=95
45 Off ch=8 n=90 v=64
75 On ch=8 n=80 v=92
4 Par ch=8 c=10 v=71
48 Off ch=8 n=80 v=64
47 Par ch=8 c=10 v=69
21 On ch=8 n=85 v=92
46 Par ch=8 c=10 v=68
5 Off ch=8 n=85 v=64
47 Par ch=8 c=10 v=67
22 On ch=8 n=73 v=75
45 Par ch=8 c=10 v=66
2 Off ch=8 n=73 v=64
73 On ch=8 n=99 v=110
55 Off ch=8 n=99 v=64
65 On ch=8 n=82 v=93
32 Par ch=8 c=10 v=61
7 Off ch=8 n=82 v=64
81 On ch=8 n=97 v=123
53 Par ch=8 c=10 v=58
11 Off ch=8 n=97 v=64
56 On ch=8 n=94 v=99
11 Par ch=8 c=10 v=57
44 Off ch=8 n=94 v=64
65 On ch=8 n=80 v=87
27 Par ch=8 c=10 v=54
22 Off ch=8 n=80 v=64
40 Par ch=8 c=10 v=53
31 On ch=8 n=90 v=78
40 Off ch=8 n=90 v=64
80 On ch=8 n=93 v=90
29 Off ch=8 n=93 v=64
63 Par ch=8 c=10 v=48
28 On ch=8 n=67 v=62
12 Off ch=8 n=67 v=64
19 Par ch=8 c=10 v=47
77 Par ch=8 c=10 v=46
12 On ch=8 n=86 v=92
55 Par ch=8 c=10 v=45
7 Off ch=8 n=86 v=64
45 Par ch=8 c=10 v=44
13 On ch=8 n=98 v=123
49 Off ch=8 n=98 v=64
2 Par ch=8 c=10 v=43
69 On ch=8 n=79 v=80
40 Off ch=8 n=79 v=64
80 On ch=8 n=95 v=107
2 Par ch=8 c=10 v=39
47 Off ch=8 n=95 v=64
38 Par ch=8 c=10 v=38
33 On ch=8 n=93 v=95
34 Par ch=8 c=10 v=37
14 Off ch=8 n=93 v=64
72 On ch=8 n=86 v=93
52 Off ch=8 n=86 v=64
68 On ch=8 n=74 v=87
21 Par ch=8 c=10 v=32
29 Off ch=8 n=74 v=64
70 On ch=8 n=81 v=92
51 Off ch=8 n=81 v=64
69 On ch=8 n=86 v=95
23 Par ch=8 c=10 v=27
36 Off ch=8 n=86 v=64
61 On ch=8 n=79 v=87
57 Off ch=8 n=79 v=64
32 Par ch=8 c=10 v=22
31 On ch=8 n=83 v=104
64 Off ch=8 n=83 v=64
56 On ch=8 n=74 v=92
47 Par ch=8 c=10 v=17
2 Off ch=8 n=74 v=64
71 On ch=8 n=79 v=96
67 Off ch=8 n=79 v=64
53 On ch=8 n=67 v=84
19 Par ch=8 c=10 v=12
26 Off ch=8 n=67 v=64
67 Par ch=8 c=10 v=10
8 On ch=8 n=87 v=107
59 Par ch=8 c=10 v=9
12 Off ch=8 n=87 v=64
49 On ch=8 n=82 v=87
56 Off ch=8 n=82 v=64
12 Par ch=8 c=10 v=4
25 Par ch=8 c=10 v=3
27 On ch=8 n=68 v=87
35 Par ch=8 c=10 v=2
24 Off ch=8 n=68 v=64
51 Par ch=8 c=10 v=1
10 On ch=8 n=80 v=80
56 Off ch=8 n=80 v=64
37 Par ch=8 c=10 v=0
27 On ch=8 n=87 v=95
47 Off ch=8 n=87 v=64
73 On ch=8 n=75 v=87
54 Off ch=8 n=75 v=64
66 On ch=8 n=92 v=104
64 Off ch=8 n=92 v=64
17 Par ch=8 c=10 v=1
39 On ch=8 n=80 v=71
33 Par ch=8 c=10 v=6
18 Off ch=8 n=80 v=64
57 Par ch=8 c=10 v=11
12 On ch=8 n=99 v=114
46 Off ch=8 n=99 v=64
19 Par ch=8 c=10 v=16
55 On ch=8 n=92 v=84
5 Par ch=8 c=10 v=21
31 Off ch=8 n=92 v=64
28 Par ch=8 c=10 v=26
56 On ch=8 n=75 v=84
42 Off ch=8 n=75 v=64
13 Par ch=8 c=10 v=31
65 On ch=8 n=94 v=104
46 Off ch=8 n=94 v=64
15 Par ch=8 c=10 v=36
59 On ch=8 n=80 v=83
44 Off ch=8 n=80 v=64
13 Par ch=8 c=10 v=41
63 On ch=8 n=87 v=104
60 Off ch=8 n=87 v=64
11 Par ch=8 c=10 v=46
49 On ch=8 n=68 v=92
59 Off ch=8 n=68 v=64
61 On ch=8 n=87 v=54
22 Par ch=8 c=10 v=51
35 Off ch=8 n=87 v=64
63 On ch=8 n=93 v=93
45 Off ch=8 n=93 v=64
14 Par ch=8 c=10 v=56
61 On ch=8 n=81 v=71
46 Off ch=8 n=81 v=64
61 Par ch=8 c=10 v=61
13 On ch=8 n=88 v=87
56 Off ch=8 n=88 v=64
64 On ch=8 n=97 v=110
55 Par ch=8 c=10 v=65
25 Off ch=8 n=97 v=64
40 On ch=8 n=76 v=87
55 Off ch=8 n=76 v=64
9 Par ch=8 c=10 v=66
56 On ch=8 n=95 v=104
52 Off ch=8 n=95 v=64
68 On ch=8 n=93 v=99
51 Par ch=8 c=10 v=71
3 Off ch=8 n=93 v=64
66 On ch=8 n=81 v=87
52 Off ch=8 n=81 v=64
15 Par ch=8 c=10 v=72
53 On ch=8 n=100 v=110
14 Par ch=8 c=10 v=73
46 Off ch=8 n=100 v=64
40 Par ch=8 c=10 v=74
20 On ch=8 n=88 v=101
42 Off ch=8 n=88 v=64
28 Par ch=8 c=10 v=75
50 On ch=8 n=76 v=92
50 Off ch=8 n=76 v=64
49 Par ch=8 c=10 v=76
21 On ch=8 n=105 v=114
35 Off ch=8 n=105 v=64
85 On ch=8 n=104 v=107
17 Par ch=8 c=10 v=79
16 Off ch=8 n=104 v=64
63 Par ch=8 c=10 v=80
24 On ch=8 n=81 v=78
59 Off ch=8 n=81 v=64
3 Par ch=8 c=10 v=81
58 On ch=8 n=95 v=83
63 Off ch=8 n=95 v=64
7 Par ch=8 c=10 v=84
50 On ch=8 n=69 v=93
15 Par ch=8 c=10 v=85
34 Off ch=8 n=69 v=64
33 Par ch=8 c=10 v=86
38 On ch=8 n=94 v=99
45 Off ch=8 n=94 v=64
75 On ch=8 n=70 v=75
33 Par ch=8 c=10 v=91
4 Off ch=8 n=70 v=64
83 On ch=8 n=89 v=80
29 Par ch=8 c=10 v=96
34 Off ch=8 n=89 v=64
57 On ch=8 n=98 v=104
2 Par ch=8 c=10 v=101
54 Off ch=8 n=98 v=64
46 Par ch=8 c=10 v=106
18 On ch=8 n=82 v=87
66 Off ch=8 n=82 v=64
22 Par ch=8 c=10 v=111
32 On ch=8 n=86 v=93
51 Off ch=8 n=86 v=64
4 Par ch=8 c=10 v=116
65 On ch=8 n=94 v=96
10 Par ch=8 c=10 v=121
44 Off ch=8 n=94 v=64
44 Par ch=8 c=10 v=126
22 On ch=8 n=77 v=95
56 Off ch=8 n=77 v=64
25 Par ch=8 c=10 v=127
39 On ch=8 n=84 v=84
59 Off ch=8 n=84 v=64
61 On ch=8 n=86 v=95
61 Off ch=8 n=86 v=64
59 On ch=8 n=82 v=48
29 Off ch=8 n=82 v=64
91 On ch=8 n=82 v=93
54 Off ch=8 n=82 v=64
66 On ch=8 n=77 v=77
49 Off ch=8 n=77 v=64
58 Par ch=8 c=10 v=126
13 On ch=8 n=70 v=92
57 Off ch=8 n=70 v=64
13 Par ch=8 c=10 v=121
50 On ch=8 n=86 v=110
1 Par ch=8 c=10 v=116
44 Off ch=8 n=86 v=64
11 Par ch=8 c=10 v=111
64 Par ch=8 c=10 v=106
0 On ch=8 n=89 v=101
38 Off ch=8 n=89 v=64
45 Par ch=8 c=10 v=101
37 On ch=8 n=90 v=123
40 Off ch=8 n=90 v=64
5 Par ch=8 c=10 v=96
75 On ch=8 n=71 v=92
2 Par ch=8 c=10 v=91
49 Off ch=8 n=71 v=64
69 On ch=8 n=83 v=78
9 Par ch=8 c=10 v=86
49 Off ch=8 n=83 v=64
62 On ch=8 n=90 v=107
45 Off ch=8 n=90 v=64
14 Par ch=8 c=10 v=81
61 On ch=8 n=78 v=92
47 Off ch=8 n=78 v=64
73 On ch=8 n=85 v=104
10 Par ch=8 c=10 v=76
46 Off ch=8 n=85 v=64
64 On ch=8 n=87 v=114
39 Par ch=8 c=10 v=71
13 Off ch=8 n=87 v=64
68 On ch=8 n=83 v=62
56 Par ch=8 c=10 v=66
12 Off ch=8 n=83 v=64
52 On ch=8 n=95 v=96
53 Off ch=8 n=95 v=64
22 Par ch=8 c=10 v=62
45 On ch=8 n=71 v=92
47 Off ch=8 n=71 v=64
34 Par ch=8 c=10 v=61
39 On ch=8 n=94 v=123
49 Off ch=8 n=94 v=64
71 On ch=8 n=85 v=104
52 Off ch=8 n=85 v=64
68 On ch=8 n=78 v=87
67 Off ch=8 n=78 v=64
53 On ch=8 n=83 v=96
63 Off ch=8 n=83 v=64
57 On ch=8 n=85 v=104
54 Off ch=8 n=85 v=64
66 On ch=8 n=71 v=92
49 Off ch=8 n=71 v=64
71 On ch=8 n=89 v=104
79 Off ch=8 n=89 v=64
0 Meta TrkEnd
TrkEnd
MTrk
TimestampType=Delta
0 Meta Text "BELL PAD PIANO DOUBLE"
0 PrCh ch=9 p=102
0 Par ch=9 c=7 v=75
0 Par ch=9 c=10 v=90
0 Par ch=9 c=91 v=13
0 Par ch=9 c=93 v=70
0 Par ch=9 c=64 v=0
0 Pb ch=9 v=8192
165929 On ch=9 n=79 v=93
207 Off ch=9 n=79 v=64
51 On ch=9 n=81 v=75
249 Off ch=9 n=81 v=64
2 On ch=9 n=82 v=83
356 Off ch=9 n=82 v=64
10 On ch=9 n=86 v=77
306 Off ch=9 n=86 v=64
8 On ch=9 n=84 v=84
196 Off ch=9 n=84 v=64
100 On ch=9 n=77 v=84
331 Off ch=9 n=77 v=64
14 On ch=9 n=79 v=90
301 Off ch=9 n=79 v=64
8 On ch=9 n=81 v=77
157 Off ch=9 n=81 v=64
127 On ch=9 n=81 v=77
455 Off ch=9 n=81 v=64
0 On ch=9 n=84 v=69
231 Off ch=9 n=84 v=64
25 On ch=9 n=79 v=80
662 Off ch=9 n=79 v=64
42 On ch=9 n=86 v=71
242 Off ch=9 n=86 v=64
0 On ch=9 n=88 v=75
221 Off ch=9 n=88 v=64
30 On ch=9 n=89 v=105
366 On ch=9 n=88 v=93
12 Off ch=9 n=89 v=64
256 Off ch=9 n=88 v=64
10 On ch=9 n=86 v=80
202 Off ch=9 n=86 v=64
102 On ch=9 n=84 v=84
301 Off ch=9 n=84 v=64
77 On ch=9 n=82 v=83
174 Off ch=9 n=82 v=64
130 On ch=9 n=81 v=72
161 Off ch=9 n=81 v=64
127 On ch=9 n=81 v=72
465 Off ch=9 n=81 v=64
3 On ch=9 n=84 v=78
216 Off ch=9 n=84 v=64
40 On ch=9 n=79 v=68
281 Off ch=9 n=79 v=64
426 On ch=9 n=84 v=119
244 Off ch=9 n=84 v=64
22 On ch=9 n=86 v=98
174 Off ch=9 n=86 v=64
77 On ch=9 n=87 v=81
291 Off ch=9 n=87 v=64
75 On ch=9 n=86 v=86
284 Off ch=9 n=86 v=64
2 On ch=9 n=84 v=77
197 Off ch=9 n=84 v=64
112 On ch=9 n=84 v=80
343 Off ch=9 n=84 v=64
10 On ch=9 n=82 v=89
226 Off ch=9 n=82 v=64
75 On ch=9 n=80 v=86
149 Off ch=9 n=80 v=64
135 On ch=9 n=84 v=105
4 On ch=9 n=89 v=127
301 Off ch=9 n=89 v=64
83 On ch=9 n=88 v=114
247 Off ch=9 n=88 v=64
62 On ch=9 n=86 v=110
204 Off ch=9 n=86 v=64
93 On ch=9 n=86 v=123
306 Off ch=9 n=86 v=64
29 On ch=9 n=84 v=114
268 Off ch=9 n=84 v=64
33 On ch=9 n=82 v=96
235 Off ch=9 n=82 v=64
57 On ch=9 n=91 v=126
361 Off ch=9 n=91 v=64
0 On ch=9 n=89 v=119
263 Off ch=9 n=89 v=64
28 On ch=9 n=88 v=93
201 Off ch=9 n=88 v=64
111 On ch=9 n=88 v=104
314 Off ch=9 n=88 v=64
24 On ch=9 n=86 v=110
299 Off ch=9 n=86 v=64
18 On ch=9 n=84 v=93
167 Off ch=9 n=84 v=64
276 Off ch=9 n=84 v=64
37 On ch=9 n=89 v=93
1 Off ch=9 n=89 v=64
0 Meta TrkEnd
TrkEnd
MTrk
TimestampType=Delta
0 Meta Text "LASER(timpani) "
0 Par ch=11 c=10 v=0
0 PrCh ch=11 p=47
0 Par ch=11 c=7 v=76
0 Par ch=11 c=91 v=35
0 Par ch=11 c=93 v=0
0 Par ch=11 c=64 v=0
0 Pb ch=11 v=8192
2260 On ch=11 n=120 v=107
15 Off ch=11 n=120 v=64
0 On ch=11 n=119 v=107
15 Off ch=11 n=119 v=64
0 On ch=11 n=118 v=108
15 Off ch=11 n=118 v=64
0 On ch=11 n=117 v=101
15 Off ch=11 n=117 v=64
0 On ch=11 n=116 v=112
15 Off ch=11 n=116 v=64
0 On ch=11 n=115 v=104
15 Off ch=11 n=115 v=64
0 On ch=11 n=114 v=118
15 Off ch=11 n=114 v=64
0 On ch=11 n=113 v=110
15 Off ch=11 n=113 v=64
0 On ch=11 n=124 v=112
15 Off ch=11 n=124 v=64
0 On ch=11 n=123 v=114
15 Off ch=11 n=123 v=64
0 On ch=11 n=122 v=108
15 Off ch=11 n=122 v=64
0 On ch=11 n=121 v=114
15 Off ch=11 n=121 v=64
0 On ch=11 n=120 v=108
15 Off ch=11 n=120 v=64
0 On ch=11 n=119 v=108
15 Off ch=11 n=119 v=64
0 On ch=11 n=118 v=108
15 Off ch=11 n=118 v=64
0 On ch=11 n=117 v=96
15 Off ch=11 n=117 v=64
0 On ch=11 n=116 v=112
15 Off ch=11 n=116 v=64
0 On ch=11 n=115 v=104
15 Off ch=11 n=115 v=64
0 On ch=11 n=114 v=118
15 Off ch=11 n=114 v=64
0 On ch=11 n=113 v=112
15 Off ch=11 n=113 v=64
0 On ch=11 n=112 v=108
15 Off ch=11 n=112 v=64
0 On ch=11 n=111 v=112
15 Off ch=11 n=111 v=64
0 On ch=11 n=110 v=107
15 Off ch=11 n=110 v=64
0 On ch=11 n=109 v=116
15 Off ch=11 n=109 v=64
0 On ch=11 n=108 v=112
15 Off ch=11 n=108 v=64
0 On ch=11 n=107 v=107
15 Off ch=11 n=107 v=64
0 On ch=11 n=106 v=112
15 Off ch=11 n=106 v=64
0 On ch=11 n=105 v=107
15 Off ch=11 n=105 v=64
0 On ch=11 n=104 v=112
15 Off ch=11 n=104 v=64
0 On ch=11 n=103 v=107
15 Off ch=11 n=103 v=64
0 On ch=11 n=102 v=114
15 Off ch=11 n=102 v=64
0 On ch=11 n=101 v=112
15 Off ch=11 n=101 v=64
0 Par ch=11 c=10 v=0
0 On ch=11 n=100 v=114
15 Off ch=11 n=100 v=64
0 On ch=11 n=99 v=112
15 Off ch=11 n=99 v=64
0 On ch=11 n=98 v=108
4 Par ch=11 c=10 v=3
11 Off ch=11 n=98 v=64
0 On ch=11 n=97 v=108
15 Off ch=11 n=97 v=64
0 On ch=11 n=96 v=110
8 Par ch=11 c=10 v=6
7 Off ch=11 n=96 v=64
0 On ch=11 n=95 v=108
15 Off ch=11 n=95 v=64
0 On ch=11 n=94 v=112
12 Par ch=11 c=10 v=9
3 Off ch=11 n=94 v=64
0 On ch=11 n=93 v=104
15 Off ch=11 n=93 v=64
0 On ch=11 n=92 v=114
15 Off ch=11 n=92 v=64
0 On ch=11 n=91 v=104
1 Par ch=11 c=10 v=12
14 Off ch=11 n=91 v=64
0 On ch=11 n=90 v=108
15 Off ch=11 n=90 v=64
0 On ch=11 n=89 v=114
5 Par ch=11 c=10 v=15
10 Off ch=11 n=89 v=64
0 On ch=11 n=88 v=107
15 Off ch=11 n=88 v=64
0 On ch=11 n=87 v=112
9 Par ch=11 c=10 v=18
6 Off ch=11 n=87 v=64
0 On ch=11 n=86 v=114
15 Off ch=11 n=86 v=64
0 On ch=11 n=85 v=112
13 Par ch=11 c=10 v=21
2 Off ch=11 n=85 v=64
0 On ch=11 n=84 v=114
15 Off ch=11 n=84 v=64
0 On ch=11 n=83 v=108
15 Off ch=11 n=83 v=64
0 On ch=11 n=82 v=114
2 Par ch=11 c=10 v=24
13 Off ch=11 n=82 v=64
0 On ch=11 n=81 v=107
15 Off ch=11 n=81 v=64
0 On ch=11 n=80 v=112
6 Par ch=11 c=10 v=27
9 Off ch=11 n=80 v=64
0 On ch=11 n=79 v=107
15 Off ch=11 n=79 v=64
0 On ch=11 n=78 v=112
10 Par ch=11 c=10 v=30
5 Off ch=11 n=78 v=64
0 On ch=11 n=77 v=112
15 Off ch=11 n=77 v=64
0 On ch=11 n=76 v=107
14 Par ch=11 c=10 v=33
1 Off ch=11 n=76 v=64
0 On ch=11 n=75 v=108
15 Off ch=11 n=75 v=64
0 On ch=11 n=74 v=107
15 Off ch=11 n=74 v=64
0 On ch=11 n=73 v=112
3 Par ch=11 c=10 v=36
12 Off ch=11 n=73 v=64
0 On ch=11 n=72 v=114
15 Off ch=11 n=72 v=64
0 On ch=11 n=71 v=112
7 Par ch=11 c=10 v=39
8 Off ch=11 n=71 v=64
0 On ch=11 n=70 v=112
15 Off ch=11 n=70 v=64
0 On ch=11 n=69 v=108
11 Par ch=11 c=10 v=42
4 Off ch=11 n=69 v=64
0 On ch=11 n=68 v=118
15 Off ch=11 n=68 v=64
0 On ch=11 n=67 v=108
15 Off ch=11 n=67 v=64
0 Par ch=11 c=10 v=45
0 On ch=11 n=66 v=112
15 Off ch=11 n=66 v=64
0 On ch=11 n=65 v=110
15 Off ch=11 n=65 v=64
0 On ch=11 n=64 v=108
4 Par ch=11 c=10 v=48
11 Off ch=11 n=64 v=64
0 On ch=11 n=63 v=118
15 Off ch=11 n=63 v=64
0 On ch=11 n=62 v=108
8 Par ch=11 c=10 v=51
7 Off ch=11 n=62 v=64
0 On ch=11 n=61 v=114
15 Off ch=11 n=61 v=64
0 On ch=11 n=60 v=114
12 Par ch=11 c=10 v=54
3 Off ch=11 n=60 v=64
0 On ch=11 n=59 v=112
15 Off ch=11 n=59 v=64
0 On ch=11 n=58 v=116
15 Off ch=11 n=58 v=64
0 On ch=11 n=57 v=107
1 Par ch=11 c=10 v=57
14 Off ch=11 n=57 v=64
0 On ch=11 n=56 v=112
15 Off ch=11 n=56 v=64
0 On ch=11 n=55 v=108
5 Par ch=11 c=10 v=60
10 Off ch=11 n=55 v=64
0 On ch=11 n=54 v=114
15 Off ch=11 n=54 v=64
0 On ch=11 n=53 v=108
9 Par ch=11 c=10 v=63
6 Off ch=11 n=53 v=64
0 On ch=11 n=52 v=112
15 Off ch=11 n=52 v=64
0 On ch=11 n=51 v=112
13 Par ch=11 c=10 v=66
2 Off ch=11 n=51 v=64
0 On ch=11 n=50 v=116
15 Off ch=11 n=50 v=64
0 On ch=11 n=49 v=112
15 Off ch=11 n=49 v=64
0 On ch=11 n=48 v=107
2 Par ch=11 c=10 v=69
13 Off ch=11 n=48 v=64
0 On ch=11 n=47 v=114
15 Off ch=11 n=47 v=64
0 On ch=11 n=46 v=116
6 Par ch=11 c=10 v=72
9 Off ch=11 n=46 v=64
0 On ch=11 n=45 v=110
15 Off ch=11 n=45 v=64
0 On ch=11 n=44 v=112
10 Par ch=11 c=10 v=75
5 Off ch=11 n=44 v=64
0 On ch=11 n=43 v=108
15 Off ch=11 n=43 v=64
0 On ch=11 n=42 v=116
14 Par ch=11 c=10 v=78
1 Off ch=11 n=42 v=64
0 On ch=11 n=41 v=107
15 Off ch=11 n=41 v=64
0 On ch=11 n=40 v=107
15 Off ch=11 n=40 v=64
0 On ch=11 n=39 v=114
3 Par ch=11 c=10 v=81
12 Off ch=11 n=39 v=64
0 On ch=11 n=38 v=118
15 Off ch=11 n=38 v=64
0 On ch=11 n=37 v=116
7 Par ch=11 c=10 v=84
8 Off ch=11 n=37 v=64
0 On ch=11 n=36 v=114
15 Off ch=11 n=36 v=64
0 On ch=11 n=35 v=112
11 Par ch=11 c=10 v=87
4 Off ch=11 n=35 v=64
0 On ch=11 n=34 v=116
15 Off ch=11 n=34 v=64
0 On ch=11 n=33 v=118
15 Off ch=11 n=33 v=64
0 Par ch=11 c=10 v=90
0 On ch=11 n=32 v=116
15 Off ch=11 n=32 v=64
0 On ch=11 n=31 v=110
15 Off ch=11 n=31 v=64
0 On ch=11 n=30 v=112
4 Par ch=11 c=10 v=93
11 Off ch=11 n=30 v=64
0 On ch=11 n=29 v=112
15 Off ch=11 n=29 v=64
0 On ch=11 n=28 v=118
8 Par ch=11 c=10 v=96
7 Off ch=11 n=28 v=64
0 On ch=11 n=27 v=118
15 Off ch=11 n=27 v=64
0 On ch=11 n=26 v=116
12 Par ch=11 c=10 v=99
3 Off ch=11 n=26 v=64
0 On ch=11 n=25 v=116
15 Off ch=11 n=25 v=64
0 On ch=11 n=24 v=118
15 Off ch=11 n=24 v=64
0 On ch=11 n=23 v=101
1 Par ch=11 c=10 v=102
14 Off ch=11 n=23 v=64
0 On ch=11 n=22 v=106
15 Off ch=11 n=22 v=64
0 On ch=11 n=21 v=107
5 Par ch=11 c=10 v=105
10 Off ch=11 n=21 v=64
0 On ch=11 n=20 v=110
15 Off ch=11 n=20 v=64
0 On ch=11 n=19 v=106
9 Par ch=11 c=10 v=108
6 Off ch=11 n=19 v=64
0 On ch=11 n=18 v=107
15 Off ch=11 n=18 v=64
0 On ch=11 n=17 v=107
13 Par ch=11 c=10 v=111
2 Off ch=11 n=17 v=64
0 On ch=11 n=16 v=108
15 Off ch=11 n=16 v=64
0 On ch=11 n=15 v=104
15 Off ch=11 n=15 v=64
0 On ch=11 n=14 v=107
2 Par ch=11 c=10 v=114
13 Off ch=11 n=14 v=64
0 On ch=11 n=13 v=103
15 Off ch=11 n=13 v=64
0 On ch=11 n=12 v=104
6 Par ch=11 c=10 v=117
9 Off ch=11 n=12 v=64
0 On ch=11 n=11 v=108
15 Off ch=11 n=11 v=64
0 On ch=11 n=10 v=108
10 Par ch=11 c=10 v=120
5 Off ch=11 n=10 v=64
0 On ch=11 n=9 v=112
15 Off ch=11 n=9 v=64
0 On ch=11 n=8 v=112
14 Par ch=11 c=10 v=123
1 Off ch=11 n=8 v=64
0 On ch=11 n=7 v=114
15 Off ch=11 n=7 v=64
0 On ch=11 n=6 v=107
15 Off ch=11 n=6 v=64
0 On ch=11 n=5 v=114
3 Par ch=11 c=10 v=126
12 Off ch=11 n=5 v=64
0 Par ch=11 c=10 v=127
0 On ch=11 n=4 v=118
1920 Off ch=11 n=4 v=64
40320 On ch=11 n=120 v=107
15 Off ch=11 n=120 v=64
0 On ch=11 n=119 v=107
15 Off ch=11 n=119 v=64
0 On ch=11 n=118 v=108
15 Off ch=11 n=118 v=64
0 On ch=11 n=117 v=101
15 Off ch=11 n=117 v=64
0 On ch=11 n=116 v=112
15 Off ch=11 n=116 v=64
0 On ch=11 n=115 v=104
15 Off ch=11 n=115 v=64
0 On ch=11 n=114 v=118
15 Off ch=11 n=114 v=64
0 On ch=11 n=113 v=110
15 Off ch=11 n=113 v=64
0 On ch=11 n=124 v=112
15 Off ch=11 n=124 v=64
0 On ch=11 n=123 v=114
15 Off ch=11 n=123 v=64
0 On ch=11 n=122 v=108
15 Off ch=11 n=122 v=64
0 On ch=11 n=121 v=114
15 Off ch=11 n=121 v=64
0 On ch=11 n=120 v=108
15 Off ch=11 n=120 v=64
0 On ch=11 n=119 v=108
15 Off ch=11 n=119 v=64
0 On ch=11 n=118 v=108
15 Off ch=11 n=118 v=64
0 On ch=11 n=117 v=96
15 Off ch=11 n=117 v=64
0 On ch=11 n=116 v=112
15 Off ch=11 n=116 v=64
0 On ch=11 n=115 v=104
15 Off ch=11 n=115 v=64
0 On ch=11 n=114 v=118
15 Off ch=11 n=114 v=64
0 On ch=11 n=113 v=112
15 Off ch=11 n=113 v=64
0 On ch=11 n=112 v=108
15 Off ch=11 n=112 v=64
0 On ch=11 n=111 v=112
15 Off ch=11 n=111 v=64
0 On ch=11 n=110 v=107
15 Off ch=11 n=110 v=64
0 On ch=11 n=109 v=116
15 Off ch=11 n=109 v=64
0 On ch=11 n=108 v=112
15 Off ch=11 n=108 v=64
0 On ch=11 n=107 v=107
15 Off ch=11 n=107 v=64
0 On ch=11 n=106 v=112
15 Off ch=11 n=106 v=64
0 On ch=11 n=105 v=107
15 Off ch=11 n=105 v=64
0 On ch=11 n=104 v=112
15 Off ch=11 n=104 v=64
0 On ch=11 n=103 v=107
15 Off ch=11 n=103 v=64
0 On ch=11 n=102 v=114
15 Off ch=11 n=102 v=64
0 On ch=11 n=101 v=112
15 Off ch=11 n=101 v=64
0 Par ch=11 c=10 v=0
0 On ch=11 n=100 v=114
15 Off ch=11 n=100 v=64
0 On ch=11 n=99 v=112
15 Off ch=11 n=99 v=64
0 On ch=11 n=98 v=108
4 Par ch=11 c=10 v=3
11 Off ch=11 n=98 v=64
0 On ch=11 n=97 v=108
15 Off ch=11 n=97 v=64
0 On ch=11 n=96 v=110
8 Par ch=11 c=10 v=6
7 Off ch=11 n=96 v=64
0 On ch=11 n=95 v=108
15 Off ch=11 n=95 v=64
0 On ch=11 n=94 v=112
12 Par ch=11 c=10 v=9
3 Off ch=11 n=94 v=64
0 On ch=11 n=93 v=104
15 Off ch=11 n=93 v=64
0 On ch=11 n=92 v=114
15 Off ch=11 n=92 v=64
0 On ch=11 n=91 v=104
1 Par ch=11 c=10 v=12
14 Off ch=11 n=91 v=64
0 On ch=11 n=90 v=108
15 Off ch=11 n=90 v=64
0 On ch=11 n=89 v=114
5 Par ch=11 c=10 v=15
10 Off ch=11 n=89 v=64
0 On ch=11 n=88 v=107
15 Off ch=11 n=88 v=64
0 On ch=11 n=87 v=112
9 Par ch=11 c=10 v=18
6 Off ch=11 n=87 v=64
0 On ch=11 n=86 v=114
15 Off ch=11 n=86 v=64
0 On ch=11 n=85 v=112
13 Par ch=11 c=10 v=21
2 Off ch=11 n=85 v=64
0 On ch=11 n=84 v=114
15 Off ch=11 n=84 v=64
0 On ch=11 n=83 v=108
15 Off ch=11 n=83 v=64
0 On ch=11 n=82 v=114
2 Par ch=11 c=10 v=24
13 Off ch=11 n=82 v=64
0 On ch=11 n=81 v=107
15 Off ch=11 n=81 v=64
0 On ch=11 n=80 v=112
6 Par ch=11 c=10 v=27
9 Off ch=11 n=80 v=64
0 On ch=11 n=79 v=107
15 Off ch=11 n=79 v=64
0 On ch=11 n=78 v=112
10 Par ch=11 c=10 v=30
5 Off ch=11 n=78 v=64
0 On ch=11 n=77 v=112
15 Off ch=11 n=77 v=64
0 On ch=11 n=76 v=107
14 Par ch=11 c=10 v=33
1 Off ch=11 n=76 v=64
0 On ch=11 n=75 v=108
15 Off ch=11 n=75 v=64
0 On ch=11 n=74 v=107
15 Off ch=11 n=74 v=64
0 On ch=11 n=73 v=112
3 Par ch=11 c=10 v=36
12 Off ch=11 n=73 v=64
0 On ch=11 n=72 v=114
15 Off ch=11 n=72 v=64
0 On ch=11 n=71 v=112
7 Par ch=11 c=10 v=39
8 Off ch=11 n=71 v=64
0 On ch=11 n=70 v=112
15 Off ch=11 n=70 v=64
0 On ch=11 n=69 v=108
11 Par ch=11 c=10 v=42
4 Off ch=11 n=69 v=64
0 On ch=11 n=68 v=118
15 Off ch=11 n=68 v=64
0 On ch=11 n=67 v=108
15 Off ch=11 n=67 v=64
0 Par ch=11 c=10 v=45
0 On ch=11 n=66 v=112
15 Off ch=11 n=66 v=64
0 On ch=11 n=65 v=110
15 Off ch=11 n=65 v=64
0 On ch=11 n=64 v=108
4 Par ch=11 c=10 v=48
11 Off ch=11 n=64 v=64
0 On ch=11 n=63 v=118
15 Off ch=11 n=63 v=64
0 On ch=11 n=62 v=108
8 Par ch=11 c=10 v=51
7 Off ch=11 n=62 v=64
0 On ch=11 n=61 v=114
15 Off ch=11 n=61 v=64
0 On ch=11 n=60 v=114
12 Par ch=11 c=10 v=54
3 Off ch=11 n=60 v=64
0 On ch=11 n=59 v=112
15 Off ch=11 n=59 v=64
0 On ch=11 n=58 v=116
15 Off ch=11 n=58 v=64
0 On ch=11 n=57 v=107
1 Par ch=11 c=10 v=57
14 Off ch=11 n=57 v=64
0 On ch=11 n=56 v=112
15 Off ch=11 n=56 v=64
0 On ch=11 n=55 v=108
5 Par ch=11 c=10 v=60
10 Off ch=11 n=55 v=64
0 On ch=11 n=54 v=114
15 Off ch=11 n=54 v=64
0 On ch=11 n=53 v=108
9 Par ch=11 c=10 v=63
6 Off ch=11 n=53 v=64
0 On ch=11 n=52 v=112
15 Off ch=11 n=52 v=64
0 On ch=11 n=51 v=112
13 Par ch=11 c=10 v=66
2 Off ch=11 n=51 v=64
0 On ch=11 n=50 v=116
15 Off ch=11 n=50 v=64
0 On ch=11 n=49 v=112
15 Off ch=11 n=49 v=64
0 On ch=11 n=48 v=107
2 Par ch=11 c=10 v=69
13 Off ch=11 n=48 v=64
0 On ch=11 n=47 v=114
15 Off ch=11 n=47 v=64
0 On ch=11 n=46 v=116
6 Par ch=11 c=10 v=72
9 Off ch=11 n=46 v=64
0 On ch=11 n=45 v=110
15 Off ch=11 n=45 v=64
0 On ch=11 n=44 v=112
10 Par ch=11 c=10 v=75
5 Off ch=11 n=44 v=64
0 On ch=11 n=43 v=108
15 Off ch=11 n=43 v=64
0 On ch=11 n=42 v=116
14 Par ch=11 c=10 v=78
1 Off ch=11 n=42 v=64
0 On ch=11 n=41 v=107
15 Off ch=11 n=41 v=64
0 On ch=11 n=40 v=107
15 Off ch=11 n=40 v=64
0 On ch=11 n=39 v=114
3 Par ch=11 c=10 v=81
12 Off ch=11 n=39 v=64
0 On ch=11 n=38 v=118
15 Off ch=11 n=38 v=64
0 On ch=11 n=37 v=116
7 Par ch=11 c=10 v=84
8 Off ch=11 n=37 v=64
0 On ch=11 n=36 v=114
15 Off ch=11 n=36 v=64
0 On ch=11 n=35 v=112
11 Par ch=11 c=10 v=87
4 Off ch=11 n=35 v=64
0 On ch=11 n=34 v=116
15 Off ch=11 n=34 v=64
0 On ch=11 n=33 v=118
15 Off ch=11 n=33 v=64
0 Par ch=11 c=10 v=90
0 On ch=11 n=32 v=116
15 Off ch=11 n=32 v=64
0 On ch=11 n=31 v=110
15 Off ch=11 n=31 v=64
0 On ch=11 n=30 v=112
4 Par ch=11 c=10 v=93
11 Off ch=11 n=30 v=64
0 On ch=11 n=29 v=112
15 Off ch=11 n=29 v=64
0 On ch=11 n=28 v=118
8 Par ch=11 c=10 v=96
7 Off ch=11 n=28 v=64
0 On ch=11 n=27 v=118
15 Off ch=11 n=27 v=64
0 On ch=11 n=26 v=116
12 Par ch=11 c=10 v=99
3 Off ch=11 n=26 v=64
0 On ch=11 n=25 v=116
15 Off ch=11 n=25 v=64
0 On ch=11 n=24 v=118
15 Off ch=11 n=24 v=64
0 On ch=11 n=23 v=101
1 Par ch=11 c=10 v=102
14 Off ch=11 n=23 v=64
0 On ch=11 n=22 v=106
15 Off ch=11 n=22 v=64
0 On ch=11 n=21 v=107
5 Par ch=11 c=10 v=105
10 Off ch=11 n=21 v=64
0 On ch=11 n=20 v=110
15 Off ch=11 n=20 v=64
0 On ch=11 n=19 v=106
9 Par ch=11 c=10 v=108
6 Off ch=11 n=19 v=64
0 On ch=11 n=18 v=107
15 Off ch=11 n=18 v=64
0 On ch=11 n=17 v=107
13 Par ch=11 c=10 v=111
2 Off ch=11 n=17 v=64
0 On ch=11 n=16 v=108
15 Off ch=11 n=16 v=64
0 On ch=11 n=15 v=104
15 Off ch=11 n=15 v=64
0 On ch=11 n=14 v=107
2 Par ch=11 c=10 v=114
13 Off ch=11 n=14 v=64
0 On ch=11 n=13 v=103
15 Off ch=11 n=13 v=64
0 On ch=11 n=12 v=104
6 Par ch=11 c=10 v=117
9 Off ch=11 n=12 v=64
0 On ch=11 n=11 v=108
15 Off ch=11 n=11 v=64
0 On ch=11 n=10 v=108
10 Par ch=11 c=10 v=120
5 Off ch=11 n=10 v=64
0 On ch=11 n=9 v=112
15 Off ch=11 n=9 v=64
0 On ch=11 n=8 v=112
14 Par ch=11 c=10 v=123
1 Off ch=11 n=8 v=64
0 On ch=11 n=7 v=114
15 Off ch=11 n=7 v=64
0 On ch=11 n=6 v=107
15 Off ch=11 n=6 v=64
0 On ch=11 n=5 v=114
3 Par ch=11 c=10 v=126
12 Off ch=11 n=5 v=64
0 Par ch=11 c=10 v=127
0 On ch=11 n=4 v=118
1920 Off ch=11 n=4 v=64
73920 On ch=11 n=120 v=107
15 Off ch=11 n=120 v=64
0 On ch=11 n=119 v=107
15 Off ch=11 n=119 v=64
0 On ch=11 n=118 v=108
15 Off ch=11 n=118 v=64
0 On ch=11 n=117 v=101
15 Off ch=11 n=117 v=64
0 On ch=11 n=116 v=112
15 Off ch=11 n=116 v=64
0 On ch=11 n=115 v=104
15 Off ch=11 n=115 v=64
0 On ch=11 n=114 v=118
15 Off ch=11 n=114 v=64
0 On ch=11 n=113 v=110
15 Off ch=11 n=113 v=64
0 On ch=11 n=124 v=112
15 Off ch=11 n=124 v=64
0 On ch=11 n=123 v=114
15 Off ch=11 n=123 v=64
0 On ch=11 n=122 v=108
15 Off ch=11 n=122 v=64
0 On ch=11 n=121 v=114
15 Off ch=11 n=121 v=64
0 On ch=11 n=120 v=108
15 Off ch=11 n=120 v=64
0 On ch=11 n=119 v=108
15 Off ch=11 n=119 v=64
0 On ch=11 n=118 v=108
15 Off ch=11 n=118 v=64
0 On ch=11 n=117 v=96
15 Off ch=11 n=117 v=64
0 On ch=11 n=116 v=112
15 Off ch=11 n=116 v=64
0 On ch=11 n=115 v=104
15 Off ch=11 n=115 v=64
0 On ch=11 n=114 v=118
15 Off ch=11 n=114 v=64
0 On ch=11 n=113 v=112
15 Off ch=11 n=113 v=64
0 On ch=11 n=112 v=108
15 Off ch=11 n=112 v=64
0 On ch=11 n=111 v=112
15 Off ch=11 n=111 v=64
0 On ch=11 n=110 v=107
15 Off ch=11 n=110 v=64
0 On ch=11 n=109 v=116
15 Off ch=11 n=109 v=64
0 On ch=11 n=108 v=112
15 Off ch=11 n=108 v=64
0 On ch=11 n=107 v=107
15 Off ch=11 n=107 v=64
0 On ch=11 n=106 v=112
15 Off ch=11 n=106 v=64
0 On ch=11 n=105 v=107
15 Off ch=11 n=105 v=64
0 On ch=11 n=104 v=112
15 Off ch=11 n=104 v=64
0 On ch=11 n=103 v=107
15 Off ch=11 n=103 v=64
0 On ch=11 n=102 v=114
15 Off ch=11 n=102 v=64
0 On ch=11 n=101 v=112
15 Off ch=11 n=101 v=64
0 Par ch=11 c=10 v=0
0 On ch=11 n=100 v=114
15 Off ch=11 n=100 v=64
0 On ch=11 n=99 v=112
15 Off ch=11 n=99 v=64
0 On ch=11 n=98 v=108
4 Par ch=11 c=10 v=3
11 Off ch=11 n=98 v=64
0 On ch=11 n=97 v=108
15 Off ch=11 n=97 v=64
0 On ch=11 n=96 v=110
8 Par ch=11 c=10 v=6
7 Off ch=11 n=96 v=64
0 On ch=11 n=95 v=108
15 Off ch=11 n=95 v=64
0 On ch=11 n=94 v=112
12 Par ch=11 c=10 v=9
3 Off ch=11 n=94 v=64
0 On ch=11 n=93 v=104
15 Off ch=11 n=93 v=64
0 On ch=11 n=92 v=114
15 Off ch=11 n=92 v=64
0 On ch=11 n=91 v=104
1 Par ch=11 c=10 v=12
14 Off ch=11 n=91 v=64
0 On ch=11 n=90 v=108
15 Off ch=11 n=90 v=64
0 On ch=11 n=89 v=114
5 Par ch=11 c=10 v=15
10 Off ch=11 n=89 v=64
0 On ch=11 n=88 v=107
15 Off ch=11 n=88 v=64
0 On ch=11 n=87 v=112
9 Par ch=11 c=10 v=18
6 Off ch=11 n=87 v=64
0 On ch=11 n=86 v=114
15 Off ch=11 n=86 v=64
0 On ch=11 n=85 v=112
13 Par ch=11 c=10 v=21
2 Off ch=11 n=85 v=64
0 On ch=11 n=84 v=114
15 Off ch=11 n=84 v=64
0 On ch=11 n=83 v=108
15 Off ch=11 n=83 v=64
0 On ch=11 n=82 v=114
2 Par ch=11 c=10 v=24
13 Off ch=11 n=82 v=64
0 On ch=11 n=81 v=107
15 Off ch=11 n=81 v=64
0 On ch=11 n=80 v=112
6 Par ch=11 c=10 v=27
9 Off ch=11 n=80 v=64
0 On ch=11 n=79 v=107
15 Off ch=11 n=79 v=64
0 On ch=11 n=78 v=112
10 Par ch=11 c=10 v=30
5 Off ch=11 n=78 v=64
0 On ch=11 n=77 v=112
15 Off ch=11 n=77 v=64
0 On ch=11 n=76 v=107
14 Par ch=11 c=10 v=33
1 Off ch=11 n=76 v=64
0 On ch=11 n=75 v=108
15 Off ch=11 n=75 v=64
0 On ch=11 n=74 v=107
15 Off ch=11 n=74 v=64
0 On ch=11 n=73 v=112
3 Par ch=11 c=10 v=36
12 Off ch=11 n=73 v=64
0 On ch=11 n=72 v=114
15 Off ch=11 n=72 v=64
0 On ch=11 n=71 v=112
7 Par ch=11 c=10 v=39
8 Off ch=11 n=71 v=64
0 On ch=11 n=70 v=112
15 Off ch=11 n=70 v=64
0 On ch=11 n=69 v=108
11 Par ch=11 c=10 v=42
4 Off ch=11 n=69 v=64
0 On ch=11 n=68 v=118
15 Off ch=11 n=68 v=64
0 On ch=11 n=67 v=108
15 Off ch=11 n=67 v=64
0 Par ch=11 c=10 v=45
0 On ch=11 n=66 v=112
15 Off ch=11 n=66 v=64
0 On ch=11 n=65 v=110
15 Off ch=11 n=65 v=64
0 On ch=11 n=64 v=108
4 Par ch=11 c=10 v=48
11 Off ch=11 n=64 v=64
0 On ch=11 n=63 v=118
15 Off ch=11 n=63 v=64
0 On ch=11 n=62 v=108
8 Par ch=11 c=10 v=51
7 Off ch=11 n=62 v=64
0 On ch=11 n=61 v=114
15 Off ch=11 n=61 v=64
0 On ch=11 n=60 v=114
12 Par ch=11 c=10 v=54
3 Off ch=11 n=60 v=64
0 On ch=11 n=59 v=112
15 Off ch=11 n=59 v=64
0 On ch=11 n=58 v=116
15 Off ch=11 n=58 v=64
0 On ch=11 n=57 v=107
1 Par ch=11 c=10 v=57
14 Off ch=11 n=57 v=64
0 On ch=11 n=56 v=112
15 Off ch=11 n=56 v=64
0 On ch=11 n=55 v=108
5 Par ch=11 c=10 v=60
10 Off ch=11 n=55 v=64
0 On ch=11 n=54 v=114
15 Off ch=11 n=54 v=64
0 On ch=11 n=53 v=108
9 Par ch=11 c=10 v=63
6 Off ch=11 n=53 v=64
0 On ch=11 n=52 v=112
15 Off ch=11 n=52 v=64
0 On ch=11 n=51 v=112
13 Par ch=11 c=10 v=66
2 Off ch=11 n=51 v=64
0 On ch=11 n=50 v=116
15 Off ch=11 n=50 v=64
0 On ch=11 n=49 v=112
15 Off ch=11 n=49 v=64
0 On ch=11 n=48 v=107
2 Par ch=11 c=10 v=69
13 Off ch=11 n=48 v=64
0 On ch=11 n=47 v=114
15 Off ch=11 n=47 v=64
0 On ch=11 n=46 v=116
6 Par ch=11 c=10 v=72
9 Off ch=11 n=46 v=64
0 On ch=11 n=45 v=110
15 Off ch=11 n=45 v=64
0 On ch=11 n=44 v=112
10 Par ch=11 c=10 v=75
5 Off ch=11 n=44 v=64
0 On ch=11 n=43 v=108
15 Off ch=11 n=43 v=64
0 On ch=11 n=42 v=116
14 Par ch=11 c=10 v=78
1 Off ch=11 n=42 v=64
0 On ch=11 n=41 v=107
15 Off ch=11 n=41 v=64
0 On ch=11 n=40 v=107
15 Off ch=11 n=40 v=64
0 On ch=11 n=39 v=114
3 Par ch=11 c=10 v=81
12 Off ch=11 n=39 v=64
0 On ch=11 n=38 v=118
15 Off ch=11 n=38 v=64
0 On ch=11 n=37 v=116
7 Par ch=11 c=10 v=84
8 Off ch=11 n=37 v=64
0 On ch=11 n=36 v=114
15 Off ch=11 n=36 v=64
0 On ch=11 n=35 v=112
11 Par ch=11 c=10 v=87
4 Off ch=11 n=35 v=64
0 On ch=11 n=34 v=116
15 Off ch=11 n=34 v=64
0 On ch=11 n=33 v=118
15 Off ch=11 n=33 v=64
0 Par ch=11 c=10 v=90
0 On ch=11 n=32 v=116
15 Off ch=11 n=32 v=64
0 On ch=11 n=31 v=110
15 Off ch=11 n=31 v=64
0 On ch=11 n=30 v=112
4 Par ch=11 c=10 v=93
11 Off ch=11 n=30 v=64
0 On ch=11 n=29 v=112
15 Off ch=11 n=29 v=64
0 On ch=11 n=28 v=118
8 Par ch=11 c=10 v=96
7 Off ch=11 n=28 v=64
0 On ch=11 n=27 v=118
15 Off ch=11 n=27 v=64
0 On ch=11 n=26 v=116
12 Par ch=11 c=10 v=99
3 Off ch=11 n=26 v=64
0 On ch=11 n=25 v=116
15 Off ch=11 n=25 v=64
0 On ch=11 n=24 v=118
15 Off ch=11 n=24 v=64
0 On ch=11 n=23 v=101
1 Par ch=11 c=10 v=102
14 Off ch=11 n=23 v=64
0 On ch=11 n=22 v=106
15 Off ch=11 n=22 v=64
0 On ch=11 n=21 v=107
5 Par ch=11 c=10 v=105
10 Off ch=11 n=21 v=64
0 On ch=11 n=20 v=110
15 Off ch=11 n=20 v=64
0 On ch=11 n=19 v=106
9 Par ch=11 c=10 v=108
6 Off ch=11 n=19 v=64
0 On ch=11 n=18 v=107
15 Off ch=11 n=18 v=64
0 On ch=11 n=17 v=107
13 Par ch=11 c=10 v=111
2 Off ch=11 n=17 v=64
0 On ch=11 n=16 v=108
15 Off ch=11 n=16 v=64
0 On ch=11 n=15 v=104
15 Off ch=11 n=15 v=64
0 On ch=11 n=14 v=107
2 Par ch=11 c=10 v=114
13 Off ch=11 n=14 v=64
0 On ch=11 n=13 v=103
15 Off ch=11 n=13 v=64
0 On ch=11 n=12 v=104
6 Par ch=11 c=10 v=117
9 Off ch=11 n=12 v=64
0 On ch=11 n=11 v=108
15 Off ch=11 n=11 v=64
0 On ch=11 n=10 v=108
10 Par ch=11 c=10 v=120
5 Off ch=11 n=10 v=64
0 On ch=11 n=9 v=112
15 Off ch=11 n=9 v=64
0 On ch=11 n=8 v=112
14 Par ch=11 c=10 v=123
1 Off ch=11 n=8 v=64
0 On ch=11 n=7 v=114
15 Off ch=11 n=7 v=64
0 On ch=11 n=6 v=107
15 Off ch=11 n=6 v=64
0 On ch=11 n=5 v=114
3 Par ch=11 c=10 v=126
12 Off ch=11 n=5 v=64
0 Par ch=11 c=10 v=127
0 On ch=11 n=4 v=118
1920 Off ch=11 n=4 v=64
0 Meta TrkEnd
TrkEnd
MTrk
TimestampType=Delta
0 Meta Text "STRING PAD"
0 Par ch=12 c=64 v=0
0 Par ch=12 c=7 v=65
0 PrCh ch=12 p=50
0 Par ch=12 c=10 v=30
0 Par ch=12 c=91 v=64
0 Par ch=12 c=93 v=64
0 Pb ch=12 v=8192
19528 On ch=12 n=65 v=104
2 On ch=12 n=60 v=89
8 On ch=12 n=57 v=72
1930 On ch=12 n=62 v=54
5 On ch=12 n=58 v=72
53 Off ch=12 n=60 v=64
7 Off ch=12 n=57 v=64
898 On ch=12 n=57 v=56
23 Off ch=12 n=58 v=64
584 Off ch=12 n=57 v=64
72 On ch=12 n=60 v=57
18 On ch=12 n=64 v=84
7 On ch=12 n=55 v=41
50 Off ch=12 n=62 v=64
10 Off ch=12 n=65 v=64
2918 Off ch=12 n=55 v=64
125 On ch=12 n=57 v=86
12 On ch=12 n=65 v=89
35 Off ch=12 n=64 v=64
1861 On ch=12 n=62 v=98
8 On ch=12 n=58 v=98
37 Off ch=12 n=57 v=64
5 Off ch=12 n=60 v=64
813 Off ch=12 n=65 v=64
102 Off ch=12 n=58 v=64
5 On ch=12 n=65 v=96
0 On ch=12 n=57 v=81
657 Off ch=12 n=57 v=64
95 On ch=12 n=60 v=86
0 On ch=12 n=64 v=96
12 On ch=12 n=55 v=41
48 Off ch=12 n=62 v=64
5 Off ch=12 n=65 v=64
2948 Off ch=12 n=55 v=64
87 On ch=12 n=58 v=84
2 On ch=12 n=55 v=81
0 On ch=12 n=62 v=96
23 Off ch=12 n=60 v=64
2 Off ch=12 n=64 v=64
928 Off ch=12 n=58 v=64
40 On ch=12 n=60 v=96
3 On ch=12 n=57 v=89
37 Off ch=12 n=62 v=64
10 Off ch=12 n=55 v=64
789 Off ch=12 n=57 v=64
104 On ch=12 n=62 v=101
10 On ch=12 n=53 v=57
5 On ch=12 n=58 v=86
60 Off ch=12 n=60 v=64
751 Off ch=12 n=53 v=64
114 On ch=12 n=55 v=60
0 On ch=12 n=64 v=86
3 On ch=12 n=60 v=101
42 Off ch=12 n=58 v=64
28 Off ch=12 n=62 v=64
788 Off ch=12 n=55 v=64
90 On ch=12 n=62 v=89
5 On ch=12 n=55 v=48
2 On ch=12 n=58 v=87
45 Off ch=12 n=64 v=64
15 Off ch=12 n=60 v=64
846 Off ch=12 n=58 v=64
20 On ch=12 n=65 v=84
7 On ch=12 n=60 v=101
18 On ch=12 n=57 v=108
30 Off ch=12 n=62 v=64
2 Off ch=12 n=55 v=64
933 On ch=12 n=62 v=86
5 On ch=12 n=58 v=81
27 Off ch=12 n=57 v=64
25 Off ch=12 n=60 v=64
787 Off ch=12 n=58 v=64
72 On ch=12 n=55 v=33
20 On ch=12 n=64 v=98
12 On ch=12 n=60 v=102
47 Off ch=12 n=62 v=64
3 Off ch=12 n=65 v=64
811 Off ch=12 n=55 v=64
119 On ch=12 n=63 v=89
10 On ch=12 n=56 v=47
35 Off ch=12 n=64 v=64
1891 On ch=12 n=65 v=81
5 On ch=12 n=55 v=80
20 Off ch=12 n=56 v=64
35 Off ch=12 n=63 v=64
915 On ch=12 n=64 v=60
40 Off ch=12 n=65 v=64
781 Off ch=12 n=55 v=64
75 On ch=12 n=57 v=57
32 On ch=12 n=65 v=89
20 Off ch=12 n=64 v=64
167 Off ch=12 n=57 v=64
5 Off ch=12 n=60 v=64
27 Off ch=12 n=65 v=64
7447 On ch=12 n=60 v=102
0 On ch=12 n=57 v=60
2 On ch=12 n=65 v=101
1926 On ch=12 n=62 v=86
5 On ch=12 n=58 v=86
35 Off ch=12 n=60 v=64
10 Off ch=12 n=57 v=64
920 On ch=12 n=57 v=80
25 Off ch=12 n=58 v=64
605 Off ch=12 n=57 v=64
82 On ch=12 n=60 v=60
5 On ch=12 n=64 v=87
17 On ch=12 n=55 v=54
60 Off ch=12 n=62 v=64
7 Off ch=12 n=65 v=64
2914 Off ch=12 n=55 v=64
129 On ch=12 n=57 v=65
5 On ch=12 n=65 v=89
50 Off ch=12 n=64 v=64
1762 Off ch=12 n=65 v=64
82 On ch=12 n=62 v=87
7 On ch=12 n=65 v=93
8 On ch=12 n=58 v=104
24 Off ch=12 n=57 v=64
30 Off ch=12 n=60 v=64
923 Off ch=12 n=58 v=64
8 On ch=12 n=57 v=71
764 On ch=12 n=67 v=95
44 Off ch=12 n=65 v=64
107 Off ch=12 n=62 v=64
43 On ch=12 n=64 v=71
42 On ch=12 n=60 v=71
114 Off ch=12 n=57 v=64
2710 On ch=12 n=58 v=68
10 On ch=12 n=62 v=98
7 Off ch=12 n=60 v=64
53 Off ch=12 n=64 v=64
868 On ch=12 n=69 v=65
17 On ch=12 n=65 v=101
3 On ch=12 n=60 v=53
5 Off ch=12 n=58 v=64
27 Off ch=12 n=62 v=64
20 Off ch=12 n=67 v=64
784 Off ch=12 n=60 v=64
104 On ch=12 n=62 v=98
3 On ch=12 n=58 v=65
92 Off ch=12 n=69 v=64
709 Off ch=12 n=62 v=64
77 Off ch=12 n=58 v=64
90 On ch=12 n=67 v=71
5 On ch=12 n=64 v=87
2 On ch=12 n=60 v=59
60 Off ch=12 n=65 v=64
776 Off ch=12 n=64 v=64
12 Off ch=12 n=60 v=64
90 On ch=12 n=62 v=107
12 On ch=12 n=58 v=89
856 Off ch=12 n=58 v=64
48 On ch=12 n=69 v=62
49 On ch=12 n=65 v=87
5 On ch=12 n=60 v=89
30 Off ch=12 n=67 v=64
10 Off ch=12 n=62 v=64
831 Off ch=12 n=65 v=64
65 On ch=12 n=65 v=84
10 On ch=12 n=58 v=71
2 On ch=12 n=62 v=102
25 Off ch=12 n=60 v=64
45 Off ch=12 n=69 v=64
906 On ch=12 n=67 v=89
2 On ch=12 n=64 v=101
3 Off ch=12 n=58 v=64
2 On ch=12 n=60 v=39
35 Off ch=12 n=62 v=64
7 Off ch=12 n=65 v=64
831 Off ch=12 n=64 v=64
105 On ch=12 n=68 v=87
5 On ch=12 n=63 v=102
72 Off ch=12 n=67 v=64
1796 On ch=12 n=67 v=71
15 On ch=12 n=65 v=98
15 Off ch=12 n=68 v=64
32 Off ch=12 n=63 v=64
1879 On ch=12 n=64 v=89
47 Off ch=12 n=65 v=64
1836 On ch=12 n=65 v=86
8 On ch=12 n=57 v=29
12 Off ch=12 n=67 v=64
38 Off ch=12 n=64 v=64
3827 On ch=12 n=65 v=99
0 On ch=12 n=61 v=84
2 On ch=12 n=56 v=71
905 Off ch=12 n=60 v=64
18 Off ch=12 n=57 v=64
10 Off ch=12 n=65 v=64
2775 Off ch=12 n=56 v=64
113 On ch=12 n=63 v=78
18 On ch=12 n=58 v=62
36 Off ch=12 n=61 v=64
3782 Off ch=12 n=58 v=64
0 On ch=12 n=53 v=27
5 On ch=12 n=60 v=72
21 On ch=12 n=57 v=60
57 Off ch=12 n=63 v=64
3660 Off ch=12 n=53 v=64
21 Off ch=12 n=65 v=64
8 Off ch=12 n=57 v=64
31 Off ch=12 n=60 v=64
33 On ch=12 n=60 v=80
0 On ch=12 n=57 v=75
10 On ch=12 n=65 v=95
3 On ch=12 n=55 v=69
3725 Off ch=12 n=57 v=64
13 Off ch=12 n=60 v=64
3 Off ch=12 n=55 v=64
105 On ch=12 n=63 v=75
13 On ch=12 n=53 v=84
8 On ch=12 n=61 v=71
8 On ch=12 n=56 v=72
3740 Off ch=12 n=56 v=64
3 Off ch=12 n=53 v=64
93 On ch=12 n=58 v=86
5 On ch=12 n=55 v=78
8 Off ch=12 n=61 v=64
3400 Par ch=12 c=64 v=127
224 Off ch=12 n=65 v=64
13 Off ch=12 n=55 v=64
44 Off ch=12 n=58 v=64
3 Off ch=12 n=63 v=64
144 On ch=12 n=65 v=77
3 On ch=12 n=60 v=92
10 On ch=12 n=57 v=84
67 Par ch=12 c=64 v=0
804 Par ch=12 c=64 v=127
477 Off ch=12 n=60 v=64
34 Off ch=12 n=57 v=64
2 Off ch=12 n=65 v=64
446 On ch=12 n=66 v=57
13 On ch=12 n=58 v=72
3 On ch=12 n=61 v=86
72 Par ch=12 c=64 v=0
938 Par ch=12 c=64 v=127
516 Off ch=12 n=66 v=64
5 Off ch=12 n=61 v=64
5 Off ch=12 n=58 v=64
405 On ch=12 n=67 v=87
5 On ch=12 n=59 v=80
0 On ch=12 n=62 v=75
72 Par ch=12 c=64 v=0
841 Par ch=12 c=64 v=127
492 Off ch=12 n=62 v=64
5 Off ch=12 n=59 v=64
11 Off ch=12 n=67 v=64
518 On ch=12 n=68 v=84
2 On ch=12 n=63 v=84
0 On ch=12 n=60 v=80
83 Par ch=12 c=64 v=0
851 Par ch=12 c=64 v=127
451 Off ch=12 n=68 v=64
20 Off ch=12 n=60 v=64
29 Off ch=12 n=63 v=64
474 On ch=12 n=69 v=86
0 On ch=12 n=64 v=93
3 On ch=12 n=61 v=75
74 Par ch=12 c=64 v=0
836 Par ch=12 c=64 v=127
484 Off ch=12 n=64 v=64
24 Off ch=12 n=69 v=64
69 Off ch=12 n=61 v=64
431 On ch=12 n=70 v=86
0 On ch=12 n=65 v=92
2 On ch=12 n=62 v=92
31 Par ch=12 c=64 v=0
970 Par ch=12 c=64 v=127
433 Off ch=12 n=65 v=64
2 Off ch=12 n=70 v=64
31 Off ch=12 n=62 v=64
459 On ch=12 n=66 v=87
0 On ch=12 n=63 v=80
5 On ch=12 n=71 v=92
57 Par ch=12 c=64 v=0
915 Par ch=12 c=64 v=127
495 Off ch=12 n=71 v=64
62 Off ch=12 n=63 v=64
5 Off ch=12 n=66 v=64
353 On ch=12 n=60 v=92
3 On ch=12 n=72 v=95
0 On ch=12 n=65 v=93
29 Par ch=12 c=64 v=0
1402 Off ch=12 n=60 v=64
25 Off ch=12 n=65 v=64
3 Off ch=12 n=72 v=64
7195 Par ch=12 c=7 v=72
3 On ch=12 n=65 v=104
2 On ch=12 n=60 v=89
8 On ch=12 n=57 v=72
1930 On ch=12 n=62 v=54
5 On ch=12 n=58 v=72
53 Off ch=12 n=60 v=64
7 Off ch=12 n=57 v=64
898 On ch=12 n=57 v=56
23 Off ch=12 n=58 v=64
584 Off ch=12 n=57 v=64
72 On ch=12 n=60 v=57
18 On ch=12 n=64 v=84
7 On ch=12 n=55 v=41
50 Off ch=12 n=62 v=64
10 Off ch=12 n=65 v=64
2918 Off ch=12 n=55 v=64
125 On ch=12 n=57 v=86
44 On ch=12 n=65 v=89
3 Off ch=12 n=64 v=64
1893 On ch=12 n=62 v=98
8 On ch=12 n=58 v=98
5 Off ch=12 n=57 v=64
5 Off ch=12 n=60 v=64
845 Off ch=12 n=65 v=64
102 Off ch=12 n=58 v=64
5 On ch=12 n=65 v=96
0 On ch=12 n=57 v=81
657 Off ch=12 n=57 v=64
95 On ch=12 n=60 v=86
0 On ch=12 n=64 v=96
12 On ch=12 n=55 v=41
48 Off ch=12 n=62 v=64
5 Off ch=12 n=65 v=64
2948 Off ch=12 n=55 v=64
87 On ch=12 n=58 v=84
2 On ch=12 n=55 v=81
0 On ch=12 n=62 v=96
23 Off ch=12 n=60 v=64
2 Off ch=12 n=64 v=64
928 Off ch=12 n=58 v=64
40 On ch=12 n=60 v=96
3 On ch=12 n=57 v=89
37 Off ch=12 n=62 v=64
10 Off ch=12 n=55 v=64
789 Off ch=12 n=57 v=64
104 On ch=12 n=62 v=101
10 On ch=12 n=53 v=57
5 On ch=12 n=58 v=86
60 Off ch=12 n=60 v=64
751 Off ch=12 n=53 v=64
114 On ch=12 n=55 v=60
0 On ch=12 n=64 v=86
3 On ch=12 n=60 v=101
42 Off ch=12 n=58 v=64
28 Off ch=12 n=62 v=64
788 Off ch=12 n=55 v=64
90 On ch=12 n=62 v=89
5 On ch=12 n=55 v=48
2 On ch=12 n=58 v=87
45 Off ch=12 n=64 v=64
15 Off ch=12 n=60 v=64
846 Off ch=12 n=58 v=64
20 On ch=12 n=65 v=84
7 On ch=12 n=60 v=101
18 On ch=12 n=57 v=108
30 Off ch=12 n=62 v=64
2 Off ch=12 n=55 v=64
933 On ch=12 n=62 v=86
5 On ch=12 n=58 v=81
27 Off ch=12 n=57 v=64
25 Off ch=12 n=60 v=64
787 Off ch=12 n=58 v=64
72 On ch=12 n=55 v=33
20 On ch=12 n=64 v=98
12 On ch=12 n=60 v=102
47 Off ch=12 n=62 v=64
3 Off ch=12 n=65 v=64
811 Off ch=12 n=55 v=64
119 On ch=12 n=63 v=89
10 On ch=12 n=56 v=47
35 Off ch=12 n=64 v=64
1891 On ch=12 n=65 v=81
5 On ch=12 n=55 v=80
20 Off ch=12 n=56 v=64
35 Off ch=12 n=63 v=64
915 On ch=12 n=64 v=60
40 Off ch=12 n=65 v=64
781 Off ch=12 n=55 v=64
75 On ch=12 n=57 v=57
19 On ch=12 n=60 v=102
0 On ch=12 n=57 v=60
2 On ch=12 n=65 v=101
31 Off ch=12 n=64 v=64
167 Off ch=12 n=57 v=64
5 Off ch=12 n=60 v=64
1723 On ch=12 n=62 v=86
5 On ch=12 n=58 v=86
35 Off ch=12 n=60 v=64
10 Off ch=12 n=57 v=64
920 On ch=12 n=57 v=80
25 Off ch=12 n=58 v=64
605 Off ch=12 n=57 v=64
82 On ch=12 n=60 v=60
5 On ch=12 n=64 v=87
17 On ch=12 n=55 v=54
60 Off ch=12 n=62 v=64
7 Off ch=12 n=65 v=64
2914 Off ch=12 n=55 v=64
129 On ch=12 n=57 v=65
5 On ch=12 n=65 v=89
50 Off ch=12 n=64 v=64
1762 Off ch=12 n=65 v=64
82 On ch=12 n=62 v=87
7 On ch=12 n=65 v=93
8 On ch=12 n=58 v=104
24 Off ch=12 n=57 v=64
30 Off ch=12 n=60 v=64
923 Off ch=12 n=58 v=64
8 On ch=12 n=57 v=71
764 On ch=12 n=67 v=95
44 Off ch=12 n=65 v=64
107 Off ch=12 n=62 v=64
43 On ch=12 n=64 v=71
42 On ch=12 n=60 v=71
114 Off ch=12 n=57 v=64
2680 On ch=12 n=58 v=68
10 On ch=12 n=62 v=98
37 Off ch=12 n=60 v=64
53 Off ch=12 n=64 v=64
838 On ch=12 n=69 v=65
17 On ch=12 n=65 v=101
3 On ch=12 n=60 v=53
5 Off ch=12 n=58 v=64
27 Off ch=12 n=62 v=64
50 Off ch=12 n=67 v=64
754 Off ch=12 n=60 v=64
104 On ch=12 n=62 v=98
3 On ch=12 n=58 v=65
92 Off ch=12 n=69 v=64
709 Off ch=12 n=62 v=64
77 Off ch=12 n=58 v=64
90 On ch=12 n=67 v=71
5 On ch=12 n=64 v=87
2 On ch=12 n=60 v=59
60 Off ch=12 n=65 v=64
776 Off ch=12 n=64 v=64
12 Off ch=12 n=60 v=64
90 On ch=12 n=62 v=107
12 On ch=12 n=58 v=89
856 Off ch=12 n=58 v=64
48 On ch=12 n=69 v=62
49 On ch=12 n=65 v=87
5 On ch=12 n=60 v=89
30 Off ch=12 n=67 v=64
10 Off ch=12 n=62 v=64
831 Off ch=12 n=65 v=64
65 On ch=12 n=65 v=84
10 On ch=12 n=58 v=71
2 On ch=12 n=62 v=102
25 Off ch=12 n=60 v=64
45 Off ch=12 n=69 v=64
906 On ch=12 n=67 v=89
2 On ch=12 n=64 v=101
3 Off ch=12 n=58 v=64
2 On ch=12 n=60 v=39
35 Off ch=12 n=62 v=64
7 Off ch=12 n=65 v=64
831 Off ch=12 n=64 v=64
105 On ch=12 n=68 v=87
5 On ch=12 n=63 v=102
72 Off ch=12 n=67 v=64
1796 On ch=12 n=67 v=71
15 On ch=12 n=65 v=98
15 Off ch=12 n=68 v=64
32 Off ch=12 n=63 v=64
1879 On ch=12 n=64 v=89
47 Off ch=12 n=65 v=64
1856 Off ch=12 n=67 v=64
3 On ch=12 n=41 v=114
23 On ch=12 n=65 v=123
0 On ch=12 n=57 v=126
12 Off ch=12 n=64 v=64
287 Off ch=12 n=41 v=64
3 Off ch=12 n=57 v=64
13 Off ch=12 n=65 v=64
111 Off ch=12 n=60 v=64
0 Meta TrkEnd
TrkEnd
MTrk
TimestampType=Delta
0 Meta Text "STRING PIANO DOUBLE"
32403 On ch=12 n=67 v=111
274 On ch=12 n=69 v=102
27 Off ch=12 n=67 v=64
224 On ch=12 n=70 v=96
37 Off ch=12 n=69 v=64
339 On ch=12 n=74 v=101
34 Off ch=12 n=70 v=64
257 On ch=12 n=72 v=126
24 Off ch=12 n=74 v=64
274 Off ch=12 n=72 v=64
40 On ch=12 n=65 v=114
336 On ch=12 n=67 v=111
5 Off ch=12 n=65 v=64
261 On ch=12 n=69 v=96
42 Off ch=12 n=67 v=64
232 Off ch=12 n=69 v=64
32 On ch=12 n=69 v=96
445 On ch=12 n=72 v=101
40 Off ch=12 n=69 v=64
219 On ch=12 n=67 v=105
38 Off ch=12 n=72 v=64
709 On ch=12 n=74 v=111
32 Off ch=12 n=67 v=64
201 On ch=12 n=76 v=105
35 Off ch=12 n=74 v=64
202 On ch=12 n=77 v=111
25 Off ch=12 n=76 v=64
378 On ch=12 n=76 v=96
47 Off ch=12 n=77 v=64
219 On ch=12 n=74 v=101
37 Off ch=12 n=76 v=64
239 On ch=12 n=72 v=105
35 Off ch=12 n=74 v=64
333 On ch=12 n=70 v=126
43 Off ch=12 n=72 v=64
256 On ch=12 n=69 v=105
27 Off ch=12 n=70 v=64
224 Off ch=12 n=69 v=64
43 On ch=12 n=69 v=101
457 On ch=12 n=72 v=96
18 Off ch=12 n=69 v=64
249 On ch=12 n=67 v=102
5 Off ch=12 n=72 v=64
746 On ch=12 n=72 v=104
37 Off ch=12 n=67 v=64
184 On ch=12 n=74 v=105
33 Off ch=12 n=72 v=64
216 On ch=12 n=75 v=101
23 Off ch=12 n=74 v=64
348 On ch=12 n=74 v=114
57 Off ch=12 n=75 v=64
199 On ch=12 n=72 v=114
55 Off ch=12 n=74 v=64
251 Off ch=12 n=72 v=64
55 On ch=12 n=72 v=105
328 On ch=12 n=70 v=105
35 Off ch=12 n=72 v=64
279 On ch=12 n=68 v=105
45 Off ch=12 n=70 v=64
246 On ch=12 n=72 v=120
20 Off ch=12 n=68 v=64
1717 On ch=12 n=74 v=102
72 Off ch=12 n=72 v=64
17 On ch=12 n=76 v=96
30 Off ch=12 n=74 v=64
32 On ch=12 n=77 v=111
48 Off ch=12 n=76 v=64
156 Off ch=12 n=77 v=64
20449 On ch=12 n=79 v=96
267 On ch=12 n=81 v=111
27 Off ch=12 n=79 v=64
211 On ch=12 n=82 v=104
28 Off ch=12 n=81 v=64
363 On ch=12 n=86 v=101
30 Off ch=12 n=82 v=64
266 On ch=12 n=84 v=84
22 Off ch=12 n=86 v=64
234 Off ch=12 n=84 v=64
40 On ch=12 n=77 v=93
319 On ch=12 n=79 v=93
17 Off ch=12 n=77 v=64
281 On ch=12 n=81 v=93
13 Off ch=12 n=79 v=64
273 Off ch=12 n=81 v=64
43 On ch=12 n=81 v=101
430 On ch=12 n=84 v=84
15 Off ch=12 n=81 v=64
249 On ch=12 n=79 v=83
15 Off ch=12 n=84 v=64
699 On ch=12 n=86 v=105
47 Off ch=12 n=79 v=64
192 On ch=12 n=88 v=105
39 Off ch=12 n=86 v=64
207 On ch=12 n=89 v=96
40 Off ch=12 n=88 v=64
341 On ch=12 n=88 v=101
62 Off ch=12 n=89 v=64
209 On ch=12 n=86 v=87
50 Off ch=12 n=88 v=64
231 On ch=12 n=84 v=111
35 Off ch=12 n=86 v=64
370 On ch=12 n=82 v=111
45 Off ch=12 n=84 v=64
229 On ch=12 n=81 v=105
37 Off ch=12 n=82 v=64
247 Off ch=12 n=81 v=64
50 On ch=12 n=81 v=104
427 On ch=12 n=84 v=96
25 Off ch=12 n=81 v=64
232 On ch=12 n=79 v=96
2 Off ch=12 n=84 v=64
727 On ch=12 n=84 v=102
17 Off ch=12 n=79 v=64
229 On ch=12 n=86 v=105
35 Off ch=12 n=84 v=64
206 On ch=12 n=87 v=110
18 Off ch=12 n=86 v=64
361 On ch=12 n=86 v=101
44 Off ch=12 n=87 v=64
229 On ch=12 n=84 v=117
45 Off ch=12 n=86 v=64
239 Off ch=12 n=84 v=64
45 On ch=12 n=84 v=102
341 On ch=12 n=82 v=102
49 Off ch=12 n=84 v=64
276 On ch=12 n=80 v=96
28 Off ch=12 n=82 v=64
229 On ch=12 n=84 v=96
12 Off ch=12 n=80 v=64
3864 Off ch=12 n=84 v=64
61912 On ch=12 n=67 v=111
274 On ch=12 n=69 v=102
27 Off ch=12 n=67 v=64
124 On ch=12 n=70 v=96
137 Off ch=12 n=69 v=64
239 On ch=12 n=74 v=101
34 Off ch=12 n=70 v=64
257 On ch=12 n=72 v=126
24 Off ch=12 n=74 v=64
274 Off ch=12 n=72 v=64
40 On ch=12 n=65 v=114
336 On ch=12 n=67 v=111
5 Off ch=12 n=65 v=64
261 On ch=12 n=69 v=96
42 Off ch=12 n=67 v=64
232 Off ch=12 n=69 v=64
32 On ch=12 n=69 v=96
445 On ch=12 n=72 v=101
40 Off ch=12 n=69 v=64
219 On ch=12 n=67 v=105
38 Off ch=12 n=72 v=64
709 On ch=12 n=74 v=111
32 Off ch=12 n=67 v=64
201 On ch=12 n=76 v=105
35 Off ch=12 n=74 v=64
202 On ch=12 n=77 v=111
25 Off ch=12 n=76 v=64
378 On ch=12 n=76 v=96
47 Off ch=12 n=77 v=64
219 On ch=12 n=74 v=101
37 Off ch=12 n=76 v=64
239 On ch=12 n=72 v=105
35 Off ch=12 n=74 v=64
333 On ch=12 n=70 v=126
43 Off ch=12 n=72 v=64
256 On ch=12 n=69 v=105
27 Off ch=12 n=70 v=64
224 Off ch=12 n=69 v=64
43 On ch=12 n=69 v=101
457 On ch=12 n=72 v=96
18 Off ch=12 n=69 v=64
249 On ch=12 n=67 v=102
5 Off ch=12 n=72 v=64
746 On ch=12 n=72 v=104
37 Off ch=12 n=67 v=64
184 On ch=12 n=74 v=105
33 Off ch=12 n=72 v=64
216 On ch=12 n=75 v=101
23 Off ch=12 n=74 v=64
348 On ch=12 n=74 v=114
57 Off ch=12 n=75 v=64
199 On ch=12 n=72 v=114
55 Off ch=12 n=74 v=64
251 Off ch=12 n=72 v=64
55 On ch=12 n=72 v=105
328 On ch=12 n=70 v=105
35 Off ch=12 n=72 v=64
279 On ch=12 n=68 v=105
45 Off ch=12 n=70 v=64
246 On ch=12 n=72 v=120
20 Off ch=12 n=68 v=64
1789 Off ch=12 n=72 v=64
13033 On ch=12 n=79 v=96
294 Off ch=12 n=79 v=64
68 On ch=12 n=81 v=111
238 On ch=12 n=82 v=104
28 Off ch=12 n=81 v=64
363 On ch=12 n=86 v=101
30 Off ch=12 n=82 v=64
266 On ch=12 n=84 v=84
22 Off ch=12 n=86 v=64
234 Off ch=12 n=84 v=64
40 On ch=12 n=77 v=93
319 On ch=12 n=79 v=93
17 Off ch=12 n=77 v=64
281 On ch=12 n=81 v=93
13 Off ch=12 n=79 v=64
273 Off ch=12 n=81 v=64
43 On ch=12 n=81 v=101
430 On ch=12 n=84 v=84
15 Off ch=12 n=81 v=64
249 On ch=12 n=79 v=83
15 Off ch=12 n=84 v=64
699 On ch=12 n=86 v=105
47 Off ch=12 n=79 v=64
192 On ch=12 n=88 v=105
39 Off ch=12 n=86 v=64
207 On ch=12 n=89 v=96
40 Off ch=12 n=88 v=64
341 On ch=12 n=88 v=101
62 Off ch=12 n=89 v=64
209 On ch=12 n=86 v=87
50 Off ch=12 n=88 v=64
231 On ch=12 n=84 v=111
35 Off ch=12 n=86 v=64
370 On ch=12 n=82 v=111
45 Off ch=12 n=84 v=64
229 On ch=12 n=81 v=105
37 Off ch=12 n=82 v=64
247 Off ch=12 n=81 v=64
50 On ch=12 n=81 v=104
427 On ch=12 n=84 v=96
25 Off ch=12 n=81 v=64
232 On ch=12 n=79 v=96
2 Off ch=12 n=84 v=64
727 On ch=12 n=84 v=102
17 Off ch=12 n=79 v=64
229 On ch=12 n=86 v=105
35 Off ch=12 n=84 v=64
206 On ch=12 n=87 v=110
18 Off ch=12 n=86 v=64
361 On ch=12 n=86 v=101
44 Off ch=12 n=87 v=64
229 On ch=12 n=84 v=117
45 Off ch=12 n=86 v=64
239 Off ch=12 n=84 v=64
45 On ch=12 n=84 v=102
341 On ch=12 n=82 v=102
49 Off ch=12 n=84 v=64
276 On ch=12 n=80 v=96
28 Off ch=12 n=82 v=64
229 On ch=12 n=84 v=96
12 Off ch=12 n=80 v=64
3864 Off ch=12 n=84 v=64
0 Meta TrkEnd
TrkEnd
MTrk
TimestampType=Delta
0 Meta Text "DRUM PATCH AND CTRLS."
0 Par ch=10 c=91 v=75
0 PrCh ch=10 p=16
0 Par ch=10 c=7 v=100
0 Par ch=10 c=10 v=64
0 Par ch=10 c=93 v=0
0 Par ch=10 c=64 v=0
0 Pb ch=10 v=8192
126100 Par ch=10 c=91 v=80
1915 Par ch=10 c=91 v=40
0 Meta TrkEnd
TrkEnd
MTrk
TimestampType=Delta
0 Meta Text "KICK"
19540 On ch=10 n=36 v=105
315 Off ch=10 n=36 v=64
649 On ch=10 n=36 v=105
273 Off ch=10 n=36 v=64
691 On ch=10 n=36 v=105
244 Off ch=10 n=36 v=64
715 On ch=10 n=36 v=105
241 Off ch=10 n=36 v=64
716 On ch=10 n=36 v=105
214 Off ch=10 n=36 v=64
745 On ch=10 n=36 v=105
196 Off ch=10 n=36 v=64
762 On ch=10 n=36 v=105
191 Off ch=10 n=36 v=64
767 On ch=10 n=36 v=105
210 Off ch=10 n=36 v=64
750 On ch=10 n=36 v=105
228 Off ch=10 n=36 v=64
732 On ch=10 n=36 v=105
208 Off ch=10 n=36 v=64
755 On ch=10 n=36 v=105
215 Off ch=10 n=36 v=64
506 On ch=10 n=36 v=105
161 Off ch=10 n=36 v=64
80 On ch=10 n=36 v=105
246 Off ch=10 n=36 v=64
713 On ch=10 n=36 v=105
216 Off ch=10 n=36 v=64
746 On ch=10 n=36 v=105
203 Off ch=10 n=36 v=64
754 On ch=10 n=36 v=105
213 Off ch=10 n=36 v=64
745 On ch=10 n=36 v=105
204 Off ch=10 n=36 v=64
757 On ch=10 n=36 v=105
203 Off ch=10 n=36 v=64
518 On ch=10 n=36 v=105
216 Off ch=10 n=36 v=64
261 On ch=10 n=36 v=105
201 Off ch=10 n=36 v=64
518 On ch=10 n=36 v=105
251 Off ch=10 n=36 v=64
711 On ch=10 n=36 v=105
218 Off ch=10 n=36 v=64
744 On ch=10 n=36 v=105
196 Off ch=10 n=36 v=64
524 On ch=10 n=36 v=105
213 Off ch=10 n=36 v=64
987 On ch=10 n=36 v=105
233 Off ch=10 n=36 v=64
729 On ch=10 n=36 v=105
228 Off ch=10 n=36 v=64
731 On ch=10 n=36 v=105
208 Off ch=10 n=36 v=64
753 On ch=10 n=36 v=105
206 Off ch=10 n=36 v=64
751 On ch=10 n=36 v=105
208 Off ch=10 n=36 v=64
6032 On ch=10 n=36 v=105
243 Off ch=10 n=36 v=64
236 On ch=10 n=36 v=105
233 Off ch=10 n=36 v=64
246 On ch=10 n=36 v=105
211 Off ch=10 n=36 v=64
268 On ch=10 n=36 v=105
292 Off ch=10 n=36 v=64
670 On ch=10 n=36 v=105
251 Off ch=10 n=36 v=64
711 On ch=10 n=36 v=105
243 Off ch=10 n=36 v=64
719 On ch=10 n=36 v=105
248 Off ch=10 n=36 v=64
710 On ch=10 n=36 v=105
238 Off ch=10 n=36 v=64
723 On ch=10 n=36 v=105
229 Off ch=10 n=36 v=64
729 On ch=10 n=36 v=105
226 Off ch=10 n=36 v=64
734 On ch=10 n=36 v=105
223 Off ch=10 n=36 v=64
737 On ch=10 n=36 v=105
221 Off ch=10 n=36 v=64
737 On ch=10 n=36 v=105
226 Off ch=10 n=36 v=64
734 On ch=10 n=36 v=105
231 Off ch=10 n=36 v=64
728 On ch=10 n=36 v=105
224 Off ch=10 n=36 v=64
738 On ch=10 n=36 v=105
218 Off ch=10 n=36 v=64
742 On ch=10 n=36 v=105
206 Off ch=10 n=36 v=64
754 On ch=10 n=36 v=105
205 Off ch=10 n=36 v=64
753 On ch=10 n=36 v=105
206 Off ch=10 n=36 v=64
755 On ch=10 n=36 v=105
221 Off ch=10 n=36 v=64
738 On ch=10 n=36 v=105
211 Off ch=10 n=36 v=64
747 On ch=10 n=36 v=105
226 Off ch=10 n=36 v=64
735 On ch=10 n=36 v=105
215 Off ch=10 n=36 v=64
743 On ch=10 n=36 v=105
218 Off ch=10 n=36 v=64
742 On ch=10 n=36 v=105
211 Off ch=10 n=36 v=64
749 On ch=10 n=36 v=105
218 Off ch=10 n=36 v=64
743 On ch=10 n=36 v=105
215 Off ch=10 n=36 v=64
748 On ch=10 n=36 v=105
218 Off ch=10 n=36 v=64
744 On ch=10 n=36 v=105
201 Off ch=10 n=36 v=64
758 On ch=10 n=36 v=105
213 Off ch=10 n=36 v=64
746 On ch=10 n=36 v=105
216 Off ch=10 n=36 v=64
741 On ch=10 n=36 v=105
255 Off ch=10 n=36 v=64
47044 On ch=10 n=36 v=105
230 Off ch=10 n=36 v=64
260 On ch=10 n=36 v=105
103 Off ch=10 n=36 v=64
127 On ch=10 n=36 v=105
131 Off ch=10 n=36 v=64
110 On ch=10 n=36 v=105
58 Off ch=10 n=36 v=64
44 On ch=10 n=36 v=105
95 Off ch=10 n=36 v=64
507 On ch=10 n=36 v=105
315 Off ch=10 n=36 v=64
646 On ch=10 n=36 v=105
273 Off ch=10 n=36 v=64
687 On ch=10 n=36 v=105
244 Off ch=10 n=36 v=64
716 On ch=10 n=36 v=105
241 Off ch=10 n=36 v=64
719 On ch=10 n=36 v=105
214 Off ch=10 n=36 v=64
745 On ch=10 n=36 v=105
196 Off ch=10 n=36 v=64
764 On ch=10 n=36 v=105
191 Off ch=10 n=36 v=64
773 On ch=10 n=36 v=105
210 Off ch=10 n=36 v=64
750 On ch=10 n=36 v=105
228 Off ch=10 n=36 v=64
732 On ch=10 n=36 v=105
208 Off ch=10 n=36 v=64
752 On ch=10 n=36 v=105
215 Off ch=10 n=36 v=64
506 On ch=10 n=36 v=105
161 Off ch=10 n=36 v=64
79 On ch=10 n=36 v=105
246 Off ch=10 n=36 v=64
714 On ch=10 n=36 v=105
216 Off ch=10 n=36 v=64
744 On ch=10 n=36 v=105
203 Off ch=10 n=36 v=64
756 On ch=10 n=36 v=105
213 Off ch=10 n=36 v=64
747 On ch=10 n=36 v=105
204 Off ch=10 n=36 v=64
756 On ch=10 n=36 v=105
203 Off ch=10 n=36 v=64
517 On ch=10 n=36 v=105
216 Off ch=10 n=36 v=64
264 On ch=10 n=36 v=105
201 Off ch=10 n=36 v=64
519 On ch=10 n=36 v=105
251 Off ch=10 n=36 v=64
709 On ch=10 n=36 v=105
218 Off ch=10 n=36 v=64
742 On ch=10 n=36 v=105
196 Off ch=10 n=36 v=64
524 On ch=10 n=36 v=105
213 Off ch=10 n=36 v=64
987 On ch=10 n=36 v=105
233 Off ch=10 n=36 v=64
728 On ch=10 n=36 v=105
228 Off ch=10 n=36 v=64
732 On ch=10 n=36 v=105
208 Off ch=10 n=36 v=64
752 On ch=10 n=36 v=105
206 Off ch=10 n=36 v=64
753 On ch=10 n=36 v=105
292 Off ch=10 n=36 v=64
668 On ch=10 n=36 v=105
251 Off ch=10 n=36 v=64
710 On ch=10 n=36 v=105
243 Off ch=10 n=36 v=64
717 On ch=10 n=36 v=105
248 Off ch=10 n=36 v=64
712 On ch=10 n=36 v=105
238 Off ch=10 n=36 v=64
722 On ch=10 n=36 v=105
229 Off ch=10 n=36 v=64
730 On ch=10 n=36 v=105
226 Off ch=10 n=36 v=64
734 On ch=10 n=36 v=105
223 Off ch=10 n=36 v=64
737 On ch=10 n=36 v=105
221 Off ch=10 n=36 v=64
739 On ch=10 n=36 v=105
226 Off ch=10 n=36 v=64
734 On ch=10 n=36 v=105
231 Off ch=10 n=36 v=64
729 On ch=10 n=36 v=105
224 Off ch=10 n=36 v=64
736 On ch=10 n=36 v=105
218 Off ch=10 n=36 v=64
742 On ch=10 n=36 v=105
206 Off ch=10 n=36 v=64
751 On ch=10 n=36 v=105
205 Off ch=10 n=36 v=64
755 On ch=10 n=36 v=105
206 Off ch=10 n=36 v=64
754 On ch=10 n=36 v=105
221 Off ch=10 n=36 v=64
739 On ch=10 n=36 v=105
211 Off ch=10 n=36 v=64
749 On ch=10 n=36 v=105
226 Off ch=10 n=36 v=64
734 On ch=10 n=36 v=105
215 Off ch=10 n=36 v=64
745 On ch=10 n=36 v=105
218 Off ch=10 n=36 v=64
742 On ch=10 n=36 v=105
211 Off ch=10 n=36 v=64
749 On ch=10 n=36 v=105
218 Off ch=10 n=36 v=64
742 On ch=10 n=36 v=105
215 Off ch=10 n=36 v=64
745 On ch=10 n=36 v=105
218 Off ch=10 n=36 v=64
742 On ch=10 n=36 v=105
201 Off ch=10 n=36 v=64
759 On ch=10 n=36 v=105
213 Off ch=10 n=36 v=64
747 On ch=10 n=36 v=105
216 Off ch=10 n=36 v=64
744 On ch=10 n=36 v=105
248 Off ch=10 n=36 v=64
0 Meta TrkEnd
TrkEnd
MTrk
TimestampType=Delta
0 Meta Text "SNARE"
20020 On ch=10 n=38 v=115
198 Off ch=10 n=38 v=64
762 On ch=10 n=38 v=115
198 Off ch=10 n=38 v=64
762 On ch=10 n=38 v=115
179 Off ch=10 n=38 v=64
781 On ch=10 n=38 v=115
176 Off ch=10 n=38 v=64
784 On ch=10 n=38 v=115
141 Off ch=10 n=38 v=64
819 On ch=10 n=38 v=115
151 Off ch=10 n=38 v=64
809 On ch=10 n=38 v=115
157 Off ch=10 n=38 v=64
803 On ch=10 n=38 v=115
149 Off ch=10 n=38 v=64
811 On ch=10 n=38 v=115
166 Off ch=10 n=38 v=64
794 On ch=10 n=38 v=115
161 Off ch=10 n=38 v=64
799 On ch=10 n=38 v=115
117 Off ch=10 n=38 v=64
843 On ch=10 n=38 v=115
167 Off ch=10 n=38 v=64
793 On ch=10 n=38 v=115
158 Off ch=10 n=38 v=64
802 On ch=10 n=38 v=115
162 Off ch=10 n=38 v=64
798 On ch=10 n=38 v=115
162 Off ch=10 n=38 v=64
798 On ch=10 n=38 v=115
149 Off ch=10 n=38 v=64
811 On ch=10 n=38 v=115
119 Off ch=10 n=38 v=64
841 On ch=10 n=38 v=115
176 Off ch=10 n=38 v=64
784 On ch=10 n=38 v=115
139 Off ch=10 n=38 v=64
821 On ch=10 n=38 v=115
143 Off ch=10 n=38 v=64
817 On ch=10 n=38 v=115
129 Off ch=10 n=38 v=64
831 On ch=10 n=38 v=115
174 Off ch=10 n=38 v=64
786 On ch=10 n=38 v=115
168 Off ch=10 n=38 v=64
792 On ch=10 n=38 v=115
166 Off ch=10 n=38 v=64
794 On ch=10 n=38 v=115
184 Off ch=10 n=38 v=64
776 On ch=10 n=38 v=115
156 Off ch=10 n=38 v=64
8484 On ch=10 n=38 v=115
176 Off ch=10 n=38 v=64
784 On ch=10 n=38 v=115
166 Off ch=10 n=38 v=64
794 On ch=10 n=38 v=115
169 Off ch=10 n=38 v=64
791 On ch=10 n=38 v=115
181 Off ch=10 n=38 v=64
779 On ch=10 n=38 v=115
176 Off ch=10 n=38 v=64
784 On ch=10 n=38 v=115
176 Off ch=10 n=38 v=64
784 On ch=10 n=38 v=115
189 Off ch=10 n=38 v=64
771 On ch=10 n=38 v=115
186 Off ch=10 n=38 v=64
774 On ch=10 n=38 v=115
176 Off ch=10 n=38 v=64
784 On ch=10 n=38 v=115
184 Off ch=10 n=38 v=64
776 On ch=10 n=38 v=115
176 Off ch=10 n=38 v=64
784 On ch=10 n=38 v=115
171 Off ch=10 n=38 v=64
789 On ch=10 n=38 v=115
151 Off ch=10 n=38 v=64
809 On ch=10 n=38 v=115
146 Off ch=10 n=38 v=64
814 On ch=10 n=38 v=115
157 Off ch=10 n=38 v=64
803 On ch=10 n=38 v=115
171 Off ch=10 n=38 v=64
789 On ch=10 n=38 v=115
161 Off ch=10 n=38 v=64
799 On ch=10 n=38 v=115
176 Off ch=10 n=38 v=64
784 On ch=10 n=38 v=115
172 Off ch=10 n=38 v=64
788 On ch=10 n=38 v=115
173 Off ch=10 n=38 v=64
787 On ch=10 n=38 v=115
156 Off ch=10 n=38 v=64
804 On ch=10 n=38 v=115
159 Off ch=10 n=38 v=64
801 On ch=10 n=38 v=115
166 Off ch=10 n=38 v=64
794 On ch=10 n=38 v=115
163 Off ch=10 n=38 v=64
797 On ch=10 n=38 v=115
159 Off ch=10 n=38 v=64
801 On ch=10 n=38 v=115
171 Off ch=10 n=38 v=64
789 On ch=10 n=38 v=115
169 Off ch=10 n=38 v=64
791 On ch=10 n=38 v=115
126 Off ch=10 n=38 v=64
114 On ch=10 n=38 v=115
0 On ch=10 n=38 v=115
54 Off ch=10 n=38 v=64
21 Off ch=10 n=38 v=64
48645 On ch=10 n=38 v=127
205 Off ch=10 n=38 v=64
755 On ch=10 n=38 v=115
198 Off ch=10 n=38 v=64
762 On ch=10 n=38 v=115
198 Off ch=10 n=38 v=64
762 On ch=10 n=38 v=115
179 Off ch=10 n=38 v=64
781 On ch=10 n=38 v=115
176 Off ch=10 n=38 v=64
784 On ch=10 n=38 v=115
141 Off ch=10 n=38 v=64
819 On ch=10 n=38 v=115
151 Off ch=10 n=38 v=64
809 On ch=10 n=38 v=115
157 Off ch=10 n=38 v=64
804 On ch=10 n=38 v=115
149 Off ch=10 n=38 v=64
811 On ch=10 n=38 v=115
166 Off ch=10 n=38 v=64
794 On ch=10 n=38 v=115
161 Off ch=10 n=38 v=64
799 On ch=10 n=38 v=115
117 Off ch=10 n=38 v=64
843 On ch=10 n=38 v=115
167 Off ch=10 n=38 v=64
793 On ch=10 n=38 v=115
158 Off ch=10 n=38 v=64
802 On ch=10 n=38 v=115
162 Off ch=10 n=38 v=64
798 On ch=10 n=38 v=115
162 Off ch=10 n=38 v=64
798 On ch=10 n=38 v=115
149 Off ch=10 n=38 v=64
811 On ch=10 n=38 v=115
119 Off ch=10 n=38 v=64
841 On ch=10 n=38 v=115
176 Off ch=10 n=38 v=64
784 On ch=10 n=38 v=115
139 Off ch=10 n=38 v=64
821 On ch=10 n=38 v=115
143 Off ch=10 n=38 v=64
817 On ch=10 n=38 v=115
129 Off ch=10 n=38 v=64
831 On ch=10 n=38 v=115
174 Off ch=10 n=38 v=64
786 On ch=10 n=38 v=115
168 Off ch=10 n=38 v=64
792 On ch=10 n=38 v=115
166 Off ch=10 n=38 v=64
794 On ch=10 n=38 v=115
184 Off ch=10 n=38 v=64
776 On ch=10 n=38 v=115
156 Off ch=10 n=38 v=64
804 On ch=10 n=38 v=115
176 Off ch=10 n=38 v=64
784 On ch=10 n=38 v=115
166 Off ch=10 n=38 v=64
794 On ch=10 n=38 v=115
169 Off ch=10 n=38 v=64
791 On ch=10 n=38 v=115
181 Off ch=10 n=38 v=64
779 On ch=10 n=38 v=115
176 Off ch=10 n=38 v=64
784 On ch=10 n=38 v=115
176 Off ch=10 n=38 v=64
784 On ch=10 n=38 v=115
189 Off ch=10 n=38 v=64
771 On ch=10 n=38 v=115
186 Off ch=10 n=38 v=64
774 On ch=10 n=38 v=115
176 Off ch=10 n=38 v=64
784 On ch=10 n=38 v=115
184 Off ch=10 n=38 v=64
776 On ch=10 n=38 v=115
176 Off ch=10 n=38 v=64
784 On ch=10 n=38 v=115
171 Off ch=10 n=38 v=64
789 On ch=10 n=38 v=115
151 Off ch=10 n=38 v=64
808 On ch=10 n=38 v=115
146 Off ch=10 n=38 v=64
814 On ch=10 n=38 v=115
157 Off ch=10 n=38 v=64
803 On ch=10 n=38 v=115
171 Off ch=10 n=38 v=64
789 On ch=10 n=38 v=115
161 Off ch=10 n=38 v=64
799 On ch=10 n=38 v=115
176 Off ch=10 n=38 v=64
784 On ch=10 n=38 v=115
172 Off ch=10 n=38 v=64
788 On ch=10 n=38 v=115
173 Off ch=10 n=38 v=64
787 On ch=10 n=38 v=115
156 Off ch=10 n=38 v=64
804 On ch=10 n=38 v=115
159 Off ch=10 n=38 v=64
801 On ch=10 n=38 v=115
166 Off ch=10 n=38 v=64
794 On ch=10 n=38 v=115
163 Off ch=10 n=38 v=64
797 On ch=10 n=38 v=115
159 Off ch=10 n=38 v=64
801 On ch=10 n=38 v=115
171 Off ch=10 n=38 v=64
789 On ch=10 n=38 v=115
169 Off ch=10 n=38 v=64
791 On ch=10 n=38 v=115
126 Off ch=10 n=38 v=64
114 On ch=10 n=38 v=115
0 On ch=10 n=38 v=115
54 Off ch=10 n=38 v=64
21 Off ch=10 n=38 v=64
0 Meta TrkEnd
TrkEnd
MTrk
TimestampType=Delta
0 Meta Text "TOMS"
126090 Par ch=10 c=7 v=114
5 On ch=10 n=50 v=127
44 Off ch=10 n=50 v=64
13 On ch=10 n=50 v=127
51 Off ch=10 n=50 v=64
36 On ch=10 n=50 v=127
34 Off ch=10 n=50 v=64
41 On ch=10 n=50 v=127
49 Off ch=10 n=50 v=64
16 On ch=10 n=50 v=127
36 Off ch=10 n=50 v=64
46 On ch=10 n=50 v=127
52 Off ch=10 n=50 v=64
51 On ch=10 n=47 v=127
31 Off ch=10 n=47 v=64
59 On ch=10 n=47 v=127
49 Off ch=10 n=47 v=64
11 On ch=10 n=47 v=127
33 Off ch=10 n=47 v=64
72 On ch=10 n=47 v=127
49 Off ch=10 n=47 v=64
16 On ch=10 n=47 v=127
33 Off ch=10 n=47 v=64
34 On ch=10 n=47 v=127
51 Off ch=10 n=47 v=64
49 On ch=10 n=41 v=127
11 On ch=10 n=41 v=115
23 Off ch=10 n=41 v=64
8 Off ch=10 n=41 v=64
36 On ch=10 n=41 v=127
54 Off ch=10 n=41 v=64
26 On ch=10 n=41 v=127
38 Off ch=10 n=41 v=64
52 On ch=10 n=41 v=127
49 Off ch=10 n=41 v=64
15 On ch=10 n=41 v=127
34 Off ch=10 n=41 v=64
38 On ch=10 n=41 v=127
49 Off ch=10 n=41 v=64
436 Par ch=10 c=7 v=80
0 Meta TrkEnd
TrkEnd
MTrk
TimestampType=Delta
0 Meta Text "THE "LONE BONGO" "
2981 On ch=10 n=60 v=100
310 Off ch=10 n=60 v=64
0 Meta TrkEnd
TrkEnd
MTrk
TimestampType=Delta
0 Meta Text "MARACAS"
339 On ch=10 n=70 v=93
94 Off ch=10 n=70 v=64
146 On ch=10 n=70 v=37
69 Off ch=10 n=70 v=64
171 On ch=10 n=70 v=74
80 Off ch=10 n=70 v=64
160 On ch=10 n=70 v=37
70 Off ch=10 n=70 v=64
170 On ch=10 n=70 v=68
75 Off ch=10 n=70 v=64
165 On ch=10 n=70 v=40
82 Off ch=10 n=70 v=64
158 On ch=10 n=70 v=68
84 Off ch=10 n=70 v=64
156 On ch=10 n=70 v=36
77 Off ch=10 n=70 v=64
163 On ch=10 n=70 v=41
99 Off ch=10 n=70 v=64
141 On ch=10 n=70 v=52
77 Off ch=10 n=70 v=64
163 On ch=10 n=70 v=59
84 Off ch=10 n=70 v=64
156 On ch=10 n=70 v=55
87 Off ch=10 n=70 v=64
153 On ch=10 n=70 v=39
97 Off ch=10 n=70 v=64
143 On ch=10 n=70 v=60
92 Off ch=10 n=70 v=64
148 On ch=10 n=70 v=33
99 Off ch=10 n=70 v=64
141 On ch=10 n=70 v=61
81 Off ch=10 n=70 v=64
159 On ch=10 n=70 v=55
96 Off ch=10 n=70 v=64
144 On ch=10 n=70 v=54
102 Off ch=10 n=70 v=64
138 On ch=10 n=70 v=61
101 Off ch=10 n=70 v=64
139 On ch=10 n=70 v=41
89 Off ch=10 n=70 v=64
152 On ch=10 n=70 v=46
89 Off ch=10 n=70 v=64
150 On ch=10 n=70 v=49
90 Off ch=10 n=70 v=64
150 On ch=10 n=70 v=55
115 Off ch=10 n=70 v=64
125 On ch=10 n=70 v=39
92 Off ch=10 n=70 v=64
148 On ch=10 n=70 v=55
104 Off ch=10 n=70 v=64
136 On ch=10 n=70 v=41
102 Off ch=10 n=70 v=64
138 On ch=10 n=70 v=61
104 Off ch=10 n=70 v=64
136 On ch=10 n=70 v=55
107 Off ch=10 n=70 v=64
133 On ch=10 n=70 v=40
106 Off ch=10 n=70 v=64
134 On ch=10 n=70 v=45
97 Off ch=10 n=70 v=64
143 On ch=10 n=70 v=55
94 Off ch=10 n=70 v=64
146 On ch=10 n=70 v=61
79 Off ch=10 n=70 v=64
161 On ch=10 n=70 v=55
89 Off ch=10 n=70 v=64
151 On ch=10 n=70 v=41
89 Off ch=10 n=70 v=64
151 On ch=10 n=70 v=55
99 Off ch=10 n=70 v=64
141 On ch=10 n=70 v=49
107 Off ch=10 n=70 v=64
133 On ch=10 n=70 v=52
94 Off ch=10 n=70 v=64
146 On ch=10 n=70 v=36
104 Off ch=10 n=70 v=64
136 On ch=10 n=70 v=74
104 Off ch=10 n=70 v=64
136 On ch=10 n=70 v=46
104 Off ch=10 n=70 v=64
136 On ch=10 n=70 v=41
106 Off ch=10 n=70 v=64
134 On ch=10 n=70 v=49
87 Off ch=10 n=70 v=64
153 On ch=10 n=70 v=49
96 Off ch=10 n=70 v=64
144 On ch=10 n=70 v=52
92 Off ch=10 n=70 v=64
148 On ch=10 n=70 v=75
104 Off ch=10 n=70 v=64
136 On ch=10 n=70 v=75
79 Off ch=10 n=70 v=64
161 On ch=10 n=70 v=68
97 Off ch=10 n=70 v=64
143 On ch=10 n=70 v=49
82 Off ch=10 n=70 v=64
158 On ch=10 n=70 v=68
95 Off ch=10 n=70 v=64
145 On ch=10 n=70 v=55
89 Off ch=10 n=70 v=64
151 On ch=10 n=70 v=52
96 Off ch=10 n=70 v=64
144 On ch=10 n=70 v=75
89 Off ch=10 n=70 v=64
151 On ch=10 n=70 v=61
89 Off ch=10 n=70 v=64
151 On ch=10 n=70 v=40
97 Off ch=10 n=70 v=64
143 On ch=10 n=70 v=75
99 Off ch=10 n=70 v=64
141 On ch=10 n=70 v=59
87 Off ch=10 n=70 v=64
153 On ch=10 n=70 v=66
99 Off ch=10 n=70 v=64
141 On ch=10 n=70 v=52
99 Off ch=10 n=70 v=64
141 On ch=10 n=70 v=52
102 Off ch=10 n=70 v=64
138 On ch=10 n=70 v=60
94 Off ch=10 n=70 v=64
146 On ch=10 n=70 v=66
97 Off ch=10 n=70 v=64
143 On ch=10 n=70 v=61
104 Off ch=10 n=70 v=64
136 On ch=10 n=70 v=66
106 Off ch=10 n=70 v=64
134 On ch=10 n=70 v=52
85 Off ch=10 n=70 v=64
155 On ch=10 n=70 v=66
99 Off ch=10 n=70 v=64
141 On ch=10 n=70 v=66
104 Off ch=10 n=70 v=64
136 On ch=10 n=70 v=54
106 Off ch=10 n=70 v=64
134 On ch=10 n=70 v=61
111 Off ch=10 n=70 v=64
129 On ch=10 n=70 v=66
104 Off ch=10 n=70 v=64
136 On ch=10 n=70 v=52
97 Off ch=10 n=70 v=64
143 On ch=10 n=70 v=74
102 Off ch=10 n=70 v=64
138 On ch=10 n=70 v=61
92 Off ch=10 n=70 v=64
148 On ch=10 n=70 v=75
99 Off ch=10 n=70 v=64
141 On ch=10 n=70 v=66
81 Off ch=10 n=70 v=64
159 On ch=10 n=70 v=70
84 Off ch=10 n=70 v=64
156 On ch=10 n=70 v=75
77 Off ch=10 n=70 v=64
163 On ch=10 n=70 v=77
82 Off ch=10 n=70 v=64
25839 On ch=10 n=70 v=93
74 Off ch=10 n=70 v=64
166 On ch=10 n=70 v=68
77 Off ch=10 n=70 v=64
163 On ch=10 n=70 v=75
82 Off ch=10 n=70 v=64
158 On ch=10 n=70 v=74
77 Off ch=10 n=70 v=64
163 On ch=10 n=70 v=74
80 Off ch=10 n=70 v=64
160 On ch=10 n=70 v=75
72 Off ch=10 n=70 v=64
168 On ch=10 n=70 v=81
72 Off ch=10 n=70 v=64
168 On ch=10 n=70 v=81
77 Off ch=10 n=70 v=64
163 On ch=10 n=70 v=61
75 Off ch=10 n=70 v=64
165 On ch=10 n=70 v=81
69 Off ch=10 n=70 v=64
171 On ch=10 n=70 v=89
77 Off ch=10 n=70 v=64
162 On ch=10 n=70 v=68
80 Off ch=10 n=70 v=64
160 On ch=10 n=70 v=74
85 Off ch=10 n=70 v=64
155 On ch=10 n=70 v=74
74 Off ch=10 n=70 v=64
166 On ch=10 n=70 v=77
80 Off ch=10 n=70 v=64
160 On ch=10 n=70 v=76
75 Off ch=10 n=70 v=64
166 On ch=10 n=70 v=75
82 Off ch=10 n=70 v=64
158 On ch=10 n=70 v=61
77 Off ch=10 n=70 v=64
163 On ch=10 n=70 v=81
85 Off ch=10 n=70 v=64
155 On ch=10 n=70 v=77
79 Off ch=10 n=70 v=64
161 On ch=10 n=70 v=74
92 Off ch=10 n=70 v=64
148 On ch=10 n=70 v=77
84 Off ch=10 n=70 v=64
156 On ch=10 n=70 v=89
92 Off ch=10 n=70 v=64
148 On ch=10 n=70 v=77
80 Off ch=10 n=70 v=64
160 On ch=10 n=70 v=81
80 Off ch=10 n=70 v=64
160 On ch=10 n=70 v=77
77 Off ch=10 n=70 v=64
163 On ch=10 n=70 v=85
79 Off ch=10 n=70 v=64
161 On ch=10 n=70 v=85
85 Off ch=10 n=70 v=64
155 On ch=10 n=70 v=81
80 Off ch=10 n=70 v=64
160 On ch=10 n=70 v=81
74 Off ch=10 n=70 v=64
166 On ch=10 n=70 v=81
80 Off ch=10 n=70 v=64
160 On ch=10 n=70 v=85
72 Off ch=10 n=70 v=64
167 On ch=10 n=70 v=89
65 Off ch=10 n=70 v=64
26815 On ch=10 n=70 v=93
94 Off ch=10 n=70 v=64
146 On ch=10 n=70 v=37
69 Off ch=10 n=70 v=64
171 On ch=10 n=70 v=74
80 Off ch=10 n=70 v=64
160 On ch=10 n=70 v=37
70 Off ch=10 n=70 v=64
170 On ch=10 n=70 v=68
75 Off ch=10 n=70 v=64
165 On ch=10 n=70 v=40
82 Off ch=10 n=70 v=64
158 On ch=10 n=70 v=68
84 Off ch=10 n=70 v=64
156 On ch=10 n=70 v=36
77 Off ch=10 n=70 v=64
163 On ch=10 n=70 v=41
99 Off ch=10 n=70 v=64
141 On ch=10 n=70 v=52
77 Off ch=10 n=70 v=64
163 On ch=10 n=70 v=59
84 Off ch=10 n=70 v=64
156 On ch=10 n=70 v=55
87 Off ch=10 n=70 v=64
153 On ch=10 n=70 v=39
97 Off ch=10 n=70 v=64
143 On ch=10 n=70 v=60
92 Off ch=10 n=70 v=64
148 On ch=10 n=70 v=33
99 Off ch=10 n=70 v=64
141 On ch=10 n=70 v=61
81 Off ch=10 n=70 v=64
159 On ch=10 n=70 v=55
96 Off ch=10 n=70 v=64
144 On ch=10 n=70 v=54
102 Off ch=10 n=70 v=64
138 On ch=10 n=70 v=61
101 Off ch=10 n=70 v=64
139 On ch=10 n=70 v=41
89 Off ch=10 n=70 v=64
152 On ch=10 n=70 v=46
89 Off ch=10 n=70 v=64
150 On ch=10 n=70 v=49
90 Off ch=10 n=70 v=64
150 On ch=10 n=70 v=55
115 Off ch=10 n=70 v=64
125 On ch=10 n=70 v=39
92 Off ch=10 n=70 v=64
148 On ch=10 n=70 v=55
104 Off ch=10 n=70 v=64
136 On ch=10 n=70 v=41
102 Off ch=10 n=70 v=64
138 On ch=10 n=70 v=61
104 Off ch=10 n=70 v=64
136 On ch=10 n=70 v=55
107 Off ch=10 n=70 v=64
133 On ch=10 n=70 v=40
106 Off ch=10 n=70 v=64
134 On ch=10 n=70 v=45
97 Off ch=10 n=70 v=64
143 On ch=10 n=70 v=55
94 Off ch=10 n=70 v=64
146 On ch=10 n=70 v=61
79 Off ch=10 n=70 v=64
161 On ch=10 n=70 v=55
89 Off ch=10 n=70 v=64
151 On ch=10 n=70 v=41
89 Off ch=10 n=70 v=64
151 On ch=10 n=70 v=55
99 Off ch=10 n=70 v=64
141 On ch=10 n=70 v=49
107 Off ch=10 n=70 v=64
133 On ch=10 n=70 v=52
94 Off ch=10 n=70 v=64
146 On ch=10 n=70 v=36
104 Off ch=10 n=70 v=64
136 On ch=10 n=70 v=74
104 Off ch=10 n=70 v=64
136 On ch=10 n=70 v=46
104 Off ch=10 n=70 v=64
136 On ch=10 n=70 v=41
106 Off ch=10 n=70 v=64
134 On ch=10 n=70 v=49
87 Off ch=10 n=70 v=64
153 On ch=10 n=70 v=49
96 Off ch=10 n=70 v=64
144 On ch=10 n=70 v=52
92 Off ch=10 n=70 v=64
148 On ch=10 n=70 v=75
104 Off ch=10 n=70 v=64
136 On ch=10 n=70 v=75
79 Off ch=10 n=70 v=64
161 On ch=10 n=70 v=68
97 Off ch=10 n=70 v=64
143 On ch=10 n=70 v=49
82 Off ch=10 n=70 v=64
158 On ch=10 n=70 v=68
95 Off ch=10 n=70 v=64
145 On ch=10 n=70 v=55
89 Off ch=10 n=70 v=64
151 On ch=10 n=70 v=52
96 Off ch=10 n=70 v=64
144 On ch=10 n=70 v=75
89 Off ch=10 n=70 v=64
151 On ch=10 n=70 v=61
89 Off ch=10 n=70 v=64
151 On ch=10 n=70 v=40
97 Off ch=10 n=70 v=64
143 On ch=10 n=70 v=75
99 Off ch=10 n=70 v=64
141 On ch=10 n=70 v=59
87 Off ch=10 n=70 v=64
153 On ch=10 n=70 v=66
99 Off ch=10 n=70 v=64
141 On ch=10 n=70 v=52
99 Off ch=10 n=70 v=64
141 On ch=10 n=70 v=52
102 Off ch=10 n=70 v=64
138 On ch=10 n=70 v=60
94 Off ch=10 n=70 v=64
146 On ch=10 n=70 v=66
97 Off ch=10 n=70 v=64
143 On ch=10 n=70 v=61
104 Off ch=10 n=70 v=64
136 On ch=10 n=70 v=66
106 Off ch=10 n=70 v=64
134 On ch=10 n=70 v=52
85 Off ch=10 n=70 v=64
155 On ch=10 n=70 v=66
99 Off ch=10 n=70 v=64
141 On ch=10 n=70 v=66
104 Off ch=10 n=70 v=64
136 On ch=10 n=70 v=54
106 Off ch=10 n=70 v=64
134 On ch=10 n=70 v=61
111 Off ch=10 n=70 v=64
129 On ch=10 n=70 v=66
104 Off ch=10 n=70 v=64
136 On ch=10 n=70 v=52
97 Off ch=10 n=70 v=64
143 On ch=10 n=70 v=74
102 Off ch=10 n=70 v=64
138 On ch=10 n=70 v=61
92 Off ch=10 n=70 v=64
150 On ch=10 n=70 v=74
88 Off ch=10 n=70 v=64
153 On ch=10 n=70 v=78
83 Off ch=10 n=70 v=64
157 On ch=10 n=70 v=77
88 Off ch=10 n=70 v=64
151 On ch=10 n=70 v=74
78 Off ch=10 n=70 v=64
162 On ch=10 n=70 v=67
77 Off ch=10 n=70 v=64
162 On ch=10 n=70 v=49
82 Off ch=10 n=70 v=64
158 On ch=10 n=70 v=60
80 Off ch=10 n=70 v=64
160 On ch=10 n=70 v=55
85 Off ch=10 n=70 v=64
155 On ch=10 n=70 v=68
95 Off ch=10 n=70 v=64
145 On ch=10 n=70 v=48
83 Off ch=10 n=70 v=64
157 On ch=10 n=70 v=55
91 Off ch=10 n=70 v=64
150 On ch=10 n=70 v=60
88 Off ch=10 n=70 v=64
152 On ch=10 n=70 v=60
88 Off ch=10 n=70 v=64
152 On ch=10 n=70 v=68
88 Off ch=10 n=70 v=64
152 On ch=10 n=70 v=66
93 Off ch=10 n=70 v=64
148 On ch=10 n=70 v=68
82 Off ch=10 n=70 v=64
158 On ch=10 n=70 v=74
90 Off ch=10 n=70 v=64
150 On ch=10 n=70 v=81
106 Off ch=10 n=70 v=64
133 On ch=10 n=70 v=49
85 Off ch=10 n=70 v=64
156 On ch=10 n=70 v=85
105 Off ch=10 n=70 v=64
134 On ch=10 n=70 v=55
88 Off ch=10 n=70 v=64
150 On ch=10 n=70 v=55
90 Off ch=10 n=70 v=64
151 On ch=10 n=70 v=74
85 Off ch=10 n=70 v=64
154 On ch=10 n=70 v=55
75 Off ch=10 n=70 v=64
165 On ch=10 n=70 v=74
90 Off ch=10 n=70 v=64
150 On ch=10 n=70 v=85
106 Off ch=10 n=70 v=64
134 On ch=10 n=70 v=60
83 Off ch=10 n=70 v=64
158 On ch=10 n=70 v=60
87 Off ch=10 n=70 v=64
153 On ch=10 n=70 v=76
97 Off ch=10 n=70 v=64
143 On ch=10 n=70 v=74
103 Off ch=10 n=70 v=64
136 On ch=10 n=70 v=52
83 Off ch=10 n=70 v=64
158 On ch=10 n=70 v=68
82 Off ch=10 n=70 v=64
158 On ch=10 n=70 v=79
93 Off ch=10 n=70 v=64
147 On ch=10 n=70 v=61
90 Off ch=10 n=70 v=64
151 On ch=10 n=70 v=74
85 Off ch=10 n=70 v=64
155 On ch=10 n=70 v=68
88 Off ch=10 n=70 v=64
152 On ch=10 n=70 v=68
78 Off ch=10 n=70 v=64
163 On ch=10 n=70 v=93
101 Off ch=10 n=70 v=64
139 On ch=10 n=70 v=51
80 Off ch=10 n=70 v=64
160 On ch=10 n=70 v=81
87 Off ch=10 n=70 v=64
153 On ch=10 n=70 v=61
87 Off ch=10 n=70 v=64
152 On ch=10 n=70 v=55
72 Off ch=10 n=70 v=64
169 On ch=10 n=70 v=89
103 Off ch=10 n=70 v=64
136 On ch=10 n=70 v=52
82 Off ch=10 n=70 v=64
158 On ch=10 n=70 v=75
88 Off ch=10 n=70 v=64
152 On ch=10 n=70 v=49
57 Off ch=10 n=70 v=64
183 On ch=10 n=70 v=90
90 Off ch=10 n=70 v=64
149 On ch=10 n=70 v=60
85 Off ch=10 n=70 v=64
155 On ch=10 n=70 v=48
83 Off ch=10 n=70 v=64
156 On ch=10 n=70 v=55
69 Off ch=10 n=70 v=64
172 On ch=10 n=70 v=89
100 Off ch=10 n=70 v=64
138 On ch=10 n=70 v=52
80 Off ch=10 n=70 v=64
160 On ch=10 n=70 v=49
88 Off ch=10 n=70 v=64
152 On ch=10 n=70 v=90
103 Off ch=10 n=70 v=64
137 On ch=10 n=70 v=39
92 Off ch=10 n=70 v=64
149 On ch=10 n=70 v=89
116 Off ch=10 n=70 v=64
124 On ch=10 n=70 v=46
103 Off ch=10 n=70 v=64
136 On ch=10 n=70 v=55
80 Off ch=10 n=70 v=64
161 On ch=10 n=70 v=89
114 Off ch=10 n=70 v=64
127 On ch=10 n=70 v=52
75 Off ch=10 n=70 v=64
164 On ch=10 n=70 v=68
83 Off ch=10 n=70 v=64
156 On ch=10 n=70 v=60
77 Off ch=10 n=70 v=64
163 On ch=10 n=70 v=48
72 Off ch=10 n=70 v=64
169 On ch=10 n=70 v=97
103 Off ch=10 n=70 v=64
137 On ch=10 n=70 v=37
101 Off ch=10 n=70 v=64
139 On ch=10 n=70 v=55
78 Off ch=10 n=70 v=64
163 On ch=10 n=70 v=93
118 Off ch=10 n=70 v=64
121 On ch=10 n=70 v=48
85 Off ch=10 n=70 v=64
157 On ch=10 n=70 v=91
109 Off ch=10 n=70 v=64
130 On ch=10 n=70 v=55
85 Off ch=10 n=70 v=64
155 On ch=10 n=70 v=61
85 Off ch=10 n=70 v=64
155 On ch=10 n=70 v=106
116 Off ch=10 n=70 v=64
123 On ch=10 n=70 v=66
90 Off ch=10 n=70 v=64
151 On ch=10 n=70 v=60
83 Off ch=10 n=70 v=64
157 On ch=10 n=70 v=74
90 Off ch=10 n=70 v=64
149 On ch=10 n=70 v=55
88 Off ch=10 n=70 v=64
153 On ch=10 n=70 v=55
88 Off ch=10 n=70 v=64
150 On ch=10 n=70 v=60
75 Off ch=10 n=70 v=64
166 On ch=10 n=70 v=89
87 Off ch=10 n=70 v=64
154 On ch=10 n=70 v=106
111 Off ch=10 n=70 v=64
128 On ch=10 n=70 v=47
80 Off ch=10 n=70 v=64
160 On ch=10 n=70 v=61
72 Off ch=10 n=70 v=64
168 On ch=10 n=70 v=90
111 Off ch=10 n=70 v=64
129 On ch=10 n=70 v=52
79 Off ch=10 n=70 v=64
160 On ch=10 n=70 v=77
92 Off ch=10 n=70 v=64
147 On ch=10 n=70 v=62
77 Off ch=10 n=70 v=64
163 On ch=10 n=70 v=77
73 Off ch=10 n=70 v=64
168 On ch=10 n=70 v=100
118 Off ch=10 n=70 v=64
122 On ch=10 n=70 v=52
82 Off ch=10 n=70 v=64
159 On ch=10 n=70 v=74
79 Off ch=10 n=70 v=64
161 On ch=10 n=70 v=90
103 Off ch=10 n=70 v=64
137 On ch=10 n=70 v=60
78 Off ch=10 n=70 v=64
163 On ch=10 n=70 v=76
80 Off ch=10 n=70 v=64
160 On ch=10 n=70 v=74
70 Off ch=10 n=70 v=64
171 On ch=10 n=70 v=100
93 Off ch=10 n=70 v=64
146 On ch=10 n=70 v=68
67 Off ch=10 n=70 v=64
174 On ch=10 n=70 v=115
82 Off ch=10 n=70 v=64
33521 On ch=10 n=70 v=89
65 Off ch=10 n=70 v=64
0 Meta TrkEnd
TrkEnd
MTrk
TimestampType=Delta
0 Meta Text "TAMBOURINE"
53134 On ch=10 n=54 v=42
52 Off ch=10 n=54 v=64
66 On ch=10 n=54 v=57
65 Off ch=10 n=54 v=64
54 On ch=10 n=54 v=46
68 Off ch=10 n=54 v=64
53 On ch=10 n=54 v=87
67 Off ch=10 n=54 v=64
52 On ch=10 n=54 v=120
124 Off ch=10 n=54 v=64
1319 On ch=10 n=54 v=25
30 Off ch=10 n=54 v=64
90 On ch=10 n=54 v=37
122 Off ch=10 n=54 v=64
114 On ch=10 n=54 v=81
72 Off ch=10 n=54 v=64
49 On ch=10 n=54 v=123
110 Off ch=10 n=54 v=64
1333 On ch=10 n=54 v=44
58 Off ch=10 n=54 v=64
63 On ch=10 n=54 v=33
57 Off ch=10 n=54 v=64
60 On ch=10 n=54 v=25
48 Off ch=10 n=54 v=64
71 On ch=10 n=54 v=62
80 Off ch=10 n=54 v=64
41 On ch=10 n=54 v=111
117 Off ch=10 n=54 v=64
2286 On ch=10 n=54 v=32
42 Off ch=10 n=54 v=64
78 On ch=10 n=54 v=34
62 Off ch=10 n=54 v=64
59 On ch=10 n=54 v=19
10 Off ch=10 n=54 v=64
107 On ch=10 n=54 v=81
79 Off ch=10 n=54 v=64
41 On ch=10 n=54 v=123
129 Off ch=10 n=54 v=64
1314 On ch=10 n=54 v=33
45 Off ch=10 n=54 v=64
76 On ch=10 n=54 v=32
47 Off ch=10 n=54 v=64
69 On ch=10 n=54 v=29
50 Off ch=10 n=54 v=64
69 On ch=10 n=54 v=68
80 Off ch=10 n=54 v=64
41 On ch=10 n=54 v=120
131 Off ch=10 n=54 v=64
1311 On ch=10 n=54 v=32
40 Off ch=10 n=54 v=64
78 On ch=10 n=54 v=48
75 Off ch=10 n=54 v=64
45 On ch=10 n=54 v=34
45 Off ch=10 n=54 v=64
74 On ch=10 n=54 v=75
65 Off ch=10 n=54 v=64
55 On ch=10 n=54 v=116
135 Off ch=10 n=54 v=64
1306 On ch=10 n=54 v=32
48 Off ch=10 n=54 v=64
72 On ch=10 n=54 v=32
59 Off ch=10 n=54 v=64
61 On ch=10 n=54 v=29
45 Off ch=10 n=54 v=64
78 On ch=10 n=54 v=22
75 Off ch=10 n=54 v=64
43 On ch=10 n=54 v=100
109 Off ch=10 n=54 v=64
14 On ch=10 n=54 v=42
159 Off ch=10 n=54 v=64
81 On ch=10 n=54 v=40
65 Off ch=10 n=54 v=64
52 On ch=10 n=54 v=42
62 Off ch=10 n=54 v=64
58 On ch=10 n=54 v=25
64 Off ch=10 n=54 v=64
54 On ch=10 n=54 v=42
42 Off ch=10 n=54 v=64
80 On ch=10 n=54 v=29
45 Off ch=10 n=54 v=64
72 On ch=10 n=54 v=109
105 Off ch=10 n=54 v=64
19 On ch=10 n=54 v=29
55 Off ch=10 n=54 v=64
61 On ch=10 n=54 v=42
60 Off ch=10 n=54 v=64
62 On ch=10 n=54 v=48
64 Off ch=10 n=54 v=64
54 On ch=10 n=54 v=68
67 Off ch=10 n=54 v=64
53 On ch=10 n=54 v=42
75 Off ch=10 n=54 v=64
45 On ch=10 n=54 v=40
52 Off ch=10 n=54 v=64
68 On ch=10 n=54 v=67
73 Off ch=10 n=54 v=64
48 On ch=10 n=54 v=116
109 Off ch=10 n=54 v=64
15 On ch=10 n=54 v=42
57 Off ch=10 n=54 v=64
61 On ch=10 n=54 v=34
47 Off ch=10 n=54 v=64
72 On ch=10 n=54 v=65
65 Off ch=10 n=54 v=64
55 On ch=10 n=54 v=61
62 Off ch=10 n=54 v=64
58 On ch=10 n=54 v=25
65 Off ch=10 n=54 v=64
54 On ch=10 n=54 v=48
47 Off ch=10 n=54 v=64
76 On ch=10 n=54 v=36
50 Off ch=10 n=54 v=64
68 On ch=10 n=54 v=127
115 Off ch=10 n=54 v=64
65 On ch=10 n=54 v=37
119 Off ch=10 n=54 v=64
62 On ch=10 n=54 v=42
142 Off ch=10 n=54 v=64
96 On ch=10 n=54 v=42
67 Off ch=10 n=54 v=64
53 On ch=10 n=54 v=28
37 Off ch=10 n=54 v=64
82 On ch=10 n=54 v=58
75 Off ch=10 n=54 v=64
45 On ch=10 n=54 v=111
94 Off ch=10 n=54 v=64
30 On ch=10 n=54 v=46
60 Off ch=10 n=54 v=64
57 On ch=10 n=54 v=58
50 Off ch=10 n=54 v=64
71 On ch=10 n=54 v=62
60 Off ch=10 n=54 v=64
59 On ch=10 n=54 v=83
62 Off ch=10 n=54 v=64
60 On ch=10 n=54 v=40
62 Off ch=10 n=54 v=64
56 On ch=10 n=54 v=65
52 Off ch=10 n=54 v=64
69 On ch=10 n=54 v=75
65 Off ch=10 n=54 v=64
56 On ch=10 n=54 v=127
100 Off ch=10 n=54 v=64
23 On ch=10 n=54 v=46
54 Off ch=10 n=54 v=64
62 On ch=10 n=54 v=58
55 Off ch=10 n=54 v=64
67 On ch=10 n=54 v=52
59 Off ch=10 n=54 v=64
58 On ch=10 n=54 v=75
57 Off ch=10 n=54 v=64
63 On ch=10 n=54 v=36
72 Off ch=10 n=54 v=64
48 On ch=10 n=54 v=52
47 Off ch=10 n=54 v=64
74 On ch=10 n=54 v=81
64 Off ch=10 n=54 v=64
56 On ch=10 n=54 v=123
100 Off ch=10 n=54 v=64
23 On ch=10 n=54 v=47
62 Off ch=10 n=54 v=64
56 On ch=10 n=54 v=44
47 Off ch=10 n=54 v=64
74 On ch=10 n=54 v=75
65 Off ch=10 n=54 v=64
52 On ch=10 n=54 v=68
62 Off ch=10 n=54 v=64
61 On ch=10 n=54 v=29
62 Off ch=10 n=54 v=64
54 On ch=10 n=54 v=34
48 Off ch=10 n=54 v=64
75 On ch=10 n=54 v=58
60 Off ch=10 n=54 v=64
58 On ch=10 n=54 v=127
102 Off ch=10 n=54 v=64
21 On ch=10 n=54 v=37
55 Off ch=10 n=54 v=64
62 On ch=10 n=54 v=58
55 Off ch=10 n=54 v=64
66 On ch=10 n=54 v=61
62 Off ch=10 n=54 v=64
57 On ch=10 n=54 v=75
55 Off ch=10 n=54 v=64
66 On ch=10 n=54 v=37
69 Off ch=10 n=54 v=64
50 On ch=10 n=54 v=48
47 Off ch=10 n=54 v=64
75 On ch=10 n=54 v=81
70 Off ch=10 n=54 v=64
49 On ch=10 n=54 v=120
95 Off ch=10 n=54 v=64
79 On ch=10 n=54 v=46
60 Off ch=10 n=54 v=64
8 On ch=10 n=54 v=28
30 Off ch=10 n=54 v=64
90 On ch=10 n=54 v=58
60 Off ch=10 n=54 v=64
58 On ch=10 n=54 v=76
59 Off ch=10 n=54 v=64
62 On ch=10 n=54 v=42
65 Off ch=10 n=54 v=64
53 On ch=10 n=54 v=77
50 Off ch=10 n=54 v=64
71 On ch=10 n=54 v=76
72 Off ch=10 n=54 v=64
49 On ch=10 n=54 v=127
90 Off ch=10 n=54 v=64
89 On ch=10 n=54 v=36
47 Off ch=10 n=54 v=64
13 On ch=10 n=54 v=91
59 Off ch=10 n=54 v=64
61 On ch=10 n=54 v=87
74 Off ch=10 n=54 v=64
46 On ch=10 n=54 v=87
65 Off ch=10 n=54 v=64
56 On ch=10 n=54 v=32
60 Off ch=10 n=54 v=64
58 On ch=10 n=54 v=57
47 Off ch=10 n=54 v=64
73 On ch=10 n=54 v=83
77 Off ch=10 n=54 v=64
44 On ch=10 n=54 v=127
100 Off ch=10 n=54 v=64
24 On ch=10 n=54 v=42
63 Off ch=10 n=54 v=64
53 On ch=10 n=54 v=47
52 Off ch=10 n=54 v=64
69 On ch=10 n=54 v=75
68 Off ch=10 n=54 v=64
51 On ch=10 n=54 v=68
55 Off ch=10 n=54 v=64
66 On ch=10 n=54 v=40
72 Off ch=10 n=54 v=64
45 On ch=10 n=54 v=68
50 Off ch=10 n=54 v=64
72 On ch=10 n=54 v=68
62 Off ch=10 n=54 v=64
57 On ch=10 n=54 v=127
105 Off ch=10 n=54 v=64
18 On ch=10 n=54 v=46
62 Off ch=10 n=54 v=64
55 On ch=10 n=54 v=65
55 Off ch=10 n=54 v=64
65 On ch=10 n=54 v=48
65 Off ch=10 n=54 v=64
55 On ch=10 n=54 v=83
67 Off ch=10 n=54 v=64
54 On ch=10 n=54 v=51
147 Off ch=10 n=54 v=64
93 On ch=10 n=54 v=62
72 Off ch=10 n=54 v=64
48 On ch=10 n=54 v=127
105 Off ch=10 n=54 v=64
18 On ch=10 n=54 v=44
69 Off ch=10 n=54 v=64
50 On ch=10 n=54 v=25
33 Off ch=10 n=54 v=64
87 On ch=10 n=54 v=75
72 Off ch=10 n=54 v=64
46 On ch=10 n=54 v=68
65 Off ch=10 n=54 v=64
58 On ch=10 n=54 v=28
58 Off ch=10 n=54 v=64
59 On ch=10 n=54 v=67
53 Off ch=10 n=54 v=64
70 On ch=10 n=54 v=44
50 Off ch=10 n=54 v=64
68 On ch=10 n=54 v=123
100 Off ch=10 n=54 v=64
22 On ch=10 n=54 v=67
70 Off ch=10 n=54 v=64
47 On ch=10 n=54 v=97
70 Off ch=10 n=54 v=64
51 On ch=10 n=54 v=83
70 Off ch=10 n=54 v=64
74963 On ch=10 n=54 v=42
52 Off ch=10 n=54 v=64
66 On ch=10 n=54 v=57
65 Off ch=10 n=54 v=64
54 On ch=10 n=54 v=46
68 Off ch=10 n=54 v=64
53 On ch=10 n=54 v=87
67 Off ch=10 n=54 v=64
52 On ch=10 n=54 v=120
124 Off ch=10 n=54 v=64
1319 On ch=10 n=54 v=25
30 Off ch=10 n=54 v=64
90 On ch=10 n=54 v=37
122 Off ch=10 n=54 v=64
114 On ch=10 n=54 v=81
72 Off ch=10 n=54 v=64
49 On ch=10 n=54 v=123
110 Off ch=10 n=54 v=64
1333 On ch=10 n=54 v=44
58 Off ch=10 n=54 v=64
63 On ch=10 n=54 v=33
57 Off ch=10 n=54 v=64
60 On ch=10 n=54 v=25
48 Off ch=10 n=54 v=64
71 On ch=10 n=54 v=62
80 Off ch=10 n=54 v=64
41 On ch=10 n=54 v=111
117 Off ch=10 n=54 v=64
2286 On ch=10 n=54 v=32
42 Off ch=10 n=54 v=64
78 On ch=10 n=54 v=34
62 Off ch=10 n=54 v=64
59 On ch=10 n=54 v=19
10 Off ch=10 n=54 v=64
107 On ch=10 n=54 v=81
79 Off ch=10 n=54 v=64
41 On ch=10 n=54 v=123
129 Off ch=10 n=54 v=64
1314 On ch=10 n=54 v=33
45 Off ch=10 n=54 v=64
76 On ch=10 n=54 v=32
47 Off ch=10 n=54 v=64
69 On ch=10 n=54 v=29
50 Off ch=10 n=54 v=64
69 On ch=10 n=54 v=68
80 Off ch=10 n=54 v=64
41 On ch=10 n=54 v=120
131 Off ch=10 n=54 v=64
1311 On ch=10 n=54 v=32
40 Off ch=10 n=54 v=64
78 On ch=10 n=54 v=48
75 Off ch=10 n=54 v=64
45 On ch=10 n=54 v=34
45 Off ch=10 n=54 v=64
74 On ch=10 n=54 v=75
65 Off ch=10 n=54 v=64
55 On ch=10 n=54 v=116
135 Off ch=10 n=54 v=64
1276 On ch=10 n=54 v=32
48 Off ch=10 n=54 v=64
72 On ch=10 n=54 v=32
59 Off ch=10 n=54 v=64
61 On ch=10 n=54 v=29
45 Off ch=10 n=54 v=64
78 On ch=10 n=54 v=22
75 Off ch=10 n=54 v=64
43 On ch=10 n=54 v=100
109 Off ch=10 n=54 v=64
14 On ch=10 n=54 v=42
159 Off ch=10 n=54 v=64
81 On ch=10 n=54 v=40
65 Off ch=10 n=54 v=64
52 On ch=10 n=54 v=42
62 Off ch=10 n=54 v=64
58 On ch=10 n=54 v=25
64 Off ch=10 n=54 v=64
54 On ch=10 n=54 v=42
42 Off ch=10 n=54 v=64
80 On ch=10 n=54 v=29
45 Off ch=10 n=54 v=64
72 On ch=10 n=54 v=109
105 Off ch=10 n=54 v=64
19 On ch=10 n=54 v=29
55 Off ch=10 n=54 v=64
61 On ch=10 n=54 v=42
60 Off ch=10 n=54 v=64
62 On ch=10 n=54 v=48
64 Off ch=10 n=54 v=64
54 On ch=10 n=54 v=68
67 Off ch=10 n=54 v=64
53 On ch=10 n=54 v=42
75 Off ch=10 n=54 v=64
45 On ch=10 n=54 v=40
52 Off ch=10 n=54 v=64
68 On ch=10 n=54 v=67
73 Off ch=10 n=54 v=64
48 On ch=10 n=54 v=116
109 Off ch=10 n=54 v=64
15 On ch=10 n=54 v=42
57 Off ch=10 n=54 v=64
61 On ch=10 n=54 v=34
47 Off ch=10 n=54 v=64
72 On ch=10 n=54 v=65
65 Off ch=10 n=54 v=64
55 On ch=10 n=54 v=61
62 Off ch=10 n=54 v=64
58 On ch=10 n=54 v=25
65 Off ch=10 n=54 v=64
54 On ch=10 n=54 v=48
47 Off ch=10 n=54 v=64
76 On ch=10 n=54 v=36
50 Off ch=10 n=54 v=64
68 On ch=10 n=54 v=127
115 Off ch=10 n=54 v=64
65 On ch=10 n=54 v=37
119 Off ch=10 n=54 v=64
62 On ch=10 n=54 v=42
142 Off ch=10 n=54 v=64
96 On ch=10 n=54 v=42
67 Off ch=10 n=54 v=64
53 On ch=10 n=54 v=28
37 Off ch=10 n=54 v=64
82 On ch=10 n=54 v=58
75 Off ch=10 n=54 v=64
45 On ch=10 n=54 v=111
94 Off ch=10 n=54 v=64
30 On ch=10 n=54 v=46
60 Off ch=10 n=54 v=64
57 On ch=10 n=54 v=58
50 Off ch=10 n=54 v=64
71 On ch=10 n=54 v=62
60 Off ch=10 n=54 v=64
59 On ch=10 n=54 v=83
62 Off ch=10 n=54 v=64
60 On ch=10 n=54 v=40
62 Off ch=10 n=54 v=64
56 On ch=10 n=54 v=65
52 Off ch=10 n=54 v=64
69 On ch=10 n=54 v=75
65 Off ch=10 n=54 v=64
56 On ch=10 n=54 v=127
100 Off ch=10 n=54 v=64
23 On ch=10 n=54 v=46
54 Off ch=10 n=54 v=64
62 On ch=10 n=54 v=58
55 Off ch=10 n=54 v=64
67 On ch=10 n=54 v=52
59 Off ch=10 n=54 v=64
58 On ch=10 n=54 v=75
57 Off ch=10 n=54 v=64
63 On ch=10 n=54 v=36
72 Off ch=10 n=54 v=64
48 On ch=10 n=54 v=52
47 Off ch=10 n=54 v=64
74 On ch=10 n=54 v=81
64 Off ch=10 n=54 v=64
56 On ch=10 n=54 v=123
100 Off ch=10 n=54 v=64
23 On ch=10 n=54 v=47
62 Off ch=10 n=54 v=64
56 On ch=10 n=54 v=44
47 Off ch=10 n=54 v=64
74 On ch=10 n=54 v=75
65 Off ch=10 n=54 v=64
52 On ch=10 n=54 v=68
62 Off ch=10 n=54 v=64
61 On ch=10 n=54 v=29
62 Off ch=10 n=54 v=64
54 On ch=10 n=54 v=34
48 Off ch=10 n=54 v=64
75 On ch=10 n=54 v=58
60 Off ch=10 n=54 v=64
58 On ch=10 n=54 v=127
102 Off ch=10 n=54 v=64
21 On ch=10 n=54 v=37
55 Off ch=10 n=54 v=64
62 On ch=10 n=54 v=58
55 Off ch=10 n=54 v=64
66 On ch=10 n=54 v=61
62 Off ch=10 n=54 v=64
57 On ch=10 n=54 v=75
55 Off ch=10 n=54 v=64
66 On ch=10 n=54 v=37
69 Off ch=10 n=54 v=64
50 On ch=10 n=54 v=48
47 Off ch=10 n=54 v=64
75 On ch=10 n=54 v=81
70 Off ch=10 n=54 v=64
49 On ch=10 n=54 v=120
95 Off ch=10 n=54 v=64
79 On ch=10 n=54 v=46
60 Off ch=10 n=54 v=64
8 On ch=10 n=54 v=28
30 Off ch=10 n=54 v=64
90 On ch=10 n=54 v=58
60 Off ch=10 n=54 v=64
58 On ch=10 n=54 v=76
59 Off ch=10 n=54 v=64
62 On ch=10 n=54 v=42
65 Off ch=10 n=54 v=64
53 On ch=10 n=54 v=77
50 Off ch=10 n=54 v=64
71 On ch=10 n=54 v=76
72 Off ch=10 n=54 v=64
49 On ch=10 n=54 v=127
90 Off ch=10 n=54 v=64
89 On ch=10 n=54 v=36
47 Off ch=10 n=54 v=64
13 On ch=10 n=54 v=91
59 Off ch=10 n=54 v=64
61 On ch=10 n=54 v=87
74 Off ch=10 n=54 v=64
46 On ch=10 n=54 v=87
65 Off ch=10 n=54 v=64
56 On ch=10 n=54 v=32
60 Off ch=10 n=54 v=64
58 On ch=10 n=54 v=57
47 Off ch=10 n=54 v=64
73 On ch=10 n=54 v=83
77 Off ch=10 n=54 v=64
44 On ch=10 n=54 v=127
100 Off ch=10 n=54 v=64
24 On ch=10 n=54 v=42
63 Off ch=10 n=54 v=64
53 On ch=10 n=54 v=47
52 Off ch=10 n=54 v=64
69 On ch=10 n=54 v=75
68 Off ch=10 n=54 v=64
51 On ch=10 n=54 v=68
55 Off ch=10 n=54 v=64
66 On ch=10 n=54 v=40
72 Off ch=10 n=54 v=64
45 On ch=10 n=54 v=68
50 Off ch=10 n=54 v=64
72 On ch=10 n=54 v=68
62 Off ch=10 n=54 v=64
57 On ch=10 n=54 v=127
105 Off ch=10 n=54 v=64
18 On ch=10 n=54 v=46
62 Off ch=10 n=54 v=64
55 On ch=10 n=54 v=65
55 Off ch=10 n=54 v=64
65 On ch=10 n=54 v=48
65 Off ch=10 n=54 v=64
55 On ch=10 n=54 v=83
67 Off ch=10 n=54 v=64
54 On ch=10 n=54 v=51
147 Off ch=10 n=54 v=64
93 On ch=10 n=54 v=62
72 Off ch=10 n=54 v=64
48 On ch=10 n=54 v=127
105 Off ch=10 n=54 v=64
18 On ch=10 n=54 v=44
69 Off ch=10 n=54 v=64
50 On ch=10 n=54 v=25
33 Off ch=10 n=54 v=64
87 On ch=10 n=54 v=75
72 Off ch=10 n=54 v=64
46 On ch=10 n=54 v=68
65 Off ch=10 n=54 v=64
58 On ch=10 n=54 v=28
58 Off ch=10 n=54 v=64
59 On ch=10 n=54 v=67
53 Off ch=10 n=54 v=64
70 On ch=10 n=54 v=44
50 Off ch=10 n=54 v=64
68 On ch=10 n=54 v=123
100 Off ch=10 n=54 v=64
22 On ch=10 n=54 v=67
70 Off ch=10 n=54 v=64
47 On ch=10 n=54 v=97
70 Off ch=10 n=54 v=64
51 On ch=10 n=54 v=83
70 Off ch=10 n=54 v=64
0 Meta TrkEnd
TrkEnd
MTrk
TimestampType=Delta
0 Meta Text "CLOSED HAT"
19540 On ch=10 n=42 v=110
97 Off ch=10 n=42 v=64
143 On ch=10 n=42 v=52
82 Off ch=10 n=42 v=64
158 On ch=10 n=42 v=81
99 Off ch=10 n=42 v=64
141 On ch=10 n=42 v=57
99 Off ch=10 n=42 v=64
141 On ch=10 n=42 v=85
102 Off ch=10 n=42 v=64
138 On ch=10 n=42 v=47
67 Off ch=10 n=42 v=64
173 On ch=10 n=42 v=85
99 Off ch=10 n=42 v=64
141 On ch=10 n=42 v=76
68 Off ch=10 n=42 v=64
173 On ch=10 n=42 v=103
104 Off ch=10 n=42 v=64
135 On ch=10 n=42 v=51
82 Off ch=10 n=42 v=64
158 On ch=10 n=42 v=90
105 Off ch=10 n=42 v=64
135 On ch=10 n=42 v=47
90 Off ch=10 n=42 v=64
150 On ch=10 n=42 v=92
107 Off ch=10 n=42 v=64
133 On ch=10 n=42 v=45
77 Off ch=10 n=42 v=64
163 On ch=10 n=42 v=100
97 Off ch=10 n=42 v=64
143 On ch=10 n=42 v=59
77 Off ch=10 n=42 v=64
163 On ch=10 n=42 v=92
102 Off ch=10 n=42 v=64
138 On ch=10 n=42 v=53
75 Off ch=10 n=42 v=64
165 On ch=10 n=42 v=90
112 Off ch=10 n=42 v=64
128 On ch=10 n=42 v=64
72 Off ch=10 n=42 v=64
168 On ch=10 n=42 v=103
102 Off ch=10 n=42 v=64
138 On ch=10 n=42 v=65
72 Off ch=10 n=42 v=64
168 On ch=10 n=42 v=103
100 Off ch=10 n=42 v=64
140 On ch=10 n=42 v=57
75 Off ch=10 n=42 v=64
165 On ch=10 n=42 v=81
87 Off ch=10 n=42 v=64
153 On ch=10 n=42 v=59
60 Off ch=10 n=42 v=64
180 On ch=10 n=42 v=81
67 Off ch=10 n=42 v=64
173 On ch=10 n=42 v=85
50 Off ch=10 n=42 v=64
70 On ch=10 n=42 v=85
48 Off ch=10 n=42 v=64
72 On ch=10 n=42 v=90
70 Off ch=10 n=42 v=64
169 On ch=10 n=42 v=78
50 Off ch=10 n=42 v=64
191 On ch=10 n=42 v=103
85 Off ch=10 n=42 v=64
155 On ch=10 n=42 v=67
70 Off ch=10 n=42 v=64
170 On ch=10 n=42 v=87
89 Off ch=10 n=42 v=64
151 On ch=10 n=42 v=57
52 Off ch=10 n=42 v=64
188 On ch=10 n=42 v=90
70 Off ch=10 n=42 v=64
170 On ch=10 n=42 v=67
67 Off ch=10 n=42 v=64
173 On ch=10 n=42 v=87
80 Off ch=10 n=42 v=64
160 On ch=10 n=42 v=70
60 Off ch=10 n=42 v=64
180 On ch=10 n=42 v=92
79 Off ch=10 n=42 v=64
161 On ch=10 n=42 v=67
62 Off ch=10 n=42 v=64
178 On ch=10 n=42 v=85
82 Off ch=10 n=42 v=64
158 On ch=10 n=42 v=67
54 Off ch=10 n=42 v=64
186 On ch=10 n=42 v=103
83 Off ch=10 n=42 v=64
157 On ch=10 n=42 v=81
85 Off ch=10 n=42 v=64
155 On ch=10 n=42 v=79
87 Off ch=10 n=42 v=64
153 On ch=10 n=42 v=65
55 Off ch=10 n=42 v=64
185 On ch=10 n=42 v=85
60 Off ch=10 n=42 v=64
180 On ch=10 n=42 v=85
52 Off ch=10 n=42 v=64
68 On ch=10 n=42 v=33
42 Off ch=10 n=42 v=64
78 On ch=10 n=42 v=77
65 Off ch=10 n=42 v=64
175 On ch=10 n=42 v=70
68 Off ch=10 n=42 v=64
172 On ch=10 n=42 v=92
72 Off ch=10 n=42 v=64
168 On ch=10 n=42 v=81
62 Off ch=10 n=42 v=64
178 On ch=10 n=42 v=96
67 Off ch=10 n=42 v=64
173 On ch=10 n=42 v=77
52 Off ch=10 n=42 v=64
189 On ch=10 n=42 v=103
60 Off ch=10 n=42 v=64
179 On ch=10 n=42 v=92
43 Off ch=10 n=42 v=64
77 On ch=10 n=42 v=85
38 Off ch=10 n=42 v=64
82 On ch=10 n=42 v=96
58 Off ch=10 n=42 v=64
182 On ch=10 n=42 v=96
62 Off ch=10 n=42 v=64
178 On ch=10 n=42 v=92
70 Off ch=10 n=42 v=64
170 On ch=10 n=42 v=77
65 Off ch=10 n=42 v=64
175 On ch=10 n=42 v=87
80 Off ch=10 n=42 v=64
160 On ch=10 n=42 v=77
58 Off ch=10 n=42 v=64
182 On ch=10 n=42 v=87
70 Off ch=10 n=42 v=64
170 On ch=10 n=42 v=67
59 Off ch=10 n=42 v=64
181 On ch=10 n=42 v=103
88 Off ch=10 n=42 v=64
152 On ch=10 n=42 v=67
48 Off ch=10 n=42 v=64
192 On ch=10 n=42 v=100
70 Off ch=10 n=42 v=64
170 On ch=10 n=42 v=87
64 Off ch=10 n=42 v=64
176 On ch=10 n=42 v=81
65 Off ch=10 n=42 v=64
175 On ch=10 n=42 v=81
48 Off ch=10 n=42 v=64
192 On ch=10 n=42 v=103
64 Off ch=10 n=42 v=64
176 On ch=10 n=42 v=85
60 Off ch=10 n=42 v=64
180 On ch=10 n=42 v=96
70 Off ch=10 n=42 v=64
170 On ch=10 n=42 v=78
52 Off ch=10 n=42 v=64
188 On ch=10 n=42 v=96
65 Off ch=10 n=42 v=64
175 On ch=10 n=42 v=79
67 Off ch=10 n=42 v=64
173 On ch=10 n=42 v=96
70 Off ch=10 n=42 v=64
170 On ch=10 n=42 v=77
65 Off ch=10 n=42 v=64
175 On ch=10 n=42 v=85
57 Off ch=10 n=42 v=64
183 On ch=10 n=42 v=77
49 Off ch=10 n=42 v=64
191 On ch=10 n=42 v=96
57 Off ch=10 n=42 v=64
63 On ch=10 n=42 v=53
42 Off ch=10 n=42 v=64
78 On ch=10 n=42 v=85
50 Off ch=10 n=42 v=64
190 On ch=10 n=42 v=103
72 Off ch=10 n=42 v=64
168 On ch=10 n=42 v=92
69 Off ch=10 n=42 v=64
171 On ch=10 n=42 v=81
65 Off ch=10 n=42 v=64
175 On ch=10 n=42 v=81
47 Off ch=10 n=42 v=64
193 On ch=10 n=42 v=92
70 Off ch=10 n=42 v=64
170 On ch=10 n=42 v=87
63 Off ch=10 n=42 v=64
177 On ch=10 n=42 v=92
85 Off ch=10 n=42 v=64
155 On ch=10 n=42 v=78
65 Off ch=10 n=42 v=64
175 On ch=10 n=42 v=96
78 Off ch=10 n=42 v=64
162 On ch=10 n=42 v=81
77 Off ch=10 n=42 v=64
163 On ch=10 n=42 v=92
77 Off ch=10 n=42 v=64
163 On ch=10 n=42 v=90
62 Off ch=10 n=42 v=64
178 On ch=10 n=42 v=92
70 Off ch=10 n=42 v=64
170 On ch=10 n=42 v=87
64 Off ch=10 n=42 v=64
176 On ch=10 n=42 v=96
75 Off ch=10 n=42 v=64
165 On ch=10 n=42 v=78
55 Off ch=10 n=42 v=64
185 On ch=10 n=42 v=87
64 Off ch=10 n=42 v=64
176 On ch=10 n=42 v=87
62 Off ch=10 n=42 v=64
178 On ch=10 n=42 v=92
72 Off ch=10 n=42 v=64
168 On ch=10 n=42 v=87
54 Off ch=10 n=42 v=64
186 On ch=10 n=42 v=110
70 Off ch=10 n=42 v=64
170 On ch=10 n=42 v=110
75 Off ch=10 n=42 v=64
165 On ch=10 n=42 v=118
70 Off ch=10 n=42 v=64
7610 On ch=10 n=42 v=103
102 Off ch=10 n=42 v=64
138 On ch=10 n=42 v=57
57 Off ch=10 n=42 v=64
183 On ch=10 n=42 v=92
75 Off ch=10 n=42 v=64
165 On ch=10 n=42 v=66
70 Off ch=10 n=42 v=64
170 On ch=10 n=42 v=85
79 Off ch=10 n=42 v=64
161 On ch=10 n=42 v=57
52 Off ch=10 n=42 v=64
188 On ch=10 n=42 v=92
79 Off ch=10 n=42 v=64
161 On ch=10 n=42 v=78
69 Off ch=10 n=42 v=64
171 On ch=10 n=42 v=81
78 Off ch=10 n=42 v=64
162 On ch=10 n=42 v=59
47 Off ch=10 n=42 v=64
193 On ch=10 n=42 v=85
72 Off ch=10 n=42 v=64
168 On ch=10 n=42 v=79
57 Off ch=10 n=42 v=64
183 On ch=10 n=42 v=81
72 Off ch=10 n=42 v=64
168 On ch=10 n=42 v=51
44 Off ch=10 n=42 v=64
196 On ch=10 n=42 v=92
67 Off ch=10 n=42 v=64
173 On ch=10 n=42 v=78
67 Off ch=10 n=42 v=64
173 On ch=10 n=42 v=81
67 Off ch=10 n=42 v=64
173 On ch=10 n=42 v=77
48 Off ch=10 n=42 v=64
192 On ch=10 n=42 v=85
64 Off ch=10 n=42 v=64
176 On ch=10 n=42 v=87
72 Off ch=10 n=42 v=64
168 On ch=10 n=42 v=81
75 Off ch=10 n=42 v=64
165 On ch=10 n=42 v=64
43 Off ch=10 n=42 v=64
197 On ch=10 n=42 v=87
62 Off ch=10 n=42 v=64
178 On ch=10 n=42 v=81
53 Off ch=10 n=42 v=64
187 On ch=10 n=42 v=85
62 Off ch=10 n=42 v=64
178 On ch=10 n=42 v=78
47 Off ch=10 n=42 v=64
193 On ch=10 n=42 v=79
47 Off ch=10 n=42 v=64
193 On ch=10 n=42 v=87
50 Off ch=10 n=42 v=64
70 On ch=10 n=42 v=78
62 Off ch=10 n=42 v=64
58 On ch=10 n=42 v=85
52 Off ch=10 n=42 v=64
188 On ch=10 n=42 v=81
44 Off ch=10 n=42 v=64
196 On ch=10 n=42 v=110
72 Off ch=10 n=42 v=64
168 On ch=10 n=42 v=78
62 Off ch=10 n=42 v=64
178 On ch=10 n=42 v=92
84 Off ch=10 n=42 v=64
156 On ch=10 n=42 v=65
48 Off ch=10 n=42 v=64
192 On ch=10 n=42 v=92
77 Off ch=10 n=42 v=64
163 On ch=10 n=42 v=79
72 Off ch=10 n=42 v=64
168 On ch=10 n=42 v=90
94 Off ch=10 n=42 v=64
146 On ch=10 n=42 v=74
62 Off ch=10 n=42 v=64
178 On ch=10 n=42 v=92
97 Off ch=10 n=42 v=64
143 On ch=10 n=42 v=77
82 Off ch=10 n=42 v=64
158 On ch=10 n=42 v=85
97 Off ch=10 n=42 v=64
143 On ch=10 n=42 v=54
60 Off ch=10 n=42 v=64
180 On ch=10 n=42 v=87
95 Off ch=10 n=42 v=64
145 On ch=10 n=42 v=78
97 Off ch=10 n=42 v=64
143 On ch=10 n=42 v=81
89 Off ch=10 n=42 v=64
151 On ch=10 n=42 v=64
49 Off ch=10 n=42 v=64
191 On ch=10 n=42 v=92
92 Off ch=10 n=42 v=64
148 On ch=10 n=42 v=77
82 Off ch=10 n=42 v=64
158 On ch=10 n=42 v=78
87 Off ch=10 n=42 v=64
153 On ch=10 n=42 v=64
63 Off ch=10 n=42 v=64
177 On ch=10 n=42 v=96
85 Off ch=10 n=42 v=64
155 On ch=10 n=42 v=81
79 Off ch=10 n=42 v=64
161 On ch=10 n=42 v=103
90 Off ch=10 n=42 v=64
150 On ch=10 n=42 v=59
48 Off ch=10 n=42 v=64
193 On ch=10 n=42 v=103
79 Off ch=10 n=42 v=64
160 On ch=10 n=42 v=85
68 Off ch=10 n=42 v=64
172 On ch=10 n=42 v=92
89 Off ch=10 n=42 v=64
151 On ch=10 n=42 v=78
60 Off ch=10 n=42 v=64
180 On ch=10 n=42 v=103
78 Off ch=10 n=42 v=64
162 On ch=10 n=42 v=85
80 Off ch=10 n=42 v=64
160 On ch=10 n=42 v=96
82 Off ch=10 n=42 v=64
158 On ch=10 n=42 v=67
58 Off ch=10 n=42 v=64
182 On ch=10 n=42 v=103
84 Off ch=10 n=42 v=64
156 On ch=10 n=42 v=90
79 Off ch=10 n=42 v=64
161 On ch=10 n=42 v=87
82 Off ch=10 n=42 v=64
158 On ch=10 n=42 v=81
63 Off ch=10 n=42 v=64
177 On ch=10 n=42 v=96
80 Off ch=10 n=42 v=64
160 On ch=10 n=42 v=85
80 Off ch=10 n=42 v=64
160 On ch=10 n=42 v=90
82 Off ch=10 n=42 v=64
158 On ch=10 n=42 v=85
70 Off ch=10 n=42 v=64
170 On ch=10 n=42 v=92
75 Off ch=10 n=42 v=64
165 On ch=10 n=42 v=81
62 Off ch=10 n=42 v=64
178 On ch=10 n=42 v=92
92 Off ch=10 n=42 v=64
148 On ch=10 n=42 v=81
69 Off ch=10 n=42 v=64
171 On ch=10 n=42 v=96
82 Off ch=10 n=42 v=64
158 On ch=10 n=42 v=92
102 Off ch=10 n=42 v=64
138 On ch=10 n=42 v=65
77 Off ch=10 n=42 v=64
163 On ch=10 n=42 v=85
62 Off ch=10 n=42 v=64
178 On ch=10 n=42 v=103
85 Off ch=10 n=42 v=64
155 On ch=10 n=42 v=67
67 Off ch=10 n=42 v=64
173 On ch=10 n=42 v=85
77 Off ch=10 n=42 v=64
163 On ch=10 n=42 v=78
63 Off ch=10 n=42 v=64
177 On ch=10 n=42 v=100
90 Off ch=10 n=42 v=64
150 On ch=10 n=42 v=92
89 Off ch=10 n=42 v=64
151 On ch=10 n=42 v=81
82 Off ch=10 n=42 v=64
158 On ch=10 n=42 v=67
50 Off ch=10 n=42 v=64
190 On ch=10 n=42 v=103
77 Off ch=10 n=42 v=64
163 On ch=10 n=42 v=87
77 Off ch=10 n=42 v=64
163 On ch=10 n=42 v=92
92 Off ch=10 n=42 v=64
148 On ch=10 n=42 v=78
54 Off ch=10 n=42 v=64
186 On ch=10 n=42 v=100
85 Off ch=10 n=42 v=64
155 On ch=10 n=42 v=87
79 Off ch=10 n=42 v=64
161 On ch=10 n=42 v=96
82 Off ch=10 n=42 v=64
158 On ch=10 n=42 v=81
67 Off ch=10 n=42 v=64
173 On ch=10 n=42 v=103
77 Off ch=10 n=42 v=64
163 On ch=10 n=42 v=103
74 Off ch=10 n=42 v=64
166 On ch=10 n=42 v=103
85 Off ch=10 n=42 v=64
155 On ch=10 n=42 v=76
57 Off ch=10 n=42 v=64
183 On ch=10 n=42 v=92
69 Off ch=10 n=42 v=64
171 On ch=10 n=42 v=92
79 Off ch=10 n=42 v=64
161 On ch=10 n=42 v=85
70 Off ch=10 n=42 v=64
170 On ch=10 n=42 v=78
50 Off ch=10 n=42 v=64
190 On ch=10 n=42 v=85
50 Off ch=10 n=42 v=64
190 On ch=10 n=42 v=96
52 Off ch=10 n=42 v=64
68 On ch=10 n=42 v=103
55 Off ch=10 n=42 v=64
65 On ch=10 n=42 v=85
53 Off ch=10 n=42 v=64
187 On ch=10 n=42 v=92
62 Off ch=10 n=42 v=64
178 On ch=10 n=42 v=96
59 Off ch=10 n=42 v=64
181 On ch=10 n=42 v=87
48 Off ch=10 n=42 v=64
192 On ch=10 n=42 v=77
42 Off ch=10 n=42 v=64
198 On ch=10 n=42 v=87
45 Off ch=10 n=42 v=64
195 On ch=10 n=42 v=103
60 Off ch=10 n=42 v=64
180 On ch=10 n=42 v=96
45 Off ch=10 n=42 v=64
75 On ch=10 n=42 v=81
37 Off ch=10 n=42 v=64
83 On ch=10 n=42 v=100
49 Off ch=10 n=42 v=64
48911 On ch=10 n=42 v=110
97 Off ch=10 n=42 v=64
143 On ch=10 n=42 v=52
82 Off ch=10 n=42 v=64
158 On ch=10 n=42 v=81
99 Off ch=10 n=42 v=64
141 On ch=10 n=42 v=57
99 Off ch=10 n=42 v=64
141 On ch=10 n=42 v=85
102 Off ch=10 n=42 v=64
138 On ch=10 n=42 v=47
67 Off ch=10 n=42 v=64
173 On ch=10 n=42 v=85
99 Off ch=10 n=42 v=64
141 On ch=10 n=42 v=76
68 Off ch=10 n=42 v=64
173 On ch=10 n=42 v=103
104 Off ch=10 n=42 v=64
135 On ch=10 n=42 v=51
82 Off ch=10 n=42 v=64
158 On ch=10 n=42 v=90
105 Off ch=10 n=42 v=64
135 On ch=10 n=42 v=47
90 Off ch=10 n=42 v=64
150 On ch=10 n=42 v=92
107 Off ch=10 n=42 v=64
133 On ch=10 n=42 v=45
77 Off ch=10 n=42 v=64
163 On ch=10 n=42 v=100
97 Off ch=10 n=42 v=64
143 On ch=10 n=42 v=59
77 Off ch=10 n=42 v=64
163 On ch=10 n=42 v=92
102 Off ch=10 n=42 v=64
138 On ch=10 n=42 v=53
75 Off ch=10 n=42 v=64
165 On ch=10 n=42 v=90
112 Off ch=10 n=42 v=64
128 On ch=10 n=42 v=64
72 Off ch=10 n=42 v=64
168 On ch=10 n=42 v=103
102 Off ch=10 n=42 v=64
138 On ch=10 n=42 v=65
72 Off ch=10 n=42 v=64
168 On ch=10 n=42 v=103
100 Off ch=10 n=42 v=64
140 On ch=10 n=42 v=57
75 Off ch=10 n=42 v=64
165 On ch=10 n=42 v=81
87 Off ch=10 n=42 v=64
153 On ch=10 n=42 v=59
60 Off ch=10 n=42 v=64
180 On ch=10 n=42 v=81
67 Off ch=10 n=42 v=64
173 On ch=10 n=42 v=85
50 Off ch=10 n=42 v=64
70 On ch=10 n=42 v=85
48 Off ch=10 n=42 v=64
76 On ch=10 n=42 v=90
70 Off ch=10 n=42 v=64
170 On ch=10 n=42 v=78
50 Off ch=10 n=42 v=64
190 On ch=10 n=42 v=103
85 Off ch=10 n=42 v=64
155 On ch=10 n=42 v=67
70 Off ch=10 n=42 v=64
170 On ch=10 n=42 v=87
89 Off ch=10 n=42 v=64
151 On ch=10 n=42 v=57
52 Off ch=10 n=42 v=64
188 On ch=10 n=42 v=90
70 Off ch=10 n=42 v=64
170 On ch=10 n=42 v=67
67 Off ch=10 n=42 v=64
173 On ch=10 n=42 v=87
80 Off ch=10 n=42 v=64
160 On ch=10 n=42 v=70
60 Off ch=10 n=42 v=64
180 On ch=10 n=42 v=92
79 Off ch=10 n=42 v=64
161 On ch=10 n=42 v=67
62 Off ch=10 n=42 v=64
178 On ch=10 n=42 v=85
82 Off ch=10 n=42 v=64
158 On ch=10 n=42 v=67
54 Off ch=10 n=42 v=64
186 On ch=10 n=42 v=103
83 Off ch=10 n=42 v=64
157 On ch=10 n=42 v=81
85 Off ch=10 n=42 v=64
155 On ch=10 n=42 v=79
87 Off ch=10 n=42 v=64
153 On ch=10 n=42 v=65
55 Off ch=10 n=42 v=64
185 On ch=10 n=42 v=85
60 Off ch=10 n=42 v=64
180 On ch=10 n=42 v=85
52 Off ch=10 n=42 v=64
68 On ch=10 n=42 v=33
42 Off ch=10 n=42 v=64
78 On ch=10 n=42 v=77
65 Off ch=10 n=42 v=64
175 On ch=10 n=42 v=70
68 Off ch=10 n=42 v=64
172 On ch=10 n=42 v=92
72 Off ch=10 n=42 v=64
168 On ch=10 n=42 v=81
62 Off ch=10 n=42 v=64
179 On ch=10 n=42 v=96
67 Off ch=10 n=42 v=64
173 On ch=10 n=42 v=77
52 Off ch=10 n=42 v=64
188 On ch=10 n=42 v=103
60 Off ch=10 n=42 v=64
179 On ch=10 n=42 v=92
43 Off ch=10 n=42 v=64
78 On ch=10 n=42 v=85
38 Off ch=10 n=42 v=64
81 On ch=10 n=42 v=96
58 Off ch=10 n=42 v=64
182 On ch=10 n=42 v=96
62 Off ch=10 n=42 v=64
178 On ch=10 n=42 v=92
70 Off ch=10 n=42 v=64
170 On ch=10 n=42 v=77
65 Off ch=10 n=42 v=64
175 On ch=10 n=42 v=87
80 Off ch=10 n=42 v=64
160 On ch=10 n=42 v=77
58 Off ch=10 n=42 v=64
182 On ch=10 n=42 v=87
70 Off ch=10 n=42 v=64
170 On ch=10 n=42 v=67
59 Off ch=10 n=42 v=64
181 On ch=10 n=42 v=103
88 Off ch=10 n=42 v=64
152 On ch=10 n=42 v=67
48 Off ch=10 n=42 v=64
192 On ch=10 n=42 v=100
70 Off ch=10 n=42 v=64
170 On ch=10 n=42 v=87
64 Off ch=10 n=42 v=64
176 On ch=10 n=42 v=81
65 Off ch=10 n=42 v=64
175 On ch=10 n=42 v=81
48 Off ch=10 n=42 v=64
192 On ch=10 n=42 v=103
64 Off ch=10 n=42 v=64
176 On ch=10 n=42 v=85
60 Off ch=10 n=42 v=64
180 On ch=10 n=42 v=96
70 Off ch=10 n=42 v=64
170 On ch=10 n=42 v=78
52 Off ch=10 n=42 v=64
188 On ch=10 n=42 v=96
65 Off ch=10 n=42 v=64
175 On ch=10 n=42 v=79
67 Off ch=10 n=42 v=64
173 On ch=10 n=42 v=96
70 Off ch=10 n=42 v=64
170 On ch=10 n=42 v=77
65 Off ch=10 n=42 v=64
175 On ch=10 n=42 v=85
57 Off ch=10 n=42 v=64
183 On ch=10 n=42 v=77
49 Off ch=10 n=42 v=64
191 On ch=10 n=42 v=96
57 Off ch=10 n=42 v=64
64 On ch=10 n=42 v=53
42 Off ch=10 n=42 v=64
77 On ch=10 n=42 v=85
50 Off ch=10 n=42 v=64
190 On ch=10 n=42 v=103
72 Off ch=10 n=42 v=64
168 On ch=10 n=42 v=92
69 Off ch=10 n=42 v=64
171 On ch=10 n=42 v=81
65 Off ch=10 n=42 v=64
175 On ch=10 n=42 v=81
47 Off ch=10 n=42 v=64
193 On ch=10 n=42 v=92
70 Off ch=10 n=42 v=64
170 On ch=10 n=42 v=87
63 Off ch=10 n=42 v=64
177 On ch=10 n=42 v=92
85 Off ch=10 n=42 v=64
155 On ch=10 n=42 v=78
65 Off ch=10 n=42 v=64
175 On ch=10 n=42 v=96
78 Off ch=10 n=42 v=64
162 On ch=10 n=42 v=81
77 Off ch=10 n=42 v=64
163 On ch=10 n=42 v=92
77 Off ch=10 n=42 v=64
163 On ch=10 n=42 v=90
62 Off ch=10 n=42 v=64
178 On ch=10 n=42 v=92
70 Off ch=10 n=42 v=64
170 On ch=10 n=42 v=87
64 Off ch=10 n=42 v=64
176 On ch=10 n=42 v=96
75 Off ch=10 n=42 v=64
165 On ch=10 n=42 v=78
55 Off ch=10 n=42 v=64
185 On ch=10 n=42 v=87
64 Off ch=10 n=42 v=64
176 On ch=10 n=42 v=87
62 Off ch=10 n=42 v=64
178 On ch=10 n=42 v=92
72 Off ch=10 n=42 v=64
168 On ch=10 n=42 v=87
54 Off ch=10 n=42 v=64
186 On ch=10 n=42 v=110
70 Off ch=10 n=42 v=64
170 On ch=10 n=42 v=110
75 Off ch=10 n=42 v=64
165 On ch=10 n=42 v=103
102 Off ch=10 n=42 v=64
138 On ch=10 n=42 v=57
57 Off ch=10 n=42 v=64
183 On ch=10 n=42 v=92
75 Off ch=10 n=42 v=64
165 On ch=10 n=42 v=66
70 Off ch=10 n=42 v=64
170 On ch=10 n=42 v=85
79 Off ch=10 n=42 v=64
161 On ch=10 n=42 v=57
52 Off ch=10 n=42 v=64
188 On ch=10 n=42 v=92
79 Off ch=10 n=42 v=64
161 On ch=10 n=42 v=78
69 Off ch=10 n=42 v=64
171 On ch=10 n=42 v=81
78 Off ch=10 n=42 v=64
162 On ch=10 n=42 v=59
47 Off ch=10 n=42 v=64
193 On ch=10 n=42 v=85
72 Off ch=10 n=42 v=64
168 On ch=10 n=42 v=79
57 Off ch=10 n=42 v=64
184 On ch=10 n=42 v=81
72 Off ch=10 n=42 v=64
167 On ch=10 n=42 v=51
44 Off ch=10 n=42 v=64
197 On ch=10 n=42 v=92
67 Off ch=10 n=42 v=64
173 On ch=10 n=42 v=78
67 Off ch=10 n=42 v=64
173 On ch=10 n=42 v=81
67 Off ch=10 n=42 v=64
172 On ch=10 n=42 v=77
48 Off ch=10 n=42 v=64
193 On ch=10 n=42 v=85
64 Off ch=10 n=42 v=64
176 On ch=10 n=42 v=87
72 Off ch=10 n=42 v=64
168 On ch=10 n=42 v=81
75 Off ch=10 n=42 v=64
165 On ch=10 n=42 v=64
43 Off ch=10 n=42 v=64
197 On ch=10 n=42 v=87
62 Off ch=10 n=42 v=64
178 On ch=10 n=42 v=81
53 Off ch=10 n=42 v=64
187 On ch=10 n=42 v=85
62 Off ch=10 n=42 v=64
178 On ch=10 n=42 v=78
47 Off ch=10 n=42 v=64
193 On ch=10 n=42 v=79
47 Off ch=10 n=42 v=64
193 On ch=10 n=42 v=87
50 Off ch=10 n=42 v=64
69 On ch=10 n=42 v=78
62 Off ch=10 n=42 v=64
59 On ch=10 n=42 v=85
52 Off ch=10 n=42 v=64
187 On ch=10 n=42 v=81
44 Off ch=10 n=42 v=64
196 On ch=10 n=42 v=110
72 Off ch=10 n=42 v=64
168 On ch=10 n=42 v=78
62 Off ch=10 n=42 v=64
179 On ch=10 n=42 v=92
84 Off ch=10 n=42 v=64
156 On ch=10 n=42 v=65
48 Off ch=10 n=42 v=64
192 On ch=10 n=42 v=92
77 Off ch=10 n=42 v=64
163 On ch=10 n=42 v=79
72 Off ch=10 n=42 v=64
168 On ch=10 n=42 v=90
94 Off ch=10 n=42 v=64
145 On ch=10 n=42 v=74
62 Off ch=10 n=42 v=64
178 On ch=10 n=42 v=92
97 Off ch=10 n=42 v=64
143 On ch=10 n=42 v=77
82 Off ch=10 n=42 v=64
158 On ch=10 n=42 v=85
97 Off ch=10 n=42 v=64
143 On ch=10 n=42 v=54
60 Off ch=10 n=42 v=64
180 On ch=10 n=42 v=87
95 Off ch=10 n=42 v=64
145 On ch=10 n=42 v=78
97 Off ch=10 n=42 v=64
143 On ch=10 n=42 v=81
89 Off ch=10 n=42 v=64
151 On ch=10 n=42 v=64
49 Off ch=10 n=42 v=64
191 On ch=10 n=42 v=92
92 Off ch=10 n=42 v=64
148 On ch=10 n=42 v=77
82 Off ch=10 n=42 v=64
158 On ch=10 n=42 v=78
87 Off ch=10 n=42 v=64
153 On ch=10 n=42 v=64
63 Off ch=10 n=42 v=64
178 On ch=10 n=42 v=96
85 Off ch=10 n=42 v=64
155 On ch=10 n=42 v=81
79 Off ch=10 n=42 v=64
161 On ch=10 n=42 v=103
90 Off ch=10 n=42 v=64
150 On ch=10 n=42 v=59
48 Off ch=10 n=42 v=64
189 On ch=10 n=42 v=103
79 Off ch=10 n=42 v=64
161 On ch=10 n=42 v=85
68 Off ch=10 n=42 v=64
172 On ch=10 n=42 v=92
89 Off ch=10 n=42 v=64
151 On ch=10 n=42 v=78
60 Off ch=10 n=42 v=64
180 On ch=10 n=42 v=103
78 Off ch=10 n=42 v=64
162 On ch=10 n=42 v=85
80 Off ch=10 n=42 v=64
160 On ch=10 n=42 v=96
82 Off ch=10 n=42 v=64
158 On ch=10 n=42 v=67
58 Off ch=10 n=42 v=64
182 On ch=10 n=42 v=103
84 Off ch=10 n=42 v=64
156 On ch=10 n=42 v=90
79 Off ch=10 n=42 v=64
161 On ch=10 n=42 v=87
82 Off ch=10 n=42 v=64
158 On ch=10 n=42 v=81
63 Off ch=10 n=42 v=64
177 On ch=10 n=42 v=96
80 Off ch=10 n=42 v=64
159 On ch=10 n=42 v=85
80 Off ch=10 n=42 v=64
160 On ch=10 n=42 v=90
82 Off ch=10 n=42 v=64
158 On ch=10 n=42 v=85
70 Off ch=10 n=42 v=64
170 On ch=10 n=42 v=92
75 Off ch=10 n=42 v=64
165 On ch=10 n=42 v=81
62 Off ch=10 n=42 v=64
178 On ch=10 n=42 v=92
92 Off ch=10 n=42 v=64
148 On ch=10 n=42 v=81
69 Off ch=10 n=42 v=64
171 On ch=10 n=42 v=96
82 Off ch=10 n=42 v=64
158 On ch=10 n=42 v=92
102 Off ch=10 n=42 v=64
138 On ch=10 n=42 v=65
77 Off ch=10 n=42 v=64
163 On ch=10 n=42 v=85
62 Off ch=10 n=42 v=64
178 On ch=10 n=42 v=103
85 Off ch=10 n=42 v=64
155 On ch=10 n=42 v=67
67 Off ch=10 n=42 v=64
173 On ch=10 n=42 v=85
77 Off ch=10 n=42 v=64
163 On ch=10 n=42 v=78
63 Off ch=10 n=42 v=64
177 On ch=10 n=42 v=100
90 Off ch=10 n=42 v=64
150 On ch=10 n=42 v=92
89 Off ch=10 n=42 v=64
151 On ch=10 n=42 v=81
82 Off ch=10 n=42 v=64
158 On ch=10 n=42 v=67
50 Off ch=10 n=42 v=64
190 On ch=10 n=42 v=103
77 Off ch=10 n=42 v=64
163 On ch=10 n=42 v=87
77 Off ch=10 n=42 v=64
163 On ch=10 n=42 v=92
92 Off ch=10 n=42 v=64
148 On ch=10 n=42 v=78
54 Off ch=10 n=42 v=64
187 On ch=10 n=42 v=100
85 Off ch=10 n=42 v=64
154 On ch=10 n=42 v=87
79 Off ch=10 n=42 v=64
162 On ch=10 n=42 v=96
82 Off ch=10 n=42 v=64
158 On ch=10 n=42 v=81
67 Off ch=10 n=42 v=64
173 On ch=10 n=42 v=103
77 Off ch=10 n=42 v=64
163 On ch=10 n=42 v=103
74 Off ch=10 n=42 v=64
166 On ch=10 n=42 v=103
85 Off ch=10 n=42 v=64
155 On ch=10 n=42 v=76
57 Off ch=10 n=42 v=64
183 On ch=10 n=42 v=92
69 Off ch=10 n=42 v=64
170 On ch=10 n=42 v=92
79 Off ch=10 n=42 v=64
161 On ch=10 n=42 v=85
70 Off ch=10 n=42 v=64
170 On ch=10 n=42 v=78
50 Off ch=10 n=42 v=64
190 On ch=10 n=42 v=85
50 Off ch=10 n=42 v=64
190 On ch=10 n=42 v=96
52 Off ch=10 n=42 v=64
68 On ch=10 n=42 v=103
55 Off ch=10 n=42 v=64
65 On ch=10 n=42 v=85
53 Off ch=10 n=42 v=64
187 On ch=10 n=42 v=92
62 Off ch=10 n=42 v=64
178 On ch=10 n=42 v=96
59 Off ch=10 n=42 v=64
181 On ch=10 n=42 v=87
48 Off ch=10 n=42 v=64
192 On ch=10 n=42 v=77
42 Off ch=10 n=42 v=64
198 On ch=10 n=42 v=87
45 Off ch=10 n=42 v=64
195 On ch=10 n=42 v=103
60 Off ch=10 n=42 v=64
180 On ch=10 n=42 v=96
45 Off ch=10 n=42 v=64
75 On ch=10 n=42 v=81
37 Off ch=10 n=42 v=64
0 Meta TrkEnd
TrkEnd
MTrk
TimestampType=Delta
0 Meta Text "SHAKER "
19778 On ch=10 n=69 v=62
12 Off ch=10 n=69 v=64
108 On ch=10 n=69 v=62
12 Off ch=10 n=69 v=64
348 On ch=10 n=69 v=52
12 Off ch=10 n=69 v=64
108 On ch=10 n=69 v=58
12 Off ch=10 n=69 v=64
348 On ch=10 n=69 v=58
12 Off ch=10 n=69 v=64
108 On ch=10 n=69 v=52
12 Off ch=10 n=69 v=64
348 On ch=10 n=69 v=52
12 Off ch=10 n=69 v=64
108 On ch=10 n=69 v=50
12 Off ch=10 n=69 v=64
348 On ch=10 n=69 v=52
12 Off ch=10 n=69 v=64
108 On ch=10 n=69 v=48
12 Off ch=10 n=69 v=64
348 On ch=10 n=69 v=56
12 Off ch=10 n=69 v=64
108 On ch=10 n=69 v=48
12 Off ch=10 n=69 v=64
348 On ch=10 n=69 v=52
12 Off ch=10 n=69 v=64
108 On ch=10 n=69 v=48
12 Off ch=10 n=69 v=64
348 On ch=10 n=69 v=56
12 Off ch=10 n=69 v=64
108 On ch=10 n=69 v=50
12 Off ch=10 n=69 v=64
348 On ch=10 n=69 v=52
12 Off ch=10 n=69 v=64
108 On ch=10 n=69 v=46
12 Off ch=10 n=69 v=64
348 On ch=10 n=69 v=52
12 Off ch=10 n=69 v=64
108 On ch=10 n=69 v=50
12 Off ch=10 n=69 v=64
348 On ch=10 n=69 v=66
12 Off ch=10 n=69 v=64
108 On ch=10 n=69 v=52
12 Off ch=10 n=69 v=64
348 On ch=10 n=69 v=62
12 Off ch=10 n=69 v=64
108 On ch=10 n=69 v=50
12 Off ch=10 n=69 v=64
348 On ch=10 n=69 v=56
12 Off ch=10 n=69 v=64
108 On ch=10 n=69 v=50
12 Off ch=10 n=69 v=64
348 On ch=10 n=69 v=58
12 Off ch=10 n=69 v=64
108 On ch=10 n=69 v=50
12 Off ch=10 n=69 v=64
348 On ch=10 n=69 v=58
12 Off ch=10 n=69 v=64
108 On ch=10 n=69 v=56
12 Off ch=10 n=69 v=64
348 On ch=10 n=69 v=62
12 Off ch=10 n=69 v=64
108 On ch=10 n=69 v=56
12 Off ch=10 n=69 v=64
348 On ch=10 n=69 v=62
12 Off ch=10 n=69 v=64
108 On ch=10 n=69 v=52
12 Off ch=10 n=69 v=64
348 On ch=10 n=69 v=56
12 Off ch=10 n=69 v=64
108 On ch=10 n=69 v=50
12 Off ch=10 n=69 v=64
348 On ch=10 n=69 v=56
12 Off ch=10 n=69 v=64
108 On ch=10 n=69 v=52
12 Off ch=10 n=69 v=64
348 On ch=10 n=69 v=56
12 Off ch=10 n=69 v=64
108 On ch=10 n=69 v=52
12 Off ch=10 n=69 v=64
348 On ch=10 n=69 v=58
12 Off ch=10 n=69 v=64
108 On ch=10 n=69 v=52
12 Off ch=10 n=69 v=64
348 On ch=10 n=69 v=56
12 Off ch=10 n=69 v=64
108 On ch=10 n=69 v=56
12 Off ch=10 n=69 v=64
348 On ch=10 n=69 v=58
12 Off ch=10 n=69 v=64
108 On ch=10 n=69 v=50
12 Off ch=10 n=69 v=64
348 On ch=10 n=69 v=58
12 Off ch=10 n=69 v=64
108 On ch=10 n=69 v=50
12 Off ch=10 n=69 v=64
348 On ch=10 n=69 v=58
12 Off ch=10 n=69 v=64
108 On ch=10 n=69 v=38
12 Off ch=10 n=69 v=64
348 On ch=10 n=69 v=56
12 Off ch=10 n=69 v=64
108 On ch=10 n=69 v=52
12 Off ch=10 n=69 v=64
348 On ch=10 n=69 v=62
12 Off ch=10 n=69 v=64
108 On ch=10 n=69 v=52
12 Off ch=10 n=69 v=64
348 On ch=10 n=69 v=64
12 Off ch=10 n=69 v=64
108 On ch=10 n=69 v=52
12 Off ch=10 n=69 v=64
348 On ch=10 n=69 v=62
12 Off ch=10 n=69 v=64
108 On ch=10 n=69 v=50
12 Off ch=10 n=69 v=64
348 On ch=10 n=69 v=64
12 Off ch=10 n=69 v=64
108 On ch=10 n=69 v=48
12 Off ch=10 n=69 v=64
348 On ch=10 n=69 v=58
12 Off ch=10 n=69 v=64
108 On ch=10 n=69 v=48
12 Off ch=10 n=69 v=64
348 On ch=10 n=69 v=62
12 Off ch=10 n=69 v=64
108 On ch=10 n=69 v=50
12 Off ch=10 n=69 v=64
348 On ch=10 n=69 v=58
12 Off ch=10 n=69 v=64
108 On ch=10 n=69 v=50
12 Off ch=10 n=69 v=64
348 On ch=10 n=69 v=56
12 Off ch=10 n=69 v=64
108 On ch=10 n=69 v=52
12 Off ch=10 n=69 v=64
348 On ch=10 n=69 v=52
12 Off ch=10 n=69 v=64
108 On ch=10 n=69 v=50
12 Off ch=10 n=69 v=64
348 On ch=10 n=69 v=58
12 Off ch=10 n=69 v=64
108 On ch=10 n=69 v=56
12 Off ch=10 n=69 v=64
348 On ch=10 n=69 v=56
12 Off ch=10 n=69 v=64
108 On ch=10 n=69 v=52
12 Off ch=10 n=69 v=64
348 On ch=10 n=69 v=56
12 Off ch=10 n=69 v=64
108 On ch=10 n=69 v=50
12 Off ch=10 n=69 v=64
348 On ch=10 n=69 v=56
12 Off ch=10 n=69 v=64
108 On ch=10 n=69 v=48
12 Off ch=10 n=69 v=64
348 On ch=10 n=69 v=56
12 Off ch=10 n=69 v=64
108 On ch=10 n=69 v=48
12 Off ch=10 n=69 v=64
348 On ch=10 n=69 v=56
12 Off ch=10 n=69 v=64
108 On ch=10 n=69 v=52
12 Off ch=10 n=69 v=64
348 On ch=10 n=69 v=58
12 Off ch=10 n=69 v=64
108 On ch=10 n=69 v=52
12 Off ch=10 n=69 v=64
348 On ch=10 n=69 v=56
12 Off ch=10 n=69 v=64
108 On ch=10 n=69 v=48
12 Off ch=10 n=69 v=64
348 On ch=10 n=69 v=56
12 Off ch=10 n=69 v=64
108 On ch=10 n=69 v=56
12 Off ch=10 n=69 v=64
348 On ch=10 n=69 v=56
12 Off ch=10 n=69 v=64
108 On ch=10 n=69 v=48
12 Off ch=10 n=69 v=64
348 On ch=10 n=69 v=58
12 Off ch=10 n=69 v=64
108 On ch=10 n=69 v=52
12 Off ch=10 n=69 v=64
348 On ch=10 n=69 v=56
12 Off ch=10 n=69 v=64
108 On ch=10 n=69 v=52
12 Off ch=10 n=69 v=64
348 On ch=10 n=69 v=58
12 Off ch=10 n=69 v=64
108 On ch=10 n=69 v=48
12 Off ch=10 n=69 v=64
348 On ch=10 n=69 v=52
12 Off ch=10 n=69 v=64
108 On ch=10 n=69 v=50
12 Off ch=10 n=69 v=64
348 On ch=10 n=69 v=62
12 Off ch=10 n=69 v=64
108 On ch=10 n=69 v=52
12 Off ch=10 n=69 v=64
348 On ch=10 n=69 v=52
12 Off ch=10 n=69 v=64
108 On ch=10 n=69 v=48
12 Off ch=10 n=69 v=64
348 On ch=10 n=69 v=62
12 Off ch=10 n=69 v=64
108 On ch=10 n=69 v=52
12 Off ch=10 n=69 v=64
8028 On ch=10 n=69 v=52
12 Off ch=10 n=69 v=64
108 On ch=10 n=69 v=58
12 Off ch=10 n=69 v=64
348 On ch=10 n=69 v=46
12 Off ch=10 n=69 v=64
108 On ch=10 n=69 v=52
12 Off ch=10 n=69 v=64
348 On ch=10 n=69 v=56
12 Off ch=10 n=69 v=64
108 On ch=10 n=69 v=52
12 Off ch=10 n=69 v=64
348 On ch=10 n=69 v=56
12 Off ch=10 n=69 v=64
108 On ch=10 n=69 v=50
12 Off ch=10 n=69 v=64
348 On ch=10 n=69 v=52
12 Off ch=10 n=69 v=64
108 On ch=10 n=69 v=48
12 Off ch=10 n=69 v=64
348 On ch=10 n=69 v=50
12 Off ch=10 n=69 v=64
108 On ch=10 n=69 v=46
12 Off ch=10 n=69 v=64
348 On ch=10 n=69 v=52
12 Off ch=10 n=69 v=64
108 On ch=10 n=69 v=46
12 Off ch=10 n=69 v=64
348 On ch=10 n=69 v=52
12 Off ch=10 n=69 v=64
108 On ch=10 n=69 v=50
12 Off ch=10 n=69 v=64
348 On ch=10 n=69 v=52
12 Off ch=10 n=69 v=64
108 On ch=10 n=69 v=50
12 Off ch=10 n=69 v=64
348 On ch=10 n=69 v=58
12 Off ch=10 n=69 v=64
108 On ch=10 n=69 v=50
12 Off ch=10 n=69 v=64
348 On ch=10 n=69 v=50
12 Off ch=10 n=69 v=64
108 On ch=10 n=69 v=56
12 Off ch=10 n=69 v=64
348 On ch=10 n=69 v=52
12 Off ch=10 n=69 v=64
108 On ch=10 n=69 v=58
12 Off ch=10 n=69 v=64
348 On ch=10 n=69 v=50
12 Off ch=10 n=69 v=64
108 On ch=10 n=69 v=52
12 Off ch=10 n=69 v=64
348 On ch=10 n=69 v=56
12 Off ch=10 n=69 v=64
108 On ch=10 n=69 v=52
12 Off ch=10 n=69 v=64
348 On ch=10 n=69 v=56
12 Off ch=10 n=69 v=64
108 On ch=10 n=69 v=56
12 Off ch=10 n=69 v=64
348 On ch=10 n=69 v=58
12 Off ch=10 n=69 v=64
108 On ch=10 n=69 v=52
12 Off ch=10 n=69 v=64
348 On ch=10 n=69 v=58
12 Off ch=10 n=69 v=64
108 On ch=10 n=69 v=52
12 Off ch=10 n=69 v=64
348 On ch=10 n=69 v=56
12 Off ch=10 n=69 v=64
108 On ch=10 n=69 v=56
12 Off ch=10 n=69 v=64
348 On ch=10 n=69 v=64
12 Off ch=10 n=69 v=64
108 On ch=10 n=69 v=56
12 Off ch=10 n=69 v=64
348 On ch=10 n=69 v=58
12 Off ch=10 n=69 v=64
108 On ch=10 n=69 v=52
12 Off ch=10 n=69 v=64
348 On ch=10 n=69 v=58
12 Off ch=10 n=69 v=64
108 On ch=10 n=69 v=50
12 Off ch=10 n=69 v=64
348 On ch=10 n=69 v=56
12 Off ch=10 n=69 v=64
108 On ch=10 n=69 v=48
12 Off ch=10 n=69 v=64
348 On ch=10 n=69 v=64
12 Off ch=10 n=69 v=64
108 On ch=10 n=69 v=56
12 Off ch=10 n=69 v=64
348 On ch=10 n=69 v=56
12 Off ch=10 n=69 v=64
108 On ch=10 n=69 v=50
12 Off ch=10 n=69 v=64
348 On ch=10 n=69 v=56
12 Off ch=10 n=69 v=64
108 On ch=10 n=69 v=48
12 Off ch=10 n=69 v=64
348 On ch=10 n=69 v=58
12 Off ch=10 n=69 v=64
108 On ch=10 n=69 v=50
12 Off ch=10 n=69 v=64
348 On ch=10 n=69 v=64
12 Off ch=10 n=69 v=64
108 On ch=10 n=69 v=52
12 Off ch=10 n=69 v=64
348 On ch=10 n=69 v=62
12 Off ch=10 n=69 v=64
108 On ch=10 n=69 v=50
12 Off ch=10 n=69 v=64
348 On ch=10 n=69 v=56
12 Off ch=10 n=69 v=64
108 On ch=10 n=69 v=48
12 Off ch=10 n=69 v=64
348 On ch=10 n=69 v=58
12 Off ch=10 n=69 v=64
108 On ch=10 n=69 v=48
12 Off ch=10 n=69 v=64
348 On ch=10 n=69 v=58
12 Off ch=10 n=69 v=64
108 On ch=10 n=69 v=52
12 Off ch=10 n=69 v=64
348 On ch=10 n=69 v=56
12 Off ch=10 n=69 v=64
108 On ch=10 n=69 v=50
12 Off ch=10 n=69 v=64
348 On ch=10 n=69 v=64
12 Off ch=10 n=69 v=64
108 On ch=10 n=69 v=56
12 Off ch=10 n=69 v=64
348 On ch=10 n=69 v=66
12 Off ch=10 n=69 v=64
108 On ch=10 n=69 v=48
12 Off ch=10 n=69 v=64
348 On ch=10 n=69 v=62
12 Off ch=10 n=69 v=64
108 On ch=10 n=69 v=50
12 Off ch=10 n=69 v=64
348 On ch=10 n=69 v=62
12 Off ch=10 n=69 v=64
108 On ch=10 n=69 v=48
12 Off ch=10 n=69 v=64
348 On ch=10 n=69 v=52
12 Off ch=10 n=69 v=64
108 On ch=10 n=69 v=46
12 Off ch=10 n=69 v=64
348 On ch=10 n=69 v=56
12 Off ch=10 n=69 v=64
108 On ch=10 n=69 v=50
12 Off ch=10 n=69 v=64
348 On ch=10 n=69 v=66
12 Off ch=10 n=69 v=64
108 On ch=10 n=69 v=56
12 Off ch=10 n=69 v=64
348 On ch=10 n=69 v=66
12 Off ch=10 n=69 v=64
108 On ch=10 n=69 v=56
12 Off ch=10 n=69 v=64
348 On ch=10 n=69 v=58
12 Off ch=10 n=69 v=64
108 On ch=10 n=69 v=46
12 Off ch=10 n=69 v=64
348 On ch=10 n=69 v=66
12 Off ch=10 n=69 v=64
108 On ch=10 n=69 v=50
12 Off ch=10 n=69 v=64
348 On ch=10 n=69 v=62
12 Off ch=10 n=69 v=64
108 On ch=10 n=69 v=52
12 Off ch=10 n=69 v=64
348 On ch=10 n=69 v=66
12 Off ch=10 n=69 v=64
108 On ch=10 n=69 v=56
12 Off ch=10 n=69 v=64
348 On ch=10 n=69 v=66
12 Off ch=10 n=69 v=64
108 On ch=10 n=69 v=50
12 Off ch=10 n=69 v=64
348 On ch=10 n=69 v=62
12 Off ch=10 n=69 v=64
108 On ch=10 n=69 v=52
12 Off ch=10 n=69 v=64
348 On ch=10 n=69 v=56
12 Off ch=10 n=69 v=64
108 On ch=10 n=69 v=48
12 Off ch=10 n=69 v=64
348 On ch=10 n=69 v=66
12 Off ch=10 n=69 v=64
108 On ch=10 n=69 v=56
12 Off ch=10 n=69 v=64
348 On ch=10 n=69 v=64
12 Off ch=10 n=69 v=64
108 On ch=10 n=69 v=52
12 Off ch=10 n=69 v=64
348 On ch=10 n=69 v=62
12 Off ch=10 n=69 v=64
108 On ch=10 n=69 v=50
12 Off ch=10 n=69 v=64
348 On ch=10 n=69 v=62
12 Off ch=10 n=69 v=64
108 On ch=10 n=69 v=50
12 Off ch=10 n=69 v=64
348 On ch=10 n=69 v=64
12 Off ch=10 n=69 v=64
108 On ch=10 n=69 v=48
12 Off ch=10 n=69 v=64
348 On ch=10 n=69 v=58
12 Off ch=10 n=69 v=64
108 On ch=10 n=69 v=52
12 Off ch=10 n=69 v=64
348 On ch=10 n=69 v=62
12 Off ch=10 n=69 v=64
108 On ch=10 n=69 v=50
12 Off ch=10 n=69 v=64
348 On ch=10 n=69 v=62
12 Off ch=10 n=69 v=64
108 On ch=10 n=69 v=50
12 Off ch=10 n=69 v=64
348 On ch=10 n=69 v=66
12 Off ch=10 n=69 v=64
108 On ch=10 n=69 v=58
12 Off ch=10 n=69 v=64
49308 On ch=10 n=69 v=62
12 Off ch=10 n=69 v=64
108 On ch=10 n=69 v=62
12 Off ch=10 n=69 v=64
348 On ch=10 n=69 v=52
12 Off ch=10 n=69 v=64
108 On ch=10 n=69 v=58
12 Off ch=10 n=69 v=64
348 On ch=10 n=69 v=58
12 Off ch=10 n=69 v=64
108 On ch=10 n=69 v=52
12 Off ch=10 n=69 v=64
348 On ch=10 n=69 v=52
12 Off ch=10 n=69 v=64
108 On ch=10 n=69 v=50
12 Off ch=10 n=69 v=64
348 On ch=10 n=69 v=52
12 Off ch=10 n=69 v=64
108 On ch=10 n=69 v=48
12 Off ch=10 n=69 v=64
348 On ch=10 n=69 v=56
12 Off ch=10 n=69 v=64
108 On ch=10 n=69 v=48
12 Off ch=10 n=69 v=64
348 On ch=10 n=69 v=52
12 Off ch=10 n=69 v=64
108 On ch=10 n=69 v=48
12 Off ch=10 n=69 v=64
348 On ch=10 n=69 v=56
12 Off ch=10 n=69 v=64
108 On ch=10 n=69 v=50
12 Off ch=10 n=69 v=64
348 On ch=10 n=69 v=52
12 Off ch=10 n=69 v=64
108 On ch=10 n=69 v=46
12 Off ch=10 n=69 v=64
348 On ch=10 n=69 v=52
12 Off ch=10 n=69 v=64
108 On ch=10 n=69 v=50
12 Off ch=10 n=69 v=64
348 On ch=10 n=69 v=66
12 Off ch=10 n=69 v=64
108 On ch=10 n=69 v=52
12 Off ch=10 n=69 v=64
348 On ch=10 n=69 v=62
12 Off ch=10 n=69 v=64
108 On ch=10 n=69 v=50
12 Off ch=10 n=69 v=64
348 On ch=10 n=69 v=56
12 Off ch=10 n=69 v=64
108 On ch=10 n=69 v=50
12 Off ch=10 n=69 v=64
348 On ch=10 n=69 v=58
12 Off ch=10 n=69 v=64
108 On ch=10 n=69 v=50
12 Off ch=10 n=69 v=64
352 On ch=10 n=69 v=58
12 Off ch=10 n=69 v=64
108 On ch=10 n=69 v=56
12 Off ch=10 n=69 v=64
348 On ch=10 n=69 v=62
12 Off ch=10 n=69 v=64
108 On ch=10 n=69 v=56
12 Off ch=10 n=69 v=64
348 On ch=10 n=69 v=62
12 Off ch=10 n=69 v=64
108 On ch=10 n=69 v=52
12 Off ch=10 n=69 v=64
348 On ch=10 n=69 v=56
12 Off ch=10 n=69 v=64
108 On ch=10 n=69 v=50
12 Off ch=10 n=69 v=64
348 On ch=10 n=69 v=56
12 Off ch=10 n=69 v=64
108 On ch=10 n=69 v=52
12 Off ch=10 n=69 v=64
348 On ch=10 n=69 v=56
12 Off ch=10 n=69 v=64
108 On ch=10 n=69 v=52
12 Off ch=10 n=69 v=64
348 On ch=10 n=69 v=58
12 Off ch=10 n=69 v=64
108 On ch=10 n=69 v=52
12 Off ch=10 n=69 v=64
348 On ch=10 n=69 v=56
12 Off ch=10 n=69 v=64
108 On ch=10 n=69 v=56
12 Off ch=10 n=69 v=64
348 On ch=10 n=69 v=58
12 Off ch=10 n=69 v=64
108 On ch=10 n=69 v=50
12 Off ch=10 n=69 v=64
348 On ch=10 n=69 v=58
12 Off ch=10 n=69 v=64
108 On ch=10 n=69 v=50
12 Off ch=10 n=69 v=64
348 On ch=10 n=69 v=58
12 Off ch=10 n=69 v=64
108 On ch=10 n=69 v=38
12 Off ch=10 n=69 v=64
348 On ch=10 n=69 v=56
12 Off ch=10 n=69 v=64
108 On ch=10 n=69 v=52
12 Off ch=10 n=69 v=64
348 On ch=10 n=69 v=62
12 Off ch=10 n=69 v=64
108 On ch=10 n=69 v=52
12 Off ch=10 n=69 v=64
348 On ch=10 n=69 v=64
12 Off ch=10 n=69 v=64
108 On ch=10 n=69 v=52
12 Off ch=10 n=69 v=64
348 On ch=10 n=69 v=62
12 Off ch=10 n=69 v=64
108 On ch=10 n=69 v=50
12 Off ch=10 n=69 v=64
348 On ch=10 n=69 v=64
12 Off ch=10 n=69 v=64
108 On ch=10 n=69 v=48
12 Off ch=10 n=69 v=64
348 On ch=10 n=69 v=58
12 Off ch=10 n=69 v=64
108 On ch=10 n=69 v=48
12 Off ch=10 n=69 v=64
348 On ch=10 n=69 v=62
12 Off ch=10 n=69 v=64
108 On ch=10 n=69 v=50
12 Off ch=10 n=69 v=64
348 On ch=10 n=69 v=58
12 Off ch=10 n=69 v=64
108 On ch=10 n=69 v=50
12 Off ch=10 n=69 v=64
348 On ch=10 n=69 v=56
12 Off ch=10 n=69 v=64
108 On ch=10 n=69 v=52
12 Off ch=10 n=69 v=64
348 On ch=10 n=69 v=52
12 Off ch=10 n=69 v=64
108 On ch=10 n=69 v=50
12 Off ch=10 n=69 v=64
348 On ch=10 n=69 v=58
12 Off ch=10 n=69 v=64
108 On ch=10 n=69 v=56
12 Off ch=10 n=69 v=64
348 On ch=10 n=69 v=56
12 Off ch=10 n=69 v=64
108 On ch=10 n=69 v=52
12 Off ch=10 n=69 v=64
348 On ch=10 n=69 v=56
12 Off ch=10 n=69 v=64
108 On ch=10 n=69 v=50
12 Off ch=10 n=69 v=64
348 On ch=10 n=69 v=56
12 Off ch=10 n=69 v=64
108 On ch=10 n=69 v=48
12 Off ch=10 n=69 v=64
348 On ch=10 n=69 v=56
12 Off ch=10 n=69 v=64
108 On ch=10 n=69 v=48
12 Off ch=10 n=69 v=64
348 On ch=10 n=69 v=56
12 Off ch=10 n=69 v=64
108 On ch=10 n=69 v=52
12 Off ch=10 n=69 v=64
348 On ch=10 n=69 v=58
12 Off ch=10 n=69 v=64
108 On ch=10 n=69 v=52
12 Off ch=10 n=69 v=64
348 On ch=10 n=69 v=56
12 Off ch=10 n=69 v=64
108 On ch=10 n=69 v=48
12 Off ch=10 n=69 v=64
348 On ch=10 n=69 v=56
12 Off ch=10 n=69 v=64
108 On ch=10 n=69 v=56
12 Off ch=10 n=69 v=64
348 On ch=10 n=69 v=56
12 Off ch=10 n=69 v=64
108 On ch=10 n=69 v=48
12 Off ch=10 n=69 v=64
348 On ch=10 n=69 v=58
12 Off ch=10 n=69 v=64
108 On ch=10 n=69 v=52
12 Off ch=10 n=69 v=64
348 On ch=10 n=69 v=56
12 Off ch=10 n=69 v=64
108 On ch=10 n=69 v=52
12 Off ch=10 n=69 v=64
348 On ch=10 n=69 v=58
12 Off ch=10 n=69 v=64
108 On ch=10 n=69 v=48
12 Off ch=10 n=69 v=64
348 On ch=10 n=69 v=52
12 Off ch=10 n=69 v=64
108 On ch=10 n=69 v=50
12 Off ch=10 n=69 v=64
348 On ch=10 n=69 v=62
12 Off ch=10 n=69 v=64
108 On ch=10 n=69 v=52
12 Off ch=10 n=69 v=64
348 On ch=10 n=69 v=52
12 Off ch=10 n=69 v=64
108 On ch=10 n=69 v=48
12 Off ch=10 n=69 v=64
348 On ch=10 n=69 v=62
12 Off ch=10 n=69 v=64
108 On ch=10 n=69 v=52
12 Off ch=10 n=69 v=64
348 On ch=10 n=69 v=52
12 Off ch=10 n=69 v=64
108 On ch=10 n=69 v=58
12 Off ch=10 n=69 v=64
348 On ch=10 n=69 v=46
12 Off ch=10 n=69 v=64
108 On ch=10 n=69 v=52
12 Off ch=10 n=69 v=64
348 On ch=10 n=69 v=56
12 Off ch=10 n=69 v=64
108 On ch=10 n=69 v=52
12 Off ch=10 n=69 v=64
348 On ch=10 n=69 v=56
12 Off ch=10 n=69 v=64
108 On ch=10 n=69 v=50
12 Off ch=10 n=69 v=64
348 On ch=10 n=69 v=52
12 Off ch=10 n=69 v=64
108 On ch=10 n=69 v=48
12 Off ch=10 n=69 v=64
348 On ch=10 n=69 v=50
12 Off ch=10 n=69 v=64
108 On ch=10 n=69 v=46
12 Off ch=10 n=69 v=64
348 On ch=10 n=69 v=52
12 Off ch=10 n=69 v=64
108 On ch=10 n=69 v=46
12 Off ch=10 n=69 v=64
348 On ch=10 n=69 v=52
12 Off ch=10 n=69 v=64
108 On ch=10 n=69 v=50
12 Off ch=10 n=69 v=64
348 On ch=10 n=69 v=52
12 Off ch=10 n=69 v=64
108 On ch=10 n=69 v=50
12 Off ch=10 n=69 v=64
348 On ch=10 n=69 v=58
12 Off ch=10 n=69 v=64
108 On ch=10 n=69 v=50
12 Off ch=10 n=69 v=64
348 On ch=10 n=69 v=50
12 Off ch=10 n=69 v=64
108 On ch=10 n=69 v=56
12 Off ch=10 n=69 v=64
348 On ch=10 n=69 v=52
12 Off ch=10 n=69 v=64
108 On ch=10 n=69 v=58
12 Off ch=10 n=69 v=64
348 On ch=10 n=69 v=50
12 Off ch=10 n=69 v=64
108 On ch=10 n=69 v=52
12 Off ch=10 n=69 v=64
348 On ch=10 n=69 v=56
12 Off ch=10 n=69 v=64
108 On ch=10 n=69 v=52
12 Off ch=10 n=69 v=64
348 On ch=10 n=69 v=56
12 Off ch=10 n=69 v=64
108 On ch=10 n=69 v=56
12 Off ch=10 n=69 v=64
348 On ch=10 n=69 v=58
12 Off ch=10 n=69 v=64
108 On ch=10 n=69 v=52
12 Off ch=10 n=69 v=64
348 On ch=10 n=69 v=58
12 Off ch=10 n=69 v=64
108 On ch=10 n=69 v=52
12 Off ch=10 n=69 v=64
348 On ch=10 n=69 v=56
12 Off ch=10 n=69 v=64
108 On ch=10 n=69 v=56
12 Off ch=10 n=69 v=64
348 On ch=10 n=69 v=64
12 Off ch=10 n=69 v=64
108 On ch=10 n=69 v=56
12 Off ch=10 n=69 v=64
348 On ch=10 n=69 v=58
12 Off ch=10 n=69 v=64
108 On ch=10 n=69 v=52
12 Off ch=10 n=69 v=64
348 On ch=10 n=69 v=58
12 Off ch=10 n=69 v=64
108 On ch=10 n=69 v=50
12 Off ch=10 n=69 v=64
348 On ch=10 n=69 v=56
12 Off ch=10 n=69 v=64
108 On ch=10 n=69 v=48
12 Off ch=10 n=69 v=64
348 On ch=10 n=69 v=64
12 Off ch=10 n=69 v=64
108 On ch=10 n=69 v=56
12 Off ch=10 n=69 v=64
348 On ch=10 n=69 v=56
12 Off ch=10 n=69 v=64
108 On ch=10 n=69 v=50
12 Off ch=10 n=69 v=64
348 On ch=10 n=69 v=56
12 Off ch=10 n=69 v=64
108 On ch=10 n=69 v=48
12 Off ch=10 n=69 v=64
348 On ch=10 n=69 v=58
12 Off ch=10 n=69 v=64
108 On ch=10 n=69 v=50
12 Off ch=10 n=69 v=64
348 On ch=10 n=69 v=64
12 Off ch=10 n=69 v=64
108 On ch=10 n=69 v=52
12 Off ch=10 n=69 v=64
347 On ch=10 n=69 v=62
12 Off ch=10 n=69 v=64
108 On ch=10 n=69 v=50
12 Off ch=10 n=69 v=64
348 On ch=10 n=69 v=56
12 Off ch=10 n=69 v=64
108 On ch=10 n=69 v=48
12 Off ch=10 n=69 v=64
348 On ch=10 n=69 v=58
12 Off ch=10 n=69 v=64
108 On ch=10 n=69 v=48
12 Off ch=10 n=69 v=64
348 On ch=10 n=69 v=58
12 Off ch=10 n=69 v=64
108 On ch=10 n=69 v=52
12 Off ch=10 n=69 v=64
348 On ch=10 n=69 v=56
12 Off ch=10 n=69 v=64
108 On ch=10 n=69 v=50
12 Off ch=10 n=69 v=64
348 On ch=10 n=69 v=64
12 Off ch=10 n=69 v=64
108 On ch=10 n=69 v=56
12 Off ch=10 n=69 v=64
348 On ch=10 n=69 v=66
12 Off ch=10 n=69 v=64
108 On ch=10 n=69 v=48
12 Off ch=10 n=69 v=64
348 On ch=10 n=69 v=62
12 Off ch=10 n=69 v=64
108 On ch=10 n=69 v=50
12 Off ch=10 n=69 v=64
348 On ch=10 n=69 v=62
12 Off ch=10 n=69 v=64
108 On ch=10 n=69 v=48
12 Off ch=10 n=69 v=64
348 On ch=10 n=69 v=52
12 Off ch=10 n=69 v=64
108 On ch=10 n=69 v=46
12 Off ch=10 n=69 v=64
348 On ch=10 n=69 v=56
12 Off ch=10 n=69 v=64
108 On ch=10 n=69 v=50
12 Off ch=10 n=69 v=64
348 On ch=10 n=69 v=66
12 Off ch=10 n=69 v=64
108 On ch=10 n=69 v=56
12 Off ch=10 n=69 v=64
348 On ch=10 n=69 v=66
12 Off ch=10 n=69 v=64
108 On ch=10 n=69 v=56
12 Off ch=10 n=69 v=64
348 On ch=10 n=69 v=58
12 Off ch=10 n=69 v=64
108 On ch=10 n=69 v=46
12 Off ch=10 n=69 v=64
348 On ch=10 n=69 v=66
12 Off ch=10 n=69 v=64
108 On ch=10 n=69 v=50
12 Off ch=10 n=69 v=64
348 On ch=10 n=69 v=62
12 Off ch=10 n=69 v=64
108 On ch=10 n=69 v=52
12 Off ch=10 n=69 v=64
348 On ch=10 n=69 v=66
12 Off ch=10 n=69 v=64
108 On ch=10 n=69 v=56
12 Off ch=10 n=69 v=64
348 On ch=10 n=69 v=66
12 Off ch=10 n=69 v=64
108 On ch=10 n=69 v=50
12 Off ch=10 n=69 v=64
348 On ch=10 n=69 v=62
12 Off ch=10 n=69 v=64
108 On ch=10 n=69 v=52
12 Off ch=10 n=69 v=64
348 On ch=10 n=69 v=56
12 Off ch=10 n=69 v=64
108 On ch=10 n=69 v=48
12 Off ch=10 n=69 v=64
348 On ch=10 n=69 v=66
12 Off ch=10 n=69 v=64
108 On ch=10 n=69 v=56
12 Off ch=10 n=69 v=64
348 On ch=10 n=69 v=64
12 Off ch=10 n=69 v=64
108 On ch=10 n=69 v=52
12 Off ch=10 n=69 v=64
348 On ch=10 n=69 v=62
12 Off ch=10 n=69 v=64
108 On ch=10 n=69 v=50
12 Off ch=10 n=69 v=64
348 On ch=10 n=69 v=62
12 Off ch=10 n=69 v=64
108 On ch=10 n=69 v=50
12 Off ch=10 n=69 v=64
348 On ch=10 n=69 v=64
12 Off ch=10 n=69 v=64
108 On ch=10 n=69 v=48
12 Off ch=10 n=69 v=64
348 On ch=10 n=69 v=58
12 Off ch=10 n=69 v=64
108 On ch=10 n=69 v=52
12 Off ch=10 n=69 v=64
348 On ch=10 n=69 v=62
12 Off ch=10 n=69 v=64
108 On ch=10 n=69 v=50
12 Off ch=10 n=69 v=64
348 On ch=10 n=69 v=62
12 Off ch=10 n=69 v=64
108 On ch=10 n=69 v=50
12 Off ch=10 n=69 v=64
348 On ch=10 n=69 v=66
12 Off ch=10 n=69 v=64
108 On ch=10 n=69 v=58
12 Off ch=10 n=69 v=64
0 Meta TrkEnd
TrkEnd
MTrk
TimestampType=Delta
0 Meta Text "RIDE "
166696 On ch=10 n=59 v=109
96 Off ch=10 n=59 v=64
376 On ch=10 n=59 v=116
103 Off ch=10 n=59 v=64
369 On ch=10 n=59 v=114
100 Off ch=10 n=59 v=64
361 On ch=10 n=59 v=109
114 Off ch=10 n=59 v=64
374 On ch=10 n=59 v=114
113 Off ch=10 n=59 v=64
364 On ch=10 n=59 v=109
105 Off ch=10 n=59 v=64
372 On ch=10 n=59 v=106
105 Off ch=10 n=59 v=64
377 On ch=10 n=59 v=112
85 Off ch=10 n=59 v=64
51 On ch=10 n=59 v=98
85 Off ch=10 n=59 v=64
266 On ch=10 n=59 v=114
100 Off ch=10 n=59 v=64
385 On ch=10 n=59 v=106
105 Off ch=10 n=59 v=64
369 On ch=10 n=59 v=116
100 Off ch=10 n=59 v=64
372 On ch=10 n=59 v=114
105 Off ch=10 n=59 v=64
397 On ch=10 n=59 v=122
101 Off ch=10 n=59 v=64
369 On ch=10 n=59 v=106
123 Off ch=10 n=59 v=64
361 On ch=10 n=59 v=114
114 Off ch=10 n=59 v=64
361 On ch=10 n=59 v=112
105 Off ch=10 n=59 v=64
377 On ch=10 n=59 v=109
100 Off ch=10 n=59 v=64
371 On ch=10 n=59 v=116
114 Off ch=10 n=59 v=64
353 On ch=10 n=59 v=109
77 Off ch=10 n=59 v=64
55 On ch=10 n=59 v=95
118 Off ch=10 n=59 v=64
250 On ch=10 n=59 v=116
70 Off ch=10 n=59 v=64
56 On ch=10 n=59 v=95
80 Off ch=10 n=59 v=64
29 On ch=10 n=59 v=86
100 Off ch=10 n=59 v=64
150 On ch=10 n=59 v=116
87 Off ch=10 n=59 v=64
385 On ch=10 n=59 v=114
82 Off ch=10 n=59 v=64
392 On ch=10 n=59 v=114
95 Off ch=10 n=59 v=64
379 On ch=10 n=59 v=114
103 Off ch=10 n=59 v=64
390 On ch=10 n=59 v=116
77 Off ch=10 n=59 v=64
52 On ch=10 n=59 v=95
95 Off ch=10 n=59 v=64
253 On ch=10 n=59 v=114
74 Off ch=10 n=59 v=64
165 On ch=10 n=59 v=114
83 Off ch=10 n=59 v=64
162 On ch=10 n=59 v=88
65 Off ch=10 n=59 v=64
386 On ch=10 n=59 v=121
60 Off ch=10 n=59 v=64
242 On ch=10 n=59 v=127
36 Off ch=10 n=59 v=64
307 On ch=10 n=59 v=1
118 Off ch=10 n=59 v=64
0 Meta TrkEnd
TrkEnd
MTrk
TimestampType=Delta
0 Meta Text "CRASH CYMBAL"
4193 On ch=10 n=49 v=109
3 On ch=10 n=57 v=104
7 Off ch=10 n=49 v=64
3 Off ch=10 n=57 v=64
15347 On ch=10 n=49 v=105
10 Off ch=10 n=49 v=64
3 On ch=10 n=57 v=103
10 Off ch=10 n=57 v=64
2837 On ch=10 n=57 v=105
10 Off ch=10 n=57 v=64
680 On ch=10 n=49 v=100
10 Off ch=10 n=49 v=64
268 On ch=10 n=49 v=100
10 Off ch=10 n=49 v=64
2735 On ch=10 n=57 v=81
10 Off ch=10 n=57 v=64
69 On ch=10 n=52 v=97
10 Off ch=10 n=52 v=64
53 On ch=10 n=49 v=98
10 Off ch=10 n=49 v=64
2827 On ch=10 n=49 v=105
10 Off ch=10 n=49 v=64
742 On ch=10 n=57 v=94
10 Off ch=10 n=57 v=64
255 On ch=10 n=49 v=89
10 Off ch=10 n=49 v=64
2843 On ch=10 n=57 v=112
10 Off ch=10 n=57 v=64
11527 On ch=10 n=49 v=105
5 On ch=10 n=57 v=102
5 Off ch=10 n=49 v=64
5 Off ch=10 n=57 v=64
7636 On ch=10 n=49 v=105
10 Off ch=10 n=49 v=64
2900 On ch=10 n=57 v=103
10 Off ch=10 n=57 v=64
674 On ch=10 n=49 v=94
10 Off ch=10 n=49 v=64
253 On ch=10 n=49 v=97
10 Off ch=10 n=49 v=64
2779 On ch=10 n=49 v=87
10 Off ch=10 n=49 v=64
87 On ch=10 n=57 v=99
10 Off ch=10 n=57 v=64
2856 On ch=10 n=52 v=97
6 On ch=10 n=57 v=98
4 Off ch=10 n=52 v=64
6 Off ch=10 n=57 v=64
687 On ch=10 n=52 v=88
8 On ch=10 n=49 v=87
2 Off ch=10 n=52 v=64
8 Off ch=10 n=49 v=64
236 On ch=10 n=52 v=86
6 On ch=10 n=49 v=83
4 Off ch=10 n=52 v=64
6 Off ch=10 n=49 v=64
2855 On ch=10 n=49 v=86
10 Off ch=10 n=49 v=64
7710 On ch=10 n=52 v=94
10 Off ch=10 n=52 v=64
5719 On ch=10 n=49 v=100
10 Off ch=10 n=49 v=64
15336 On ch=10 n=52 v=127
1408 Off ch=10 n=52 v=64
32218 On ch=10 n=49 v=92
2 On ch=10 n=57 v=105
8 Off ch=10 n=49 v=64
2 Off ch=10 n=57 v=64
2868 On ch=10 n=57 v=89
10 Off ch=10 n=57 v=64
696 On ch=10 n=49 v=68
10 Off ch=10 n=49 v=64
247 On ch=10 n=49 v=78
10 Off ch=10 n=49 v=64
2866 On ch=10 n=52 v=92
5 On ch=10 n=49 v=76
5 Off ch=10 n=52 v=64
5 Off ch=10 n=49 v=64
2872 On ch=10 n=49 v=74
10 Off ch=10 n=49 v=64
21 On ch=10 n=57 v=60
10 Off ch=10 n=57 v=64
669 On ch=10 n=57 v=78
10 Off ch=10 n=57 v=64
260 On ch=10 n=57 v=86
10 Off ch=10 n=57 v=64
2830 On ch=10 n=52 v=86
3 On ch=10 n=49 v=79
7 Off ch=10 n=52 v=64
3 Off ch=10 n=49 v=64
3852 On ch=10 n=52 v=86
10 Off ch=10 n=52 v=64
7648 On ch=10 n=49 v=87
10 Off ch=10 n=49 v=64
14 On ch=10 n=57 v=86
10 Off ch=10 n=57 v=64
2854 On ch=10 n=57 v=94
10 Off ch=10 n=57 v=64
690 On ch=10 n=57 v=87
10 Off ch=10 n=57 v=64
254 On ch=10 n=49 v=86
10 Off ch=10 n=49 v=64
2877 On ch=10 n=49 v=70
10 Off ch=10 n=49 v=64
2895 On ch=10 n=49 v=76
8 On ch=10 n=57 v=74
2 Off ch=10 n=49 v=64
8 Off ch=10 n=57 v=64
654 On ch=10 n=49 v=83
10 Off ch=10 n=49 v=64
244 On ch=10 n=49 v=89
10 Off ch=10 n=49 v=64
2861 On ch=10 n=49 v=87
10 Off ch=10 n=49 v=64
32 On ch=10 n=57 v=87
10 Off ch=10 n=57 v=64
13407 On ch=10 n=57 v=100
10 Off ch=10 n=57 v=64
281 On ch=10 n=57 v=1
10 Off ch=10 n=57 v=64
0 Meta TrkEnd
TrkEnd
MTrk
TimestampType=Delta
0 Meta Text "CONGAS"
79301 On ch=10 n=62 v=116
111 Off ch=10 n=62 v=64
371 On ch=10 n=64 v=92
54 Off ch=10 n=64 v=64
64 On ch=10 n=64 v=113
85 Off ch=10 n=64 v=64
275 On ch=10 n=62 v=110
119 Off ch=10 n=62 v=64
360 On ch=10 n=64 v=76
54 Off ch=10 n=64 v=64
65 On ch=10 n=64 v=97
85 Off ch=10 n=64 v=64
277 On ch=10 n=62 v=125
119 Off ch=10 n=62 v=64
361 On ch=10 n=64 v=69
44 Off ch=10 n=64 v=64
74 On ch=10 n=64 v=113
85 Off ch=10 n=64 v=64
276 On ch=10 n=62 v=114
131 Off ch=10 n=62 v=64
349 On ch=10 n=64 v=92
67 Off ch=10 n=64 v=64
53 On ch=10 n=64 v=110
93 Off ch=10 n=64 v=64
269 On ch=10 n=63 v=110
85 Off ch=10 n=63 v=64
393 On ch=10 n=64 v=78
49 Off ch=10 n=64 v=64
70 On ch=10 n=64 v=107
83 Off ch=10 n=64 v=64
281 On ch=10 n=63 v=127
93 Off ch=10 n=63 v=64
387 On ch=10 n=64 v=78
54 Off ch=10 n=64 v=64
64 On ch=10 n=64 v=110
83 Off ch=10 n=64 v=64
279 On ch=10 n=63 v=125
91 Off ch=10 n=63 v=64
388 On ch=10 n=64 v=92
67 Off ch=10 n=64 v=64
52 On ch=10 n=64 v=101
85 Off ch=10 n=64 v=64
275 On ch=10 n=63 v=125
93 Off ch=10 n=63 v=64
386 On ch=10 n=64 v=97
74 Off ch=10 n=64 v=64
46 On ch=10 n=64 v=110
88 Off ch=10 n=64 v=64
274 On ch=10 n=62 v=114
106 Off ch=10 n=62 v=64
374 On ch=10 n=64 v=107
68 Off ch=10 n=64 v=64
50 On ch=10 n=64 v=114
80 Off ch=10 n=64 v=64
281 On ch=10 n=62 v=122
106 Off ch=10 n=62 v=64
373 On ch=10 n=64 v=95
59 Off ch=10 n=64 v=64
60 On ch=10 n=64 v=95
80 Off ch=10 n=64 v=64
280 On ch=10 n=62 v=122
124 Off ch=10 n=62 v=64
355 On ch=10 n=64 v=107
70 Off ch=10 n=64 v=64
50 On ch=10 n=64 v=95
78 Off ch=10 n=64 v=64
284 On ch=10 n=62 v=127
116 Off ch=10 n=62 v=64
364 On ch=10 n=64 v=82
59 Off ch=10 n=64 v=64
60 On ch=10 n=64 v=116
72 Off ch=10 n=64 v=64
291 On ch=10 n=63 v=127
93 Off ch=10 n=63 v=64
386 On ch=10 n=64 v=110
59 Off ch=10 n=64 v=64
61 On ch=10 n=64 v=114
79 Off ch=10 n=64 v=64
282 On ch=10 n=63 v=127
93 Off ch=10 n=63 v=64
387 On ch=10 n=64 v=113
59 Off ch=10 n=64 v=64
60 On ch=10 n=64 v=113
85 Off ch=10 n=64 v=64
276 On ch=10 n=63 v=125
83 Off ch=10 n=63 v=64
398 On ch=10 n=64 v=76
36 Off ch=10 n=64 v=64
81 On ch=10 n=64 v=110
80 Off ch=10 n=64 v=64
282 On ch=10 n=63 v=127
101 Off ch=10 n=63 v=64
377 On ch=10 n=64 v=107
59 Off ch=10 n=64 v=64
61 On ch=10 n=64 v=101
77 Off ch=10 n=64 v=64
286 On ch=10 n=62 v=127
118 Off ch=10 n=62 v=64
361 On ch=10 n=64 v=107
61 Off ch=10 n=64 v=64
59 On ch=10 n=64 v=107
74 Off ch=10 n=64 v=64
287 On ch=10 n=62 v=127
103 Off ch=10 n=62 v=64
374 On ch=10 n=64 v=113
60 Off ch=10 n=64 v=64
60 On ch=10 n=64 v=107
75 Off ch=10 n=64 v=64
285 On ch=10 n=62 v=125
108 Off ch=10 n=62 v=64
371 On ch=10 n=64 v=99
65 Off ch=10 n=64 v=64
55 On ch=10 n=64 v=101
78 Off ch=10 n=64 v=64
283 On ch=10 n=62 v=122
106 Off ch=10 n=62 v=64
373 On ch=10 n=64 v=95
57 Off ch=10 n=64 v=64
62 On ch=10 n=64 v=114
80 Off ch=10 n=64 v=64
284 On ch=10 n=63 v=127
95 Off ch=10 n=63 v=64
385 On ch=10 n=64 v=97
57 Off ch=10 n=64 v=64
63 On ch=10 n=64 v=110
77 Off ch=10 n=64 v=64
285 On ch=10 n=63 v=127
85 Off ch=10 n=63 v=64
396 On ch=10 n=64 v=99
56 Off ch=10 n=64 v=64
63 On ch=10 n=64 v=110
77 Off ch=10 n=64 v=64
282 On ch=10 n=62 v=125
93 Off ch=10 n=62 v=64
385 On ch=10 n=64 v=110
57 Off ch=10 n=64 v=64
62 On ch=10 n=64 v=122
82 Off ch=10 n=64 v=64
279 On ch=10 n=62 v=122
103 Off ch=10 n=62 v=64
375 On ch=10 n=64 v=107
62 Off ch=10 n=64 v=64
58 On ch=10 n=64 v=110
75 Off ch=10 n=64 v=64
288 On ch=10 n=63 v=127
82 Off ch=10 n=63 v=64
396 On ch=10 n=64 v=114
60 Off ch=10 n=64 v=64
60 On ch=10 n=64 v=114
75 Off ch=10 n=64 v=64
285 On ch=10 n=62 v=125
91 Off ch=10 n=62 v=64
388 On ch=10 n=64 v=116
57 Off ch=10 n=64 v=64
63 On ch=10 n=64 v=101
77 Off ch=10 n=64 v=64
284 On ch=10 n=62 v=121
98 Off ch=10 n=62 v=64
381 On ch=10 n=64 v=107
54 Off ch=10 n=64 v=64
65 On ch=10 n=64 v=116
75 Off ch=10 n=64 v=64
287 On ch=10 n=62 v=127
116 Off ch=10 n=62 v=64
364 On ch=10 n=64 v=110
59 Off ch=10 n=64 v=64
61 On ch=10 n=64 v=107
77 Off ch=10 n=64 v=64
284 On ch=10 n=62 v=127
127 Off ch=10 n=62 v=64
354 On ch=10 n=64 v=114
62 Off ch=10 n=64 v=64
57 On ch=10 n=64 v=116
78 Off ch=10 n=64 v=64
282 On ch=10 n=62 v=127
155 Off ch=10 n=62 v=64
324 On ch=10 n=64 v=99
49 Off ch=10 n=64 v=64
70 On ch=10 n=64 v=116
83 Off ch=10 n=64 v=64
278 On ch=10 n=63 v=127
98 Off ch=10 n=63 v=64
384 On ch=10 n=64 v=107
54 Off ch=10 n=64 v=64
65 On ch=10 n=64 v=114
83 Off ch=10 n=64 v=64
277 On ch=10 n=63 v=127
98 Off ch=10 n=63 v=64
381 On ch=10 n=64 v=101
49 Off ch=10 n=64 v=64
70 On ch=10 n=64 v=121
83 Off ch=10 n=64 v=64
280 On ch=10 n=62 v=125
111 Off ch=10 n=62 v=64
369 On ch=10 n=64 v=107
51 Off ch=10 n=64 v=64
69 On ch=10 n=64 v=110
75 Off ch=10 n=64 v=64
284 On ch=10 n=62 v=127
116 Off ch=10 n=62 v=64
364 On ch=10 n=64 v=122
54 Off ch=10 n=64 v=64
66 On ch=10 n=64 v=116
74 Off ch=10 n=64 v=64
287 On ch=10 n=63 v=127
103 Off ch=10 n=63 v=64
378 On ch=10 n=64 v=125
59 Off ch=10 n=64 v=64
62 On ch=10 n=64 v=113
82 Off ch=10 n=64 v=64
276 On ch=10 n=63 v=127
100 Off ch=10 n=63 v=64
378 On ch=10 n=64 v=125
57 Off ch=10 n=64 v=64
63 On ch=10 n=64 v=125
70 Off ch=10 n=64 v=64
293 On ch=10 n=62 v=127
105 Off ch=10 n=62 v=64
374 On ch=10 n=64 v=122
52 Off ch=10 n=64 v=64
68 On ch=10 n=64 v=122
83 Off ch=10 n=64 v=64
277 On ch=10 n=62 v=127
121 Off ch=10 n=62 v=64
358 On ch=10 n=64 v=114
57 Off ch=10 n=64 v=64
62 On ch=10 n=64 v=125
83 Off ch=10 n=64 v=64
277 On ch=10 n=63 v=127
95 Off ch=10 n=63 v=64
385 On ch=10 n=64 v=125
54 Off ch=10 n=64 v=64
65 On ch=10 n=64 v=125
80 Off ch=10 n=64 v=64
280 On ch=10 n=63 v=127
103 Off ch=10 n=63 v=64
377 On ch=10 n=64 v=110
51 Off ch=10 n=64 v=64
69 On ch=10 n=64 v=125
82 Off ch=10 n=64 v=64
281 On ch=10 n=62 v=125
116 Off ch=10 n=62 v=64
363 On ch=10 n=64 v=125
59 Off ch=10 n=64 v=64
61 On ch=10 n=64 v=122
85 Off ch=10 n=64 v=64
278 On ch=10 n=62 v=127
116 Off ch=10 n=62 v=64
361 On ch=10 n=64 v=114
54 Off ch=10 n=64 v=64
65 On ch=10 n=64 v=121
85 Off ch=10 n=64 v=64
0 Meta TrkEnd
TrkEnd